<?xml version="1.0" encoding="UTF-8"?>
<svg id="Layer_2" data-name="Layer 2" xmlns="http://www.w3.org/2000/svg" viewBox="0 0 129.21 142.17">
  <defs>
    <style>
      .cls-1 {
        fill: #f1f0be;
      }

      .cls-1, .cls-2, .cls-3, .cls-4, .cls-5, .cls-6 {
        stroke-width: 0px;
      }

      .cls-7 {
        fill: none;
        stroke: #ffc7a9;
        stroke-miterlimit: 10;
        stroke-width: 1.23px;
      }

      .cls-2 {
        fill: #b0c43e;
      }

      .cls-3 {
        fill: #fff;
      }

      .cls-4 {
        fill: #f7e977;
      }

      .cls-5 {
        fill: #342f1c;
      }

      .cls-6 {
        fill: #5b7c2b;
      }
    </style>
  </defs>
  <g id="Output_copy" data-name="Output copy">
    <g>
      <path class="cls-3" d="m97.69,142.17H31.17c-17.19,0-31.17-13.93-31.17-31.04V31.79c0-1.54.12-3.09.35-4.64v-6.53C.35,9.25,9.64,0,21.05,0h87.46c11.41,0,20.7,9.25,20.7,20.61v87.1c0,1.28-.12,2.55-.36,3.81-.22,16.93-14.12,30.65-31.17,30.65ZM21.05,7.61c-7.2,0-13.06,5.83-13.06,13v7.14l-.05.3c-.2,1.25-.31,2.5-.31,3.74v79.33c0,12.92,10.56,23.43,23.53,23.43h66.51c12.97,0,23.52-10.51,23.53-23.42v-.39l.08-.38c.18-.87.27-1.76.27-2.64V20.61c0-7.17-5.86-13-13.06-13H21.05Z"/>
      <g>
        <g>
          <rect class="cls-6" x="7.19" y="7.78" width="114.85" height="127.31" rx="21.07" ry="21.07"/>
          <g>
            <rect class="cls-2" x="7.19" y="7.78" width="114.85" height="114.85" rx="13" ry="13"/>
            <path class="cls-7" d="m122.04,106.64c0,8.8-7.2,15.99-15.99,15.99H23.18c-8.8,0-15.99-7.2-15.99-15.99"/>
            <path class="cls-1" d="m111.95,28.55v73.35c0,1.04-.16,2.04-.45,2.99-.65,2.09-1.97,3.9-3.7,5.16-1.67,1.23-3.74,1.96-5.96,1.96H28.48c-1.87,0-3.62-.51-5.13-1.41-1.88-1.11-3.37-2.82-4.21-4.85-.5-1.19-.77-2.49-.77-3.85V28.55c0-2.19.71-4.22,1.9-5.88,1.18-1.65,2.85-2.93,4.78-3.63,1.07-.39,2.22-.6,3.42-.6h73.35c1.38,0,2.69.28,3.88.78,1.85.77,3.42,2.08,4.52,3.73,1.08,1.61,1.71,3.53,1.71,5.6Z"/>
          </g>
        </g>
        <path class="cls-2" d="m65.17,13.76c-2.39,0-4.77,0-7.16,0-3.01,0-6.02,0-9.03,0-3.01,0-6.02,0-9.03,0-2.66,0-5.33,0-7.99,0,.21,1.54.42,3.08.63,4.62,7.53-.07,15.58.31,21.68,4.73,2.48,1.8,4.5,4.19,7.01,5.94,1.14.8,2.43,1.47,3.82,1.52,1.54.06,3.02-.67,4.23-1.62s2.22-2.14,3.34-3.2c3.24-3.09,7.38-5.15,11.72-6.27s8.86-1.34,13.33-1.08c.1-.75.2-1.49.31-2.24.05-.37.1-.75.15-1.12s.16-.76.15-1.12c0-.21-.05-.17-.27-.17-.2,0-.39,0-.59,0h-1.13c-.75,0-1.5,0-2.26,0-3.01,0-6.02,0-9.03,0-3.01,0-6.02,0-9.03,0-3.01,0-6.02,0-9.03,0-.62,0-1.24,0-1.87,0Z"/>
        <g>
          <path class="cls-4" d="m38.75,68.5c1.5-6.37,8.1-16.84,12.91-15.71,4.82,1.14,6.03,13.45,4.53,19.82-1.5,6.37-6.81,6.06-10.44,5.21-3.63-.86-8.51-2.95-7.01-9.32Z"/>
          <path class="cls-5" d="m44.24,62.79c1-4.25,5.27-11.28,8.32-10.57,3.05.72,3.72,8.92,2.72,13.17-1,4.25-4.37,4.09-6.66,3.55s-5.38-1.9-4.37-6.15Z"/>
          <path class="cls-4" d="m91.58,68.5c-1.5-6.37-8.1-16.84-12.91-15.71s-6.03,13.45-4.53,19.82c1.5,6.37,6.81,6.06,10.44,5.21,3.63-.86,8.51-2.95,7.01-9.32Z"/>
          <path class="cls-5" d="m86.08,62.79c-1-4.25-5.27-11.28-8.32-10.57-3.05.72-3.72,8.92-2.72,13.17,1,4.25,4.37,4.09,6.66,3.55s5.38-1.9,4.37-6.15Z"/>
        </g>
        <ellipse class="cls-5" cx="64.61" cy="110.27" rx="6.98" ry="5.73"/>
      </g>
    </g>
  </g>
</svg>