<?xml version="1.0" encoding="utf-8"?>
<!-- Generator: Adobe Illustrator 28.3.0, SVG Export Plug-In . SVG Version: 6.00 Build 0)  -->
<svg version="1.1" id="Layer_1" xmlns="http://www.w3.org/2000/svg" xmlns:xlink="http://www.w3.org/1999/xlink" x="0px" y="0px"
	 viewBox="0 0 549.9 610" style="enable-background:new 0 0 549.9 610;" xml:space="preserve">
<style type="text/css">
	.st0{enable-background:new    ;}
	.st1{fill:#FFFBFF;}
	.st2{fill:#040E09;}
	.st3{fill:#FFC6C5;}
	.st4{fill:#CC4627;}
	.st5{fill:#FF9F45;}
	.st6{fill:#FFFFFF;}
	.st7{fill:#B36BEE;}
	.st8{fill:#41217B;}
	.st9{fill:#002846;}
	.st10{fill:#0086F8;}
	.st11{fill:#FF8981;}
	.st12{fill:#7A0036;}
	.st13{opacity:0.56;}
	.st14{fill:none;}
</style>
<g class="st0">
	<g id="Layer_2_00000182494796630615654140000001497666489362233017_">
		<g id="Output_copy">
			<g>
				<g>
					<g>
						<path class="st1" d="M295.6,371.7c0,0,38.3,5.2,80.1-18.9c31.2-18,31.3-43.1,42.8-41.6c27.1,3.5,13,32.2,4.3,46.8
							c-12.7,21.4-30.9,36.4-54.4,45.6c-26.1,10.3-57.2,17.8-85.1,18.6L295.6,371.7L295.6,371.7z"/>
						<path class="st2" d="M281.8,423.5l12.9-53.2l1.1,0.1c0.4,0.1,38.4,4.8,79.4-18.7c17.1-9.9,24.6-21.8,30.1-30.5
							c4.4-7,7.6-12,13.4-11.2c7.7,1,12.8,4,15.2,9.1c4,8.2,0.6,21.5-10,39.5c-12.6,21.2-31.1,36.7-55,46.1
							c-28.2,11.1-59.3,17.9-85.5,18.7L281.8,423.5L281.8,423.5z M296.5,373l-11.6,48c25.5-1,55.7-7.7,83.1-18.5
							c23.8-9.4,41.4-24.1,53.8-45.1c12.7-21.5,12.4-32.1,9.9-37.2c-2.1-4.2-6.6-6.8-13.4-7.7c-4.1-0.6-6.5,2.9-11.1,10.1
							c-5.6,8.9-13.3,21.1-31,31.3C338.5,375.6,303.1,373.6,296.5,373L296.5,373z"/>
					</g>
					<g>
						<path class="st1" d="M198.1,378.5c0,0-74.3-20.8-108.1,16.4C56.2,432,77.3,457.6,122.2,469l33.1-11.7c0,0-37.1-20.2-19.6-33.1
							s73.4,0,73.4,0l-9.2-43.2"/>
						<path class="st2" d="M122.3,470.2l-0.4-0.1c-27.3-6.9-44.1-18.4-48.6-33.3c-3.8-12.7,1.5-27.1,15.8-42.8
							c33.9-37.3,108.6-16.9,109.3-16.7c0.6,0.2,1,0.8,0.8,1.5c-0.2,0.6-0.8,1-1.5,0.8s-74-20.1-106.9,16
							c-13.7,15-18.8,28.6-15.2,40.4c4.2,13.9,20.3,24.8,46.5,31.5l30.3-10.7c-6.1-3.6-21.9-14.1-22.6-24.2
							c-0.3-3.7,1.5-6.9,5.1-9.7c16.1-11.9,62.6-2.8,72.6-0.6l-8.8-41.4c-0.1-0.7,0.3-1.3,0.9-1.4c0.7-0.1,1.3,0.3,1.4,0.9l9.6,45.1
							l-1.9-0.4c-0.6-0.1-55.6-12.6-72.5-0.2c-3,2.2-4.4,4.7-4.2,7.5c0.7,10.9,23.4,23.4,23.7,23.6l2.4,1.3L122.3,470.2L122.3,470.2
							z"/>
					</g>
					<g>
						<path class="st1" d="M320.4,454.7c11.5,64.4,25.8,119.2-81.2,119.2s-90.3-54.2-81.2-119.2c8.9-63.2,36.3-119.2,81.2-119.2
							S307,379.7,320.4,454.7L320.4,454.7z"/>
						<path class="st2" d="M239.2,575.1c-39,0-64.3-7.3-77.3-22.5c-16.8-19.5-12.3-49.3-7.1-83.8c0.7-4.7,1.4-9.4,2.1-14.3
							c8.1-58.1,34.1-120.2,82.4-120.2c42.1,0,67.5,37.1,82.4,120.2c0.5,2.6,0.9,5.1,1.4,7.6c6.7,36.8,12.4,68.6-5,89.6
							C304.8,567.4,279,575.1,239.2,575.1L239.2,575.1z M239.2,336.8c-46.8,0-72,61-80,118.1c-0.7,4.8-1.4,9.6-2.1,14.3
							c-5.1,33.9-9.5,63.2,6.6,81.9c12.5,14.5,37.2,21.6,75.5,21.6s64.2-7.4,76.8-22.6c16.7-20.1,11.1-51.3,4.5-87.6
							c-0.5-2.5-0.9-5.1-1.4-7.6C304.6,373.2,279.9,336.8,239.2,336.8L239.2,336.8z"/>
					</g>
					<g>
						<ellipse class="st3" cx="239.7" cy="446.9" rx="55.9" ry="83.8"/>
						<path class="st2" d="M239.7,531.9c-31.5,0-57.1-38.2-57.1-85.1s25.6-85.1,57.1-85.1s57.1,38.2,57.1,85.1
							S271.2,531.9,239.7,531.9L239.7,531.9z M239.7,364.3c-30.1,0-54.7,37.1-54.7,82.6s24.5,82.6,54.7,82.6s54.7-37.1,54.7-82.6
							S269.9,364.3,239.7,364.3L239.7,364.3z"/>
					</g>
					<g>
						<g>
							<path class="st3" d="M412.7,325.2c0,0-11-3.6-8.5-17.3c2.5-13.7,32.9-7.7,40.3,1.6C451,317.8,445.4,340,412.7,325.2
								L412.7,325.2z"/>
							<path class="st2" d="M431.8,331.4c-4.9,0-11.3-1.4-19.5-5.1c-1-0.4-11.8-4.7-9.2-18.7c0.8-4.2,3.9-7.1,9-8.3
								c10.6-2.6,27.8,2.2,33.5,9.4c3.2,4.1,4,11.5-0.3,17C443.1,328.3,439.2,331.4,431.8,331.4L431.8,331.4z M418.3,301
								c-2.1,0-4,0.2-5.8,0.6c-4.2,1-6.6,3.2-7.2,6.4c-2.2,12.5,7.3,15.8,7.7,15.9h0.1c14.1,6.4,25.1,6.5,30,0.2
								c3.5-4.4,2.9-10.7,0.3-14C439.4,305,427.7,301,418.3,301L418.3,301z"/>
						</g>
						<g>
							<path class="st3" d="M411,305.4c0,0-17.6-9.7-13.4-30.8c4.2-21,4.5-32.7,11.8-36.8s13.9-4.4,13.9-4.4s2.2-6.2,1.6-25.7
								s5.2-32.5,16.9-31.4c11.6,1.1,21.3,19.1,9.2,55.5c0,0,7.2-6.4,16.1-2.2s9.2,16.1,9.2,16.1s12.1-10.4,18.2-23.6
								c6.1-13.2,17.5-20.1,25-11.7c9.8,10.9-0.1,37.4-35.4,59.2c0,0-3.4,24.8-19.4,37.7C448.6,320.2,419.6,309.1,411,305.4
								L411,305.4z"/>
							<path class="st2" d="M444.7,314.6c-13.2,0-27-5-34.1-8l-0.1-0.1c-0.2-0.1-18.4-10.4-14-32.1c0.9-4.4,1.6-8.5,2.2-12.1
								c2.4-13.7,3.9-22,10.2-25.5c6-3.4,11.4-4.3,13.5-4.5c0.5-2.1,1.8-9.2,1.3-24.6c-0.4-13.7,2.3-24.1,7.7-29.1
								c2.9-2.7,6.4-3.9,10.5-3.5c4.4,0.4,8.3,3,11.1,7.3c3.7,5.7,8.5,19.3,0.2,46.5c3.1-1.6,8.4-3.2,14.4-0.4
								c7,3.3,9,10.7,9.6,14.7c3.5-3.4,11.6-11.7,16.1-21.6c4.1-8.9,10.5-15,16.8-16c3.8-0.6,7.4,0.8,10.2,3.9
								c3.2,3.6,4.5,8.6,3.6,14.6c-2.2,15.1-16.7,32.3-38.9,46.1c-0.6,3.9-4.7,25.8-19.8,37.9C459.6,312.9,452.3,314.6,444.7,314.6
								L444.7,314.6z M411.6,304.4c10.9,4.6,37.6,13.9,52.3,2.1c15.5-12.4,18.9-36.7,18.9-36.9l0.1-0.6l0.5-0.3
								c25.7-15.9,36.6-33.5,38.2-44.7c0.7-5.2-0.3-9.6-3-12.6c-2.3-2.6-5-3.6-8.1-3.2c-5.5,0.8-11.2,6.4-15,14.6
								c-6.1,13.3-18,23.6-18.5,24l-2,1.7l-0.1-2.6c0-0.1-0.3-11.3-8.4-15.1s-14.5,1.8-14.8,2l-3.4,2.9l1.4-4.2
								c6.9-20.8,7.3-38.2,1.1-47.7c-2.4-3.7-5.7-5.9-9.3-6.2c-3.3-0.3-6.2,0.6-8.6,2.8c-4.9,4.6-7.4,14.3-7,27.3
								c0.6,19.5-1.5,25.9-1.6,26.2l-0.3,0.8h-0.8c-0.1,0-6.4,0.3-13.3,4.2c-5.3,3-6.7,10.8-9,23.8c-0.6,3.6-1.4,7.7-2.2,12.1
								C394.9,294.4,410.3,303.7,411.6,304.4L411.6,304.4z"/>
						</g>
						<path class="st2" d="M455.1,280.1c-4.2,0-7.7-1.7-9.9-3.8c-4.7-4.4-2.6-11.3-2.5-11.6c0.2-0.6,0.9-1,1.5-0.8s1,0.9,0.8,1.5
							c0,0.1-1.7,5.8,1.9,9.1c3.2,3,11.4,6.3,19.8-2.5c8-8.3,9.2-26.9,9.3-27c0-0.7,0.6-1.2,1.3-1.1c0.7,0,1.2,0.6,1.1,1.3
							c0,0.8-1.4,19.7-9.9,28.6C463.9,278.4,459.2,280.1,455.1,280.1L455.1,280.1z"/>
						<path class="st2" d="M443.9,265.5c-1.2,0-2.5-0.1-3.9-0.4c-7.6-1.5-12.9-3.4-16.7-4.8c-3.1-1.1-5.3-1.9-6.5-1.6
							c-0.6,0.2-1.3-0.2-1.5-0.8c-0.2-0.6,0.2-1.3,0.8-1.5c2-0.6,4.2,0.2,8,1.6c3.7,1.4,8.9,3.2,16.3,4.7c5.1,1,9.7-0.2,13.2-3.4
							c4-3.7,6.4-10.2,5.8-15.7c-0.3-2.8-1.3-4.9-3-6.2c-2.3-1.9-6.1-2.4-11.4-1.8c-6.8,0.8-21.3-0.9-21.9-1
							c-0.7-0.1-1.1-0.7-1.1-1.4c0.1-0.7,0.7-1.1,1.4-1.1c0.1,0,14.9,1.8,21.3,1c6-0.7,10.3,0,13.2,2.3c2.2,1.8,3.5,4.4,3.9,7.9
							c0.6,5.3-1.2,12.8-6.6,17.7C453,263.3,449.3,265.5,443.9,265.5L443.9,265.5z"/>
						<path class="st2" d="M437.1,292.3c-0.1,0-0.3,0-0.4-0.1c-0.6-0.2-0.9-0.9-0.7-1.6c6.1-15.8-7.4-28.5-7.6-28.6
							c-0.5-0.5-0.5-1.2-0.1-1.7c0.5-0.5,1.2-0.5,1.7-0.1c0.2,0.1,14.9,13.9,8.2,31.3C438,292,437.6,292.3,437.1,292.3L437.1,292.3z
							"/>
					</g>
					<g>
						<g>
							<path class="st4" d="M30.7,596.7C21,596.7,13,588.8,13,579v-19.2h429.5V579c0,9.7-7.9,17.7-17.7,17.7H30.7z"/>
							<path class="st2" d="M441.3,561v18c0,9.1-7.4,16.5-16.5,16.5H30.7c-9.1,0-16.5-7.4-16.5-16.5v-18H441.3 M443.7,558.6H11.8
								v20.5c0,10.4,8.5,18.9,18.9,18.9h394.2c10.4,0,18.9-8.5,18.9-18.9v-20.5H443.7z"/>
						</g>
						<g>
							<path class="st5" d="M28.5,575.8c-5.4,0-10.3-2.7-13.1-7.3s-3.1-10.2-0.7-15l39.8-80.1c2.6-5.3,7.9-8.6,13.9-8.6h319
								c5.9,0,11.2,3.3,13.9,8.6l39.8,80.1c2.4,4.8,2.1,10.4-0.7,15c-2.8,4.6-7.8,7.3-13.1,7.3H28.5z"/>
							<path class="st2" d="M387.3,466c5.4,0,10.4,3.1,12.8,7.9l39.8,80.1c4.7,9.5-2.2,20.6-12.8,20.6H28.5
								c-10.6,0-17.5-11.1-12.8-20.6l39.8-80.1c2.4-4.9,7.4-7.9,12.8-7.9H387.3 M387.2,463.5h-319c-6.4,0-12.1,3.6-14.9,9.3
								l-39.8,80.1c-2.6,5.2-2.3,11.3,0.8,16.2s8.4,7.9,14.2,7.9H427c5.8,0,11.1-3,14.2-7.9s3.4-11,0.8-16.2l-39.8-80.1
								C399.4,467.1,393.7,463.5,387.2,463.5L387.2,463.5L387.2,463.5z"/>
						</g>
						<path class="st6" d="M195.9,506.8c0,7.2-19.2,13-42.8,13c-0.4,0-0.8,0-1.2,0c-23.1-0.2-41.7-5.9-41.7-12.9S129.4,494,153,494
							c13.3,0,25.2,1.8,33,4.7C192.2,500.8,195.9,503.6,195.9,506.8L195.9,506.8z"/>
						<g>
							<path class="st7" d="M244.3,510.4L244.3,510.4c-0.2-1.2-0.5-2.4-0.9-3.5l0,0c-6.7-16.8-44.6-29.7-90.2-29.7
								S69.6,490,62.8,506.8l0,0c-0.5,1.2-0.8,2.3-0.9,3.5l0,0c-0.1,0.6-0.1,1.2-0.1,1.8c0,19.4,40.9,35.1,91.3,35.1
								s91.3-15.7,91.3-35.1C244.4,511.5,244.3,510.9,244.3,510.4L244.3,510.4z M153.1,519.7c-23.7,0-42.8-5.8-42.8-13
								s19.2-12.9,42.8-12.9s42.8,5.8,42.8,12.9C195.9,513.9,176.7,519.7,153.1,519.7z"/>
							<path class="st2" d="M153.1,548.4c-51.9,0-92.5-15.9-92.5-36.3c0-0.6,0-1.2,0.1-1.9v-0.1c0.2-1.3,0.5-2.6,1-3.8l0.1-0.1
								c7-17.6,45.5-30.4,91.3-30.4s84.3,12.8,91.3,30.5c0.5,1.2,0.8,2.5,1,3.8v0.1c0.1,0.6,0.1,1.2,0.1,1.9
								C245.6,532.5,204.9,548.4,153.1,548.4z M63.1,510.4L63.1,510.4c-0.1,0.6-0.1,1.2-0.1,1.7c0,18.7,40.4,33.9,90.1,33.9
								s90.1-15.2,90.1-33.9c0-0.6,0-1.1-0.1-1.7v-0.1c-0.2-1.1-0.5-2.1-0.9-3.2c-6.6-16.5-44.9-29-89.1-29S70.6,490.7,64,507.2
								l-0.1,0.1C63.5,508.3,63.2,509.3,63.1,510.4L63.1,510.4z M153.1,520.9c-21.4,0-44.1-5-44.1-14.2s22.7-14.1,44.1-14.1
								s44.1,5,44.1,14.1C197.1,516,174.4,520.9,153.1,520.9z M153.1,495c-24.5,0-41.6,6.2-41.6,11.7s17.1,11.7,41.6,11.7
								s41.6-6.2,41.6-11.7S177.6,495,153.1,495L153.1,495z"/>
						</g>
						<g>
							<path class="st8" d="M248.1,524.5c0,20.2-42.5,36.5-95,36.5s-95-16.3-95-36.5l3.8-14.2c-0.1,0.6-0.1,1.2-0.1,1.8
								c0,19.4,40.9,35.1,91.3,35.1s91.3-15.7,91.3-35.1c0-0.6,0-1.2-0.1-1.8L248.1,524.5L248.1,524.5z"/>
							<path class="st2" d="M153.1,562.2c-54,0-96.2-16.6-96.2-37.7v-0.3l3.8-14.2l2.4,0.5c-0.1,0.6-0.1,1.1-0.1,1.7
								c0,18.7,40.4,33.9,90.1,33.9s90.1-15.2,90.1-33.9c0-0.6,0-1.1-0.1-1.7l2.4-0.5l3.9,14.5C249.3,545.7,207,562.2,153.1,562.2
								L153.1,562.2z M59.3,524.7c0.2,19.4,42.2,35.1,93.8,35.1s93.6-15.7,93.8-35.1l-2.1-7.7c-5.9,18-44.1,31.4-91.7,31.4
								S67.2,535,61.3,517L59.3,524.7L59.3,524.7z"/>
						</g>
						<path class="st9" d="M385.9,519l-14-38.9c-0.2-0.5,0.1-1.2,0.6-1.4c0.5-0.2,1.1,0.1,1.3,0.6l17.4,37.5c0.7,1.4,0,3.2-1.4,3.8
							c-1.4,0.7-3.2,0-3.8-1.4C386,519.2,385.9,519.1,385.9,519L385.9,519z M336,518.9c0.5,1.5,2.1,2.3,3.6,1.8s2.3-2.1,1.8-3.6
							l-12.6-37.7c-0.2-0.5-0.7-0.8-1.2-0.7c-0.6,0.1-0.9,0.7-0.8,1.3l9.1,38.7C335.9,518.8,336,518.9,336,518.9L336,518.9z
							 M286,518.6c0.3,1.6,1.8,2.6,3.4,2.2c1.6-0.3,2.6-1.8,2.2-3.4l-7.7-37.9c-0.1-0.5-0.6-0.9-1.2-0.8s-1,0.6-0.9,1.2l4.2,38.5
							C285.9,518.4,285.9,518.5,286,518.6L286,518.6z"/>
						<path class="st9" d="M412.3,554.8h-22.4c-2.6,0-4.9-1.6-5.8-4.1l-3.9-10.6c-1.5-4.1,1.5-8.4,5.8-8.4h21.5
							c2.4,0,4.7,1.4,5.7,3.7L418,546C419.9,550.2,416.9,554.8,412.3,554.8L412.3,554.8z M364.7,546.7l-3.5-10.6
							c-0.8-2.6-3.2-4.3-5.9-4.3h-22c-4,0-7,3.8-6.1,7.7l2.5,10.6c0.7,2.8,3.2,4.8,6.1,4.8h22.9C363,554.8,366,550.7,364.7,546.7
							L364.7,546.7z M311.2,547.4l-2.1-10.6c-0.6-2.9-3.1-5-6.1-5h-22.4c-3.7,0-6.6,3.2-6.2,6.9l1.2,10.6c0.4,3.2,3,5.5,6.2,5.5
							h23.3C309.1,554.9,312,551.3,311.2,547.4z M386,531.8h21.5c2.4,0,4.7,1.4,5.7,3.7l4.8,10.6 M364.7,546.7l-3.5-10.6
							c-0.8-2.6-3.2-4.3-5.9-4.3h-22 M311.2,547.4l-2.1-10.6c-0.6-2.9-3.1-5-6.1-5h-22.4"/>
						<path class="st9" d="M295.2,510.3c0,1.6-1.3,2.9-2.9,2.9h-9.5c-1.6,0-2.9-1.3-2.9-2.9s1.3-2.9,2.9-2.9h9.5
							C293.9,507.5,295.2,508.7,295.2,510.3z M338,495.9h-9.5c-1.6,0-2.9,1.3-2.9,2.9s1.3,2.9,2.9,2.9h9.5c1.6,0,2.9-1.3,2.9-2.9
							C340.9,497.2,339.6,495.9,338,495.9z M388.6,503.4h-9.5c-1.6,0-2.9,1.3-2.9,2.9s1.3,2.9,2.9,2.9h9.5c1.6,0,2.9-1.3,2.9-2.9
							C391.5,504.7,390.2,503.4,388.6,503.4z"/>
					</g>
					<g>
						<g>
							<path class="st1" d="M134.8,233.2h-4.9c-2.7,0-5-2.2-5-5v-80.7h14.8v80.7C139.7,230.9,137.5,233.2,134.8,233.2L134.8,233.2z"
								/>
							<path class="st2" d="M132.8,234.4h-1c-4.5,0-8.1-3.7-8.1-8.1v-80H141v80C141,230.7,137.3,234.4,132.8,234.4z M126.1,148.7
								v77.5c0,3.2,2.6,5.7,5.7,5.7h1c3.2,0,5.7-2.6,5.7-5.7v-77.5H126.1L126.1,148.7z"/>
						</g>
						<g>
							<g>
								<path class="st10" d="M144.9,173.5c20.4,0,36.9,23.2,36.9,51.9s-16.5,51.9-36.9,51.9S108,254,108,225.4
									C108,196.8,124.5,173.5,144.9,173.5z"/>
								<path class="st10" d="M124,173.5h20.9c-20.4,0-36.9,23.2-36.9,51.9s16.5,51.9,36.9,51.9H124c-20.4,0-36.9-23.3-36.9-51.9
									S103.6,173.5,124,173.5z"/>
								<path class="st10" d="M148.3,203c8.8,0,16,10.1,16,22.5s-7.2,22.5-16,22.5s-16-10.1-16-22.5S139.5,203,148.3,203z"/>
							</g>
							<g>
								<g>
									<path class="st8" d="M144.9,173.5c20.4,0,36.9,23.2,36.9,51.9s-16.5,51.9-36.9,51.9S108,254,108,225.4
										C108,196.8,124.5,173.5,144.9,173.5z"/>
									<path class="st2" d="M144.8,278.6c-21,0-38.1-23.8-38.1-53.1s17.1-53.1,38.1-53.1s38.1,23.8,38.1,53.1
										S165.8,278.6,144.8,278.6z M144.8,174.8c-19.6,0-35.6,22.8-35.6,50.7s16,50.7,35.6,50.7c19.7,0,35.7-22.8,35.7-50.7
										S164.5,174.8,144.8,174.8L144.8,174.8z"/>
								</g>
								<g>
									<path class="st7" d="M124,173.5h20.9c-20.4,0-36.9,23.2-36.9,51.9s16.5,51.9,36.9,51.9H124c-20.4,0-36.9-23.3-36.9-51.9
										S103.6,173.5,124,173.5z"/>
									<path class="st2" d="M144.8,278.6H124c-21,0-38.1-23.8-38.1-53.1s17.1-53.1,38.1-53.1h20.9v2.4
										c-19.6,0-35.6,22.8-35.6,50.7s16,50.7,35.6,50.7L144.8,278.6L144.8,278.6z M124,174.8c-19.7,0-35.7,22.8-35.7,50.7
										s16,50.7,35.7,50.7h9.5c-15.4-6.8-26.7-26.9-26.7-50.7s11.2-43.9,26.7-50.7L124,174.8L124,174.8z"/>
								</g>
								<g>
									<path class="st7" d="M148.3,203c8.8,0,16,10.1,16,22.5s-7.2,22.5-16,22.5s-16-10.1-16-22.5S139.5,203,148.3,203z"/>
									<path class="st2" d="M148.3,249.2c-9.5,0-17.2-10.6-17.2-23.7c0-13.1,7.7-23.7,17.2-23.7s17.2,10.6,17.2,23.7
										C165.5,238.5,157.8,249.2,148.3,249.2z M148.3,204.2c-8.1,0-14.8,9.5-14.8,21.3c0,11.7,6.6,21.3,14.8,21.3
										c8.1,0,14.8-9.5,14.8-21.3S156.4,204.2,148.3,204.2z"/>
								</g>
							</g>
						</g>
					</g>
					<g>
						<g>
							<path class="st1" d="M192.7,174.4c0,0-9.5-102.8-33.1-118.3s-33.9,14.1-33,23.4s35.7,111.9,35.7,111.9"/>
							<path class="st2" d="M162.2,192.6c-0.5,0-1-0.3-1.2-0.8c-1.4-4.2-34.9-102.9-35.7-112.2c-0.6-6.2,3.5-20.9,13.2-26.7
								c4.4-2.6,11.7-4.4,21.7,2.2c23.8,15.6,33.2,115,33.6,119.2c0.1,0.7-0.4,1.3-1.1,1.3c-0.7,0.1-1.3-0.4-1.3-1.1
								c-0.1-1-9.7-102.4-32.5-117.4c-7.2-4.7-13.7-5.5-19.2-2.2c-8.7,5.2-12.5,18.9-12,24.4c0.8,9,35.2,110.6,35.6,111.6
								c0.2,0.6-0.1,1.3-0.8,1.5C162.5,192.6,162.3,192.6,162.2,192.6L162.2,192.6z"/>
						</g>
						<g>
							<path class="st11" d="M180.5,180.3c0,0-16.2-81.6-30.6-90.6c-14.3-9-23.7,38.2,13,103.3"/>
							<path class="st2" d="M163,194.3c-0.4,0-0.8-0.2-1.1-0.6c-29.1-51.6-30.3-94.4-20-104.3c2.5-2.4,5.6-2.6,8.7-0.7
								c14.6,9.2,30.4,88,31.1,91.4c0.1,0.7-0.3,1.3-1,1.4c-0.7,0.1-1.3-0.3-1.4-1c-0.2-0.8-16.3-81.1-30-89.8
								c-2.2-1.4-4-1.2-5.7,0.4c-8.6,8.2-9.1,49,20.4,101.3c0.3,0.6,0.1,1.3-0.5,1.7C163.4,194.2,163.2,194.3,163,194.3L163,194.3z"
								/>
						</g>
						<g>
							<path class="st1" d="M157.3,90c0,0-6.4,77-55.9,72.8c-49.6-4.1-9.2-99.5,43.9-111.1"/>
							<path class="st2" d="M105.1,164.2c-1.3,0-2.5-0.1-3.8-0.2c-14.2-1.2-22.5-9.9-23.5-24.5c-1-15,6.2-35.3,18.6-52.9
								C110,67.4,127.7,54.3,145,50.5c0.7-0.1,1.3,0.3,1.4,0.9c0.1,0.7-0.3,1.3-0.9,1.4c-16.7,3.6-33.9,16.4-47.2,35.1
								c-12.2,17.2-19.2,36.9-18.2,51.4c0.6,9.4,4.8,20.9,21.3,22.2c20,1.6,35.2-9.8,45.3-34.1c7.6-18.3,9.3-37.4,9.3-37.6
								c0.1-0.7,0.6-1.1,1.3-1.1c0.7,0.1,1.2,0.6,1.1,1.3c0,0.2-1.7,19.6-9.5,38.3C139.3,151.9,124.1,164.2,105.1,164.2L105.1,164.2
								z"/>
						</g>
					</g>
					<g>
						<g>
							<g>
								<path class="st1" d="M119.9,267.1c0-62.9,68.9-113.5,114.1-113.5s115,50.6,115,113.5s-51.3,113.8-114.5,113.8
									S120,330,119.9,267.1L119.9,267.1z"/>
								<path class="st2" d="M234.5,382.1c-63.8,0-115.7-51.6-115.7-115c0-29,14.4-57.8,40.5-81.2c23-20.7,51.7-33.5,74.8-33.5
									c45.9,0,116.2,51.4,116.2,114.7S298.3,382.1,234.5,382.1L234.5,382.1z M234,154.8c-44.6,0-112.9,50.3-112.9,112.3
									S172,379.7,234.5,379.7s113.3-50.5,113.3-112.6S278.9,154.8,234,154.8L234,154.8z"/>
							</g>
							<g>
								<g>
									<ellipse class="st1" cx="265.1" cy="243.1" rx="25" ry="32.1"/>
									<path class="st2" d="M265.1,276.4c-14.4,0-26.2-14.9-26.2-33.3s11.8-33.3,26.2-33.3s26.2,14.9,26.2,33.3
										S279.5,276.4,265.1,276.4z M265.1,212.2c-13.1,0-23.8,13.9-23.8,30.9S252,274,265.1,274s23.8-13.9,23.8-30.9
										S278.2,212.2,265.1,212.2z"/>
								</g>
								<path class="st2" d="M272,243.1l-17.9-3.7c1.2-13,8.9-22.7,17.9-22.7c9.9,0,18.1,11.9,18.1,26.4s-8.2,26.4-18.1,26.4
									c-7.6,0-14.4-7-17-17.4L272,243.1L272,243.1z"/>
							</g>
							<g>
								<path class="st1" d="M254.4,279.9c0,0,8.8-16.7,24.9-22.6s39.1-3.8,41.8,15.1"/>
								<path class="st2" d="M254.4,281.1c-0.2,0-0.4,0-0.6-0.1c-0.6-0.3-0.8-1-0.5-1.6c0.4-0.7,9.2-17.2,25.5-23.2
									c11.9-4.4,25.1-4,33.6,1c5.5,3.3,8.9,8.5,9.9,15c0.1,0.7-0.4,1.3-1,1.4c-0.7,0.1-1.3-0.4-1.4-1c-0.8-5.9-3.8-10.3-8.7-13.3
									c-8.9-5.3-22.2-4.3-31.5-0.8c-15.4,5.7-24.1,21.9-24.2,22.1C255.3,280.8,254.9,281.1,254.4,281.1L254.4,281.1z"/>
							</g>
							<g>
								<g>
									<ellipse class="st1" cx="181.7" cy="242.5" rx="23.4" ry="30"/>
									<path class="st2" d="M181.7,273.7c-13.5,0-24.6-14-24.6-31.2s11-31.2,24.6-31.2s24.6,14,24.6,31.2S195.3,273.7,181.7,273.7
										z M181.7,213.7c-12.2,0-22.1,12.9-22.1,28.8s9.9,28.8,22.1,28.8s22.1-12.9,22.1-28.8S193.9,213.7,181.7,213.7z"/>
								</g>
								<path class="st2" d="M188.2,242.5l-16.7-3.4c1.2-12.1,8.3-21.2,16.7-21.2c9.3,0,16.9,11.1,16.9,24.6
									c0,13.5-7.6,24.6-16.9,24.6c-7.1,0-13.5-6.5-15.9-16.3L188.2,242.5z"/>
							</g>
							<g>
								<path class="st1" d="M202.6,277c0,0-7-12.8-24.3-15.3c-17.7-2.6-26.4,10.8-26.8,17.6"/>
								<path class="st2" d="M151.5,280.5C151.5,280.5,151.4,280.5,151.5,280.5c-0.7,0-1.2-0.6-1.2-1.3c0.2-3.8,2.8-9.5,8-13.7
									c3.8-3.1,10.4-6.5,20.2-5c17.7,2.6,24.9,15.4,25.2,15.9c0.3,0.6,0.1,1.3-0.5,1.6c-0.6,0.3-1.3,0.1-1.6-0.5
									c-0.1-0.1-6.9-12.3-23.4-14.7c-9-1.3-14.9,1.7-18.3,4.5c-4.6,3.7-6.9,8.8-7.1,12C152.7,280,152.1,280.5,151.5,280.5
									L151.5,280.5z"/>
							</g>
							<g>
								<path class="st12" d="M282.6,291.3c15.8,2.8,19.3,22,6.8,37.1c-12.5,15-37.9,29-70.4,25.4s-50.8-21.7-54-43.6
									c0,0-2.6-19.7,9.4-19.1c7.5,0.4,9,7.1,19.7,14.2c10.7,7,21.6,3.1,33.7-7.2c0,0,14.1,12.4,27.3,7.9
									C274.4,299.3,269.9,289,282.6,291.3L282.6,291.3z"/>
								<path class="st2" d="M229.1,355.5c-3.3,0-6.8-0.2-10.3-0.6c-30.9-3.4-51.4-20.1-55-44.6c-0.1-0.5-1.6-12.2,3.5-17.7
									c1.8-2,4.3-2.9,7.2-2.7c4.9,0.2,7.5,2.9,10.8,6.3c2.3,2.3,5.1,5.2,9.5,8.1c9.3,6.2,19.2,4,32.2-7.1l0.8-0.7l0.8,0.7
									c0.1,0.1,13.7,11.9,26.1,7.6c9.1-3.1,12.7-7,15.5-10.1c3-3.3,5.4-5.9,12.6-4.7l0,0c6.8,1.2,11.8,5.3,14,11.5
									c3.1,8.4,0.6,19-6.5,27.5C279.7,341.9,257.9,355.5,229.1,355.5L229.1,355.5z M173.9,292.3c-2,0-3.6,0.7-4.8,2
									c-4.3,4.6-2.9,15.6-2.9,15.7c3.4,23.4,23.2,39.3,52.9,42.5c32.9,3.6,57.9-11.2,69.3-25c6.6-7.9,8.9-17.6,6.1-25.1
									c-2-5.4-6.3-8.9-12.2-9.9l0,0c-5.9-1-7.5,0.7-10.4,3.9c-2.9,3.1-6.8,7.4-16.5,10.7c-12.1,4.1-24.4-4.8-27.7-7.4
									c-13.4,11.1-24.3,13.2-34.3,6.6c-4.6-3-7.5-6-9.9-8.4c-3.2-3.2-5.3-5.4-9.2-5.6C174.2,292.3,174,292.3,173.9,292.3
									L173.9,292.3z"/>
							</g>
							<path class="st2" d="M232.9,342.5c-1.7,0-3.4-0.1-5.1-0.3c-14.5-1.6-24.1-9.2-25.8-20.3c0-0.6-0.2-5.2,3.3-7
								c1-0.5,2-0.8,3.1-0.8c3.5,0,6.7,2.5,8.3,4.1c2.9,2.8,9.1,5.8,15.8,5.8c2.1,0,4.1-0.3,5.9-0.9c2.5-0.8,5-2.2,7.7-3.6
								c4-2.2,8.2-4.5,12-4.5c0.8,0,1.5,0.1,2.2,0.3c2.5,0.7,4.2,2.2,4.9,4.4c1,3.1-0.1,6.9-2.9,10.2
								C257.3,336,246.9,342.5,232.9,342.5L232.9,342.5z"/>
							<g>
								<path class="st1" d="M209.5,308.8c0.7,9.5,9.3,19.8,21.6,19.5c16.1-0.4,21.1-12.2,21.1-21.7c-2.5,0.2-6.5,0.8-11.7-0.5
									c-2.8-0.7-6.4-2.3-12.5-6.7C222.6,303.2,216.8,305.5,209.5,308.8z"/>
								<path class="st2" d="M230.6,329.5c-12.4,0-21.5-10.6-22.3-20.6l-0.1-0.8l0.8-0.4c1.5-0.7,2.9-1.3,4.2-1.9
									c5.3-2.4,9.8-4.4,14-7.4l0.7-0.5l0.7,0.5c6.6,4.7,9.9,6,12.1,6.5c4.3,1.1,7.7,0.8,10.2,0.6c0.4,0,0.8-0.1,1.1-0.1l1.3-0.1
									v1.3c0.1,10.3-5.7,22.5-22.3,22.9C230.9,329.5,230.8,329.5,230.6,329.5L230.6,329.5z M210.8,309.6
									c1.1,8.8,9.3,17.8,20.2,17.5c14.1-0.3,19.5-9.9,19.9-19.1c-2.5,0.2-6.2,0.5-10.8-0.7c-3.4-0.9-7.2-2.9-12.2-6.4
									c-4.1,2.8-8.6,4.8-13.7,7.1C213.1,308.5,212,309,210.8,309.6L210.8,309.6z"/>
							</g>
							<g>
								<path class="st11" d="M268.6,344.8c0,0-7.4-18.6-34.5-5.2c0,0-11-8.7-29.7-3s-39.3,32.1-33.4,60.7
									c6,28.7,40.8,25.7,46.8-1.1s22.8-42,30.5-44C248.2,352.2,260.4,349.7,268.6,344.8L268.6,344.8z"/>
								<path class="st2" d="M193.2,418.8H193c-9.1-0.1-20.1-5.7-23.3-21.2c-6.3-30.1,15.7-56.5,34.2-62.1c16.8-5.1,27.5,1,30.2,2.7
									c10-4.8,18.5-6,25.4-3.3c7.5,2.9,10.1,9.2,10.2,9.5l0.4,1l-0.9,0.5c-8.2,5-20.2,7.5-20.7,7.6c-7.1,1.9-23.7,17.1-29.5,43.1
									C215.5,411.9,203.2,418.8,193.2,418.8L193.2,418.8z M216.6,335.9c-3.5,0-7.5,0.5-12,1.9c-17.6,5.4-38.5,30.5-32.5,59.3
									c3,14.1,12.8,19.2,21,19.3h0.1c9.1,0,20.2-6.4,23.4-20.4c6.1-27.4,23.4-42.8,31.3-44.9c0.2,0,11.2-2.3,19.1-6.7
									c-1-1.7-3.5-5.3-8.4-7.2c-6.3-2.4-14.4-1.2-24,3.6l-0.7,0.3l-0.6-0.5C233.2,340.5,227.2,335.9,216.6,335.9L216.6,335.9z"/>
							</g>
							<path class="st2" d="M192.3,391.2c-0.1,0-0.3,0-0.4-0.1c-0.6-0.2-1-0.9-0.7-1.6c15.2-42.1,41.3-50.8,42.4-51.1
								c0.6-0.2,1.3,0.2,1.5,0.8c0.2,0.6-0.2,1.3-0.8,1.5c-0.3,0.1-26.1,8.7-40.9,49.6C193.3,390.9,192.8,391.2,192.3,391.2
								L192.3,391.2z"/>
							<path class="st2" d="M230.9,318.8c-0.5,0-0.9-0.2-1.1-0.7c-3.8-8-3.2-15.3-3.2-15.6c0.1-0.7,0.6-1.2,1.3-1.1s1.2,0.6,1.1,1.3
								c0,0.1-0.5,7,3,14.4c0.3,0.6,0,1.3-0.6,1.6C231.2,318.8,231.1,318.8,230.9,318.8L230.9,318.8z"/>
							<g>
								<path class="st11" d="M231,303.3c-1.7,1.8-4.9,1.8-6.5,0l-6.7-7.2l-4.9-5.2c-2.1-2.2-0.1-5.5,3.3-5.5h23.1
									c3.4,0,5.4,3.2,3.3,5.5l-4.9,5.2L231,303.3L231,303.3z"/>
								<path class="st2" d="M227.7,305.9c-1.6,0-3.1-0.6-4.2-1.7L212,291.7c-1.2-1.3-1.5-3-0.8-4.5c0.8-1.8,2.7-3,5-3h23.1
									c2.2,0,4.2,1.2,5,3c0.7,1.5,0.4,3.2-0.8,4.5l-11.6,12.4C230.9,305.2,229.4,305.9,227.7,305.9L227.7,305.9z M216.2,286.6
									c-1.5,0-2.5,0.8-2.8,1.5s-0.1,1.3,0.4,1.9l11.6,12.4c0.6,0.6,1.4,0.9,2.4,0.9s1.8-0.3,2.4-0.9l11.6-12.4
									c0.5-0.6,0.7-1.2,0.4-1.9c-0.3-0.7-1.2-1.5-2.8-1.5H216.2L216.2,286.6z M231,303.3L231,303.3L231,303.3z"/>
							</g>
							
								<ellipse transform="matrix(0.9905 -0.1378 0.1378 0.9905 -34.3442 42.9196)" class="st3" cx="292.8" cy="269.5" rx="20.7" ry="11.1"/>
							
								<ellipse transform="matrix(0.1941 -0.981 0.981 0.1941 -127.3898 395.4801)" class="st3" cx="177" cy="275.3" rx="11.1" ry="17.2"/>
						</g>
						<g>
							<path class="st5" d="M213.2,188.3c-2.2,0-4.4-0.5-6.8-1.6c-9.7-4.5-39.3-60.1-40.5-62.5l-1.5-2.9l41.9,16.2l1.1-47l28.2,32.6
								L258.4,87l8.3,48.2l28.1-17.4l-11,34.7l26.2-8.3l-11.4,22.4l12.8,0.3l-9.9,14.1l-1-0.5c-0.3-0.2-30.3-16.8-51.5-19.5
								c-0.1,0-0.3,0-0.7,0c-2.8,0-12.7,1.6-25.5,22c-1.2,2-2.9,3.5-4.8,4.3C216.6,187.9,214.9,188.3,213.2,188.3L213.2,188.3z"/>
							<path class="st2" d="M257.8,90.3l8.1,46.9l26.9-16.6L282,154.3l25.7-8.1l-11,21.5l12.5,0.3l-8,11.4c0,0-30.3-16.9-52-19.6
								c0,0-0.3-0.1-0.9-0.1c-3,0-13.5,1.7-26.5,22.5c-1,1.7-2.5,3.1-4.2,3.9c-1.2,0.5-2.6,0.9-4.3,0.9s-3.9-0.4-6.3-1.5
								c-9.5-4.4-39.9-62-39.9-62l40.4,15.6l1-45.6l27.2,31.5L257.8,90.3 M292.7,120.5L292.7,120.5 M307.6,146.2L307.6,146.2
								 M259.1,83.7l-3.4,5.3l-20.4,32.1l-25-29l-4.1-4.8l-0.1,6.3l-0.9,42.1L168,121.3l-6.1-2.3l3,5.7c5.2,9.7,31.3,58.6,41.1,63
								c2.5,1.2,5,1.7,7.3,1.7c1.9,0,3.7-0.4,5.3-1.1c2.1-1,3.9-2.6,5.3-4.8c12.7-20.3,22.6-21.4,24.4-21.4c0.3,0,0.5,0,0.5,0h0.1
								l0,0c21,2.7,50.8,19.2,51.1,19.3l1.9,1.1l1.3-1.8l8-11.4l2.6-3.7l-4.5-0.1l-8.6-0.2l9.2-18.1l2.6-5.2l-5.5,1.7l-21.2,6.7
								l9.3-29.3l2-6.3l-5.6,3.5L267.7,133l-7.5-43.3L259.1,83.7L259.1,83.7L259.1,83.7z M292.7,118.1L292.7,118.1L292.7,118.1z
								 M307.6,143.8L307.6,143.8L307.6,143.8z"/>
						</g>
						<g>
							<g>
								<path class="st1" d="M272.4,179.1c0,0,11.4-123.8,39.9-142.5c28.4-18.7,40.8,17,39.8,28.1s-43,134.8-43,134.8"/>
								<path class="st2" d="M309.1,200.8c-0.1,0-0.3,0-0.4-0.1c-0.6-0.2-1-0.9-0.8-1.5c0.4-1.2,41.9-123.7,42.9-134.5
									c0.6-6.7-4-23.3-14.6-29.7c-6.7-4-14.6-3.1-23.3,2.7c-27.6,18.1-39.2,140.4-39.3,141.6c-0.1,0.7-0.6,1.2-1.3,1.1
									c-0.7-0.1-1.2-0.7-1.1-1.3c0.5-5.1,11.8-124.6,40.4-143.4c12-7.9,20.7-5.8,25.9-2.7c11.6,6.9,16.4,24.5,15.8,32
									c-1,11.1-41.3,130-43,135.1C310.1,200.5,309.6,200.8,309.1,200.8L309.1,200.8z"/>
							</g>
							<g>
								<path class="st11" d="M287,186.2c0,0,19.5-98.3,36.8-109.2s28.6,46.1-15.7,124.5"/>
								<path class="st2" d="M308.2,202.8c-0.2,0-0.4,0-0.6-0.2c-0.6-0.3-0.8-1.1-0.5-1.7c35.6-63.2,35-112.5,24.6-122.4
									c-2.1-2-4.5-2.2-7.2-0.5c-16.6,10.5-36.1,107.4-36.3,108.4c-0.1,0.7-0.8,1.1-1.4,1c-0.7-0.1-1.1-0.8-1-1.4
									c0.8-4,19.8-98.9,37.4-109.9c3.6-2.3,7.2-2,10.2,0.8c12.4,11.8,10.9,63.2-24.1,125.3C309,202.6,308.6,202.8,308.2,202.8z"/>
							</g>
							<g>
								<path class="st1" d="M314.9,77.4c0,0,7.7,92.7,67.4,87.8s11.1-119.9-52.9-133.9"/>
								<path class="st2" d="M377.9,166.6c-22.8,0-41-14.8-52.7-43c-9.3-22.5-11.4-45.9-11.4-46.1c-0.1-0.7,0.4-1.3,1.1-1.3
									c0.7-0.1,1.3,0.4,1.3,1.1c0,0.2,2,23.3,11.2,45.4c12.2,29.4,30.7,43.2,54.8,41.2c20-1.7,25.1-15.6,25.9-27
									c1.2-17.5-7.3-41.3-22-62c-16-22.6-36.8-38-57-42.4c-0.7-0.1-1.1-0.8-0.9-1.4c0.1-0.7,0.8-1.1,1.4-0.9
									c20.8,4.5,42.1,20.3,58.4,43.4c15,21.2,23.6,45.5,22.4,63.6c-1.2,17.5-11.1,27.9-28.1,29.3
									C380.9,166.5,379.3,166.6,377.9,166.6L377.9,166.6z"/>
							</g>
						</g>
						<g>
							<g class="st13">
								<path class="st5" d="M236.3,280.2c0,0-4.9-13.5,7.1-21.5s22.2-2.1,22.2-2.1s-5.9,1.3-7.3,7.6c-1.4,6.3,12,9.5,20.5,2.1
									c8.5-7.3,26.3-10.9,35-4.4c0,0-11.1-0.2-12.5,8s21.2,7.7,26.7-8.1c0,0,5.4,13.4-7.3,21.8c-14.6,9.7-33.5-0.8-43.3,0.2
									c-7.5,0.8-6,8.2,0.2,7.7C277.5,291.5,245.5,305,236.3,280.2L236.3,280.2z"/>
								<path class="st5" d="M215.7,281.5c0,0,6.3-12.9-4.8-22.1c-11.1-9.2-21.9-4.5-21.9-4.5s5.8,1.9,6.5,8.3s-12.9,8.2-20.6,0
									c-7.6-8.2-25-13.6-34.3-8.1c0,0,11.1,0.9,11.6,9.2c0.5,8.3-21.9,5.4-25.7-10.9c0,0-6.8,12.7,5,22.5
									c13.5,11.2,33.4,2.7,43.1,4.8c7.4,1.6,5.1,8.8-1.1,7.6C173.5,288.3,203.8,305.1,215.7,281.5L215.7,281.5z"/>
							</g>
							<g>
								<path class="st2" d="M215.6,276c-0.4,0-0.8-0.2-1.1-0.6c-0.3-0.6-0.1-1.3,0.5-1.7c0.5-0.3,12.4-6.9,23,0
									c0.6,0.4,0.7,1.1,0.3,1.7s-1.1,0.7-1.7,0.3c-9.4-6.2-20.4,0-20.5,0C216,276,215.8,276,215.6,276L215.6,276z"/>
								<g>
									<path class="st2" d="M259.2,296.4c-3.9,0-7.9-0.6-11.7-2.2c-5.8-2.5-9.9-7.1-12.4-13.6l0,0c-0.1-0.2-5.1-14.5,7.6-22.9
										c12.5-8.3,23.1-2.4,23.5-2.2s0.7,0.7,0.6,1.2s-0.5,0.9-1,1c-0.2,0-5.2,1.2-6.4,6.7c-0.4,1.7,0.8,2.9,2,3.5
										c3.9,2.3,11.3,2,16.5-2.5c8.8-7.6,27.4-11.2,36.5-4.5c0.4,0.3,0.6,0.9,0.4,1.4s-0.7,0.8-1.2,0.8c-0.4,0-10.1-0.1-11.3,6.9
										c-0.4,2.2,1.9,3.1,3.2,3.5c5.6,1.4,17.4-1.4,21.1-12.2c0.2-0.5,0.6-0.8,1.1-0.8s1,0.3,1.2,0.8c0.1,0.1,5.6,14.4-7.8,23.3
										c-10.2,6.8-22.3,4.1-32,2c-4.7-1-8.8-1.9-11.9-1.6c-2.9,0.3-4.1,1.7-4,2.9c0.1,1.3,1.6,2.5,4,2.3c0.6,0,1.1,0.3,1.3,0.9
										c0.1,0.6-0.2,1.2-0.7,1.4C277.5,292.8,268.9,296.4,259.2,296.4L259.2,296.4z M237.4,279.8c2.2,5.9,5.9,10,11.1,12.2
										c8.6,3.7,19.2,1.4,24.7-0.3c-1.3-0.9-2.1-2.2-2.2-3.5c-0.2-2.4,1.6-5.1,6.1-5.6c3.5-0.4,7.7,0.6,12.7,1.6
										c9.2,2,20.8,4.5,30.1-1.7c8.2-5.5,8.4-13,7.7-17.2c-5,8.9-16,12.2-22.6,10.5c-3.6-0.9-5.5-3.3-5-6.2
										c0.9-5.3,5.6-7.7,9.7-8.6c-8.9-3.4-23-0.1-30.2,6.2c-6.1,5.2-14.8,5.5-19.4,2.8c-2.5-1.5-3.6-3.7-3.1-6.1
										c0.9-4,3.3-6.2,5.3-7.3c-3.6-1.1-10.5-2-18.4,3.2C233,267,237.2,279.2,237.4,279.8L237.4,279.8z"/>
									<path class="st2" d="M194.9,295.3c-11.1,0-21.5-5.7-22-6s-0.8-0.9-0.6-1.5s0.8-0.9,1.4-0.8c2.4,0.4,4-0.6,4.2-1.9
										c0.2-1.2-0.8-2.7-3.6-3.3c-3-0.6-7.2-0.2-12,0.3c-9.9,1.1-22.1,2.4-31.6-5.4c-12.4-10.3-5.3-23.8-5.3-24
										c0.2-0.4,0.7-0.7,1.2-0.6c0.5,0.1,0.9,0.4,1,0.9c2.6,11.1,14,15.2,19.7,14.3c1.4-0.2,3.7-0.9,3.6-3.1
										c-0.4-7.2-10.1-8.1-10.5-8.1c-0.5,0-1-0.4-1.1-0.9s0.1-1,0.6-1.3c9.8-5.7,27.9-0.2,35.8,8.3c4.7,5.1,12.1,6.2,16.2,4.3
										c1.2-0.5,2.5-1.5,2.3-3.3c-0.6-5.5-5.5-7.2-5.7-7.3c-0.5-0.2-0.8-0.6-0.8-1.1s0.3-1,0.7-1.2c0.5-0.2,11.6-4.9,23.1,4.7
										c11.7,9.7,5.2,23.4,5.1,23.6l0,0c-3.1,6.2-7.7,10.3-13.8,12.2C200.3,295,197.6,295.3,194.9,295.3L194.9,295.3z M177.7,289
										c5.4,2.3,15.7,5.6,24.6,2.9c5.4-1.7,9.5-5.3,12.3-10.9c0.3-0.6,5.7-12.2-4.5-20.6c-7.2-6-14.2-5.8-17.9-5.1
										c1.9,1.4,4.1,3.8,4.5,7.8c0.3,2.5-1.1,4.6-3.7,5.8c-4.9,2.2-13.5,1-19-4.8c-6.5-6.9-20.1-11.8-29.3-9.3
										c4,1.3,8.4,4.1,8.7,9.5c0.2,3-1.9,5.1-5.6,5.7c-6.8,1-17.3-3.5-21.3-12.8c-1.1,4.1-1.8,11.6,5.8,17.9
										c8.7,7.2,20.4,5.9,29.8,4.9c5-0.5,9.4-1,12.8-0.3c4.5,1,6,3.8,5.5,6.2C180,287,179.1,288.3,177.7,289L177.7,289z
										 M215.7,281.5L215.7,281.5L215.7,281.5z"/>
								</g>
							</g>
						</g>
						<g>
							<line class="st14" x1="215.6" y1="168.1" x2="202.6" y2="146.4"/>
							<path class="st2" d="M215.6,169.3c-0.4,0-0.8-0.2-1-0.6l-13-21.7c-0.3-0.6-0.2-1.3,0.4-1.7c0.6-0.3,1.3-0.2,1.7,0.4l13,21.7
								c0.3,0.6,0.2,1.3-0.4,1.7C216,169.2,215.8,169.3,215.6,169.3L215.6,169.3z"/>
						</g>
						<g>
							<line class="st14" x1="227.9" y1="159.4" x2="219.5" y2="130.3"/>
							<path class="st2" d="M227.9,160.6c-0.5,0-1-0.3-1.2-0.9l-8.4-29.1c-0.2-0.6,0.2-1.3,0.8-1.5c0.7-0.2,1.3,0.2,1.5,0.8L229,159
								c0.2,0.6-0.2,1.3-0.8,1.5C228.1,160.6,228,160.6,227.9,160.6L227.9,160.6z"/>
						</g>
						<path class="st2" d="M240.1,154.8c-0.7,0-1.2-0.5-1.2-1.2v-22.4c0-0.7,0.5-1.2,1.2-1.2s1.2,0.5,1.2,1.2v22.4
							C241.3,154.3,240.8,154.8,240.1,154.8z"/>
						<g>
							<line class="st14" x1="252" y1="154.2" x2="256.2" y2="121.6"/>
							<path class="st2" d="M252,155.4c0,0-0.1,0-0.2,0c-0.7-0.1-1.1-0.7-1-1.4l4.2-32.6c0.1-0.7,0.7-1.1,1.4-1
								c0.7,0.1,1.1,0.7,1,1.4l-4.2,32.6C253.1,155,252.6,155.4,252,155.4L252,155.4z"/>
						</g>
					</g>
					<g>
						<g>
							<path class="st8" d="M323.4,207.4c3.6,28.6,20.9,50,38.6,47.8c17.8-2.2,29.2-27.2,25.7-55.8c-3.6-28.6-20.9-50-38.7-47.8
								C331.3,153.7,319.8,178.7,323.4,207.4L323.4,207.4z"/>
							<path class="st2" d="M359.5,256.5c-17.4,0-33.8-21.2-37.3-49l0,0c-1.8-14.1,0-27.7,4.9-38.5c5-10.9,12.8-17.6,21.8-18.7
								c9-1.1,18.2,3.4,25.7,12.8c7.4,9.2,12.5,22,14.3,36.1c3.7,29.2-8.3,54.9-26.7,57.2C361.2,256.4,360.4,256.5,359.5,256.5
								L359.5,256.5z M351.6,152.6c-0.8,0-1.6,0-2.4,0.2c-8.2,1-15.2,7.2-19.9,17.3c-4.7,10.3-6.4,23.5-4.7,37.2l0,0
								c3.3,26.6,18.7,46.9,34.9,46.9c0.8,0,1.6,0,2.4-0.2c17.1-2.1,28.1-26.6,24.6-54.5c-1.7-13.6-6.6-26-13.7-34.8
								C366.4,156.8,358.9,152.6,351.6,152.6L351.6,152.6z"/>
						</g>
						<g>
							<path class="st7" d="M330.8,153.8l18.2-2.3c-17.7,2.2-29.2,27.2-25.6,55.8s20.9,50,38.6,47.8l-18.2,2.3
								c-17.8,2.2-35.1-19.2-38.7-47.8C301.5,181,313,156,330.8,153.8z"/>
							<path class="st2" d="M341.2,258.8c-8.1,0-16.2-4.5-23-12.9c-7.4-9.2-12.5-22-14.3-36.1s0-27.7,4.9-38.5
								c5-10.9,12.8-17.6,21.8-18.7l18.2-2.3l0,0l0.3,2.4l0,0c-8.2,1-15.2,7.2-19.9,17.3c-4.7,10.3-6.4,23.5-4.7,37.2
								c3.5,27.9,20.2,48.9,37.3,46.7l0.3,2.4l0,0l-18.2,2.3C343,258.7,342.1,258.8,341.2,258.8L341.2,258.8z M330.9,155
								c-8.2,1-15.2,7.2-19.9,17.3c-4.7,10.3-6.4,23.5-4.7,37.2c1.7,13.6,6.6,26,13.7,34.8c7,8.7,15.4,12.9,23.6,11.9l8.3-1
								c-14.4-5-26.8-23.9-29.7-47.7c-1.8-14.1,0-27.7,4.9-38.5c3.1-6.7,7.2-11.9,12-15.1L330.9,155L330.9,155z M330.8,153.8
								L330.8,153.8L330.8,153.8z"/>
						</g>
						<g>
							<path class="st7" d="M347.9,204.3c1.4,11.2,8.2,20,14.8,19.2c6.6-0.8,11-11,9.6-22.3c-1.4-11.2-8.2-20-14.8-19.2
								C350.9,182.8,346.5,193,347.9,204.3z"/>
							<path class="st2" d="M361.8,224.7c-3.3,0-6.6-2-9.4-5.6c-3-3.8-5-9.1-5.7-14.7c-1.5-12.1,3.3-22.7,10.7-23.6
								c3.6-0.5,7.4,1.5,10.5,5.5c3,3.8,5,9.1,5.7,14.7c1.5,12.1-3.3,22.7-10.7,23.6C362.5,224.7,362.2,224.7,361.8,224.7
								L361.8,224.7z M358.4,183.2c-0.2,0-0.5,0-0.7,0c-5.9,0.7-9.9,10.5-8.6,20.9c0.6,5.1,2.5,10.1,5.2,13.5c2.5,3.3,5.5,5,8.2,4.6
								c5.9-0.7,9.9-10.5,8.6-20.9c-0.6-5.1-2.5-10.1-5.2-13.5C363.6,184.8,360.9,183.2,358.4,183.2L358.4,183.2z"/>
						</g>
						<g>
							<path class="st1" d="M363.7,211.1L363.7,211.1c3-0.4,5.2-3.2,4.8-6.2l-7.6-60.7l-11,1.4l7.6,60.7
								C357.9,209.3,360.7,211.5,363.7,211.1L363.7,211.1z"/>
							<path class="st2" d="M363,212.4c-1.5,0-2.9-0.5-4.2-1.4c-1.4-1.1-2.3-2.7-2.6-4.5l-7.8-61.9l13.5-1.7l7.8,61.9
								c0.2,1.8-0.3,3.6-1.4,5s-2.7,2.3-4.5,2.6C363.6,212.4,363.3,212.4,363,212.4L363,212.4z M351.3,146.6l7.5,59.5
								c0.1,1.2,0.7,2.2,1.6,2.9s2.1,1,3.2,0.9l0,0c1.2-0.1,2.2-0.7,2.9-1.6s1-2.1,0.9-3.2l-7.5-59.5L351.3,146.6L351.3,146.6z"/>
						</g>
					</g>
					<g>
						<g>
							<path class="st3" d="M97.9,455c0,0-21.5-31.2,0-50c19.7-17.2,46.4-7.1,59.5,27.6C170.5,467.3,97.9,455,97.9,455z"/>
							<path class="st2" d="M124,458.3c-13.3,0-25.3-2-26.3-2.2l-0.5-0.1l-0.3-0.4c-0.2-0.3-21.9-32.3,0.2-51.6
								c8.4-7.4,18.5-10.1,28.4-7.6c13.7,3.5,25.8,16.5,33,35.7c2.6,6.9,2.1,12.6-1.4,16.9C151.1,456.4,137,458.3,124,458.3
								L124,458.3z M98.7,453.8c5.1,0.8,45.9,6.7,56.6-6.3c3-3.6,3.3-8.5,1-14.5c-7-18.5-18.4-30.9-31.4-34.2
								c-9.1-2.3-18.4,0.2-26.2,7.1C79.6,422.6,96.2,450.1,98.7,453.8L98.7,453.8z"/>
						</g>
						<g>
							<g>
								<path class="st3" d="M124.7,507c0,0-26.4-6.6-32.7-53.1c-2.4-32.8,23.4-46.4,47.1-45.5s35.8,20.9,41.4,40.2
									c5.7,19.3,23.6,28.7,5.6,39.6c-9.8,5.9-23.6-9.1-26.8-21.6l-5.9,17.5c0,0-17.4-3.8-17.2,3.2
									C136.6,501,126.7,512.1,124.7,507L124.7,507z"/>
								<path class="st2" d="M126.3,509.5c-1,0-1.9-0.5-2.4-1.5c-4-1.3-27.1-10.4-33.1-54c-1-13.5,2.7-25,10.7-33.3
									c8.9-9.2,22.6-14.1,37.6-13.5c25.5,1,37.2,22.9,42.6,41.1c1.8,6.3,5,11.5,7.8,16.1c3.5,5.8,6.6,10.9,5.4,15.8
									c-0.8,3.3-3.5,6.2-8.1,9c-3.1,1.8-6.7,2-10.5,0.4c-6.7-2.8-13.7-10.8-17-19.2l-5.1,15l-1.1-0.2c-3.2-0.7-12.2-2-15,0.3
									c-0.5,0.4-0.7,1-0.7,1.7c0.3,11.4-6.1,21.3-10.5,22.2C126.7,509.4,126.5,509.4,126.3,509.5L126.3,509.5z M136.7,409.5
									c-13.4,0-25.5,4.6-33.5,12.8c-7.6,7.9-11,18.4-10,31.4c6.1,45,31.5,52,31.8,52.1l0.6,0.2l0.2,0.6c0.2,0.5,0.4,0.5,0.6,0.5
									c2.6-0.5,8.8-9,8.5-19.8c0-1.4,0.5-2.7,1.6-3.6c3.6-3,12.7-1.7,16-1l6.9-20.4l1,4c2.2,8.8,9.7,18.3,16.7,21.1
									c3.1,1.3,5.9,1.2,8.3-0.2c4.1-2.5,6.4-4.9,7-7.5c1-4-1.7-8.4-5.1-14c-2.9-4.7-6.1-10.1-8.1-16.7
									c-5.1-17.4-16.3-38.4-40.3-39.3C138.2,409.5,137.5,409.5,136.7,409.5L136.7,409.5z"/>
							</g>
							<g>
								<path class="st3" d="M120,482.4c-3.2,33.5,21.6,34.1,21.6,34.1c8.9-5,9.4-33.4,6.7-42.3"/>
								<path class="st2" d="M141.9,517.8h-0.3c-0.4,0-9.4-0.3-16.2-7.9c-5.6-6.3-7.8-15.5-6.6-27.5c0.1-0.7,0.7-1.1,1.3-1.1
									c0.7,0.1,1.2,0.7,1.1,1.3c-1.1,11.3,0.9,19.9,6,25.7c5.3,6,12.5,7,14.1,7.1c7.8-5.1,8.4-32.1,5.8-40.7
									c-0.2-0.6,0.2-1.3,0.8-1.5s1.3,0.2,1.5,0.8c2.9,9.6,2.4,38.3-7.3,43.7L141.9,517.8L141.9,517.8z"/>
							</g>
							<g>
								<path class="st3" d="M161.4,449.4c0,0,5.6,30.8,9.7,52.3c4.1,21.2,3.6,32.4-8.2,34.7c-12.5,2.5-20.4-16-21.2-34.7
									c-0.8-18.8-0.1-32.1-0.1-32.1"/>
								<path class="st2" d="M160.7,537.9c-2.8,0-5.4-1-7.8-2.9c-6.8-5.4-11.7-18.4-12.3-33.2c-0.8-18.6-0.1-32.1-0.1-32.3
									c0-0.7,0.6-1.2,1.3-1.1c0.7,0,1.2,0.6,1.1,1.3c0,0.1-0.7,13.5,0.1,32c0.6,14.1,5.1,26.5,11.4,31.4c2.6,2,5.4,2.7,8.4,2.2
									c9.8-2,11.6-10.4,7.2-33.3c-4.1-21.2-9.7-52-9.7-52.3c-0.1-0.7,0.3-1.3,1-1.4s1.3,0.3,1.4,1c0.1,0.3,5.6,31.1,9.7,52.3
									c4,20.9,3.8,33.6-9.1,36.1C162.3,537.8,161.5,537.9,160.7,537.9L160.7,537.9z"/>
							</g>
						</g>
					</g>
					<g>
						<path class="st8" d="M112.3,138.8v7.4c0,3.1,2.8,5.5,6.3,5.5h15.9c3.5,0,6.3-2.5,6.3-5.5v-7.4c0-47.3,44.4-85.6,98.8-84.9
							c53.3,0.8,95.5,39.7,95.5,86.3v1.7c0,3.4,3.1,6.1,7,6.1h14.7c3.9,0,7-2.7,7-6.1v-1.5c0-60.4-55-110.7-124.1-111.5
							C169.5,28.1,112.3,77.6,112.3,138.8L112.3,138.8z"/>
						<path class="st2" d="M134.5,152.9h-15.9c-4.2,0-7.6-3-7.6-6.8v-7.4c0-27.1,11.3-53.3,31.9-73.6c24.5-24.3,59.8-37.9,96.8-37.5
							C308.8,28.5,365,79,365,140.4v1.5c0,4-3.7,7.3-8.2,7.3h-14.7c-4.5,0-8.2-3.3-8.2-7.3v-1.7c0-46.1-42.3-84.3-94.3-85
							c-0.5,0-1.1,0-1.6,0c-27.5,0-53.6,10.2-71.9,28.3c-15.5,15.3-24.1,35-24.1,55.4v7.4C142.1,149.9,138.7,152.9,134.5,152.9
							L134.5,152.9z M238.1,30.1c-35.8,0-69.7,13.4-93.5,36.8c-20.1,19.8-31.1,45.4-31.1,71.9v7.4c0,2.4,2.3,4.3,5.1,4.3h15.9
							c2.8,0,5.1-1.9,5.1-4.3v-7.4c0-21.1,8.8-41.4,24.8-57.1c19.1-18.8,46.5-29.3,75.2-28.9c53.3,0.8,96.7,40,96.7,87.5v1.7
							c0,2.7,2.6,4.9,5.8,4.9h14.7c3.2,0,5.8-2.2,5.8-4.9v-1.5c0-60.1-55.1-109.5-122.9-110.3C239.1,30.1,238.6,30.1,238.1,30.1
							L238.1,30.1z"/>
					</g>
				</g>
			</g>
		</g>
	</g>
</g>
</svg>
