<?xml version="1.0" encoding="utf-8"?>
<!-- Generator: Adobe Illustrator 28.3.0, SVG Export Plug-In . SVG Version: 6.00 Build 0)  -->
<svg version="1.1" id="bunny-02" xmlns="http://www.w3.org/2000/svg" xmlns:xlink="http://www.w3.org/1999/xlink" x="0px" y="0px"
	 width="443.108px" height="519.503px" viewBox="0 0 443.108 519.503" enable-background="new 0 0 443.108 519.503"
	 xml:space="preserve">
<style>

  svg {
    cursor: pointer;
	  }

svg #arm-right {
	animation: wave 0.8s infinite alternate;
	transform-origin: center;
}

@keyframes wave {
    0% {transform: rotate(0);}
	50% {transform: rotate(15deg);}
    100% {transform: rotate(0);} 
}


svg #left-hand {
	animation: wiggle 0.4s infinite alternate;
	transform-origin: center;
}

@keyframes wiggle {
    0% {transform: translateX(0);}
    50% {transform: translateX(10px);}
	100% {transform: translateX(0);}
}

svg #arm-left {
	animation: sway 0.5s infinite alternate;
	transform-origin: center;
}

@keyframes sway {
    0% {transform: translateX(0);}
    50% {transform: translateX(10px);}
	100% {transform: translateX(0);}
}

svg #head {
	animation: headBang 1s infinite alternate;
	transform-origin: center;
}

@keyframes headBang {
    0% {transform: translateY(0) rotate(0);}
    50% {transform: translateY(10px) rotate(-10deg);}
	100% {transform: translateY(0) rotate(0);}
}

svg #glasses {
	animation: glasses 1s infinite alternate;
	transform-origin: center;
}

@keyframes glasses {
    0% {transform: translateY(0) rotate(0);}
    50% {transform: translateY(15px) rotate(-15deg);}
	100% {transform: translateY(0) rotate(0);}
}


svg #tongue, #top-headset, #bot_headset {
	animation: follow 0.8s infinite alternate;
	transform-origin: center;
}

@keyframes follow {
    0% {transform: rotate(0);}
	50% {transform: rotate(3deg);}
    100% {transform: rotate(0);}
}


svg #arm-right path {
	filter: drop-shadow(0px 0px 5px #ffff)
}

svg #head, #body path, #arm-left, #dj-mixer {
	filter: drop-shadow(0px 0px 8px #ffff)
}


</style>

<g id="arm-right">
	<path fill="#FFFBFF" d="M242.104,303.646c0,0,28.53,3.86,59.73-14.09c23.26-13.39,23.3-32.09,31.9-30.98
		c20.22,2.62,9.66,24,3.22,34.86c-9.47,15.98-23.05,27.12-40.56,34.01c-19.49,7.67-42.65,13.26-63.4,13.9L242.104,303.646
		L242.104,303.646z"/>
	<path fill="#040E09" d="M231.834,342.286l9.58-39.64l0.81,0.11c0.28,0.04,28.61,3.6,59.15-13.98
		c12.78-7.36,18.37-16.23,22.45-22.71c3.27-5.19,5.63-8.95,10.01-8.38c5.71,0.74,9.53,3.01,11.35,6.75
		c2.99,6.14,0.48,16.06-7.46,29.47c-9.36,15.79-23.15,27.36-41,34.39c-21.01,8.27-44.23,13.36-63.7,13.96l-1.19,0.04
		L231.834,342.286z M242.794,304.626l-8.64,35.77c19.03-0.76,41.52-5.76,61.91-13.79c17.71-6.97,30.83-17.97,40.11-33.63
		c9.49-16.01,9.26-23.93,7.39-27.75c-1.54-3.16-4.89-5.09-9.95-5.75c-3.09-0.41-4.86,2.17-8.25,7.55
		c-4.18,6.64-9.91,15.73-23.08,23.31c-28.18,16.22-54.57,14.74-59.48,14.29L242.794,304.626z"/>
	<g id="right-hand">
		<g>
			<path fill="#FFC6C5" d="M329.414,268.976c0,0-8.18-2.68-6.33-12.91s24.54-5.76,30.03,1.22
				C357.974,263.466,353.784,280.026,329.414,268.976z"/>
			<path fill="#040E09" d="M343.634,273.626c-3.64,0-8.39-1.01-14.56-3.81c-0.78-0.29-8.76-3.51-6.88-13.91
				c0.56-3.12,2.87-5.27,6.68-6.22c7.89-1.97,20.72,1.65,24.96,7.04c2.39,3.04,2.97,8.61-0.21,12.66c-1.5,1.92-4.46,4.23-9.97,4.23
				L343.634,273.626z M333.604,250.976c-1.55,0-3.01,0.15-4.3,0.47c-3.1,0.77-4.9,2.38-5.33,4.79c-1.68,9.29,5.43,11.79,5.73,11.89
				l0.09,0.03c10.54,4.78,18.71,4.83,22.4,0.12c2.6-3.31,2.13-7.99,0.21-10.42c-3.06-3.88-11.84-6.87-18.8-6.87L333.604,250.976z"/>
		</g>
		<g>
			<path fill="#FFC6C5" d="M328.164,254.256c0,0-13.13-7.25-10.01-22.94c3.13-15.68,3.33-24.34,8.81-27.43
				c5.47-3.09,10.34-3.28,10.34-3.28s1.61-4.64,1.16-19.18s3.91-24.22,12.58-23.37c8.67,0.85,15.89,14.22,6.89,41.39
				c0,0,5.36-4.75,12.02-1.64s6.82,12.02,6.82,12.02s8.99-7.73,13.54-17.6c4.55-9.87,13.02-15.01,18.66-8.75
				c7.31,8.11-0.08,27.86-26.41,44.11c0,0-2.5,18.51-14.46,28.1c-11.95,9.58-33.6,1.26-39.95-1.42L328.164,254.256z"/>
			<path fill="#040E09" d="M353.264,261.056c-9.83,0-20.13-3.72-25.45-5.97l-0.09-0.04c-0.14-0.08-13.68-7.76-10.46-23.91
				c0.66-3.31,1.2-6.34,1.67-9.01c1.81-10.22,2.9-16.39,7.58-19.03c4.47-2.52,8.52-3.17,10.08-3.34c0.37-1.6,1.31-6.86,0.96-18.31
				c-0.31-10.23,1.73-17.95,5.77-21.72c2.15-2.01,4.77-2.88,7.8-2.58c3.27,0.32,6.22,2.26,8.3,5.47c2.78,4.27,6.35,14.35,0.14,34.67
				c2.33-1.21,6.25-2.41,10.77-0.31c5.21,2.43,6.72,8,7.16,10.94c2.64-2.53,8.61-8.74,12-16.08c3.06-6.64,7.86-11.21,12.52-11.92
				c2.87-0.43,5.5,0.58,7.63,2.93c2.41,2.67,3.34,6.42,2.71,10.86c-1.61,11.27-12.42,24.11-28.96,34.4
				c-0.46,2.92-3.5,19.25-14.72,28.26c-4.29,3.44-9.78,4.67-15.42,4.67L353.264,261.056z M328.564,253.446
				c8.1,3.41,28,10.34,38.99,1.53c11.54-9.25,14.1-27.33,14.13-27.51l0.06-0.42l0.36-0.22c19.17-11.83,27.28-24.98,28.48-33.34
				c0.56-3.89-0.23-7.14-2.26-9.4c-1.72-1.91-3.74-2.7-6.01-2.36c-4.07,0.62-8.34,4.79-11.15,10.89
				c-4.58,9.94-13.4,17.59-13.78,17.91l-1.45,1.25l-0.04-1.92c0-0.08-0.24-8.39-6.3-11.22c-6.02-2.81-10.84,1.32-11.04,1.5
				l-2.5,2.19l1.04-3.16c5.14-15.51,5.45-28.47,0.84-35.55c-1.8-2.77-4.21-4.38-6.96-4.65c-2.49-0.24-4.64,0.46-6.39,2.1
				c-3.65,3.41-5.49,10.64-5.19,20.34c0.45,14.55-1.14,19.31-1.21,19.51l-0.2,0.58l-0.62,0.03c0,0-4.74,0.23-9.93,3.16
				c-3.94,2.22-4.98,8.07-6.69,17.77c-0.47,2.68-1.01,5.72-1.67,9.05c-2.9,14.55,8.61,21.43,9.52,21.95L328.564,253.446z"/>
		</g>
		<path fill="#040E09" d="M361.014,235.346c-3.1,0-5.77-1.28-7.41-2.82c-3.49-3.27-1.95-8.44-1.89-8.65
			c0.15-0.48,0.65-0.75,1.13-0.6s0.75,0.65,0.6,1.13c-0.01,0.04-1.26,4.31,1.39,6.8c2.36,2.21,8.49,4.68,14.77-1.83
			c5.94-6.15,6.89-20.03,6.9-20.16c0.03-0.5,0.47-0.86,0.96-0.85c0.5,0.03,0.88,0.46,0.85,0.96c-0.04,0.6-1.01,14.68-7.41,21.31
			c-3.35,3.47-6.84,4.72-9.9,4.72L361.014,235.346z"/>
		<path fill="#040E09" d="M352.694,224.496c-0.91,0-1.89-0.09-2.93-0.29c-5.68-1.09-9.58-2.51-12.42-3.55
			c-2.29-0.84-3.95-1.45-4.82-1.17c-0.48,0.15-0.98-0.12-1.13-0.6s0.12-0.98,0.6-1.13c1.46-0.45,3.16,0.17,5.98,1.2
			c2.79,1.02,6.61,2.42,12.14,3.48c3.83,0.74,7.22-0.15,9.82-2.54c2.99-2.76,4.77-7.57,4.32-11.69c-0.23-2.11-0.96-3.63-2.25-4.65
			c-1.75-1.38-4.52-1.82-8.47-1.33c-5.03,0.63-15.86-0.66-16.32-0.71c-0.5-0.06-0.85-0.51-0.79-1.01c0.06-0.49,0.5-0.84,1.01-0.79
			c0.11,0.01,11.08,1.31,15.88,0.71c4.46-0.56,7.67,0,9.82,1.7c1.66,1.31,2.64,3.29,2.92,5.87c0.43,3.94-0.92,9.56-4.89,13.22
			c-1.72,1.59-4.49,3.28-8.46,3.28H352.694z"/>
		<path fill="#040E09" d="M347.594,244.436c-0.11,0-0.22-0.02-0.33-0.06c-0.47-0.18-0.7-0.7-0.52-1.17
			c4.54-11.79-5.54-21.22-5.64-21.31c-0.37-0.34-0.39-0.91-0.06-1.28c0.34-0.37,0.91-0.39,1.28-0.06c0.11,0.1,11.1,10.34,6.11,23.3
			C348.294,244.216,347.954,244.436,347.594,244.436L347.594,244.436z"/>
	</g>
</g>
<g id="arm-left">
	<path fill="#FFFBFF" d="M169.474,308.686c0,0-55.41-15.47-80.57,12.21c-25.16,27.69-9.44,46.75,24.03,55.2l24.7-8.72
		c0,0-27.66-15.08-14.64-24.7c13.02-9.63,54.75,0,54.75,0l-6.83-32.23"/>
	<path fill="#040E09" d="M112.974,377.046l-0.27-0.07c-20.35-5.14-32.88-13.71-36.22-24.79c-2.85-9.45,1.1-20.18,11.74-31.89
		c25.25-27.78,80.93-12.64,81.48-12.48c0.48,0.13,0.76,0.63,0.63,1.11c-0.13,0.48-0.63,0.76-1.11,0.63
		c-0.55-0.15-55.16-15-79.66,11.95c-10.19,11.21-14.01,21.35-11.35,30.15c3.13,10.39,15.12,18.51,34.66,23.49l22.59-7.97
		c-4.53-2.72-16.34-10.49-16.86-18.03c-0.19-2.76,1.1-5.18,3.83-7.2c12-8.87,46.63-2.07,54.11-0.46l-6.54-30.85
		c-0.1-0.49,0.21-0.97,0.7-1.07c0.49-0.11,0.97,0.21,1.07,0.7l7.12,33.62l-1.38-0.32c-0.41-0.09-41.47-9.42-54.01-0.15
		c-2.24,1.65-3.25,3.49-3.1,5.62c0.56,8.16,17.47,17.47,17.64,17.56l1.78,0.97l-26.88,9.49L112.974,377.046z"/>
</g>
<g id="body">
	<g>
		<path fill="#FFFBFF" d="M260.584,365.526c8.57,48.02,19.27,88.83-60.49,88.83s-67.28-40.42-60.49-88.83
			c6.6-47.14,27.08-88.83,60.49-88.83S250.614,309.636,260.584,365.526z"/>
		<path fill="#040E09" d="M200.094,455.266c-29.09,0-47.95-5.48-57.65-16.74c-12.53-14.56-9.18-36.77-5.31-62.5
			c0.53-3.49,1.06-7.04,1.56-10.63c6.07-43.32,25.38-89.61,61.39-89.61c31.39,0,50.33,27.63,61.38,89.58
			c0.34,1.9,0.68,3.79,1.02,5.67c4.98,27.46,9.28,51.17-3.74,66.76c-9.81,11.75-29,17.46-58.67,17.46L200.094,455.266z
			 M200.094,277.596c-34.85,0-53.64,45.49-59.6,88.05c-0.5,3.6-1.04,7.15-1.57,10.64c-3.81,25.28-7.1,47.11,4.89,61.05
			c9.33,10.84,27.74,16.11,56.27,16.11s47.83-5.5,57.28-16.81c12.48-14.94,8.25-38.27,3.35-65.28c-0.34-1.88-0.68-3.77-1.02-5.68
			c-10.88-60.92-29.26-88.09-59.6-88.09L200.094,277.596z"/>
	</g>
	<g>
		<ellipse fill="#FFC6C5" cx="200.494" cy="359.696" rx="41.65" ry="62.49"/>
		<path fill="#040E09" d="M200.494,423.086c-23.47,0-42.56-28.44-42.56-63.4s19.09-63.4,42.56-63.4s42.56,28.44,42.56,63.4
			S223.964,423.086,200.494,423.086z M200.494,298.106c-22.47,0-40.75,27.63-40.75,61.59s18.28,61.59,40.75,61.59
			s40.75-27.63,40.75-61.59S222.964,298.106,200.494,298.106L200.494,298.106z"/>
	</g>
</g>
<g id="dj-mixer">
	<g>
		<path fill="#CC4627" d="M44.634,471.386c-7.26,0-13.18-5.91-13.18-13.17v-14.35h320.14v14.35c0,7.26-5.91,13.17-13.17,13.17
			H44.634z"/>
		<path fill="#040E09" d="M350.704,444.766v13.44c0,6.78-5.49,12.27-12.27,12.27h-293.8c-6.78,0-12.27-5.49-12.27-12.27v-13.44
			h318.33 M352.514,442.956H30.554v15.25c0,7.76,6.32,14.08,14.08,14.08h293.79c7.76,0,14.08-6.32,14.08-14.08v-15.25l0,0H352.514z"
			/>
	</g>
	<g>
		<path fill="#FF9F45" d="M42.994,455.796c-4.02,0-7.68-2.04-9.8-5.46c-2.12-3.42-2.32-7.61-0.53-11.21l29.64-59.72
			c1.96-3.95,5.92-6.41,10.33-6.41h237.8c4.41,0,8.37,2.46,10.33,6.41l29.64,59.72c1.79,3.6,1.59,7.79-0.53,11.21
			s-5.78,5.46-9.8,5.46H42.994z"/>
		<path fill="#040E09" d="M310.434,373.906c4.04,0,7.73,2.29,9.52,5.9l29.64,59.72c3.51,7.07-1.63,15.36-9.52,15.36H42.994
			c-7.89,0-13.03-8.29-9.52-15.36l29.64-59.72c1.79-3.62,5.48-5.9,9.52-5.9H310.434 M310.434,372.096h-237.8
			c-4.76,0-9.03,2.65-11.14,6.91l-29.64,59.72c-1.93,3.88-1.71,8.4,0.57,12.09c2.28,3.68,6.24,5.88,10.57,5.88h297.08
			c4.34,0,8.29-2.2,10.57-5.88s2.5-8.2,0.57-12.09l-29.64-59.72C319.454,374.746,315.184,372.096,310.434,372.096L310.434,372.096z"
			/>
	</g>
	<path fill="#FFFFFF" d="M167.824,404.316c0,5.34-14.31,9.66-31.94,9.66c-0.29,0-0.59,0-0.87-0.01
		c-17.24-0.13-31.07-4.39-31.07-9.64s14.29-9.64,31.94-9.64c9.9,0,18.76,1.36,24.61,3.51c4.58,1.67,7.33,3.81,7.33,6.14V404.316z"/>
	<g>
		<path fill="#B36BEE" d="M203.854,406.996L203.854,406.996c-0.13-0.9-0.36-1.77-0.7-2.63v-0.03
			c-5.04-12.53-33.24-22.14-67.27-22.14s-62.24,9.6-67.27,22.14v0.03c-0.36,0.86-0.59,1.73-0.72,2.62l0,0
			c-0.06,0.46-0.09,0.9-0.09,1.36c0,14.44,30.48,26.14,68.07,26.14s68.05-11.7,68.05-26.14c0-0.46-0.03-0.9-0.09-1.35
			L203.854,406.996z M135.884,413.976c-17.64,0-31.94-4.32-31.94-9.66s14.29-9.64,31.94-9.64s31.94,4.32,31.94,9.64
			S153.514,413.976,135.884,413.976z"/>
		<path fill="#040E09" d="M135.884,435.386c-38.68,0-68.97-11.88-68.97-27.05c0-0.47,0.03-0.93,0.09-1.4v-0.09
			c0.15-0.97,0.4-1.92,0.77-2.83l0.05-0.1c5.24-13.09,33.88-22.64,68.08-22.64s62.82,9.55,68.09,22.7c0.37,0.93,0.63,1.88,0.77,2.85
			v0.09c0.07,0.47,0.1,0.93,0.1,1.4c0,15.17-30.29,27.05-68.96,27.05L135.884,435.386z M68.804,407.066v0.05
			c-0.06,0.41-0.08,0.81-0.08,1.23c0,13.92,30.13,25.24,67.16,25.24s67.15-11.32,67.15-25.24c0-0.41-0.03-0.82-0.08-1.23v-0.06
			c-0.13-0.81-0.34-1.6-0.64-2.35c-4.94-12.32-33.49-21.6-66.43-21.6s-61.5,9.27-66.43,21.57l-0.05,0.1
			c-0.27,0.69-0.49,1.48-0.61,2.3L68.804,407.066z M135.884,414.886c-15.92,0-32.84-3.7-32.84-10.56s16.92-10.55,32.84-10.55
			s32.84,3.7,32.84,10.55S151.804,414.886,135.884,414.886z M135.884,395.576c-18.29,0-31.03,4.61-31.03,8.74s12.74,8.75,31.03,8.75
			s31.03-4.61,31.03-8.75S154.174,395.576,135.884,395.576z"/>
	</g>
	<g>
		<path fill="#41217B" d="M206.694,417.566c0,15.02-31.71,27.2-70.82,27.2s-70.83-12.18-70.83-27.2l2.85-10.57
			c-0.06,0.44-0.09,0.89-0.09,1.35c0,14.44,30.48,26.14,68.07,26.14s68.05-11.7,68.05-26.14c0-0.46-0.03-0.9-0.09-1.35l2.85,10.57
			H206.694z"/>
		<path fill="#040E09" d="M135.884,445.676c-40.23,0-71.74-12.35-71.74-28.11l0.03-0.24l2.85-10.57l1.77,0.35
			c-0.05,0.41-0.08,0.82-0.08,1.23c0,13.92,30.13,25.24,67.16,25.24s67.15-11.32,67.15-25.24c0-0.41-0.03-0.82-0.08-1.23l1.77-0.35
			l2.88,10.81c0,15.76-31.5,28.11-71.72,28.11L135.884,445.676z M65.954,417.686c0.17,14.45,31.47,26.18,69.92,26.18
			s69.74-11.73,69.91-26.18l-1.54-5.72c-4.39,13.39-32.85,23.42-68.37,23.42s-63.99-10.03-68.39-23.42l-1.54,5.72H65.954z"/>
	</g>
	<path fill="#002846" d="M309.444,413.446l-10.45-29c-0.15-0.41,0.07-0.87,0.48-1.01c0.39-0.14,0.82,0.05,0.99,0.41l12.96,27.97
		c0.5,1.08,0.03,2.35-1.05,2.85s-2.35,0.03-2.85-1.05c-0.03-0.06-0.05-0.12-0.07-0.17H309.444z M272.224,413.406
		c0.38,1.13,1.59,1.73,2.72,1.36c1.13-0.38,1.73-1.59,1.36-2.72l-9.39-28.12c-0.13-0.38-0.53-0.61-0.93-0.52
		c-0.43,0.1-0.69,0.53-0.59,0.95l6.78,28.86C272.184,413.276,272.204,413.346,272.224,413.406L272.224,413.406z M234.934,413.156
		c0.24,1.16,1.37,1.91,2.54,1.68c1.16-0.24,1.91-1.37,1.68-2.54l-5.77-28.28c-0.08-0.39-0.45-0.67-0.86-0.63
		c-0.44,0.05-0.75,0.44-0.7,0.87l3.1,28.7c0,0.07,0.02,0.13,0.03,0.2H234.934z"/>
	<path fill="#002846" d="M329.134,440.156h-16.71c-1.94,0-3.68-1.21-4.36-3.03l-2.91-7.89c-1.12-3.03,1.12-6.25,4.36-6.25h16.04
		c1.82,0,3.48,1.07,4.23,2.73l3.57,7.89c1.39,3.07-0.85,6.56-4.23,6.56L329.134,440.156z M293.624,434.076l-2.58-7.89
		c-0.62-1.91-2.4-3.2-4.41-3.2h-16.42c-3,0-5.22,2.81-4.51,5.73l1.9,7.89c0.5,2.09,2.37,3.56,4.51,3.56h17.1
		c3.16,0,5.39-3.08,4.41-6.08V434.076z M253.784,434.606l-1.57-7.89c-0.43-2.17-2.34-3.74-4.55-3.74h-16.68
		c-2.77,0-4.93,2.41-4.61,5.17l0.89,7.89c0.27,2.35,2.25,4.12,4.61,4.12h17.35c2.93,0,5.13-2.68,4.55-5.55L253.784,434.606z
		 M309.514,422.986h16.04c1.82,0,3.48,1.07,4.23,2.73l3.57,7.89 M293.624,434.076l-2.58-7.89c-0.62-1.91-2.4-3.2-4.41-3.2h-16.42
		 M253.784,434.606l-1.57-7.89c-0.43-2.17-2.34-3.74-4.55-3.74h-16.68"/>
	<path fill="#002846" d="M241.824,406.986c0,1.18-0.96,2.15-2.15,2.15h-7.08c-1.18,0-2.15-0.96-2.15-2.15s0.96-2.15,2.15-2.15h7.08
		C240.864,404.836,241.824,405.796,241.824,406.986z M273.734,396.236h-7.08c-1.18,0-2.15,0.96-2.15,2.15s0.96,2.15,2.15,2.15h7.08
		c1.18,0,2.15-0.96,2.15-2.15S274.924,396.236,273.734,396.236z M311.424,401.816h-7.08c-1.19,0-2.15,0.96-2.15,2.15
		s0.96,2.15,2.15,2.15h7.08c1.18,0,2.15-0.96,2.15-2.15S312.614,401.816,311.424,401.816z"/>
	<g>
		<g>
			<g>
				<defs>
					<polygon id="SVGID_1_" points="31.544,48.216 32.544,48.216 31.544,49.216 					"/>
				</defs>
				<defs>
					<polygon id="SVGID_00000011005348537166978460000015802080207975782328_" points="29.544,46.216 28.544,46.216 29.544,45.216 
											"/>
				</defs>
				<clipPath id="SVGID_00000080173508734357993620000002339119669794877614_">
					<use xlink:href="#SVGID_1_"  overflow="visible"/>
				</clipPath>
				
					<clipPath id="SVGID_00000047018786198921230780000008303765165612973747_" clip-path="url(#SVGID_00000080173508734357993620000002339119669794877614_)">
					<use xlink:href="#SVGID_00000011005348537166978460000015802080207975782328_"  overflow="visible"/>
				</clipPath>
				<g clip-path="url(#SVGID_00000047018786198921230780000008303765165612973747_)">
					<polygon fill="#BFBFBF" points="312.794,422.986 309.514,423.396 309.514,422.986 					"/>
					<polygon fill="#C0C0C0" points="316.674,422.986 309.514,423.876 309.514,423.396 312.794,422.986 					"/>
					<polygon fill="#C1C1C1" points="320.554,422.986 309.514,424.356 309.514,423.876 316.674,422.986 					"/>
					<polygon fill="#C2C2C2" points="324.434,422.986 309.514,424.836 309.514,424.356 320.554,422.986 					"/>
					<polygon fill="#C3C3C3" points="328.314,422.986 309.514,425.326 309.514,424.836 324.434,422.986 					"/>
					<polygon fill="#C4C4C4" points="332.204,422.986 309.514,425.806 309.514,425.326 328.314,422.986 					"/>
					<polygon fill="#C5C5C5" points="333.364,423.326 309.514,426.286 309.514,425.806 332.204,422.986 333.364,422.986 					"/>
					<polygon fill="#C7C7C7" points="333.364,423.806 309.514,426.766 309.514,426.286 333.364,423.326 					"/>
					<polygon fill="#C8C8C8" points="333.364,424.286 309.514,427.246 309.514,426.766 333.364,423.806 					"/>
					<polygon fill="#C9C9C9" points="333.364,424.766 309.514,427.726 309.514,427.246 333.364,424.286 					"/>
					<polygon fill="#CACACA" points="333.364,425.256 309.514,428.216 309.514,427.726 333.364,424.766 					"/>
					<polygon fill="#CBCBCB" points="333.364,425.736 309.514,428.696 309.514,428.216 333.364,425.256 					"/>
					<polygon fill="#CCCCCC" points="333.364,426.216 309.514,429.176 309.514,428.696 333.364,425.736 					"/>
					<polygon fill="#CDCDCD" points="333.364,426.696 309.514,429.656 309.514,429.176 333.364,426.216 					"/>
					<polygon fill="#CECECE" points="333.364,427.176 309.514,430.136 309.514,429.656 333.364,426.696 					"/>
					<polygon fill="#CFCFCF" points="333.364,427.666 309.514,430.616 309.514,430.136 333.364,427.176 					"/>
					<polygon fill="#D1D1D1" points="333.364,428.146 309.514,431.106 309.514,430.616 333.364,427.666 					"/>
					<polygon fill="#D2D2D2" points="333.364,428.626 309.514,431.586 309.514,431.106 333.364,428.146 					"/>
					<polygon fill="#D3D3D3" points="333.364,429.106 309.514,432.066 309.514,431.586 333.364,428.626 					"/>
					<polygon fill="#D4D4D4" points="333.364,429.586 309.514,432.546 309.514,432.066 333.364,429.106 					"/>
					<polygon fill="#D5D5D5" points="333.364,430.066 309.514,433.026 309.514,432.546 333.364,429.586 					"/>
					<polygon fill="#D6D6D6" points="333.364,430.556 309.514,433.516 309.514,433.026 333.364,430.066 					"/>
					<polygon fill="#D8D8D8" points="333.364,431.036 312.694,433.596 309.514,433.596 309.514,433.516 333.364,430.556 					"/>
					<polygon fill="#D9D9D9" points="333.364,431.516 316.574,433.596 312.694,433.596 333.364,431.036 					"/>
					<polygon fill="#DADADA" points="333.364,431.996 320.454,433.596 316.574,433.596 333.364,431.516 					"/>
					<polygon fill="#DBDBDB" points="333.364,432.476 324.334,433.596 320.454,433.596 333.364,431.996 					"/>
					<polygon fill="#DCDCDC" points="333.364,432.956 328.214,433.596 324.334,433.596 333.364,432.476 					"/>
					<polygon fill="#DEDEDE" points="333.364,433.446 332.104,433.596 328.214,433.596 333.364,432.956 					"/>
					<polygon fill="#DFDFDF" points="332.104,433.596 333.364,433.446 333.364,433.596 					"/>
				</g>
			</g>
		</g>
		<g>
			<g>
				<defs>
					<polygon id="SVGID_00000097492399927950791000000009609969293417548956_" points="31.544,48.216 32.544,48.216 31.544,49.216 
											"/>
				</defs>
				<defs>
					<polygon id="SVGID_00000142162241048330695030000005334695546375639949_" points="29.544,46.216 28.544,46.216 29.544,45.216 
											"/>
				</defs>
				<clipPath id="SVGID_00000090975372394977909100000003889876499693717906_">
					<use xlink:href="#SVGID_00000097492399927950791000000009609969293417548956_"  overflow="visible"/>
				</clipPath>
				
					<clipPath id="SVGID_00000147939360680730229280000009161756862618555786_" clip-path="url(#SVGID_00000090975372394977909100000003889876499693717906_)">
					<use xlink:href="#SVGID_00000142162241048330695030000005334695546375639949_"  overflow="visible"/>
				</clipPath>
				<g clip-path="url(#SVGID_00000147939360680730229280000009161756862618555786_)">
					<polygon fill="#BFBFBF" points="273.584,422.986 270.214,423.406 270.214,422.986 					"/>
					<polygon fill="#C0C0C0" points="277.594,422.986 270.214,423.906 270.214,423.406 273.584,422.986 					"/>
					<polygon fill="#C1C1C1" points="281.594,422.986 270.214,424.396 270.214,423.906 277.594,422.986 					"/>
					<polygon fill="#C2C2C2" points="285.594,422.986 270.214,424.896 270.214,424.396 281.594,422.986 					"/>
					<polygon fill="#C3C3C3" points="289.594,422.986 270.214,425.396 270.214,424.896 285.594,422.986 					"/>
					<polygon fill="#C4C4C4" points="293.604,422.986 270.214,425.886 270.214,425.396 289.594,422.986 					"/>
					<polygon fill="#C5C5C5" points="293.624,423.486 270.214,426.386 270.214,425.886 293.604,422.986 293.624,422.986 					"/>
					<polygon fill="#C7C7C7" points="293.624,423.976 270.214,426.886 270.214,426.386 293.624,423.486 					"/>
					<polygon fill="#C8C8C8" points="293.624,424.476 270.214,427.376 270.214,426.886 293.624,423.976 					"/>
					<polygon fill="#C9C9C9" points="293.624,424.976 270.214,427.876 270.214,427.376 293.624,424.476 					"/>
					<polygon fill="#CACACA" points="293.624,425.466 270.214,428.376 270.214,427.876 293.624,424.976 					"/>
					<polygon fill="#CBCBCB" points="293.624,425.966 270.214,428.866 270.214,428.376 293.624,425.466 					"/>
					<polygon fill="#CCCCCC" points="293.624,426.466 270.214,429.366 270.214,428.866 293.624,425.966 					"/>
					<polygon fill="#CDCDCD" points="293.624,426.956 270.214,429.866 270.214,429.366 293.624,426.466 					"/>
					<polygon fill="#CECECE" points="293.624,427.456 270.214,430.356 270.214,429.866 293.624,426.956 					"/>
					<polygon fill="#CFCFCF" points="293.624,427.956 270.214,430.856 270.214,430.356 293.624,427.456 					"/>
					<polygon fill="#D1D1D1" points="293.624,428.446 270.214,431.356 270.214,430.856 293.624,427.956 					"/>
					<polygon fill="#D2D2D2" points="293.624,428.946 270.214,431.856 270.214,431.356 293.624,428.446 					"/>
					<polygon fill="#D3D3D3" points="293.624,429.446 270.214,432.346 270.214,431.856 293.624,428.946 					"/>
					<polygon fill="#D4D4D4" points="293.624,429.936 270.214,432.846 270.214,432.346 293.624,429.446 					"/>
					<polygon fill="#D5D5D5" points="293.624,430.436 270.214,433.346 270.214,432.846 293.624,429.936 					"/>
					<polygon fill="#D6D6D6" points="293.624,430.936 270.214,433.836 270.214,433.346 293.624,430.436 					"/>
					<polygon fill="#D8D8D8" points="293.624,431.426 272.314,434.076 270.214,434.076 270.214,433.836 293.624,430.936 					"/>
					<polygon fill="#D9D9D9" points="293.624,431.926 276.314,434.076 272.314,434.076 293.624,431.426 					"/>
					<polygon fill="#DADADA" points="293.624,432.426 280.314,434.076 276.314,434.076 293.624,431.926 					"/>
					<polygon fill="#DBDBDB" points="293.624,432.916 284.314,434.076 280.314,434.076 293.624,432.426 					"/>
					<polygon fill="#DCDCDC" points="293.624,433.416 288.324,434.076 284.314,434.076 293.624,432.916 					"/>
					<polygon fill="#DEDEDE" points="293.624,433.916 292.324,434.076 288.324,434.076 293.624,433.416 					"/>
					<polygon fill="#DFDFDF" points="292.324,434.076 293.624,433.916 293.624,434.076 					"/>
				</g>
			</g>
		</g>
		<g>
			<g>
				<defs>
					<polygon id="SVGID_00000113328359402341123200000008667494066902174339_" points="31.544,48.216 32.544,48.216 31.544,49.216 
											"/>
				</defs>
				<defs>
					<polygon id="SVGID_00000020395791336496295220000001494431153167233172_" points="29.544,46.216 28.544,46.216 29.544,45.216 
											"/>
				</defs>
				<clipPath id="SVGID_00000132052051431031971580000001185421970903914926_">
					<use xlink:href="#SVGID_00000113328359402341123200000008667494066902174339_"  overflow="visible"/>
				</clipPath>
				
					<clipPath id="SVGID_00000166652350916412993880000003179841505489555898_" clip-path="url(#SVGID_00000132052051431031971580000001185421970903914926_)">
					<use xlink:href="#SVGID_00000020395791336496295220000001494431153167233172_"  overflow="visible"/>
				</clipPath>
				<g clip-path="url(#SVGID_00000166652350916412993880000003179841505489555898_)">
					<polygon fill="#BFBFBF" points="234.464,422.986 230.984,423.416 230.984,422.986 					"/>
					<polygon fill="#C0C0C0" points="238.604,422.986 230.984,423.936 230.984,423.416 234.464,422.986 					"/>
					<polygon fill="#C1C1C1" points="242.734,422.986 230.984,424.446 230.984,423.936 238.604,422.986 					"/>
					<polygon fill="#C2C2C2" points="246.874,422.986 230.984,424.956 230.984,424.446 242.734,422.986 					"/>
					<polygon fill="#C3C3C3" points="251.004,422.986 230.984,425.476 230.984,424.956 246.874,422.986 					"/>
					<polygon fill="#C4C4C4" points="253.784,423.156 230.984,425.986 230.984,425.476 251.004,422.986 253.784,422.986 					"/>
					<polygon fill="#C5C5C5" points="253.784,423.666 230.984,426.496 230.984,425.986 253.784,423.156 					"/>
					<polygon fill="#C7C7C7" points="253.784,424.186 230.984,427.016 230.984,426.496 253.784,423.666 					"/>
					<polygon fill="#C8C8C8" points="253.784,424.696 230.984,427.526 230.984,427.016 253.784,424.186 					"/>
					<polygon fill="#C9C9C9" points="253.784,425.206 230.984,428.036 230.984,427.526 253.784,424.696 					"/>
					<polygon fill="#CACACA" points="253.784,425.716 230.984,428.546 230.984,428.036 253.784,425.206 					"/>
					<polygon fill="#CBCBCB" points="253.784,426.236 230.984,429.066 230.984,428.546 253.784,425.716 					"/>
					<polygon fill="#CCCCCC" points="253.784,426.746 230.984,429.576 230.984,429.066 253.784,426.236 					"/>
					<polygon fill="#CDCDCD" points="253.784,427.256 230.984,430.086 230.984,429.576 253.784,426.746 					"/>
					<polygon fill="#CECECE" points="253.784,427.776 230.984,430.606 230.984,430.086 253.784,427.256 					"/>
					<polygon fill="#CFCFCF" points="253.784,428.286 230.984,431.116 230.984,430.606 253.784,427.776 					"/>
					<polygon fill="#D1D1D1" points="253.784,428.796 230.984,431.626 230.984,431.116 253.784,428.286 					"/>
					<polygon fill="#D2D2D2" points="253.784,429.316 230.984,432.146 230.984,431.626 253.784,428.796 					"/>
					<polygon fill="#D3D3D3" points="253.784,429.826 230.984,432.656 230.984,432.146 253.784,429.316 					"/>
					<polygon fill="#D4D4D4" points="253.784,430.336 230.984,433.166 230.984,432.656 253.784,429.826 					"/>
					<polygon fill="#D5D5D5" points="253.784,430.856 230.984,433.676 230.984,433.166 253.784,430.336 					"/>
					<polygon fill="#D6D6D6" points="253.784,431.366 230.984,434.196 230.984,433.676 253.784,430.856 					"/>
					<polygon fill="#D8D8D8" points="253.784,431.876 231.764,434.606 230.984,434.606 230.984,434.196 253.784,431.366 					"/>
					<polygon fill="#D9D9D9" points="253.784,432.386 235.904,434.606 231.764,434.606 253.784,431.876 					"/>
					<polygon fill="#DADADA" points="253.784,432.906 240.034,434.606 235.904,434.606 253.784,432.386 					"/>
					<polygon fill="#DBDBDB" points="253.784,433.416 244.174,434.606 240.034,434.606 253.784,432.906 					"/>
					<polygon fill="#DCDCDC" points="253.784,433.926 248.304,434.606 244.174,434.606 253.784,433.416 					"/>
					<polygon fill="#DEDEDE" points="253.784,434.446 252.434,434.606 248.304,434.606 253.784,433.926 					"/>
					<polygon fill="#DFDFDF" points="252.434,434.606 253.784,434.446 253.784,434.606 					"/>
				</g>
			</g>
		</g>
	</g>
</g>
<g id="head">
	<g id="ear-left">
		<g>
			<path fill="#FFFBFF" d="M165.404,156.586c0,0-7.07-76.61-24.66-88.16s-25.25,10.54-24.63,17.41c0.62,6.87,26.58,83.4,26.58,83.4"
				/>
			<path fill="#040E09" d="M142.684,170.146c-0.38,0-0.73-0.24-0.86-0.61c-1.06-3.13-26.01-76.71-26.62-83.61
				c-0.42-4.65,2.59-15.59,9.82-19.92c3.26-1.95,8.71-3.25,16.21,1.68c17.75,11.65,24.78,85.69,25.07,88.83
				c0.05,0.5-0.32,0.94-0.82,0.98c-0.51,0.05-0.94-0.32-0.98-0.82c-0.07-0.76-7.23-76.3-24.26-87.48
				c-5.39-3.54-10.19-4.09-14.28-1.64c-6.5,3.89-9.32,14.07-8.95,18.21c0.6,6.68,26.28,82.42,26.54,83.19
				c0.16,0.47-0.09,0.99-0.57,1.15c-0.1,0.03-0.19,0.05-0.29,0.05L142.684,170.146z"/>
		</g>
		<g>
			<path fill="#FF8981" d="M156.344,160.986c0,0-12.08-60.79-22.77-67.52s-17.69,28.49,9.68,77.02"/>
			<path fill="#040E09" d="M143.254,171.396c-0.32,0-0.62-0.17-0.79-0.46c-21.71-38.5-22.59-70.39-14.9-77.71
				c1.88-1.79,4.18-1.97,6.49-0.52c10.9,6.86,22.68,65.62,23.18,68.11c0.1,0.49-0.22,0.97-0.71,1.06c-0.5,0.1-0.97-0.22-1.06-0.71
				c-0.12-0.6-12.13-60.48-22.37-66.93c-1.61-1.01-3-0.91-4.27,0.3c-6.39,6.08-6.76,36.52,15.23,75.51
				c0.25,0.44,0.09,0.99-0.34,1.23c-0.14,0.08-0.29,0.12-0.44,0.12H143.254z"/>
		</g>
		<g>
			<path fill="#FFFBFF" d="M139.064,93.676c0,0-4.75,57.36-41.69,54.3c-36.94-3.06-6.86-74.18,32.74-82.8"/>
			<path fill="#040E09" d="M100.134,148.996c-0.94,0-1.88-0.04-2.84-0.12c-10.58-0.88-16.8-7.36-17.52-18.25
				c-0.74-11.2,4.59-26.32,13.9-39.44c10.13-14.28,23.34-24.09,36.24-26.9c0.49-0.11,0.97,0.2,1.08,0.69
				c0.11,0.49-0.2,0.97-0.69,1.08c-12.46,2.71-25.28,12.26-35.15,26.18c-9.08,12.8-14.28,27.47-13.57,38.28
				c0.46,6.99,3.59,15.54,15.86,16.56c14.87,1.23,26.25-7.33,33.79-25.44c5.69-13.67,6.92-27.88,6.93-28.03
				c0.04-0.5,0.47-0.85,0.98-0.83c0.5,0.04,0.87,0.48,0.83,0.98c-0.01,0.14-1.27,14.64-7.06,28.57
				c-7.28,17.51-18.57,26.67-32.77,26.67L100.134,148.996z"/>
		</g>
	</g>
	<g id="bot_headset">
		<g>
			<path fill="#FFFBFF" d="M120.794,200.386h-0.72c-2.85,0-5.17-2.31-5.17-5.17v-58.7h11.05v58.7c0,2.85-2.31,5.17-5.17,5.17
				H120.794z"/>
			<path fill="#040E09" d="M120.784,201.286h-0.72c-3.35,0-6.07-2.72-6.07-6.07v-59.61h12.86v59.61
				C126.854,198.566,124.134,201.286,120.784,201.286z M115.804,137.426v57.8c0,2.35,1.91,4.26,4.26,4.26h0.72
				c2.35,0,4.26-1.91,4.26-4.26v-57.8C125.044,137.426,115.804,137.426,115.804,137.426z"/>
		</g>
		<g>
			<g>
				<path fill="#0086F8" d="M129.754,155.946c15.19,0,27.49,17.33,27.49,38.7s-12.3,38.7-27.49,38.7s-27.47-17.34-27.47-38.7
					C102.284,173.266,114.584,155.946,129.754,155.946z"/>
				<path fill="#0086F8" d="M114.184,155.946h15.57c-15.17,0-27.47,17.33-27.47,38.7s12.3,38.7,27.47,38.7h-15.57
					c-15.19,0-27.49-17.34-27.49-38.7C86.694,173.266,98.994,155.946,114.184,155.946z"/>
				<path fill="#0086F8" d="M132.324,177.886c6.57,0,11.9,7.5,11.9,16.76s-5.33,16.76-11.9,16.76c-6.57,0-11.9-7.5-11.9-16.76
					S125.754,177.886,132.324,177.886z"/>
			</g>
			<g>
				<g>
					<path fill="#41217B" d="M129.754,155.946c15.19,0,27.49,17.33,27.49,38.7s-12.3,38.7-27.49,38.7s-27.47-17.34-27.47-38.7
						C102.284,173.266,114.584,155.946,129.754,155.946z"/>
					<path fill="#040E09" d="M129.754,234.256c-15.65,0-28.38-17.77-28.38-39.61s12.73-39.61,28.38-39.61s28.39,17.77,28.39,39.61
						S145.404,234.256,129.754,234.256z M129.754,156.846c-14.65,0-26.57,16.96-26.57,37.8s11.92,37.8,26.57,37.8
						s26.58-16.96,26.58-37.8S144.414,156.846,129.754,156.846z"/>
				</g>
				<g>
					<path fill="#B36BEE" d="M114.184,155.946h15.57c-15.17,0-27.47,17.33-27.47,38.7s12.3,38.7,27.47,38.7h-15.57
						c-15.19,0-27.49-17.34-27.49-38.7C86.694,173.266,98.994,155.946,114.184,155.946z"/>
					<path fill="#040E09" d="M129.754,234.256h-15.57c-15.66,0-28.39-17.77-28.39-39.61s12.74-39.61,28.39-39.61h15.57v1.81
						c-14.65,0-26.57,16.96-26.57,37.8s11.92,37.8,26.57,37.8V234.256z M114.184,156.846c-14.66,0-26.58,16.96-26.58,37.8
						s11.92,37.8,26.58,37.8h7.08c-11.51-5.05-19.89-20.08-19.89-37.8s8.37-32.75,19.89-37.8
						C121.264,156.846,114.184,156.846,114.184,156.846z"/>
				</g>
				<g>
					<path fill="#B36BEE" d="M132.324,177.886c6.57,0,11.9,7.5,11.9,16.76s-5.33,16.76-11.9,16.76c-6.57,0-11.9-7.5-11.9-16.76
						S125.754,177.886,132.324,177.886z"/>
					<path fill="#040E09" d="M132.324,212.316c-7.06,0-12.81-7.93-12.81-17.67s5.75-17.67,12.81-17.67
						c7.06,0,12.81,7.93,12.81,17.67S139.394,212.316,132.324,212.316z M132.324,178.786c-6.06,0-11,7.11-11,15.86
						s4.93,15.86,11,15.86c6.07,0,11-7.11,11-15.86S138.394,178.786,132.324,178.786z"/>
				</g>
			</g>
		</g>
	</g>
	<g id="face">
		<g>
			<path fill="#FFFBFF" d="M111.194,225.676c0-46.85,51.37-84.6,85.03-84.6s85.71,37.74,85.71,84.6c0,46.85-38.22,84.84-85.37,84.84
				S111.194,272.536,111.194,225.676L111.194,225.676z"/>
			<path fill="#040E09" d="M196.564,311.416c-47.57,0-86.27-38.46-86.27-85.74c0-21.58,10.72-43.08,30.19-60.54
				c17.16-15.4,38.52-24.96,55.74-24.96c34.2,0,86.61,38.3,86.61,85.5S244.134,311.416,196.564,311.416L196.564,311.416z
				 M196.224,141.986c-33.22,0-84.12,37.49-84.12,83.69s37.89,83.93,84.46,83.93s84.46-37.65,84.46-83.93
				S229.714,141.986,196.224,141.986L196.224,141.986z"/>
		</g>
		<g>
			<g>
				<ellipse fill="#FFFBFF" cx="219.374" cy="207.796" rx="18.63" ry="23.94"/>
				<path fill="#040E09" d="M219.374,232.636c-10.77,0-19.53-11.14-19.53-24.84s8.76-24.84,19.53-24.84s19.53,11.14,19.53,24.84
					S230.144,232.636,219.374,232.636z M219.374,184.766c-9.77,0-17.72,10.33-17.72,23.03s7.95,23.03,17.72,23.03
					s17.72-10.33,17.72-23.03S229.144,184.766,219.374,184.766z"/>
			</g>
			<path fill="#040E09" d="M224.524,207.796l-13.34-2.72c0.93-9.66,6.65-16.93,13.34-16.93c7.39,0,13.47,8.87,13.47,19.65
				s-6.08,19.65-13.47,19.65c-5.66,0-10.74-5.2-12.67-12.97l12.67-6.69V207.796z"/>
		</g>
		<g>
			<path fill="#FFFBFF" d="M211.434,235.206c0,0,6.54-12.44,18.53-16.87c11.98-4.42,29.13-2.86,31.15,11.25"/>
			<path fill="#040E09" d="M211.434,236.106c-0.14,0-0.29-0.03-0.42-0.1c-0.44-0.23-0.61-0.78-0.38-1.22
				c0.27-0.52,6.85-12.8,19.01-17.3c8.89-3.28,18.71-2.98,25.01,0.77c4.11,2.45,6.65,6.32,7.35,11.19c0.07,0.49-0.27,0.95-0.77,1.03
				c-0.51,0.06-0.95-0.27-1.03-0.77c-0.63-4.38-2.81-7.71-6.48-9.89c-6.66-3.96-16.58-3.17-23.46-0.63
				c-11.5,4.25-17.98,16.32-18.04,16.44c-0.16,0.31-0.48,0.48-0.8,0.48L211.434,236.106z"/>
		</g>
		<g>
			<g>
				<ellipse fill="#FFFBFF" cx="157.244" cy="207.306" rx="17.41" ry="22.37"/>
				<path fill="#040E09" d="M157.244,230.586c-10.1,0-18.31-10.44-18.31-23.27s8.22-23.28,18.31-23.28s18.31,10.44,18.31,23.28
					S167.334,230.586,157.244,230.586z M157.244,185.846c-9.1,0-16.5,9.63-16.5,21.47s7.4,21.46,16.5,21.46
					c9.1,0,16.5-9.63,16.5-21.46S166.344,185.846,157.244,185.846z"/>
			</g>
			<path fill="#040E09" d="M162.054,207.306l-12.47-2.54c0.87-9.03,6.22-15.82,12.47-15.82c6.91,0,12.59,8.29,12.59,18.37
				s-5.68,18.37-12.59,18.37c-5.29,0-10.04-4.86-11.84-12.12l11.84-6.25V207.306z"/>
		</g>
		<g>
			<path fill="#FFFBFF" d="M172.784,233.076c0,0-5.2-9.54-18.1-11.41c-13.23-1.92-19.67,8.08-19.99,13.12"/>
			<path fill="#040E09" d="M134.694,235.696c0,0-0.04,0-0.06,0c-0.5-0.03-0.88-0.46-0.85-0.96c0.18-2.82,2.09-7.07,5.95-10.21
				c2.83-2.3,7.74-4.81,15.07-3.75c13.2,1.91,18.55,11.46,18.77,11.87c0.24,0.44,0.08,0.99-0.36,1.23
				c-0.44,0.24-0.99,0.08-1.23-0.36c-0.05-0.09-5.17-9.17-17.44-10.95c-6.68-0.97-11.12,1.29-13.67,3.36
				c-3.42,2.78-5.14,6.57-5.29,8.92c-0.03,0.48-0.43,0.85-0.9,0.85L134.694,235.696z"/>
		</g>
		<g>
			<path fill="#7A0036" d="M232.404,243.686c11.76,2.06,14.35,16.42,5.06,27.62c-9.28,11.2-28.28,21.61-52.47,18.94
				c-24.2-2.67-37.84-16.18-40.23-32.5c0,0-1.95-14.68,7.03-14.21c5.62,0.29,6.72,5.3,14.65,10.55c7.94,5.25,16.12,2.31,25.09-5.33
				c0,0,10.48,9.22,20.36,5.85c14.4-4.91,11.05-12.59,20.51-10.93L232.404,243.686z"/>
			<path fill="#040E09" d="M192.554,291.576c-2.48,0-5.04-0.14-7.65-0.43c-23.01-2.54-38.35-14.98-41.03-33.27
				c-0.05-0.38-1.16-9.11,2.6-13.19c1.36-1.48,3.18-2.16,5.37-2.05c3.62,0.19,5.57,2.17,8.05,4.68c1.7,1.73,3.82,3.87,7.06,6.02
				c6.94,4.59,14.34,2.97,24-5.27l0.6-0.51l0.59,0.52c0.1,0.09,10.21,8.83,19.47,5.67c6.79-2.32,9.43-5.19,11.56-7.5
				c2.27-2.46,4.06-4.4,9.4-3.47l0,0c5.04,0.89,8.76,3.93,10.47,8.57c2.3,6.26,0.44,14.13-4.86,20.53
				c-7.89,9.53-24.17,19.69-45.62,19.69L192.554,291.576z M151.374,244.436c-1.48,0-2.66,0.49-3.58,1.48
				c-3.19,3.45-2.15,11.63-2.14,11.72c2.55,17.41,17.29,29.27,39.44,31.72c24.51,2.7,43.16-8.34,51.68-18.62
				c4.89-5.91,6.64-13.09,4.56-18.75c-1.48-4.01-4.7-6.64-9.08-7.41l0,0c-4.37-0.76-5.57,0.54-7.75,2.91
				c-2.15,2.33-5.08,5.52-12.31,7.98c-9.01,3.07-18.22-3.58-20.65-5.53c-9.97,8.3-18.11,9.85-25.59,4.91
				c-3.4-2.25-5.59-4.47-7.35-6.26c-2.37-2.4-3.94-3.99-6.85-4.14c-0.13,0-0.25-0.01-0.37-0.01L151.374,244.436z"/>
		</g>
		<path fill="#040E09" d="M195.384,281.896c-1.24,0-2.52-0.07-3.78-0.21c-10.8-1.19-17.99-6.86-19.24-15.17
			c-0.03-0.42-0.17-3.87,2.49-5.22c0.75-0.38,1.51-0.57,2.32-0.57c2.57,0,4.97,1.89,6.16,3.02c2.19,2.07,6.8,4.29,11.75,4.29
			c1.55,0,3.03-0.22,4.4-0.66c1.88-0.6,3.76-1.62,5.76-2.71c3.02-1.64,6.13-3.34,8.96-3.34c0.57,0,1.1,0.07,1.62,0.21
			c1.87,0.5,3.13,1.65,3.66,3.31c0.73,2.28-0.08,5.13-2.15,7.63c-3.77,4.55-11.51,9.41-21.94,9.41L195.384,281.896z"/>
		<g>
			<path fill="#FFFBFF" d="M177.964,256.786c0.54,7.05,6.92,14.74,16.07,14.52c11.98-0.28,15.76-9.09,15.71-16.16
				c-1.86,0.14-4.81,0.63-8.72-0.37c-2.09-0.54-4.77-1.75-9.33-5.02c-3.96,2.81-8.32,4.52-13.73,7.02V256.786z"/>
			<path fill="#040E09" d="M193.674,272.216c-9.25,0-16.04-7.87-16.61-15.36l-0.05-0.63l0.57-0.26c1.1-0.51,2.15-0.98,3.17-1.44
				c3.93-1.77,7.33-3.3,10.42-5.5l0.53-0.37l0.53,0.38c4.92,3.53,7.41,4.46,9.02,4.88c3.22,0.83,5.74,0.59,7.59,0.42
				c0.3-0.03,0.58-0.05,0.84-0.07l0.97-0.07v0.97c0.06,7.69-4.26,16.78-16.59,17.07c-0.13,0-0.25,0-0.38,0L193.674,272.216z
				 M178.934,257.336c0.84,6.57,6.91,13.24,15.08,13.07c10.51-0.24,14.51-7.35,14.81-14.26c-1.86,0.17-4.61,0.39-8.02-0.48
				c-2.51-0.65-5.34-2.13-9.11-4.79c-3.08,2.1-6.39,3.59-10.19,5.3C180.674,256.546,179.824,256.936,178.934,257.336
				L178.934,257.336z"/>
		</g>
		<path fill="#040E09" d="M193.874,264.246c-0.34,0-0.66-0.19-0.82-0.51c-2.85-5.95-2.41-11.43-2.39-11.67
			c0.04-0.5,0.46-0.86,0.98-0.82c0.5,0.04,0.87,0.48,0.82,0.98c0,0.05-0.4,5.24,2.22,10.73c0.22,0.45,0.02,0.99-0.43,1.21
			c-0.13,0.06-0.26,0.09-0.39,0.09L193.874,264.246z"/>
		<g>
			<path fill="#FF8981" d="M193.974,252.676c-1.23,1.32-3.65,1.32-4.88,0l-4.99-5.37l-3.64-3.91c-1.55-1.67-0.11-4.08,2.44-4.08
				h17.25c2.55,0,3.99,2.41,2.44,4.08l-3.64,3.91l-4.99,5.37H193.974z"/>
			<path fill="#040E09" d="M191.534,254.576c-1.21,0-2.34-0.47-3.1-1.28l-8.62-9.28c-0.89-0.96-1.13-2.22-0.62-3.37
				c0.59-1.35,2.05-2.23,3.72-2.23h17.25c1.67,0,3.14,0.88,3.73,2.23c0.5,1.15,0.27,2.41-0.62,3.37l-8.62,9.28
				c-0.76,0.81-1.89,1.28-3.1,1.28H191.534z M182.914,240.216c-1.16,0-1.84,0.62-2.07,1.14c-0.21,0.49-0.11,0.99,0.29,1.42
				l8.62,9.28c0.42,0.45,1.06,0.7,1.78,0.7s1.36-0.26,1.78-0.7l8.62-9.28c0.4-0.43,0.5-0.93,0.29-1.42
				c-0.23-0.53-0.91-1.14-2.07-1.14h-17.25H182.914z M193.974,252.676L193.974,252.676L193.974,252.676z"/>
		</g>
		
			<ellipse transform="matrix(0.9905 -0.1378 0.1378 0.9905 -29.0501 35.2487)" fill="#FFC6C5" cx="240.069" cy="227.447" rx="15.43" ry="8.31"/>
		
			<ellipse transform="matrix(0.1941 -0.981 0.981 0.1941 -103.4343 337.5931)" fill="#FFC6C5" cx="153.743" cy="231.747" rx="8.31" ry="12.8"/>
	</g>
	<g id="tongue">
		<g>
			<path fill="#FF8981" d="M221.964,283.576c0,0-5.5-13.9-25.74-3.86c0,0-8.23-6.48-22.15-2.23c-13.93,4.25-29.33,23.91-24.86,45.26
				c4.46,21.36,30.44,19.13,34.9-0.8c4.46-19.92,17.01-31.28,22.7-32.83c0,0,9.1-1.86,15.16-5.54H221.964z"/>
			<path fill="#040E09" d="M165.814,338.756h-0.12c-6.81-0.05-14.95-4.23-17.37-15.82c-4.69-22.45,11.68-42.11,25.48-46.31
				c12.51-3.81,20.52,0.72,22.5,2.05c7.45-3.6,13.82-4.43,18.92-2.47c5.58,2.14,7.5,6.85,7.58,7.05l0.28,0.71l-0.65,0.4
				c-6.12,3.72-15.07,5.58-15.44,5.66c-5.29,1.45-17.65,12.71-22,32.14c-2.56,11.43-11.71,16.61-19.18,16.61L165.814,338.756z
				 M183.244,276.966c-2.62,0-5.6,0.38-8.91,1.39c-13.14,4.01-28.72,22.76-24.24,44.21c2.2,10.54,9.51,14.34,15.62,14.38h0.1
				c6.77,0,15.07-4.74,17.41-15.19c4.57-20.42,17.46-31.9,23.34-33.51c0.14-0.03,8.38-1.74,14.21-5.02
				c-0.71-1.27-2.59-3.96-6.23-5.35c-4.72-1.8-10.75-0.9-17.92,2.66l-0.51,0.25l-0.45-0.35c-0.06-0.05-4.57-3.47-12.41-3.47H183.244
				z"/>
		</g>
		<path fill="#040E09" d="M165.164,318.176c-0.1,0-0.21-0.02-0.31-0.05c-0.47-0.17-0.71-0.69-0.54-1.16
			c11.34-31.41,30.82-37.85,31.64-38.11c0.48-0.15,0.98,0.11,1.13,0.59c0.15,0.48-0.11,0.98-0.59,1.13
			c-0.19,0.06-19.46,6.49-30.48,36.99c-0.13,0.37-0.48,0.6-0.85,0.6L165.164,318.176z"/>
	</g>
	<g id="hair">
		<path fill="#FF9F45" d="M180.714,166.916c-1.6,0-3.3-0.41-5.06-1.21c-7.26-3.33-29.26-44.82-30.19-46.58l-1.13-2.14l31.21,12.05
			l0.79-35.04l20.99,24.34l17.09-26.91l6.19,35.92l20.98-12.99l-8.23,25.86l19.54-6.17l-8.53,16.7l9.54,0.24l-7.39,10.53l-0.71-0.4
			c-0.22-0.12-22.61-12.5-38.41-14.51c-0.09-0.02-0.26-0.04-0.54-0.04c-2.05,0-9.49,1.18-18.98,16.37
			c-0.92,1.48-2.15,2.59-3.55,3.23c-1.11,0.5-2.32,0.76-3.59,0.76L180.714,166.916z"/>
		<path fill="#040E09" d="M213.904,93.886l6.02,34.93l20.04-12.41l-8.02,25.19l19.14-6.04l-8.2,16.06l9.28,0.23l-5.95,8.48
			c0,0-22.57-12.56-38.73-14.62c0,0-0.23-0.05-0.65-0.05c-2.24,0-10.04,1.24-19.75,16.79c-0.77,1.23-1.83,2.28-3.15,2.88
			c-0.86,0.39-1.93,0.68-3.22,0.68s-2.89-0.31-4.68-1.13c-7.06-3.24-29.77-46.19-29.77-46.19l30.15,11.64l0.76-33.97l20.24,23.47
			l16.48-25.96 M239.964,116.406L239.964,116.406 M251.094,135.556L251.094,135.556 M214.894,88.956l-2.52,3.96l-15.18,23.9
			l-18.65-21.63l-3.08-3.57l-0.11,4.71l-0.71,31.4l-27.75-10.71l-4.51-1.74l2.26,4.28c3.84,7.26,23.37,43.65,30.62,46.98
			c1.87,0.86,3.7,1.3,5.43,1.3c1.4,0,2.73-0.28,3.96-0.84c1.56-0.71,2.93-1.94,3.94-3.57c9.48-15.17,16.83-15.94,18.21-15.94
			c0.22,0,0.34,0.02,0.34,0.02h0.06l0.02,0.01c15.62,1.99,37.86,14.28,38.08,14.4l1.42,0.79l0.94-1.33l5.95-8.48l1.94-2.77
			l-3.38-0.08l-6.41-0.16l6.9-13.49l1.97-3.85l-4.13,1.3l-15.81,4.99l6.96-21.87l1.48-4.66l-4.16,2.58l-17.76,10.99l-5.57-32.28
			l-0.8-4.62l0,0L214.894,88.956z M239.974,114.596L239.974,114.596L239.974,114.596z M251.094,133.746L251.094,133.746
			L251.094,133.746z"/>
		<g>
			<line fill="none" x1="182.494" y1="151.886" x2="172.784" y2="135.746"/>
			<path fill="#040E09" d="M182.494,152.786c-0.31,0-0.61-0.16-0.78-0.44l-9.71-16.14c-0.26-0.43-0.12-0.98,0.31-1.24
				s0.98-0.12,1.24,0.31l9.71,16.14c0.26,0.43,0.12,0.98-0.31,1.24c-0.15,0.09-0.31,0.13-0.47,0.13L182.494,152.786z"/>
		</g>
		<g>
			<line fill="none" x1="191.664" y1="145.376" x2="185.404" y2="123.696"/>
			<path fill="#040E09" d="M191.664,146.286c-0.39,0-0.75-0.26-0.87-0.65l-6.26-21.68c-0.14-0.48,0.14-0.98,0.62-1.12
				s0.98,0.14,1.12,0.62l6.26,21.68c0.14,0.48-0.14,0.98-0.62,1.12c-0.08,0.02-0.17,0.04-0.25,0.04V146.286z"/>
		</g>
		<path fill="#040E09" d="M200.744,141.986c-0.5,0-0.91-0.4-0.91-0.91v-16.66c0-0.5,0.4-0.91,0.91-0.91s0.91,0.4,0.91,0.91v16.66
			C201.654,141.576,201.254,141.986,200.744,141.986z"/>
		<g>
			<line fill="none" x1="209.624" y1="141.526" x2="212.744" y2="117.186"/>
			<path fill="#040E09" d="M209.624,142.426c0,0-0.08,0-0.12,0c-0.5-0.06-0.85-0.52-0.78-1.01l3.12-24.33
				c0.06-0.49,0.52-0.83,1.01-0.78c0.5,0.06,0.85,0.52,0.78,1.01l-3.12,24.33c-0.06,0.46-0.45,0.79-0.9,0.79L209.624,142.426z"/>
		</g>
	</g>
	<g id="ear-front">
		<g>
			<path fill="#FFFBFF" d="M224.804,160.096c0,0,8.53-92.32,29.72-106.24c21.2-13.92,30.42,12.71,29.68,20.98
				s-32.03,100.5-32.03,100.5"/>
			<path fill="#040E09" d="M252.174,176.246c-0.1,0-0.19-0.02-0.29-0.05c-0.47-0.16-0.73-0.67-0.57-1.15
				c0.31-0.92,31.26-92.21,31.99-100.29c0.45-5.03-2.98-17.39-10.88-22.12c-4.99-2.99-10.85-2.33-17.4,1.98
				c-20.59,13.52-29.23,104.64-29.32,105.56c-0.05,0.5-0.47,0.86-0.98,0.82c-0.5-0.05-0.86-0.49-0.82-0.98
				c0.35-3.79,8.81-92.91,30.13-106.91c8.94-5.88,15.45-4.34,19.33-2.02c8.65,5.18,12.25,18.27,11.75,23.84
				c-0.74,8.29-30.8,96.94-32.08,100.71C252.904,176.016,252.554,176.246,252.174,176.246L252.174,176.246z"/>
		</g>
		<g>
			<path fill="#FF8981" d="M235.714,165.406c0,0,14.56-73.25,27.44-81.37c12.88-8.11,21.31,34.34-11.67,92.82"/>
			<path fill="#040E09" d="M251.484,177.756c-0.15,0-0.3-0.04-0.44-0.12c-0.44-0.25-0.59-0.8-0.34-1.23
				c26.55-47.07,26.05-83.86,18.32-91.22c-1.58-1.5-3.39-1.63-5.37-0.38c-12.41,7.81-26.9,80.05-27.04,80.78
				c-0.1,0.49-0.57,0.81-1.06,0.71c-0.49-0.1-0.81-0.57-0.71-1.06c0.6-3.01,14.79-73.73,27.85-81.96c2.7-1.7,5.4-1.49,7.59,0.6
				c9.22,8.79,8.13,47.11-17.99,93.42c-0.17,0.3-0.47,0.46-0.79,0.46H251.484z"/>
		</g>
		<g>
			<path fill="#FFFBFF" d="M256.544,84.286c0,0,5.72,69.13,50.23,65.43c44.51-3.69,8.27-89.39-39.44-99.79"/>
			<path fill="#040E09" d="M303.444,150.766c-17.03,0-30.57-11-39.31-32.03c-6.97-16.76-8.48-34.2-8.49-34.38
				c-0.04-0.5,0.33-0.94,0.83-0.98c0.51-0.05,0.94,0.33,0.98,0.83c0.01,0.17,1.5,17.37,8.37,33.87
				c9.11,21.89,22.88,32.23,40.88,30.74c14.92-1.24,18.72-11.63,19.28-20.13c0.86-13.06-5.41-30.78-16.38-46.25
				c-11.93-16.81-27.4-28.34-42.46-31.62c-0.49-0.11-0.8-0.59-0.69-1.08c0.11-0.49,0.59-0.8,1.08-0.69
				c15.5,3.38,31.37,15.16,43.55,32.34c11.2,15.78,17.6,33.95,16.71,47.41c-0.86,13.02-8.29,20.77-20.94,21.82
				c-1.15,0.1-2.28,0.14-3.4,0.14L303.444,150.766z"/>
		</g>
	</g>
	<g id="top-headset">
		<g>
			<g>
				<path fill="#41217B" d="M262.814,181.146c2.67,21.32,15.57,37.28,28.8,35.62c13.24-1.66,21.8-20.31,19.12-41.63
					c-2.68-21.33-15.57-37.28-28.81-35.61C268.694,141.186,260.134,159.816,262.814,181.146L262.814,181.146z"/>
				<path fill="#040E09" d="M289.734,217.776c-12.99,0-25.22-15.79-27.82-36.53l0,0c-1.31-10.48-0.01-20.67,3.67-28.68
					c3.75-8.16,9.51-13.11,16.23-13.95c6.72-0.85,13.54,2.53,19.18,9.51c5.54,6.85,9.32,16.4,10.64,26.89
					c2.73,21.79-6.2,40.92-19.91,42.64C291.064,217.736,290.394,217.776,289.734,217.776z M283.834,140.306
					c-0.6,0-1.2,0.04-1.8,0.11c-6.08,0.76-11.34,5.35-14.81,12.91c-3.54,7.71-4.79,17.55-3.52,27.7l0,0
					c2.49,19.82,13.92,34.94,25.99,34.94c0.6,0,1.19-0.04,1.79-0.11c12.72-1.6,20.95-19.81,18.34-40.62
					c-1.27-10.15-4.91-19.38-10.25-25.97c-4.72-5.84-10.25-8.97-15.75-8.97L283.834,140.306z"/>
			</g>
			<g>
				<path fill="#B36BEE" d="M268.354,141.216l13.57-1.7c-13.23,1.66-21.79,20.29-19.11,41.62c2.67,21.32,15.57,37.28,28.8,35.62
					l-13.57,1.7c-13.24,1.66-26.14-14.29-28.81-35.61C246.554,161.516,255.114,142.886,268.354,141.216L268.354,141.216z"/>
				<path fill="#040E09" d="M276.124,219.486c-6.05,0-12.08-3.37-17.15-9.65c-5.54-6.86-9.32-16.4-10.64-26.88
					c-1.31-10.48-0.01-20.67,3.67-28.68c3.75-8.16,9.51-13.11,16.24-13.96l13.57-1.7l0,0l0.22,1.8l0,0
					c-6.07,0.76-11.33,5.35-14.81,12.91c-3.54,7.71-4.79,17.55-3.52,27.7c2.61,20.8,15.06,36.43,27.79,34.83l0.22,1.8
					c0,0,0,0-0.01,0l-13.56,1.7c-0.68,0.08-1.35,0.13-2.03,0.13L276.124,219.486z M268.464,142.116
					c-6.08,0.76-11.34,5.35-14.82,12.92c-3.54,7.71-4.79,17.55-3.52,27.7c1.27,10.15,4.91,19.37,10.25,25.97
					c5.24,6.48,11.47,9.62,17.55,8.86l6.16-0.77c-10.72-3.76-19.95-17.85-22.17-35.54c-1.31-10.48-0.01-20.67,3.67-28.68
					c2.31-5.03,5.38-8.84,8.98-11.22C274.564,141.356,268.464,142.116,268.464,142.116z M268.354,141.216L268.354,141.216
					L268.354,141.216z"/>
			</g>
			<g>
				<path fill="#B36BEE" d="M281.104,178.846c1.05,8.38,6.11,14.93,11.04,14.31c4.93-0.62,8.22-8.22,7.17-16.59
					c-1.05-8.38-6.11-14.93-11.04-14.31C283.344,162.876,280.054,170.476,281.104,178.846L281.104,178.846z"/>
				<path fill="#040E09" d="M291.484,194.106c-2.47,0-4.93-1.46-7.03-4.18c-2.21-2.86-3.72-6.76-4.25-10.97
					c-1.13-9.02,2.44-16.91,7.95-17.61c2.72-0.34,5.49,1.13,7.81,4.13c2.21,2.86,3.72,6.76,4.25,10.97
					c1.13,9.02-2.44,16.91-7.95,17.61C292.004,194.086,291.744,194.106,291.484,194.106z M288.904,163.116
					c-0.18,0-0.35,0.01-0.52,0.03c-4.37,0.55-7.35,7.83-6.38,15.58c0.48,3.84,1.9,7.51,3.88,10.09c1.88,2.44,4.13,3.69,6.15,3.44
					c4.37-0.55,7.35-7.83,6.38-15.58c-0.48-3.84-1.9-7.51-3.88-10.09C292.814,164.356,290.794,163.116,288.904,163.116z"/>
			</g>
			<g>
				<path fill="#FFFBFF" d="M292.914,183.956L292.914,183.956c2.27-0.29,3.89-2.36,3.6-4.63l-5.68-45.26l-8.24,1.03l5.68,45.26
					c0.29,2.27,2.36,3.89,4.63,3.6H292.914z"/>
				<path fill="#040E09" d="M292.394,184.896c-1.12,0-2.2-0.37-3.09-1.06c-1.07-0.83-1.75-2.02-1.91-3.36l-5.79-46.16l10.03-1.26
					l5.79,46.16c0.17,1.34-0.2,2.66-1.02,3.73c-0.83,1.07-2.02,1.75-3.36,1.91c-0.21,0.03-0.43,0.04-0.64,0.04L292.394,184.896z
					 M283.614,135.876l5.56,44.37c0.11,0.86,0.54,1.63,1.23,2.16c0.68,0.53,1.54,0.76,2.39,0.66l0,0c0.86-0.11,1.63-0.54,2.16-1.23
					c0.53-0.68,0.77-1.53,0.66-2.39l-5.56-44.37l-6.44,0.81L283.614,135.876z"/>
			</g>
		</g>
		<g>
			<path fill="#41217B" d="M105.464,130.036v5.48c0,2.28,2.12,4.13,4.73,4.13h11.88c2.61,0,4.73-1.85,4.73-4.13v-5.48
				c0-35.29,33.08-63.84,73.64-63.26c39.7,0.57,71.18,29.6,71.18,64.3v1.29c0,2.51,2.33,4.55,5.21,4.55h10.93
				c2.88,0,5.21-2.04,5.21-4.55v-1.11c0-45.02-40.98-82.54-92.5-83.13c-52.35-0.59-95,36.31-95,81.91H105.464z"/>
			<path fill="#040E09" d="M122.074,140.556h-11.88c-3.11,0-5.64-2.26-5.64-5.04v-5.48c0-20.24,8.43-39.72,23.74-54.86
				c18.3-18.08,44.61-28.23,72.18-27.96c51.5,0.58,93.39,38.28,93.39,84.03v1.11c0,3.01-2.74,5.45-6.11,5.45h-10.93
				c-3.37,0-6.11-2.45-6.11-5.45v-1.29c0-34.4-31.53-62.83-70.29-63.39c-0.39,0-0.79,0-1.19,0c-20.51,0-39.98,7.64-53.6,21.06
				c-11.56,11.4-17.93,26.07-17.93,41.3v5.48c0,2.78-2.53,5.04-5.64,5.04H122.074z M199.244,49.026c-26.66,0-51.99,9.96-69.66,27.44
				c-14.97,14.8-23.21,33.82-23.21,53.57v5.48c0,1.78,1.72,3.23,3.83,3.23h11.88c2.11,0,3.83-1.45,3.83-3.23v-5.48
				c0-15.72,6.56-30.85,18.47-42.59c14.22-14.02,34.64-21.85,56.08-21.57c39.74,0.57,72.07,29.82,72.07,65.2v1.29
				c0,2.01,1.93,3.64,4.3,3.64h10.93c2.37,0,4.3-1.64,4.3-3.64v-1.11c0-44.77-41.09-81.65-91.61-82.22c-0.4,0-0.81,0-1.21,0
				L199.244,49.026z"/>
		</g>
	</g>
</g>
<g id="glasses">
	<g opacity="0.56">
		<path fill="#FF9F45" d="M199.764,237.046c0,0-3.66-10.08,5.28-16.01c8.95-5.93,16.57-1.6,16.57-1.6s-4.43,0.94-5.46,5.65
			c-1.04,4.71,8.95,7.06,15.25,1.6c6.31-5.46,19.59-8.1,26.08-3.3c0,0-8.29-0.19-9.32,5.93c-1.04,6.12,15.8,5.74,19.9-6.03
			c0,0,4.03,9.97-5.46,16.27c-10.92,7.25-24.97-0.61-32.31,0.17c-5.59,0.59-4.49,6.09,0.18,5.72c0,0-23.81,10.07-30.73-8.41
			L199.764,237.046z"/>
		<path fill="#FF9F45" d="M184.414,237.996c0,0,4.71-9.63-3.56-16.48c-8.27-6.85-16.31-3.34-16.31-3.34s4.3,1.4,4.83,6.2
			c0.53,4.79-9.64,6.08-15.34-0.02s-18.62-10.12-25.59-6.04c0,0,8.26,0.69,8.64,6.89c0.38,6.2-16.32,4.04-19.15-8.1
			c0,0-5.07,9.49,3.7,16.76c10.09,8.37,24.9,2.04,32.11,3.59c5.49,1.18,3.82,6.53-0.79,5.67c0,0,22.61,12.54,31.45-5.12
			L184.414,237.996z"/>
	</g>
	<g>
		<path fill="#040E09" d="M184.364,233.966c-0.31,0-0.62-0.16-0.79-0.46c-0.25-0.43-0.1-0.99,0.34-1.24
			c0.37-0.21,9.24-5.18,17.15,0.03c0.42,0.27,0.53,0.84,0.26,1.25c-0.27,0.42-0.84,0.54-1.25,0.26c-7-4.6-15.18-0.02-15.26,0.03
			c-0.14,0.08-0.3,0.12-0.45,0.12V233.966z"/>
		<g>
			<path fill="#040E09" d="M216.874,249.116c-2.9,0-5.92-0.43-8.73-1.64c-4.31-1.85-7.42-5.26-9.23-10.11l0,0
				c-0.04-0.12-3.8-10.83,5.63-17.08c9.3-6.17,17.19-1.82,17.52-1.63s0.5,0.55,0.45,0.93c-0.06,0.37-0.34,0.67-0.71,0.75
				c-0.15,0.03-3.87,0.9-4.77,4.96c-0.28,1.29,0.63,2.14,1.45,2.62c2.88,1.72,8.42,1.48,12.33-1.9c6.58-5.7,20.42-8.36,27.21-3.34
				c0.32,0.23,0.44,0.65,0.32,1.02c-0.13,0.37-0.49,0.62-0.88,0.61c-0.32-0.02-7.52-0.09-8.41,5.18c-0.28,1.65,1.38,2.33,2.4,2.59
				c4.15,1.06,12.96-1.05,15.76-9.07c0.12-0.36,0.46-0.6,0.83-0.61c0.34,0,0.72,0.22,0.86,0.57c0.04,0.11,4.19,10.73-5.8,17.36
				c-7.61,5.06-16.61,3.09-23.83,1.51c-3.54-0.77-6.59-1.44-8.88-1.2c-2.16,0.23-3.04,1.26-2.95,2.19c0.09,0.95,1.18,1.87,2.97,1.73
				c0.44-0.04,0.84,0.26,0.95,0.69s-0.12,0.88-0.53,1.05c-0.37,0.16-6.79,2.82-13.97,2.82H216.874z M200.614,236.736
				c1.64,4.37,4.41,7.43,8.25,9.08c6.39,2.75,14.29,1.06,18.43-0.2c-0.98-0.65-1.55-1.63-1.65-2.62c-0.17-1.81,1.18-3.79,4.57-4.15
				c2.58-0.27,5.77,0.42,9.46,1.23c6.89,1.51,15.47,3.38,22.45-1.25c6.12-4.06,6.25-9.68,5.73-12.83
				c-3.74,6.64-11.89,9.1-16.84,7.83c-2.71-0.7-4.11-2.44-3.73-4.65c0.67-3.99,4.16-5.75,7.21-6.39
				c-6.63-2.57-17.13-0.05-22.48,4.59c-4.52,3.91-11.01,4.13-14.44,2.09c-1.85-1.1-2.69-2.77-2.29-4.57
				c0.65-2.96,2.47-4.58,3.97-5.45c-2.68-0.83-7.86-1.53-13.7,2.35c-8.2,5.44-5.09,14.5-4.93,14.94L200.614,236.736z"/>
			<path fill="#040E09" d="M168.934,248.346c-8.29,0-16.01-4.22-16.41-4.44c-0.39-0.22-0.56-0.68-0.41-1.1
				c0.15-0.42,0.59-0.65,1.02-0.58c1.78,0.33,2.95-0.48,3.14-1.41c0.18-0.91-0.58-2.03-2.71-2.49c-2.25-0.48-5.36-0.14-8.96,0.25
				c-7.35,0.8-16.51,1.81-23.54-4.02c-9.23-7.65-3.98-17.78-3.93-17.88c0.18-0.33,0.54-0.53,0.92-0.47
				c0.37,0.05,0.68,0.32,0.76,0.69c1.93,8.27,10.47,11.31,14.71,10.69c1.04-0.15,2.76-0.66,2.66-2.33
				c-0.33-5.33-7.51-6.01-7.82-6.04c-0.39-0.03-0.72-0.32-0.81-0.7s0.08-0.78,0.42-0.98c7.28-4.27,20.77-0.16,26.71,6.2
				c3.53,3.78,9,4.6,12.06,3.19c0.87-0.4,1.87-1.15,1.72-2.46c-0.46-4.13-4.06-5.38-4.22-5.44c-0.35-0.12-0.6-0.45-0.62-0.82
				s0.2-0.72,0.54-0.87c0.35-0.15,8.65-3.64,17.25,3.48c8.72,7.22,3.85,17.47,3.8,17.57l0,0c-2.32,4.64-5.77,7.69-10.25,9.08
				c-1.98,0.61-4.03,0.86-6.04,0.86L168.934,248.346z M156.134,243.606c3.99,1.68,11.68,4.2,18.31,2.15
				c3.99-1.24,7.07-3.98,9.16-8.15c0.2-0.42,4.26-9.1-3.32-15.38c-5.4-4.47-10.62-4.32-13.37-3.78c1.4,1.02,3.04,2.83,3.37,5.84
				c0.2,1.83-0.8,3.4-2.76,4.3c-3.62,1.67-10.06,0.76-14.14-3.6c-4.84-5.18-15-8.79-21.87-6.94c2.97,0.96,6.24,3.08,6.49,7.12
				c0.14,2.24-1.43,3.82-4.2,4.23c-5.04,0.74-12.9-2.57-15.92-9.57c-0.85,3.07-1.31,8.68,4.34,13.36
				c6.45,5.34,15.18,4.39,22.19,3.62c3.76-0.41,7-0.77,9.54-0.22c3.33,0.72,4.46,2.83,4.1,4.61c-0.2,0.97-0.87,1.89-1.91,2.43
				L156.134,243.606z M184.414,237.996L184.414,237.996L184.414,237.996z"/>
		</g>
	</g>
</g>
<g id="left-hand">
	<g>
		<path fill="#FFC6C5" d="M94.784,365.706c0,0-16.05-23.23,0-37.26c14.65-12.8,34.59-5.28,44.34,20.58
			C148.874,374.876,94.784,365.706,94.784,365.706L94.784,365.706z"/>
		<path fill="#040E09" d="M114.234,368.216c-9.89,0-18.88-1.49-19.61-1.61l-0.38-0.06l-0.22-0.31c-0.17-0.24-16.32-24.06,0.15-38.46
			c6.29-5.5,13.81-7.51,21.16-5.66c10.24,2.57,19.22,12.27,24.63,26.6c1.94,5.15,1.59,9.39-1.05,12.6
			C134.394,366.796,123.884,368.216,114.234,368.216L114.234,368.216z M95.314,364.876c3.79,0.59,34.22,4.98,42.21-4.72
			c2.2-2.67,2.45-6.31,0.76-10.81c-5.2-13.77-13.72-23.06-23.37-25.48c-6.76-1.7-13.7,0.18-19.53,5.27
			c-14.26,12.46-1.86,32.96-0.06,35.75L95.314,364.876z"/>
	</g>
	<g>
		<g>
			<path fill="#FFC6C5" d="M114.734,404.486c0,0-19.67-4.94-24.38-39.61c-1.8-24.47,17.45-34.6,35.11-33.91
				c17.66,0.7,26.66,15.56,30.89,29.97c4.23,14.41,17.57,21.41,4.18,29.49c-7.28,4.39-17.6-6.75-19.99-16.12l-4.41,13.04
				c0,0-12.95-2.8-12.81,2.39c0.28,10.28-7.12,18.53-8.59,14.74L114.734,404.486z"/>
			<path fill="#040E09" d="M115.914,406.326c-0.77,0-1.41-0.38-1.82-1.08c-2.99-0.94-20.22-7.75-24.64-40.25
				c-0.74-10.09,2.02-18.66,7.99-24.84c6.62-6.86,16.85-10.54,28.05-10.09c19.01,0.75,27.74,17.07,31.73,30.62
				c1.37,4.67,3.73,8.56,5.82,11.99c2.64,4.35,4.92,8.11,4.01,11.79c-0.6,2.44-2.58,4.64-6.05,6.74c-2.28,1.37-4.99,1.48-7.84,0.31
				c-5.03-2.06-10.21-8.05-12.64-14.32l-3.79,11.22l-0.79-0.17c-2.4-0.52-9.08-1.48-11.17,0.25c-0.39,0.32-0.56,0.71-0.54,1.23
				c0.23,8.5-4.58,15.91-7.81,16.56c-0.17,0.03-0.34,0.05-0.5,0.05L115.914,406.326z M123.684,331.836c-10,0-19.02,3.44-24.95,9.58
				c-5.68,5.88-8.2,13.75-7.49,23.39c4.56,33.51,23.51,38.75,23.7,38.8l0.45,0.11l0.17,0.43c0.16,0.41,0.3,0.38,0.48,0.34
				c1.94-0.39,6.58-6.69,6.36-14.73c-0.03-1.08,0.39-2,1.2-2.68c2.7-2.24,9.48-1.24,11.91-0.78l5.13-15.19l0.76,2.96
				c1.68,6.56,7.25,13.63,12.43,15.75c2.34,0.96,4.43,0.9,6.22-0.18c3.04-1.83,4.75-3.67,5.23-5.62c0.73-2.95-1.27-6.25-3.8-10.42
				c-2.14-3.53-4.57-7.53-6.01-12.42c-3.82-12.99-12.13-28.62-30.06-29.32c-0.58-0.02-1.16-0.03-1.73-0.03L123.684,331.836z"/>
		</g>
		<g>
			<path fill="#FFC6C5" d="M111.224,386.196c-2.41,24.96,16.11,25.45,16.11,25.45c6.66-3.76,6.99-24.86,4.99-31.55"/>
			<path fill="#040E09" d="M127.564,412.556h-0.25c-0.29-0.01-7.04-0.26-12.05-5.93c-4.14-4.68-5.8-11.59-4.94-20.53
				c0.05-0.5,0.49-0.85,0.99-0.81c0.5,0.05,0.86,0.49,0.81,0.99c-0.81,8.4,0.69,14.84,4.47,19.13c3.96,4.5,9.3,5.21,10.51,5.31
				c5.81-3.78,6.27-23.95,4.34-30.37c-0.14-0.48,0.13-0.98,0.61-1.13c0.48-0.14,0.98,0.13,1.13,0.61c2.14,7.12,1.82,28.51-5.41,32.6
				l-0.22,0.12L127.564,412.556z"/>
		</g>
		<g>
			<path fill="#FFC6C5" d="M142.104,361.566c0,0,4.17,22.99,7.24,38.98c3.03,15.83,2.68,24.13-6.1,25.87
				c-9.29,1.85-15.21-11.9-15.82-25.88s-0.07-23.95-0.07-23.95"/>
			<path fill="#040E09" d="M141.554,427.506c-2.07,0-4.03-0.72-5.85-2.14c-5.1-4-8.71-13.72-9.2-24.77
				c-0.61-13.87-0.08-23.94-0.07-24.04c0.03-0.5,0.45-0.91,0.95-0.85c0.5,0.03,0.88,0.45,0.85,0.95c0,0.1-0.53,10.09,0.07,23.86
				c0.46,10.54,3.8,19.74,8.51,23.43c1.92,1.51,4.02,2.05,6.23,1.61c7.31-1.46,8.67-7.72,5.39-24.82
				c-3.03-15.82-7.2-38.76-7.24-38.99c-0.09-0.49,0.24-0.96,0.73-1.05c0.5-0.09,0.96,0.24,1.05,0.73c0.04,0.23,4.2,23.17,7.23,38.98
				c2.99,15.6,2.83,25.01-6.82,26.93c-0.63,0.13-1.25,0.19-1.86,0.19L141.554,427.506z"/>
		</g>
	</g>
</g>
</svg>
