<?xml version="1.0" encoding="utf-8"?>
<!-- Generator: Adobe Illustrator 28.3.0, SVG Export Plug-In . SVG Version: 6.00 Build 0)  -->
<svg version="1.1" id="bunny-02" xmlns="http://www.w3.org/2000/svg" xmlns:xlink="http://www.w3.org/1999/xlink" x="0px" y="0px"
	 viewBox="0 0 549.9 610" style="enable-background:new 0 0 549.9 610;" xml:space="preserve">
<style type="text/css">
	.st0{fill:#FFFBFF;}
	.st1{fill:#040E09;}
	.st2{fill:#FFC6C5;}
	.st3{fill:#CC4627;}
	.st4{fill:#FF9F45;}
	.st5{fill:#FFFFFF;}
	.st6{fill:#B36BEE;}
	.st7{fill:#41217B;}
	.st8{fill:#002846;}
	.st9{clip-path:url(#SVGID_00000010993927784498252550000008013744163204190337_);}
	.st10{clip-path:url(#SVGID_00000020400322317415669900000000785911377869477780_);}
	.st11{fill:#BFBFBF;}
	.st12{fill:#C0C0C0;}
	.st13{fill:#C1C1C1;}
	.st14{fill:#C2C2C2;}
	.st15{fill:#C3C3C3;}
	.st16{fill:#C4C4C4;}
	.st17{fill:#C5C5C5;}
	.st18{fill:#C7C7C7;}
	.st19{fill:#C8C8C8;}
	.st20{fill:#C9C9C9;}
	.st21{fill:#CACACA;}
	.st22{fill:#CBCBCB;}
	.st23{fill:#CCCCCC;}
	.st24{fill:#CDCDCD;}
	.st25{fill:#CECECE;}
	.st26{fill:#CFCFCF;}
	.st27{fill:#D1D1D1;}
	.st28{fill:#D2D2D2;}
	.st29{fill:#D3D3D3;}
	.st30{fill:#D4D4D4;}
	.st31{fill:#D5D5D5;}
	.st32{fill:#D6D6D6;}
	.st33{fill:#D8D8D8;}
	.st34{fill:#D9D9D9;}
	.st35{fill:#DADADA;}
	.st36{fill:#DBDBDB;}
	.st37{fill:#DCDCDC;}
	.st38{fill:#DEDEDE;}
	.st39{fill:#DFDFDF;}
	.st40{clip-path:url(#SVGID_00000131345655744788958230000005160234019473492404_);}
	.st41{clip-path:url(#SVGID_00000131359952345081000490000014644730875762580152_);}
	.st42{clip-path:url(#SVGID_00000023273829255719045550000013312974599754877059_);}
	.st43{clip-path:url(#SVGID_00000150785475344549845770000006831065860329389488_);}
	.st44{fill:#FF8981;}
	.st45{fill:#0086F8;}
	.st46{fill:#7A0036;}
	.st47{fill:none;}
	.st48{opacity:0.56;}

  svg {
    cursor: pointer;
	  }

svg #arm-right {
	animation: wave 0.8s infinite alternate;
	transform-origin: center;
}

@keyframes wave {
    0% {transform: rotate(0);}
	50% {transform: rotate(15deg);}
    100% {transform: rotate(0);} 
}


svg #left-hand {
	animation: wiggle 0.4s infinite alternate;
	transform-origin: center;
}

@keyframes wiggle {
    0% {transform: translateX(0);}
    50% {transform: translateX(10px);}
	100% {transform: translateX(0);}
}

svg #arm-left {
	animation: sway 0.5s infinite alternate;
	transform-origin: center;
}

@keyframes sway {
    0% {transform: translateX(0);}
    50% {transform: translateX(10px);}
	100% {transform: translateX(0);}
}

svg #head {
	animation: headBang 1s infinite alternate;
	transform-origin: center;
}

@keyframes headBang {
    0% {transform: translateY(0) rotate(0);}
    50% {transform: translateY(10px) rotate(-10deg);}
	100% {transform: translateY(0) rotate(0);}
}

svg #glasses {
	animation: glasses 1s infinite alternate;
	transform-origin: center;
}

@keyframes glasses {
    0% {transform: translateY(0) rotate(0);}
    50% {transform: translateY(15px) rotate(-15deg);}
	100% {transform: translateY(0) rotate(0);}
}


svg #tongue, #top-headset, #bot_headset {
	animation: follow 0.8s infinite alternate;
	transform-origin: center;
}

@keyframes follow {
    0% {transform: rotate(0);}
	50% {transform: rotate(3deg);}
    100% {transform: rotate(0);}
}






</style>
<g id="arm-right">
	<path class="st0" d="M294.4,370.9c0,0,38.2,5.2,79.9-18.8c31.1-17.9,31.2-42.9,42.7-41.4c27,3.5,12.9,32.1,4.3,46.6
		c-12.7,21.4-30.8,36.3-54.2,45.5c-26.1,10.3-57,17.7-84.8,18.6L294.4,370.9L294.4,370.9z"/>
	<path class="st1" d="M280.7,422.6l12.8-53l1.1,0.1c0.4,0.1,38.3,4.8,79.1-18.7c17.1-9.8,24.6-21.7,30-30.4
		c4.4-6.9,7.5-12,13.4-11.2c7.6,1,12.7,4,15.2,9c4,8.2,0.6,21.5-10,39.4c-12.5,21.1-31,36.6-54.8,46c-28.1,11.1-59.2,17.9-85.2,18.7
		L280.7,422.6L280.7,422.6z M295.4,372.2L283.8,420c25.5-1,55.5-7.7,82.8-18.4c23.7-9.3,41.2-24,53.6-45c12.7-21.4,12.4-32,9.9-37.1
		c-2.1-4.2-6.5-6.8-13.3-7.7c-4.1-0.5-6.5,2.9-11,10.1c-5.6,8.9-13.3,21-30.9,31.2C337.2,374.8,302,372.8,295.4,372.2L295.4,372.2z"
		/>
	<g id="right-hand">
		<g>
			<path class="st2" d="M411.2,324.5c0,0-10.9-3.6-8.5-17.3s32.8-7.7,40.2,1.6C449.4,317.2,443.8,339.3,411.2,324.5z"/>
			<path class="st1" d="M430.2,330.7c-4.9,0-11.2-1.4-19.5-5.1c-1-0.4-11.7-4.7-9.2-18.6c0.7-4.2,3.8-7,8.9-8.3
				c10.6-2.6,27.7,2.2,33.4,9.4c3.2,4.1,4,11.5-0.3,16.9C441.6,327.6,437.6,330.7,430.2,330.7L430.2,330.7z M416.8,300.5
				c-2.1,0-4,0.2-5.8,0.6c-4.1,1-6.6,3.2-7.1,6.4c-2.2,12.4,7.3,15.8,7.7,15.9l0.1,0c14.1,6.4,25,6.5,30,0.2
				c3.5-4.4,2.8-10.7,0.3-13.9C437.9,304.5,426.1,300.5,416.8,300.5L416.8,300.5z"/>
		</g>
		<g>
			<path class="st2" d="M409.6,304.8c0,0-17.6-9.7-13.4-30.7c4.2-21,4.5-32.6,11.8-36.7c7.3-4.1,13.8-4.4,13.8-4.4s2.2-6.2,1.6-25.7
				c-0.6-19.4,5.2-32.4,16.8-31.3c11.6,1.1,21.3,19,9.2,55.4c0,0,7.2-6.4,16.1-2.2c8.9,4.2,9.1,16.1,9.1,16.1s12-10.3,18.1-23.5
				c6.1-13.2,17.4-20.1,25-11.7c9.8,10.8-0.1,37.3-35.3,59c0,0-3.3,24.8-19.3,37.6C447,319.6,418,308.4,409.6,304.8L409.6,304.8z"/>
			<path class="st1" d="M443.1,313.9c-13.1,0-26.9-5-34-8l-0.1-0.1c-0.2-0.1-18.3-10.4-14-32c0.9-4.4,1.6-8.5,2.2-12.1
				c2.4-13.7,3.9-21.9,10.1-25.5c6-3.4,11.4-4.2,13.5-4.5c0.5-2.1,1.8-9.2,1.3-24.5c-0.4-13.7,2.3-24,7.7-29.1
				c2.9-2.7,6.4-3.9,10.4-3.5c4.4,0.4,8.3,3,11.1,7.3c3.7,5.7,8.5,19.2,0.2,46.4c3.1-1.6,8.4-3.2,14.4-0.4c7,3.3,9,10.7,9.6,14.6
				c3.5-3.4,11.5-11.7,16-21.5c4.1-8.9,10.5-15,16.7-15.9c3.8-0.6,7.4,0.8,10.2,3.9c3.2,3.6,4.5,8.6,3.6,14.5
				c-2.2,15.1-16.6,32.2-38.7,46c-0.6,3.9-4.7,25.7-19.7,37.8C458,312.3,450.7,313.9,443.1,313.9L443.1,313.9z M410.1,303.8
				c10.8,4.6,37.4,13.8,52.1,2c15.4-12.4,18.9-36.6,18.9-36.8l0.1-0.6l0.5-0.3c25.6-15.8,36.5-33.4,38.1-44.6
				c0.7-5.2-0.3-9.5-3-12.6c-2.3-2.6-5-3.6-8-3.2c-5.4,0.8-11.2,6.4-14.9,14.6c-6.1,13.3-17.9,23.5-18.4,24l-1.9,1.7l-0.1-2.6
				c0-0.1-0.3-11.2-8.4-15c-8.1-3.8-14.5,1.8-14.8,2l-3.3,2.9l1.4-4.2c6.9-20.7,7.3-38.1,1.1-47.5c-2.4-3.7-5.6-5.9-9.3-6.2
				c-3.3-0.3-6.2,0.6-8.5,2.8c-4.9,4.6-7.3,14.2-6.9,27.2c0.6,19.5-1.5,25.8-1.6,26.1l-0.3,0.8l-0.8,0c0,0-6.3,0.3-13.3,4.2
				c-5.3,3-6.7,10.8-8.9,23.8c-0.6,3.6-1.4,7.7-2.2,12.1C393.5,293.9,408.9,303.1,410.1,303.8L410.1,303.8z"/>
		</g>
		<path class="st1" d="M453.5,279.5c-4.1,0-7.7-1.7-9.9-3.8c-4.7-4.4-2.6-11.3-2.5-11.6c0.2-0.6,0.9-1,1.5-0.8
			c0.6,0.2,1,0.9,0.8,1.5c0,0.1-1.7,5.8,1.9,9.1c3.2,3,11.4,6.3,19.8-2.4c7.9-8.2,9.2-26.8,9.2-27c0-0.7,0.6-1.2,1.3-1.1
			c0.7,0,1.2,0.6,1.1,1.3c-0.1,0.8-1.4,19.6-9.9,28.5C462.2,277.9,457.6,279.6,453.5,279.5L453.5,279.5z"/>
		<path class="st1" d="M442.4,265c-1.2,0-2.5-0.1-3.9-0.4c-7.6-1.5-12.8-3.4-16.6-4.7c-3.1-1.1-5.3-1.9-6.4-1.6
			c-0.6,0.2-1.3-0.2-1.5-0.8c-0.2-0.6,0.2-1.3,0.8-1.5c2-0.6,4.2,0.2,8,1.6c3.7,1.4,8.8,3.2,16.2,4.7c5.1,1,9.7-0.2,13.1-3.4
			c4-3.7,6.4-10.1,5.8-15.6c-0.3-2.8-1.3-4.9-3-6.2c-2.3-1.8-6-2.4-11.3-1.8c-6.7,0.8-21.2-0.9-21.8-0.9c-0.7-0.1-1.1-0.7-1.1-1.4
			c0.1-0.7,0.7-1.1,1.4-1.1c0.1,0,14.8,1.8,21.2,0.9c6-0.7,10.3,0,13.1,2.3c2.2,1.8,3.5,4.4,3.9,7.9c0.6,5.3-1.2,12.8-6.5,17.7
			C451.4,262.8,447.7,265,442.4,265L442.4,265z"/>
		<path class="st1" d="M435.5,291.7c-0.1,0-0.3,0-0.4-0.1c-0.6-0.2-0.9-0.9-0.7-1.6c6.1-15.8-7.4-28.4-7.5-28.5
			c-0.5-0.5-0.5-1.2-0.1-1.7c0.5-0.5,1.2-0.5,1.7-0.1c0.1,0.1,14.8,13.8,8.2,31.2C436.5,291.4,436,291.7,435.5,291.7L435.5,291.7z"
			/>
	</g>
</g>
<g id="arm-left">
	<path class="st0" d="M197.3,377.6c0,0-74.1-20.7-107.8,16.3c-33.7,37-12.6,62.5,32.1,73.8l33-11.7c0,0-37-20.2-19.6-33
		c17.4-12.9,73.2,0,73.2,0l-9.1-43.1"/>
	<path class="st1" d="M121.7,469.1l-0.4-0.1c-27.2-6.9-44-18.3-48.4-33.2c-3.8-12.6,1.5-27,15.7-42.7c33.8-37.2,108.2-16.9,109-16.7
		c0.6,0.2,1,0.8,0.8,1.5c-0.2,0.6-0.8,1-1.5,0.8c-0.7-0.2-73.8-20.1-106.5,16c-13.6,15-18.7,28.6-15.2,40.3
		c4.2,13.9,20.2,24.8,46.4,31.4l30.2-10.7c-6.1-3.6-21.9-14-22.6-24.1c-0.3-3.7,1.5-6.9,5.1-9.6c16-11.9,62.4-2.8,72.4-0.6
		l-8.7-41.3c-0.1-0.7,0.3-1.3,0.9-1.4c0.7-0.1,1.3,0.3,1.4,0.9l9.5,45l-1.8-0.4c-0.5-0.1-55.5-12.6-72.2-0.2c-3,2.2-4.3,4.7-4.1,7.5
		c0.7,10.9,23.4,23.4,23.6,23.5l2.4,1.3L121.7,469.1L121.7,469.1z"/>
</g>
<g id="body">
	<g>
		<path class="st0" d="M319.2,453.7c11.5,64.2,25.8,118.8-80.9,118.8s-90-54.1-80.9-118.8c8.8-63,36.2-118.8,80.9-118.8
			S305.8,378.9,319.2,453.7z"/>
		<path class="st1" d="M238.3,573.7c-38.9,0-64.1-7.3-77.1-22.4c-16.8-19.5-12.3-49.2-7.1-83.6c0.7-4.7,1.4-9.4,2.1-14.2
			c8.1-57.9,33.9-119.9,82.1-119.9c42,0,67.3,37,82.1,119.8c0.5,2.5,0.9,5.1,1.4,7.6c6.7,36.7,12.4,68.4-5,89.3
			C303.6,566,277.9,573.7,238.3,573.7L238.3,573.7z M238.3,336.1c-46.6,0-71.7,60.8-79.7,117.8c-0.7,4.8-1.4,9.6-2.1,14.2
			c-5.1,33.8-9.5,63,6.5,81.7c12.5,14.5,37.1,21.5,75.3,21.5s64-7.4,76.6-22.5c16.7-20,11-51.2,4.5-87.3c-0.5-2.5-0.9-5-1.4-7.6
			C303.4,372.4,278.8,336,238.3,336.1L238.3,336.1z"/>
	</g>
	<g>
		<ellipse class="st2" cx="238.8" cy="445.9" rx="55.7" ry="83.6"/>
		<path class="st1" d="M238.8,530.6c-31.4,0-56.9-38-56.9-84.8s25.5-84.8,56.9-84.8s56.9,38,56.9,84.8S270.2,530.6,238.8,530.6z
			 M238.8,363.5c-30.1,0-54.5,37-54.5,82.4s24.4,82.4,54.5,82.4s54.5-37,54.5-82.4S268.8,363.5,238.8,363.5L238.8,363.5z"/>
	</g>
</g>
<g id="dj-mixer">
	<g>
		<path class="st3" d="M30.3,595.2c-9.7,0-17.6-7.9-17.6-17.6v-19.2h428.2v19.2c0,9.7-7.9,17.6-17.6,17.6H30.3z"/>
		<path class="st1" d="M439.7,559.6v18c0,9.1-7.3,16.4-16.4,16.4h-393c-9.1,0-16.4-7.3-16.4-16.4v-18H439.7 M442.1,557.2H11.5v20.4
			c0,10.4,8.5,18.8,18.8,18.8h392.9c10.4,0,18.8-8.5,18.8-18.8L442.1,557.2L442.1,557.2L442.1,557.2z"/>
	</g>
	<g>
		<path class="st4" d="M28.1,574.4c-5.4,0-10.3-2.7-13.1-7.3c-2.8-4.6-3.1-10.2-0.7-15L54,472.2c2.6-5.3,7.9-8.6,13.8-8.6h318.1
			c5.9,0,11.2,3.3,13.8,8.6l39.6,79.9c2.4,4.8,2.1,10.4-0.7,15c-2.8,4.6-7.7,7.3-13.1,7.3H28.1z"/>
		<path class="st1" d="M385.8,464.9c5.4,0,10.3,3.1,12.7,7.9l39.6,79.9c4.7,9.5-2.2,20.5-12.7,20.5H28.1
			c-10.6,0-17.4-11.1-12.7-20.5L55,472.8c2.4-4.8,7.3-7.9,12.7-7.9H385.8 M385.8,462.4H67.8c-6.4,0-12.1,3.5-14.9,9.2l-39.6,79.9
			c-2.6,5.2-2.3,11.2,0.8,16.2c3,4.9,8.3,7.9,14.1,7.9h397.3c5.8,0,11.1-2.9,14.1-7.9c3-4.9,3.3-11,0.8-16.2l-39.6-79.9
			C397.9,466,392.2,462.4,385.8,462.4L385.8,462.4z"/>
	</g>
	<path class="st5" d="M195.1,505.5c0,7.1-19.1,12.9-42.7,12.9c-0.4,0-0.8,0-1.2,0c-23.1-0.2-41.6-5.9-41.6-12.9
		c0-7,19.1-12.9,42.7-12.9c13.2,0,25.1,1.8,32.9,4.7C191.4,499.6,195.1,502.5,195.1,505.5L195.1,505.5z"/>
	<g>
		<path class="st6" d="M243.3,509.1L243.3,509.1c-0.2-1.2-0.5-2.4-0.9-3.5v0c-6.7-16.8-44.5-29.6-90-29.6s-83.2,12.8-90,29.6v0
			c-0.5,1.2-0.8,2.3-1,3.5l0,0c-0.1,0.6-0.1,1.2-0.1,1.8c0,19.3,40.8,35,91,35s91-15.6,91-35C243.4,510.3,243.3,509.7,243.3,509.1
			L243.3,509.1z M152.4,518.5c-23.6,0-42.7-5.8-42.7-12.9c0-7.1,19.1-12.9,42.7-12.9c23.6,0,42.7,5.8,42.7,12.9
			C195.1,512.7,176,518.5,152.4,518.5z"/>
		<path class="st1" d="M152.4,547.1c-51.7,0-92.2-15.9-92.2-36.2c0-0.6,0-1.2,0.1-1.9v-0.1c0.2-1.3,0.5-2.6,1-3.8l0.1-0.1
			c7-17.5,45.3-30.3,91.1-30.3s84,12.8,91.1,30.4c0.5,1.2,0.8,2.5,1,3.8v0.1c0.1,0.6,0.1,1.2,0.1,1.9
			C244.6,531.2,204.1,547.1,152.4,547.1L152.4,547.1z M62.7,509.2L62.7,509.2c-0.1,0.6-0.1,1.2-0.1,1.7c0,18.6,40.3,33.8,89.8,33.8
			s89.8-15.1,89.8-33.8c0-0.5,0-1.1-0.1-1.6v-0.1c-0.2-1.1-0.5-2.1-0.9-3.1c-6.6-16.5-44.8-28.9-88.8-28.9S70.1,489.6,63.5,506
			l-0.1,0.1C63.1,507.1,62.8,508.1,62.7,509.2L62.7,509.2z M152.4,519.7c-21.3,0-43.9-4.9-43.9-14.1c0-9.2,22.6-14.1,43.9-14.1
			s43.9,4.9,43.9,14.1C196.3,514.7,173.7,519.7,152.4,519.7z M152.4,493.9c-24.5,0-41.5,6.2-41.5,11.7c0,5.5,17,11.7,41.5,11.7
			s41.5-6.2,41.5-11.7S176.8,493.9,152.4,493.9z"/>
	</g>
	<g>
		<path class="st7" d="M247.1,523.3c0,20.1-42.4,36.4-94.7,36.4s-94.7-16.3-94.7-36.4l3.8-14.1c-0.1,0.6-0.1,1.2-0.1,1.8
			c0,19.3,40.8,35,91,35s91-15.6,91-35c0-0.6,0-1.2-0.1-1.8L247.1,523.3L247.1,523.3z"/>
		<path class="st1" d="M152.4,560.9c-53.8,0-96-16.5-96-37.6l0-0.3l3.8-14.1l2.4,0.5c-0.1,0.5-0.1,1.1-0.1,1.6
			c0,18.6,40.3,33.8,89.8,33.8s89.8-15.1,89.8-33.8c0-0.5,0-1.1-0.1-1.6l2.4-0.5l3.9,14.5C248.3,544.3,206.2,560.9,152.4,560.9
			L152.4,560.9z M58.8,523.4c0.2,19.3,42.1,35,93.5,35s93.3-15.7,93.5-35l-2.1-7.7c-5.9,17.9-43.9,31.3-91.4,31.3
			s-85.6-13.4-91.5-31.3L58.8,523.4L58.8,523.4z"/>
	</g>
	<path class="st8" d="M384.5,517.8l-14-38.8c-0.2-0.5,0.1-1.2,0.6-1.4c0.5-0.2,1.1,0.1,1.3,0.5l17.3,37.4c0.7,1.4,0,3.1-1.4,3.8
		c-1.4,0.7-3.1,0-3.8-1.4C384.6,517.9,384.6,517.8,384.5,517.8L384.5,517.8z M334.7,517.7c0.5,1.5,2.1,2.3,3.6,1.8
		c1.5-0.5,2.3-2.1,1.8-3.6l-12.6-37.6c-0.2-0.5-0.7-0.8-1.2-0.7c-0.6,0.1-0.9,0.7-0.8,1.3l9.1,38.6
		C334.7,517.5,334.7,517.6,334.7,517.7L334.7,517.7z M284.9,517.4c0.3,1.6,1.8,2.6,3.4,2.2c1.6-0.3,2.6-1.8,2.2-3.4l-7.7-37.8
		c-0.1-0.5-0.6-0.9-1.2-0.8c-0.6,0.1-1,0.6-0.9,1.2l4.1,38.4C284.8,517.2,284.9,517.3,284.9,517.4L284.9,517.4z"/>
	<path class="st8" d="M410.8,553.5h-22.3c-2.6,0-4.9-1.6-5.8-4.1l-3.9-10.6c-1.5-4.1,1.5-8.4,5.8-8.4h21.5c2.4,0,4.7,1.4,5.7,3.7
		l4.8,10.6C418.4,548.8,415.4,553.5,410.8,553.5L410.8,553.5z M363.4,545.3l-3.5-10.6c-0.8-2.6-3.2-4.3-5.9-4.3h-22
		c-4,0-7,3.8-6,7.7l2.5,10.6c0.7,2.8,3.2,4.8,6,4.8h22.9C361.7,553.5,364.7,549.4,363.4,545.3L363.4,545.3z M310.1,546.1l-2.1-10.6
		c-0.6-2.9-3.1-5-6.1-5h-22.3c-3.7,0-6.6,3.2-6.2,6.9l1.2,10.6c0.4,3.1,3,5.5,6.2,5.5H304C307.9,553.5,310.8,549.9,310.1,546.1
		L310.1,546.1z M384.6,530.5h21.5c2.4,0,4.7,1.4,5.7,3.7l4.8,10.6 M363.4,545.3l-3.5-10.6c-0.8-2.6-3.2-4.3-5.9-4.3h-22
		 M310.1,546.1l-2.1-10.6c-0.6-2.9-3.1-5-6.1-5h-22.3"/>
	<path class="st8" d="M294.1,509.1c0,1.6-1.3,2.9-2.9,2.9h-9.5c-1.6,0-2.9-1.3-2.9-2.9c0-1.6,1.3-2.9,2.9-2.9h9.5
		C292.8,506.2,294.1,507.5,294.1,509.1z M336.8,494.7h-9.5c-1.6,0-2.9,1.3-2.9,2.9c0,1.6,1.3,2.9,2.9,2.9h9.5c1.6,0,2.9-1.3,2.9-2.9
		C339.6,496,338.3,494.7,336.8,494.7z M387.2,502.2h-9.5c-1.6,0-2.9,1.3-2.9,2.9s1.3,2.9,2.9,2.9h9.5c1.6,0,2.9-1.3,2.9-2.9
		S388.8,502.2,387.2,502.2z"/>
	<g>
		<g>
			<g>
				<g>
					<defs>
						<polygon id="SVGID_1_" points="12.8,29.3 14.2,29.3 12.8,30.6 						"/>
					</defs>
					<clipPath id="SVGID_00000129897042675630695990000014303352614992023184_">
						<use xlink:href="#SVGID_1_"  style="overflow:visible;"/>
					</clipPath>
				</g>
				<g>
					<defs>
						<polygon id="SVGID_00000174593127882160102200000002729758825748842663_" points="12.8,29.3 14.2,29.3 12.8,30.6 						"/>
					</defs>
					<defs>
						<polygon id="SVGID_00000162345995191439426860000004453871040153196190_" points="10.2,26.6 8.8,26.6 10.2,25.2 						"/>
					</defs>
					<clipPath id="SVGID_00000129893380886012018310000018192872993327130262_">
						<use xlink:href="#SVGID_00000174593127882160102200000002729758825748842663_"  style="overflow:visible;"/>
					</clipPath>
					
						<clipPath id="SVGID_00000062184019803787941760000005056947647044797611_" style="clip-path:url(#SVGID_00000129893380886012018310000018192872993327130262_);">
						<use xlink:href="#SVGID_00000162345995191439426860000004453871040153196190_"  style="overflow:visible;"/>
					</clipPath>
					<g style="clip-path:url(#SVGID_00000062184019803787941760000005056947647044797611_);">
						<polygon class="st11" points="389,530.5 384.6,531.1 384.6,530.5 						"/>
						<polygon class="st12" points="394.2,530.5 384.6,531.7 384.6,531.1 389,530.5 						"/>
						<polygon class="st13" points="399.4,530.5 384.6,532.3 384.6,531.7 394.2,530.5 						"/>
						<polygon class="st14" points="404.6,530.5 384.6,533 384.6,532.3 399.4,530.5 						"/>
						<polygon class="st15" points="409.8,530.5 384.6,533.6 384.6,533 404.6,530.5 						"/>
						<polygon class="st16" points="415,530.5 384.6,534.3 384.6,533.6 409.8,530.5 						"/>
						<polygon class="st17" points="416.5,531 384.6,534.9 384.6,534.3 415,530.5 416.5,530.5 						"/>
						<polygon class="st18" points="416.5,531.6 384.6,535.6 384.6,534.9 416.5,531 						"/>
						<polygon class="st19" points="416.5,532.3 384.6,536.2 384.6,535.6 416.5,531.6 						"/>
						<polygon class="st20" points="416.5,532.9 384.6,536.9 384.6,536.2 416.5,532.3 						"/>
						<polygon class="st21" points="416.5,533.5 384.6,537.5 384.6,536.9 416.5,532.9 						"/>
						<polygon class="st22" points="416.5,534.2 384.6,538.2 384.6,537.5 416.5,533.5 						"/>
						<polygon class="st23" points="416.5,534.8 384.6,538.8 384.6,538.2 416.5,534.2 						"/>
						<polygon class="st24" points="416.5,535.5 384.6,539.4 384.6,538.8 416.5,534.8 						"/>
						<polygon class="st25" points="416.5,536.1 384.6,540.1 384.6,539.4 416.5,535.5 						"/>
						<polygon class="st26" points="416.5,536.8 384.6,540.7 384.6,540.1 416.5,536.1 						"/>
						<polygon class="st27" points="416.5,537.4 384.6,541.4 384.6,540.7 416.5,536.8 						"/>
						<polygon class="st28" points="416.5,538.1 384.6,542 384.6,541.4 416.5,537.4 						"/>
						<polygon class="st29" points="416.5,538.7 384.6,542.7 384.6,542 416.5,538.1 						"/>
						<polygon class="st30" points="416.5,539.3 384.6,543.3 384.6,542.7 416.5,538.7 						"/>
						<polygon class="st31" points="416.5,540 384.6,543.9 384.6,543.3 416.5,539.3 						"/>
						<polygon class="st32" points="416.5,540.6 384.6,544.6 384.6,543.9 416.5,540 						"/>
						<polygon class="st33" points="416.5,541.3 388.9,544.7 384.6,544.7 384.6,544.6 416.5,540.6 						"/>
						<polygon class="st34" points="416.5,541.9 394.1,544.7 388.9,544.7 416.5,541.3 						"/>
						<polygon class="st35" points="416.5,542.6 399.2,544.7 394.1,544.7 416.5,541.9 						"/>
						<polygon class="st36" points="416.5,543.2 404.4,544.7 399.2,544.7 416.5,542.6 						"/>
						<polygon class="st37" points="416.5,543.8 409.6,544.7 404.4,544.7 416.5,543.2 						"/>
						<polygon class="st38" points="416.5,544.5 414.8,544.7 409.6,544.7 416.5,543.8 						"/>
						<polygon class="st39" points="414.8,544.7 416.5,544.5 416.5,544.7 						"/>
					</g>
				</g>
			</g>
		</g>
		<g>
			<g>
				<g>
					<defs>
						<polygon id="SVGID_00000117668056558386520250000014721852102316242365_" points="12.8,29.3 14.2,29.3 12.8,30.6 						"/>
					</defs>
					<clipPath id="SVGID_00000147899401953686766170000004585564961220876680_">
						<use xlink:href="#SVGID_00000117668056558386520250000014721852102316242365_"  style="overflow:visible;"/>
					</clipPath>
				</g>
				<g>
					<defs>
						<polygon id="SVGID_00000108284214256719839490000010411411182442123921_" points="12.8,29.3 14.2,29.3 12.8,30.6 						"/>
					</defs>
					<defs>
						<polygon id="SVGID_00000074411594701527044790000005938192354439608456_" points="10.2,26.6 8.8,26.6 10.2,25.2 						"/>
					</defs>
					<clipPath id="SVGID_00000015328935161787601120000005421820391760879004_">
						<use xlink:href="#SVGID_00000108284214256719839490000010411411182442123921_"  style="overflow:visible;"/>
					</clipPath>
					
						<clipPath id="SVGID_00000155866565140142208470000013446584261750634161_" style="clip-path:url(#SVGID_00000015328935161787601120000005421820391760879004_);">
						<use xlink:href="#SVGID_00000074411594701527044790000005938192354439608456_"  style="overflow:visible;"/>
					</clipPath>
					<g style="clip-path:url(#SVGID_00000155866565140142208470000013446584261750634161_);">
						<polygon class="st11" points="336.6,530.5 332,531.1 332,530.5 						"/>
						<polygon class="st12" points="341.9,530.5 332,531.7 332,531.1 336.6,530.5 						"/>
						<polygon class="st13" points="347.3,530.5 332,532.4 332,531.7 341.9,530.5 						"/>
						<polygon class="st14" points="352.6,530.5 332,533.1 332,532.4 347.3,530.5 						"/>
						<polygon class="st15" points="358,530.5 332,533.7 332,533.1 352.6,530.5 						"/>
						<polygon class="st16" points="363.3,530.5 332,534.4 332,533.7 358,530.5 						"/>
						<polygon class="st17" points="363.4,531.2 332,535.1 332,534.4 363.3,530.5 363.4,530.5 						"/>
						<polygon class="st18" points="363.4,531.8 332,535.7 332,535.1 363.4,531.2 						"/>
						<polygon class="st19" points="363.4,532.5 332,536.4 332,535.7 363.4,531.8 						"/>
						<polygon class="st20" points="363.4,533.2 332,537.1 332,536.4 363.4,532.5 						"/>
						<polygon class="st21" points="363.4,533.8 332,537.7 332,537.1 363.4,533.2 						"/>
						<polygon class="st22" points="363.4,534.5 332,538.4 332,537.7 363.4,533.8 						"/>
						<polygon class="st23" points="363.4,535.2 332,539 332,538.4 363.4,534.5 						"/>
						<polygon class="st24" points="363.4,535.8 332,539.7 332,539 363.4,535.2 						"/>
						<polygon class="st25" points="363.4,536.5 332,540.4 332,539.7 363.4,535.8 						"/>
						<polygon class="st26" points="363.4,537.2 332,541 332,540.4 363.4,536.5 						"/>
						<polygon class="st27" points="363.4,537.8 332,541.7 332,541 363.4,537.2 						"/>
						<polygon class="st28" points="363.4,538.5 332,542.4 332,541.7 363.4,537.8 						"/>
						<polygon class="st29" points="363.4,539.2 332,543 332,542.4 363.4,538.5 						"/>
						<polygon class="st30" points="363.4,539.8 332,543.7 332,543 363.4,539.2 						"/>
						<polygon class="st31" points="363.4,540.5 332,544.4 332,543.7 363.4,539.8 						"/>
						<polygon class="st32" points="363.4,541.1 332,545 332,544.4 363.4,540.5 						"/>
						<polygon class="st33" points="363.4,541.8 334.9,545.3 332,545.3 332,545 363.4,541.1 						"/>
						<polygon class="st34" points="363.4,542.5 340.2,545.3 334.9,545.3 363.4,541.8 						"/>
						<polygon class="st35" points="363.4,543.1 345.6,545.3 340.2,545.3 363.4,542.5 						"/>
						<polygon class="st36" points="363.4,543.8 350.9,545.3 345.6,545.3 363.4,543.1 						"/>
						<polygon class="st37" points="363.4,544.5 356.3,545.3 350.9,545.3 363.4,543.8 						"/>
						<polygon class="st38" points="363.4,545.1 361.6,545.3 356.3,545.3 363.4,544.5 						"/>
						<polygon class="st39" points="361.6,545.3 363.4,545.1 363.4,545.3 						"/>
					</g>
				</g>
			</g>
		</g>
		<g>
			<g>
				<g>
					<defs>
						<polygon id="SVGID_00000072241348282250870570000015554530492657536416_" points="12.8,29.3 14.2,29.3 12.8,30.6 						"/>
					</defs>
					<clipPath id="SVGID_00000124857308865977470840000014507975832294912653_">
						<use xlink:href="#SVGID_00000072241348282250870570000015554530492657536416_"  style="overflow:visible;"/>
					</clipPath>
				</g>
				<g>
					<defs>
						<polygon id="SVGID_00000011724738319975505360000011740503721911910817_" points="12.8,29.3 14.2,29.3 12.8,30.6 						"/>
					</defs>
					<defs>
						<polygon id="SVGID_00000031887541424775342540000013360294468509597313_" points="10.2,26.6 8.8,26.6 10.2,25.2 						"/>
					</defs>
					<clipPath id="SVGID_00000079453366337328119460000013397531203769169571_">
						<use xlink:href="#SVGID_00000011724738319975505360000011740503721911910817_"  style="overflow:visible;"/>
					</clipPath>
					
						<clipPath id="SVGID_00000026136899194004612600000014283018599932170628_" style="clip-path:url(#SVGID_00000079453366337328119460000013397531203769169571_);">
						<use xlink:href="#SVGID_00000031887541424775342540000013360294468509597313_"  style="overflow:visible;"/>
					</clipPath>
					<g style="clip-path:url(#SVGID_00000026136899194004612600000014283018599932170628_);">
						<polygon class="st11" points="284.2,530.5 279.6,531.1 279.6,530.5 						"/>
						<polygon class="st12" points="289.8,530.5 279.6,531.8 279.6,531.1 284.2,530.5 						"/>
						<polygon class="st13" points="295.3,530.5 279.6,532.5 279.6,531.8 289.8,530.5 						"/>
						<polygon class="st14" points="300.8,530.5 279.6,533.1 279.6,532.5 295.3,530.5 						"/>
						<polygon class="st15" points="306.4,530.5 279.6,533.8 279.6,533.1 300.8,530.5 						"/>
						<polygon class="st16" points="310.1,530.7 279.6,534.5 279.6,533.8 306.4,530.5 310.1,530.5 						"/>
						<polygon class="st17" points="310.1,531.4 279.6,535.2 279.6,534.5 310.1,530.7 						"/>
						<polygon class="st18" points="310.1,532.1 279.6,535.9 279.6,535.2 310.1,531.4 						"/>
						<polygon class="st19" points="310.1,532.8 279.6,536.6 279.6,535.9 310.1,532.1 						"/>
						<polygon class="st20" points="310.1,533.5 279.6,537.3 279.6,536.6 310.1,532.8 						"/>
						<polygon class="st21" points="310.1,534.2 279.6,537.9 279.6,537.3 310.1,533.5 						"/>
						<polygon class="st22" points="310.1,534.9 279.6,538.6 279.6,537.9 310.1,534.2 						"/>
						<polygon class="st23" points="310.1,535.5 279.6,539.3 279.6,538.6 310.1,534.9 						"/>
						<polygon class="st24" points="310.1,536.2 279.6,540 279.6,539.3 310.1,535.5 						"/>
						<polygon class="st25" points="310.1,536.9 279.6,540.7 279.6,540 310.1,536.2 						"/>
						<polygon class="st26" points="310.1,537.6 279.6,541.4 279.6,540.7 310.1,536.9 						"/>
						<polygon class="st27" points="310.1,538.3 279.6,542.1 279.6,541.4 310.1,537.6 						"/>
						<polygon class="st28" points="310.1,539 279.6,542.8 279.6,542.1 310.1,538.3 						"/>
						<polygon class="st29" points="310.1,539.7 279.6,543.4 279.6,542.8 310.1,539 						"/>
						<polygon class="st30" points="310.1,540.3 279.6,544.1 279.6,543.4 310.1,539.7 						"/>
						<polygon class="st31" points="310.1,541 279.6,544.8 279.6,544.1 310.1,540.3 						"/>
						<polygon class="st32" points="310.1,541.7 279.6,545.5 279.6,544.8 310.1,541 						"/>
						<polygon class="st33" points="310.1,542.4 280.6,546.1 279.6,546.1 279.6,545.5 310.1,541.7 						"/>
						<polygon class="st34" points="310.1,543.1 286.2,546.1 280.6,546.1 310.1,542.4 						"/>
						<polygon class="st35" points="310.1,543.8 291.7,546.1 286.2,546.1 310.1,543.1 						"/>
						<polygon class="st36" points="310.1,544.5 297.2,546.1 291.7,546.1 310.1,543.8 						"/>
						<polygon class="st37" points="310.1,545.1 302.7,546.1 297.2,546.1 310.1,544.5 						"/>
						<polygon class="st38" points="310.1,545.8 308.3,546.1 302.7,546.1 310.1,545.1 						"/>
						<polygon class="st39" points="308.3,546.1 310.1,545.8 310.1,546.1 						"/>
					</g>
				</g>
			</g>
		</g>
	</g>
</g>
<g id="head">
	<g id="ear-left">
		<g>
			<path class="st0" d="M191.9,174.2c0,0-9.5-102.5-33-117.9s-33.8,14.1-32.9,23.3c0.8,9.2,35.6,111.5,35.6,111.5"/>
			<path class="st1" d="M161.5,192.3c-0.5,0-1-0.3-1.2-0.8c-1.4-4.2-34.8-102.6-35.6-111.8c-0.6-6.2,3.5-20.9,13.1-26.6
				c4.4-2.6,11.6-4.3,21.7,2.2c23.7,15.6,33.1,114.6,33.5,118.8c0.1,0.7-0.4,1.3-1.1,1.3c-0.7,0.1-1.3-0.4-1.3-1.1
				c-0.1-1-9.7-102.1-32.4-117c-7.2-4.7-13.6-5.5-19.1-2.2c-8.7,5.2-12.5,18.8-12,24.4c0.8,8.9,35.1,110.2,35.5,111.3
				c0.2,0.6-0.1,1.3-0.8,1.5C161.7,192.3,161.6,192.4,161.5,192.3L161.5,192.3z"/>
		</g>
		<g>
			<path class="st44" d="M179.7,180.1c0,0-16.2-81.3-30.5-90.3c-14.3-9-23.7,38.1,12.9,103"/>
			<path class="st1" d="M162.2,194c-0.4,0-0.8-0.2-1.1-0.6c-29-51.5-30.2-94.1-19.9-103.9c2.5-2.4,5.6-2.6,8.7-0.7
				c14.6,9.2,30.3,87.8,31,91.1c0.1,0.7-0.3,1.3-0.9,1.4c-0.7,0.1-1.3-0.3-1.4-0.9c-0.2-0.8-16.2-80.9-29.9-89.5
				c-2.2-1.4-4-1.2-5.7,0.4c-8.5,8.1-9,48.8,20.4,101c0.3,0.6,0.1,1.3-0.5,1.6C162.7,194,162.5,194,162.2,194L162.2,194L162.2,194z"
				/>
		</g>
		<g>
			<path class="st0" d="M156.6,90.1c0,0-6.4,76.7-55.8,72.6c-49.4-4.1-9.2-99.2,43.8-110.7"/>
			<path class="st1" d="M104.6,164.1c-1.3,0-2.5-0.1-3.8-0.2c-14.2-1.2-22.5-9.8-23.4-24.4c-1-15,6.1-35.2,18.6-52.8
				c13.5-19.1,31.2-32.2,48.5-36c0.7-0.1,1.3,0.3,1.4,0.9c0.1,0.7-0.3,1.3-0.9,1.4c-16.7,3.6-33.8,16.4-47,35
				c-12.1,17.1-19.1,36.7-18.1,51.2c0.6,9.3,4.8,20.8,21.2,22.1c19.9,1.6,35.1-9.8,45.2-34c7.6-18.3,9.3-37.3,9.3-37.5
				c0.1-0.7,0.6-1.1,1.3-1.1c0.7,0.1,1.2,0.6,1.1,1.3c0,0.2-1.7,19.6-9.4,38.2C138.7,151.8,123.6,164.1,104.6,164.1L104.6,164.1z"/>
		</g>
	</g>
	<g id="bot_headset">
		<g>
			<path class="st0" d="M132.2,232.8h-1c-3.8,0-6.9-3.1-6.9-6.9v-78.5h14.8v78.5C139.1,229.7,136,232.8,132.2,232.8L132.2,232.8z"/>
			<path class="st1" d="M132.2,234h-1c-4.5,0-8.1-3.6-8.1-8.1v-79.7h17.2v79.7C140.3,230.4,136.7,234,132.2,234z M125.5,148.6v77.3
				c0,3.1,2.6,5.7,5.7,5.7h1c3.1,0,5.7-2.6,5.7-5.7v-77.3C137.9,148.6,125.5,148.6,125.5,148.6z"/>
		</g>
		<g>
			<g>
				<path class="st45" d="M144.2,173.3c20.3,0,36.8,23.2,36.8,51.8s-16.5,51.8-36.8,51.8s-36.7-23.2-36.7-51.8
					C107.4,196.5,123.9,173.3,144.2,173.3z"/>
				<path class="st45" d="M123.4,173.3h20.8c-20.3,0-36.7,23.2-36.7,51.8s16.5,51.8,36.7,51.8h-20.8c-20.3,0-36.8-23.2-36.8-51.8
					C86.6,196.5,103,173.3,123.4,173.3z"/>
				<path class="st45" d="M147.6,202.7c8.8,0,15.9,10,15.9,22.4c0,12.4-7.1,22.4-15.9,22.4s-15.9-10-15.9-22.4
					C131.7,212.7,138.8,202.7,147.6,202.7z"/>
			</g>
			<g>
				<g>
					<path class="st7" d="M144.2,173.3c20.3,0,36.8,23.2,36.8,51.8s-16.5,51.8-36.8,51.8s-36.7-23.2-36.7-51.8
						C107.4,196.5,123.9,173.3,144.2,173.3z"/>
					<path class="st1" d="M144.2,278.1c-20.9,0-38-23.8-38-53s17-53,38-53s38,23.8,38,53S165.1,278.1,144.2,278.1z M144.2,174.6
						c-19.6,0-35.5,22.7-35.5,50.6s15.9,50.6,35.5,50.6s35.6-22.7,35.6-50.6S163.8,174.6,144.2,174.6z"/>
				</g>
				<g>
					<path class="st6" d="M123.4,173.3h20.8c-20.3,0-36.7,23.2-36.7,51.8s16.5,51.8,36.7,51.8h-20.8c-20.3,0-36.8-23.2-36.8-51.8
						C86.6,196.5,103,173.3,123.4,173.3z"/>
					<path class="st1" d="M144.2,278.1h-20.8c-20.9,0-38-23.8-38-53s17-53,38-53h20.8v2.4c-19.6,0-35.5,22.7-35.5,50.6
						s15.9,50.6,35.5,50.6V278.1z M123.4,174.6c-19.6,0-35.6,22.7-35.6,50.6s15.9,50.6,35.6,50.6h9.5c-15.4-6.8-26.6-26.9-26.6-50.6
						s11.2-43.8,26.6-50.6H123.4z"/>
				</g>
				<g>
					<path class="st6" d="M147.6,202.7c8.8,0,15.9,10,15.9,22.4c0,12.4-7.1,22.4-15.9,22.4s-15.9-10-15.9-22.4
						C131.7,212.7,138.8,202.7,147.6,202.7z"/>
					<path class="st1" d="M147.6,248.7c-9.4,0-17.1-10.6-17.1-23.6c0-13,7.7-23.6,17.1-23.6s17.1,10.6,17.1,23.6
						C164.8,238.1,157.1,248.7,147.6,248.7z M147.6,203.9c-8.1,0-14.7,9.5-14.7,21.2c0,11.7,6.6,21.2,14.7,21.2
						c8.1,0,14.7-9.5,14.7-21.2C162.3,213.4,155.7,203.9,147.6,203.9z"/>
				</g>
			</g>
		</g>
	</g>
	<g id="face">
		<g>
			<path class="st0" d="M119.4,266.6c0-62.7,68.7-113.2,113.7-113.2s114.6,50.5,114.6,113.2c0,62.7-51.1,113.5-114.2,113.5
				S119.4,329.3,119.4,266.6L119.4,266.6z"/>
			<path class="st1" d="M233.5,381.3c-63.6,0-115.4-51.4-115.4-114.7c0-28.9,14.3-57.6,40.4-81c23-20.6,51.5-33.4,74.6-33.4
				c45.7,0,115.8,51.2,115.8,114.4S297.2,381.3,233.5,381.3L233.5,381.3z M233.1,154.7c-44.4,0-112.5,50.1-112.5,111.9
				s50.7,112.3,113,112.3s113-50.4,113-112.3S277.9,154.7,233.1,154.7L233.1,154.7z"/>
		</g>
		<g>
			<g>
				<ellipse class="st0" cx="264" cy="242.7" rx="24.9" ry="32"/>
				<path class="st1" d="M264,275.9c-14.4,0-26.1-14.9-26.1-33.2s11.7-33.2,26.1-33.2c14.4,0,26.1,14.9,26.1,33.2
					S278.5,275.9,264,275.9z M264,211.9c-13.1,0-23.7,13.8-23.7,30.8s10.6,30.8,23.7,30.8c13.1,0,23.7-13.8,23.7-30.8
					S277.1,211.9,264,211.9z"/>
			</g>
			<path class="st1" d="M270.9,242.7l-17.8-3.6c1.2-12.9,8.9-22.6,17.8-22.6c9.9,0,18,11.9,18,26.3s-8.1,26.3-18,26.3
				c-7.6,0-14.4-7-16.9-17.3L270.9,242.7L270.9,242.7z"/>
		</g>
		<g>
			<path class="st0" d="M253.4,279.4c0,0,8.7-16.6,24.8-22.6c16-5.9,39-3.8,41.7,15"/>
			<path class="st1" d="M253.4,280.6c-0.2,0-0.4,0-0.6-0.1c-0.6-0.3-0.8-1-0.5-1.6c0.4-0.7,9.2-17.1,25.4-23.1c11.9-4.4,25-4,33.5,1
				c5.5,3.3,8.9,8.5,9.8,15c0.1,0.7-0.4,1.3-1,1.4c-0.7,0.1-1.3-0.4-1.4-1c-0.8-5.9-3.8-10.3-8.7-13.2c-8.9-5.3-22.2-4.2-31.4-0.8
				c-15.4,5.7-24,21.8-24.1,22C254.3,280.3,253.8,280.6,253.4,280.6L253.4,280.6z"/>
		</g>
		<g>
			<g>
				<ellipse class="st0" cx="180.9" cy="242" rx="23.3" ry="29.9"/>
				<path class="st1" d="M180.9,273.2c-13.5,0-24.5-14-24.5-31.1c0-17.2,11-31.1,24.5-31.1s24.5,14,24.5,31.1
					C205.4,259.2,194.4,273.2,180.9,273.2z M180.9,213.3c-12.2,0-22.1,12.9-22.1,28.7c0,15.8,9.9,28.7,22.1,28.7
					s22.1-12.9,22.1-28.7S193.1,213.3,180.9,213.3z"/>
			</g>
			<path class="st1" d="M187.4,242l-16.7-3.4c1.2-12.1,8.3-21.2,16.7-21.2c9.2,0,16.8,11.1,16.8,24.6c0,13.5-7.6,24.6-16.8,24.6
				c-7.1,0-13.4-6.5-15.8-16.2L187.4,242L187.4,242z"/>
		</g>
		<g>
			<path class="st0" d="M201.7,276.5c0,0-7-12.8-24.2-15.3c-17.7-2.6-26.3,10.8-26.7,17.5"/>
			<path class="st1" d="M150.8,280C150.8,280,150.7,280,150.8,280c-0.7,0-1.3-0.6-1.2-1.3c0.2-3.8,2.8-9.5,8-13.7
				c3.8-3.1,10.4-6.4,20.2-5c17.7,2.6,24.8,15.3,25.1,15.9c0.3,0.6,0.1,1.3-0.5,1.6c-0.6,0.3-1.3,0.1-1.6-0.5
				c-0.1-0.1-6.9-12.3-23.3-14.6c-8.9-1.3-14.9,1.7-18.3,4.5c-4.6,3.7-6.9,8.8-7.1,11.9C151.9,279.5,151.4,280,150.8,280L150.8,280z
				"/>
		</g>
		<g>
			<path class="st46" d="M281.5,290.7c15.7,2.8,19.2,22,6.8,36.9c-12.4,15-37.8,28.9-70.2,25.3c-32.4-3.6-50.6-21.6-53.8-43.5
				c0,0-2.6-19.6,9.4-19c7.5,0.4,9,7.1,19.6,14.1c10.6,7,21.6,3.1,33.6-7.1c0,0,14,12.3,27.2,7.8
				C273.3,298.7,268.8,288.5,281.5,290.7L281.5,290.7z"/>
			<path class="st1" d="M228.2,354.8c-3.3,0-6.7-0.2-10.2-0.6c-30.8-3.4-51.3-20-54.9-44.5c-0.1-0.5-1.6-12.2,3.5-17.6
				c1.8-2,4.3-2.9,7.2-2.7c4.8,0.3,7.4,2.9,10.8,6.3c2.3,2.3,5.1,5.2,9.4,8.1c9.3,6.1,19.2,4,32.1-7l0.8-0.7l0.8,0.7
				c0.1,0.1,13.7,11.8,26,7.6c9.1-3.1,12.6-6.9,15.5-10c3-3.3,5.4-5.9,12.6-4.6l0,0c6.7,1.2,11.7,5.3,14,11.5
				c3.1,8.4,0.6,18.9-6.5,27.5C278.7,341.2,256.9,354.7,228.2,354.8L228.2,354.8z M173.1,291.7c-2,0-3.6,0.7-4.8,2
				c-4.3,4.6-2.9,15.6-2.9,15.7c3.4,23.3,23.1,39.1,52.8,42.4c32.8,3.6,57.7-11.2,69.1-24.9c6.5-7.9,8.9-17.5,6.1-25.1
				c-2-5.4-6.3-8.9-12.1-9.9l0,0c-5.8-1-7.4,0.7-10.4,3.9c-2.9,3.1-6.8,7.4-16.5,10.7c-12.1,4.1-24.4-4.8-27.6-7.4
				c-13.3,11.1-24.2,13.2-34.2,6.6c-4.5-3-7.5-6-9.8-8.4c-3.2-3.2-5.3-5.3-9.2-5.5C173.4,291.7,173.3,291.7,173.1,291.7L173.1,291.7
				z"/>
		</g>
		<path class="st1" d="M232,341.8c-1.7,0-3.4-0.1-5.1-0.3c-14.4-1.6-24.1-9.2-25.7-20.3c0-0.6-0.2-5.2,3.3-7c1-0.5,2-0.8,3.1-0.8
			c3.4,0,6.6,2.5,8.2,4c2.9,2.8,9.1,5.7,15.7,5.7c2.1,0,4.1-0.3,5.9-0.9c2.5-0.8,5-2.2,7.7-3.6c4-2.2,8.2-4.5,12-4.5
			c0.8,0,1.5,0.1,2.2,0.3c2.5,0.7,4.2,2.2,4.9,4.4c1,3-0.1,6.9-2.9,10.2C256.3,335.3,245.9,341.8,232,341.8L232,341.8z"/>
		<g>
			<path class="st0" d="M208.7,308.2c0.7,9.4,9.3,19.7,21.5,19.4c16-0.4,21.1-12.2,21-21.6c-2.5,0.2-6.4,0.8-11.7-0.5
				c-2.8-0.7-6.4-2.3-12.5-6.7C221.7,302.6,215.9,304.9,208.7,308.2L208.7,308.2z"/>
			<path class="st1" d="M229.7,328.9c-12.4,0-21.5-10.5-22.2-20.5l-0.1-0.8l0.8-0.3c1.5-0.7,2.9-1.3,4.2-1.9
				c5.3-2.4,9.8-4.4,13.9-7.4l0.7-0.5l0.7,0.5c6.6,4.7,9.9,6,12.1,6.5c4.3,1.1,7.7,0.8,10.2,0.6c0.4,0,0.8-0.1,1.1-0.1l1.3-0.1v1.3
				c0.1,10.3-5.7,22.4-22.2,22.8C230,328.9,229.9,328.9,229.7,328.9L229.7,328.9z M210,309c1.1,8.8,9.2,17.7,20.2,17.5
				c14.1-0.3,19.4-9.8,19.8-19.1c-2.5,0.2-6.2,0.5-10.7-0.6c-3.4-0.9-7.1-2.8-12.2-6.4c-4.1,2.8-8.5,4.8-13.6,7.1
				C212.3,307.9,211.1,308.4,210,309L210,309z"/>
		</g>
		<path class="st1" d="M229.9,318.2c-0.5,0-0.9-0.3-1.1-0.7c-3.8-8-3.2-15.3-3.2-15.6c0.1-0.7,0.6-1.2,1.3-1.1
			c0.7,0.1,1.2,0.6,1.1,1.3c0,0.1-0.5,7,3,14.4c0.3,0.6,0,1.3-0.6,1.6C230.3,318.2,230.1,318.2,229.9,318.2L229.9,318.2z"/>
		<g>
			<path class="st44" d="M230.1,302.7c-1.6,1.8-4.9,1.8-6.5,0l-6.7-7.2l-4.9-5.2c-2.1-2.2-0.1-5.5,3.3-5.5h23.1
				c3.4,0,5.3,3.2,3.3,5.5l-4.9,5.2L230.1,302.7L230.1,302.7z"/>
			<path class="st1" d="M226.8,305.3c-1.6,0-3.1-0.6-4.1-1.7l-11.5-12.4c-1.2-1.3-1.5-3-0.8-4.5c0.8-1.8,2.7-3,5-3h23.1
				c2.2,0,4.2,1.2,5,3c0.7,1.5,0.4,3.2-0.8,4.5L231,303.6C230,304.6,228.5,305.3,226.8,305.3L226.8,305.3z M215.3,286.1
				c-1.6,0-2.5,0.8-2.8,1.5c-0.3,0.7-0.1,1.3,0.4,1.9l11.5,12.4c0.6,0.6,1.4,0.9,2.4,0.9s1.8-0.3,2.4-0.9l11.5-12.4
				c0.5-0.6,0.7-1.2,0.4-1.9c-0.3-0.7-1.2-1.5-2.8-1.5H215.3L215.3,286.1z M230.1,302.7L230.1,302.7L230.1,302.7z"/>
		</g>
		
			<ellipse transform="matrix(0.9905 -0.1378 0.1378 0.9905 -34.2824 42.7663)" class="st2" cx="291.7" cy="269" rx="20.6" ry="11.1"/>
		
			<ellipse transform="matrix(0.1941 -0.981 0.981 0.1941 -127.4542 394.3384)" class="st2" cx="176.3" cy="274.7" rx="11.1" ry="17.1"/>
	</g>
	<g id="tongue">
		<g>
			<path class="st44" d="M267.5,344.1c0,0-7.4-18.6-34.4-5.2c0,0-11-8.7-29.6-3c-18.6,5.7-39.2,32-33.3,60.5
				c6,28.6,40.7,25.6,46.7-1.1c6-26.6,22.8-41.8,30.4-43.9C247.2,351.5,259.4,349,267.5,344.1L267.5,344.1L267.5,344.1z"/>
			<path class="st1" d="M192.4,417.9h-0.2c-9.1-0.1-20-5.7-23.2-21.2c-6.3-30,15.6-56.3,34.1-61.9c16.7-5.1,27.4,1,30.1,2.7
				c10-4.8,18.5-5.9,25.3-3.3c7.5,2.9,10,9.2,10.1,9.4l0.4,0.9l-0.9,0.5c-8.2,5-20.2,7.5-20.7,7.6c-7.1,1.9-23.6,17-29.4,43
				C214.6,411,202.4,417.9,192.4,417.9L192.4,417.9z M215.7,335.2c-3.5,0-7.5,0.5-11.9,1.9c-17.6,5.4-38.4,30.4-32.4,59.1
				c2.9,14.1,12.7,19.2,20.9,19.2h0.1c9.1,0,20.2-6.3,23.3-20.3c6.1-27.3,23.4-42.7,31.2-44.8c0.2,0,11.2-2.3,19-6.7
				c-0.9-1.7-3.5-5.3-8.3-7.2c-6.3-2.4-14.4-1.2-24,3.6l-0.7,0.3l-0.6-0.5C232.3,339.8,226.2,335.2,215.7,335.2L215.7,335.2z"/>
		</g>
		<path class="st1" d="M191.5,390.3c-0.1,0-0.3,0-0.4-0.1c-0.6-0.2-0.9-0.9-0.7-1.6c15.2-42,41.2-50.6,42.3-51
			c0.6-0.2,1.3,0.1,1.5,0.8c0.2,0.6-0.1,1.3-0.8,1.5c-0.3,0.1-26,8.7-40.8,49.5C192.5,390,192,390.3,191.5,390.3L191.5,390.3z"/>
	</g>
	<g id="hair">
		<path class="st4" d="M212.3,188c-2.1,0-4.4-0.5-6.8-1.6c-9.7-4.5-39.1-59.9-40.4-62.3l-1.5-2.9l41.7,16.1l1.1-46.9l28.1,32.6
			l22.9-36l8.3,48l28.1-17.4l-11,34.6l26.1-8.3l-11.4,22.3l12.8,0.3l-9.9,14.1l-0.9-0.5c-0.3-0.2-30.2-16.7-51.4-19.4
			c-0.1,0-0.3-0.1-0.7-0.1c-2.7,0-12.7,1.6-25.4,21.9c-1.2,2-2.9,3.5-4.7,4.3C215.7,187.7,214.1,188,212.3,188L212.3,188z"/>
		<path class="st1" d="M256.7,90.3l8.1,46.7l26.8-16.6l-10.7,33.7l25.6-8.1l-11,21.5l12.4,0.3l-8,11.3c0,0-30.2-16.8-51.8-19.6
			c0,0-0.3-0.1-0.9-0.1c-3,0-13.4,1.7-26.4,22.5c-1,1.6-2.4,3-4.2,3.9c-1.2,0.5-2.6,0.9-4.3,0.9c-1.7,0-3.9-0.4-6.3-1.5
			c-9.4-4.3-39.8-61.8-39.8-61.8l40.3,15.6l1-45.4l27.1,31.4L256.7,90.3 M291.6,120.5L291.6,120.5 M306.5,146.1L306.5,146.1
			 M258.1,83.8l-3.4,5.3l-20.3,32l-24.9-28.9l-4.1-4.8l-0.1,6.3l-0.9,42l-37.1-14.3l-6-2.3l3,5.7c5.1,9.7,31.3,58.4,41,62.8
			c2.5,1.2,4.9,1.7,7.3,1.7c1.9,0,3.7-0.4,5.3-1.1c2.1-0.9,3.9-2.6,5.3-4.8c12.7-20.3,22.5-21.3,24.4-21.3c0.3,0,0.5,0,0.5,0h0.1
			l0,0c20.9,2.7,50.6,19.1,50.9,19.3l1.9,1.1l1.3-1.8l8-11.3l2.6-3.7l-4.5-0.1l-8.6-0.2l9.2-18l2.6-5.1l-5.5,1.7l-21.1,6.7l9.3-29.3
			l2-6.2l-5.6,3.5l-23.8,14.7L259.1,90L258.1,83.8L258.1,83.8L258.1,83.8z M291.6,118L291.6,118L291.6,118z M306.5,143.7
			L306.5,143.7L306.5,143.7z"/>
		<g>
			<line class="st47" x1="214.7" y1="167.9" x2="201.7" y2="146.3"/>
			<path class="st1" d="M214.7,169.1c-0.4,0-0.8-0.2-1-0.6l-13-21.6c-0.3-0.6-0.2-1.3,0.4-1.7c0.6-0.3,1.3-0.2,1.7,0.4l13,21.6
				c0.3,0.6,0.2,1.3-0.4,1.7C215.1,169.1,214.9,169.1,214.7,169.1L214.7,169.1z"/>
		</g>
		<g>
			<line class="st47" x1="227" y1="159.2" x2="218.6" y2="130.2"/>
			<path class="st1" d="M227,160.4c-0.5,0-1-0.3-1.2-0.9l-8.4-29c-0.2-0.6,0.2-1.3,0.8-1.5c0.6-0.2,1.3,0.2,1.5,0.8l8.4,29
				c0.2,0.6-0.2,1.3-0.8,1.5C227.2,160.4,227.1,160.4,227,160.4L227,160.4z"/>
		</g>
		<path class="st1" d="M239.1,154.7c-0.7,0-1.2-0.5-1.2-1.2v-22.3c0-0.7,0.5-1.2,1.2-1.2c0.7,0,1.2,0.5,1.2,1.2v22.3
			C240.3,154.1,239.8,154.7,239.1,154.7z"/>
		<g>
			<line class="st47" x1="251" y1="154.1" x2="255.2" y2="121.5"/>
			<path class="st1" d="M251,155.3c0,0-0.1,0-0.2,0c-0.7-0.1-1.1-0.7-1-1.4l4.2-32.5c0.1-0.7,0.7-1.1,1.4-1c0.7,0.1,1.1,0.7,1,1.4
				l-4.2,32.5C252.1,154.8,251.6,155.3,251,155.3L251,155.3z"/>
		</g>
	</g>
	<g id="ear-front">
		<g>
			<path class="st0" d="M271.3,178.9c0,0,11.4-123.5,39.8-142.1c28.4-18.6,40.7,17,39.7,28.1c-1,11.1-42.8,134.4-42.8,134.4"/>
			<path class="st1" d="M307.9,200.5c-0.1,0-0.3,0-0.4-0.1c-0.6-0.2-1-0.9-0.8-1.5c0.4-1.2,41.8-123.3,42.8-134.1
				c0.6-6.7-4-23.3-14.6-29.6c-6.7-4-14.5-3.1-23.3,2.6c-27.5,18.1-39.1,140-39.2,141.2c-0.1,0.7-0.6,1.2-1.3,1.1
				c-0.7-0.1-1.2-0.7-1.1-1.3c0.5-5.1,11.8-124.3,40.3-143c12-7.9,20.7-5.8,25.9-2.7C347.8,40,352.6,57.5,352,65
				c-1,11.1-41.2,129.7-42.9,134.7C308.9,200.2,308.4,200.5,307.9,200.5L307.9,200.5z"/>
		</g>
		<g>
			<path class="st44" d="M285.9,186c0,0,19.5-98,36.7-108.8c17.2-10.8,28.5,45.9-15.6,124.1"/>
			<path class="st1" d="M307,202.5c-0.2,0-0.4-0.1-0.6-0.2c-0.6-0.3-0.8-1.1-0.5-1.6c35.5-63,34.8-112.2,24.5-122
				c-2.1-2-4.5-2.2-7.2-0.5c-16.6,10.4-36,107.1-36.2,108c-0.1,0.7-0.8,1.1-1.4,0.9s-1.1-0.8-0.9-1.4c0.8-4,19.8-98.6,37.2-109.6
				c3.6-2.3,7.2-2,10.2,0.8c12.3,11.8,10.9,63-24.1,124.9C307.8,202.3,307.4,202.5,307,202.5L307,202.5L307,202.5z"/>
		</g>
		<g>
			<path class="st0" d="M313.8,77.5c0,0,7.7,92.5,67.2,87.5c59.5-4.9,11.1-119.6-52.8-133.5"/>
			<path class="st1" d="M376.5,166.4c-22.8,0-40.9-14.7-52.6-42.8c-9.3-22.4-11.3-45.7-11.4-46c-0.1-0.7,0.4-1.3,1.1-1.3
				c0.7-0.1,1.3,0.4,1.3,1.1c0,0.2,2,23.2,11.2,45.3c12.2,29.3,30.6,43.1,54.7,41.1c20-1.7,25-15.6,25.8-26.9
				c1.2-17.5-7.2-41.2-21.9-61.9c-16-22.5-36.6-37.9-56.8-42.3c-0.7-0.1-1.1-0.8-0.9-1.4c0.1-0.7,0.8-1.1,1.4-0.9
				c20.7,4.5,42,20.3,58.2,43.3c15,21.1,23.5,45.4,22.3,63.4c-1.2,17.4-11.1,27.8-28,29.2C379.5,166.4,378,166.4,376.5,166.4
				L376.5,166.4z"/>
		</g>
	</g>
	<g id="top-headset">
		<g>
			<g>
				<path class="st7" d="M322.1,207.1c3.6,28.5,20.8,49.9,38.5,47.6c17.7-2.2,29.2-27.2,25.6-55.7c-3.6-28.5-20.8-49.9-38.5-47.6
					C330,153.6,318.6,178.5,322.1,207.1L322.1,207.1z"/>
				<path class="st1" d="M358.2,256c-17.4,0-33.7-21.1-37.2-48.9l0,0c-1.8-14,0-27.6,4.9-38.4c5-10.9,12.7-17.5,21.7-18.7
					c9-1.1,18.1,3.4,25.7,12.7c7.4,9.2,12.5,21.9,14.2,36c3.7,29.1-8.3,54.7-26.6,57C359.9,256,359,256,358.2,256z M350.3,152.4
					c-0.8,0-1.6,0.1-2.4,0.1c-8.1,1-15.2,7.2-19.8,17.3c-4.7,10.3-6.4,23.5-4.7,37l0,0c3.3,26.5,18.6,46.7,34.8,46.7
					c0.8,0,1.6-0.1,2.4-0.1c17-2.1,28-26.5,24.5-54.3c-1.7-13.6-6.6-25.9-13.7-34.7C365,156.6,357.6,152.4,350.3,152.4L350.3,152.4z
					"/>
			</g>
			<g>
				<path class="st6" d="M329.6,153.6l18.1-2.3c-17.7,2.2-29.1,27.1-25.6,55.7c3.6,28.5,20.8,49.9,38.5,47.6l-18.1,2.3
					c-17.7,2.2-35-19.1-38.5-47.6C300.4,180.8,311.8,155.9,329.6,153.6L329.6,153.6z"/>
				<path class="st1" d="M339.9,258.3c-8.1,0-16.2-4.5-22.9-12.9c-7.4-9.2-12.5-21.9-14.2-36c-1.8-14,0-27.6,4.9-38.4
					c5-10.9,12.7-17.5,21.7-18.7l18.1-2.3l0,0l0.3,2.4l0,0c-8.1,1-15.2,7.2-19.8,17.3c-4.7,10.3-6.4,23.5-4.7,37
					c3.5,27.8,20.1,48.7,37.2,46.6l0.3,2.4c0,0,0,0,0,0l-18.1,2.3C341.7,258.3,340.8,258.3,339.9,258.3L339.9,258.3z M329.7,154.9
					c-8.1,1-15.2,7.2-19.8,17.3c-4.7,10.3-6.4,23.5-4.7,37c1.7,13.6,6.6,25.9,13.7,34.7c7,8.7,15.3,12.9,23.5,11.9l8.2-1
					c-14.3-5-26.7-23.9-29.7-47.5c-1.8-14,0-27.6,4.9-38.4c3.1-6.7,7.2-11.8,12-15C337.9,153.8,329.7,154.9,329.7,154.9z
					 M329.6,153.6L329.6,153.6L329.6,153.6z"/>
			</g>
			<g>
				<path class="st6" d="M346.6,204c1.4,11.2,8.2,20,14.8,19.1c6.6-0.8,11-11,9.6-22.2c-1.4-11.2-8.2-20-14.8-19.1
					C349.6,182.6,345.2,192.8,346.6,204L346.6,204z"/>
				<path class="st1" d="M360.5,224.4c-3.3,0-6.6-2-9.4-5.6c-3-3.8-5-9-5.7-14.7c-1.5-12.1,3.3-22.6,10.6-23.6
					c3.6-0.5,7.3,1.5,10.4,5.5c3,3.8,5,9,5.7,14.7c1.5,12.1-3.3,22.6-10.6,23.6C361.2,224.4,360.8,224.4,360.5,224.4z M357,182.9
					c-0.2,0-0.5,0-0.7,0c-5.8,0.7-9.8,10.5-8.5,20.8c0.6,5.1,2.5,10,5.2,13.5c2.5,3.3,5.5,4.9,8.2,4.6c5.8-0.7,9.8-10.5,8.5-20.8
					c-0.6-5.1-2.5-10-5.2-13.5C362.3,184.6,359.6,182.9,357,182.9z"/>
			</g>
			<g>
				<path class="st0" d="M362.4,210.8L362.4,210.8c3-0.4,5.2-3.2,4.8-6.2l-7.6-60.5l-11,1.4l7.6,60.5
					C356.6,209,359.4,211.2,362.4,210.8L362.4,210.8z"/>
				<path class="st1" d="M361.7,212.1c-1.5,0-2.9-0.5-4.1-1.4c-1.4-1.1-2.3-2.7-2.6-4.5l-7.7-61.7l13.4-1.7l7.7,61.7
					c0.2,1.8-0.3,3.6-1.4,5c-1.1,1.4-2.7,2.3-4.5,2.6C362.3,212.1,362,212.1,361.7,212.1L361.7,212.1z M350,146.5l7.4,59.3
					c0.1,1.2,0.7,2.2,1.6,2.9c0.9,0.7,2.1,1,3.2,0.9l0,0c1.2-0.1,2.2-0.7,2.9-1.6c0.7-0.9,1-2,0.9-3.2l-7.4-59.3L350,146.5
					L350,146.5z"/>
			</g>
		</g>
		<g>
			<path class="st7" d="M111.7,138.7v7.3c0,3,2.8,5.5,6.3,5.5h15.9c3.5,0,6.3-2.5,6.3-5.5v-7.3c0-47.2,44.2-85.4,98.5-84.6
				c53.1,0.8,95.2,39.6,95.2,86v1.7c0,3.4,3.1,6.1,7,6.1h14.6c3.9,0,7-2.7,7-6.1v-1.5c0-60.2-54.8-110.4-123.7-111.2
				C168.8,28.4,111.7,77.7,111.7,138.7L111.7,138.7L111.7,138.7z"/>
			<path class="st1" d="M133.9,152.8H118c-4.2,0-7.5-3-7.5-6.7v-7.3c0-27.1,11.3-53.1,31.8-73.4c24.5-24.2,59.7-37.8,96.5-37.4
				c68.9,0.8,124.9,51.2,124.9,112.4v1.5c0,4-3.7,7.3-8.2,7.3h-14.6c-4.5,0-8.2-3.3-8.2-7.3v-1.7c0-46-42.2-84-94-84.8
				c-0.5,0-1.1,0-1.6,0c-27.4,0-53.5,10.2-71.7,28.2c-15.5,15.2-24,34.9-24,55.2v7.3C141.4,149.7,138.1,152.8,133.9,152.8
				L133.9,152.8z M237.1,30.3c-35.7,0-69.5,13.3-93.2,36.7c-20,19.8-31,45.2-31,71.6v7.3c0,2.4,2.3,4.3,5.1,4.3h15.9
				c2.8,0,5.1-1.9,5.1-4.3v-7.3c0-21,8.8-41.3,24.7-57c19-18.8,46.3-29.2,75-28.8c53.2,0.8,96.4,39.9,96.4,87.2v1.7
				c0,2.7,2.6,4.9,5.8,4.9h14.6c3.2,0,5.8-2.2,5.8-4.9v-1.5c0-59.9-55-109.2-122.5-110C238.2,30.4,237.7,30.4,237.1,30.3L237.1,30.3
				z"/>
		</g>
	</g>
</g>
<g id="glasses">
	<g class="st48">
		<path class="st4" d="M237.8,281.8c0,0-4.9-13.5,7.1-21.4c12-7.9,22.2-2.1,22.2-2.1s-5.9,1.3-7.3,7.6c-1.4,6.3,12,9.4,20.4,2.1
			c8.4-7.3,26.2-10.8,34.9-4.4c0,0-11.1-0.3-12.5,7.9c-1.4,8.2,21.1,7.7,26.6-8.1c0,0,5.4,13.3-7.3,21.8
			c-14.6,9.7-33.4-0.8-43.2,0.2c-7.5,0.8-6,8.1,0.2,7.7C278.9,293.1,247,306.5,237.8,281.8L237.8,281.8z"/>
		<path class="st4" d="M217.3,283.1c0,0,6.3-12.9-4.8-22c-11.1-9.2-21.8-4.5-21.8-4.5s5.8,1.9,6.5,8.3c0.7,6.4-12.9,8.1-20.5,0
			c-7.6-8.2-24.9-13.5-34.2-8.1c0,0,11,0.9,11.6,9.2c0.5,8.3-21.8,5.4-25.6-10.8c0,0-6.8,12.7,4.9,22.4c13.5,11.2,33.3,2.7,42.9,4.8
			c7.3,1.6,5.1,8.7-1.1,7.6C175.2,290,205.5,306.7,217.3,283.1L217.3,283.1z"/>
	</g>
	<g>
		<path class="st1" d="M217.2,277.7c-0.4,0-0.8-0.2-1.1-0.6c-0.3-0.6-0.1-1.3,0.5-1.7c0.5-0.3,12.4-6.9,22.9,0
			c0.6,0.4,0.7,1.1,0.3,1.7c-0.4,0.6-1.1,0.7-1.7,0.3c-9.4-6.2-20.3,0-20.4,0C217.6,277.6,217.4,277.7,217.2,277.7L217.2,277.7z"/>
		<g>
			<path class="st1" d="M260.7,298c-3.9,0-7.9-0.6-11.7-2.2c-5.8-2.5-9.9-7-12.3-13.5l0,0c-0.1-0.2-5.1-14.5,7.5-22.8
				c12.4-8.3,23-2.4,23.4-2.2s0.7,0.7,0.6,1.2c-0.1,0.5-0.5,0.9-0.9,1c-0.2,0-5.2,1.2-6.4,6.6c-0.4,1.7,0.8,2.9,1.9,3.5
				c3.9,2.3,11.3,2,16.5-2.5c8.8-7.6,27.3-11.2,36.4-4.5c0.4,0.3,0.6,0.9,0.4,1.4c-0.2,0.5-0.7,0.8-1.2,0.8
				c-0.4,0-10.1-0.1-11.2,6.9c-0.4,2.2,1.8,3.1,3.2,3.5c5.6,1.4,17.3-1.4,21.1-12.1c0.2-0.5,0.6-0.8,1.1-0.8c0.5,0,1,0.3,1.2,0.8
				c0.1,0.1,5.6,14.4-7.8,23.2c-10.2,6.8-22.2,4.1-31.9,2c-4.7-1-8.8-1.9-11.9-1.6c-2.9,0.3-4.1,1.7-3.9,2.9c0.1,1.3,1.6,2.5,4,2.3
				c0.6-0.1,1.1,0.3,1.3,0.9s-0.2,1.2-0.7,1.4C278.9,294.4,270.3,298,260.7,298L260.7,298z M239,281.4c2.2,5.8,5.9,9.9,11,12.1
				c8.5,3.7,19.1,1.4,24.6-0.3c-1.3-0.9-2.1-2.2-2.2-3.5c-0.2-2.4,1.6-5.1,6.1-5.6c3.5-0.4,7.7,0.6,12.7,1.6c9.2,2,20.7,4.5,30-1.7
				c8.2-5.4,8.4-12.9,7.7-17.2c-5,8.9-15.9,12.2-22.5,10.5c-3.6-0.9-5.5-3.3-5-6.2c0.9-5.3,5.6-7.7,9.6-8.5
				c-8.9-3.4-22.9-0.1-30.1,6.1c-6,5.2-14.7,5.5-19.3,2.8c-2.5-1.5-3.6-3.7-3.1-6.1c0.9-4,3.3-6.1,5.3-7.3c-3.6-1.1-10.5-2-18.3,3.1
				C234.6,268.7,238.8,280.8,239,281.4L239,281.4z"/>
			<path class="st1" d="M196.6,296.9c-11.1,0-21.4-5.6-21.9-5.9c-0.5-0.3-0.7-0.9-0.5-1.5c0.2-0.6,0.8-0.9,1.4-0.8
				c2.4,0.4,3.9-0.6,4.2-1.9c0.2-1.2-0.8-2.7-3.6-3.3c-3-0.6-7.2-0.2-12,0.3c-9.8,1.1-22.1,2.4-31.5-5.4
				c-12.3-10.2-5.3-23.8-5.3-23.9c0.2-0.4,0.7-0.7,1.2-0.6c0.5,0.1,0.9,0.4,1,0.9c2.6,11.1,14,15.1,19.7,14.3
				c1.4-0.2,3.7-0.9,3.6-3.1c-0.4-7.1-10-8-10.5-8.1c-0.5,0-1-0.4-1.1-0.9c-0.1-0.5,0.1-1,0.6-1.3c9.7-5.7,27.8-0.2,35.7,8.3
				c4.7,5.1,12,6.2,16.1,4.3c1.2-0.5,2.5-1.5,2.3-3.3c-0.6-5.5-5.4-7.2-5.6-7.3c-0.5-0.2-0.8-0.6-0.8-1.1c0-0.5,0.3-1,0.7-1.2
				c0.5-0.2,11.6-4.9,23.1,4.7c11.7,9.7,5.1,23.4,5.1,23.5l0,0c-3.1,6.2-7.7,10.3-13.7,12.1C202,296.6,199.3,296.9,196.6,296.9
				L196.6,296.9z M179.5,290.6c5.3,2.2,15.6,5.6,24.5,2.9c5.3-1.7,9.5-5.3,12.3-10.9c0.3-0.6,5.7-12.2-4.4-20.6
				c-7.2-6-14.2-5.8-17.9-5.1c1.9,1.4,4.1,3.8,4.5,7.8c0.3,2.4-1.1,4.5-3.7,5.8c-4.8,2.2-13.5,1-18.9-4.8
				c-6.5-6.9-20.1-11.8-29.3-9.3c4,1.3,8.3,4.1,8.7,9.5c0.2,3-1.9,5.1-5.6,5.7c-6.7,1-17.3-3.4-21.3-12.8
				c-1.1,4.1-1.8,11.6,5.8,17.9c8.6,7.1,20.3,5.9,29.7,4.8c5-0.5,9.4-1,12.8-0.3c4.5,1,6,3.8,5.5,6.2
				C181.8,288.7,180.9,289.9,179.5,290.6L179.5,290.6z M217.3,283.1L217.3,283.1L217.3,283.1z"/>
		</g>
	</g>
</g>
<g id="left-hand">
	<g>
		<path class="st2" d="M97.4,453.9c0,0-21.5-31.1,0-49.8c19.6-17.1,46.3-7.1,59.3,27.5C169.8,466.2,97.4,453.9,97.4,453.9
			L97.4,453.9z"/>
		<path class="st1" d="M123.4,457.3c-13.2,0-25.3-2-26.2-2.2l-0.5-0.1l-0.3-0.4c-0.2-0.3-21.8-32.2,0.2-51.4
			c8.4-7.4,18.5-10,28.3-7.6c13.7,3.4,25.7,16.4,32.9,35.6c2.6,6.9,2.1,12.6-1.4,16.9C150.4,455.4,136.3,457.3,123.4,457.3
			L123.4,457.3z M98.1,452.8c5.1,0.8,45.8,6.7,56.5-6.3c2.9-3.6,3.3-8.4,1-14.5c-7-18.4-18.4-30.8-31.3-34.1c-9-2.3-18.3,0.2-26.1,7
			C79.1,421.7,95.7,449.1,98.1,452.8L98.1,452.8z"/>
	</g>
	<g>
		<g>
			<path class="st2" d="M124.1,505.8c0,0-26.3-6.6-32.6-53c-2.4-32.7,23.3-46.3,47-45.4c23.6,0.9,35.7,20.8,41.3,40.1
				c5.7,19.3,23.5,28.6,5.6,39.4c-9.7,5.9-23.5-9-26.7-21.6l-5.9,17.4c0,0-17.3-3.7-17.1,3.2C136,499.8,126.1,510.8,124.1,505.8
				L124.1,505.8z"/>
			<path class="st1" d="M125.7,508.2c-1,0-1.9-0.5-2.4-1.4c-4-1.3-27-10.4-33-53.8c-1-13.5,2.7-25,10.7-33.2
				c8.9-9.2,22.5-14.1,37.5-13.5c25.4,1,37.1,22.8,42.4,41c1.8,6.2,5,11.4,7.8,16c3.5,5.8,6.6,10.8,5.4,15.8c-0.8,3.3-3.5,6.2-8.1,9
				c-3,1.8-6.7,2-10.5,0.4c-6.7-2.8-13.7-10.8-16.9-19.2l-5.1,15l-1.1-0.2c-3.2-0.7-12.1-2-14.9,0.3c-0.5,0.4-0.7,0.9-0.7,1.6
				c0.3,11.4-6.1,21.3-10.4,22.1C126.1,508.2,125.9,508.2,125.7,508.2L125.7,508.2z M136.1,408.6c-13.4,0-25.4,4.6-33.4,12.8
				c-7.6,7.9-11,18.4-10,31.3c6.1,44.8,31.4,51.8,31.7,51.9l0.6,0.1l0.2,0.6c0.2,0.5,0.4,0.5,0.6,0.5c2.6-0.5,8.8-8.9,8.5-19.7
				c0-1.4,0.5-2.7,1.6-3.6c3.6-3,12.7-1.7,15.9-1l6.9-20.3l1,4c2.2,8.8,9.7,18.2,16.6,21.1c3.1,1.3,5.9,1.2,8.3-0.2
				c4.1-2.4,6.4-4.9,7-7.5c1-3.9-1.7-8.4-5.1-13.9c-2.9-4.7-6.1-10.1-8-16.6c-5.1-17.4-16.2-38.3-40.2-39.2
				C137.6,408.6,136.8,408.6,136.1,408.6L136.1,408.6z"/>
		</g>
		<g>
			<path class="st2" d="M119.4,481.3c-3.2,33.4,21.5,34,21.5,34c8.9-5,9.3-33.3,6.7-42.2"/>
			<path class="st1" d="M141.3,516.6h-0.3c-0.4,0-9.4-0.3-16.1-7.9c-5.5-6.3-7.8-15.5-6.6-27.5c0.1-0.7,0.7-1.1,1.3-1.1
				c0.7,0.1,1.2,0.7,1.1,1.3c-1.1,11.2,0.9,19.8,6,25.6c5.3,6,12.4,7,14.1,7.1c7.8-5.1,8.4-32,5.8-40.6c-0.2-0.6,0.2-1.3,0.8-1.5
				c0.6-0.2,1.3,0.2,1.5,0.8c2.9,9.5,2.4,38.1-7.2,43.6L141.3,516.6L141.3,516.6z"/>
		</g>
		<g>
			<path class="st2" d="M160.7,448.4c0,0,5.6,30.7,9.7,52.1c4.1,21.2,3.6,32.3-8.2,34.6c-12.4,2.5-20.3-15.9-21.2-34.6
				c-0.8-18.7-0.1-32-0.1-32"/>
			<path class="st1" d="M160,536.6c-2.8,0-5.4-1-7.8-2.9c-6.8-5.3-11.6-18.4-12.3-33.1c-0.8-18.6-0.1-32-0.1-32.2
				c0-0.7,0.6-1.2,1.3-1.1c0.7,0,1.2,0.6,1.1,1.3c0,0.1-0.7,13.5,0.1,31.9c0.6,14.1,5.1,26.4,11.4,31.3c2.6,2,5.4,2.7,8.3,2.2
				c9.8-2,11.6-10.3,7.2-33.2c-4.1-21.2-9.6-51.8-9.7-52.1c-0.1-0.7,0.3-1.3,1-1.4c0.7-0.1,1.3,0.3,1.4,1c0.1,0.3,5.6,31,9.7,52.1
				c4,20.9,3.8,33.5-9.1,36C161.6,536.5,160.7,536.6,160,536.6L160,536.6z"/>
		</g>
	</g>
</g>
</svg>
