<?xml version="1.0" encoding="UTF-8"?>
<svg xmlns="http://www.w3.org/2000/svg" xmlns:xlink="http://www.w3.org/1999/xlink" viewBox="0 0 549.9 610">
  <defs>
    <style>
      .cls-1 {
        fill: #c1c1c1;
      }

      .cls-1, .cls-2, .cls-3, .cls-4, .cls-5, .cls-6, .cls-7, .cls-8, .cls-9, .cls-10, .cls-11, .cls-12, .cls-13, .cls-14, .cls-15, .cls-16, .cls-17, .cls-18, .cls-19, .cls-20, .cls-21, .cls-22, .cls-23, .cls-24, .cls-25, .cls-26, .cls-27, .cls-28, .cls-29, .cls-30, .cls-31, .cls-32, .cls-33, .cls-34, .cls-35, .cls-36, .cls-37, .cls-38, .cls-39, .cls-40, .cls-41, .cls-42 {
        stroke-width: 0px;
      }

      .cls-2 {
        fill: #cdcdcd;
      }

      .cls-3 {
        fill: #cc4627;
      }

      .cls-4 {
        fill: #dcdcdc;
      }

      .cls-43 {
        opacity: .56;
      }

      .cls-43, .cls-44 {
        mix-blend-mode: multiply;
      }

      .cls-5 {
        fill: #c8c8c8;
      }

      .cls-6 {
        fill: #ff9f45;
      }

      .cls-45 {
        clip-path: url(#clippath-2);
      }

      .cls-46 {
        isolation: isolate;
      }

      .cls-7 {
        fill: #41217b;
      }

      .cls-8 {
        fill: #c2c2c2;
      }

      .cls-9 {
        fill: #c4c4c4;
      }

      .cls-10 {
        fill: #ffc6c5;
      }

      .cls-11 {
        fill: none;
      }

      .cls-47 {
        filter: url(#drop-shadow-1);
      }

      .cls-12 {
        fill: #dfdfdf;
      }

      .cls-48 {
        clip-path: url(#clippath-1);
      }

      .cls-13 {
        fill: #c7c7c7;
      }

      .cls-14 {
        fill: #b36bee;
      }

      .cls-15 {
        fill: #bfbfbf;
      }

      .cls-16 {
        fill: #7a0036;
      }

      .cls-17 {
        fill: #d2d2d2;
      }

      .cls-18 {
        fill: #ccc;
      }

      .cls-19 {
        fill: #dadada;
      }

      .cls-20 {
        fill: #002846;
      }

      .cls-21 {
        fill: #fff;
      }

      .cls-22 {
        fill: #d4d4d4;
      }

      .cls-23 {
        fill: #d5d5d5;
      }

      .cls-24 {
        fill: #dedede;
      }

      .cls-25 {
        fill: #d3d3d3;
      }

      .cls-26 {
        fill: #ff8981;
      }

      .cls-27 {
        fill: #040e09;
      }

      .cls-28 {
        fill: #cbcbcb;
      }

      .cls-29 {
        fill: #d1d1d1;
      }

      .cls-49 {
        clip-path: url(#clippath);
      }

      .cls-30 {
        fill: #c3c3c3;
      }

      .cls-31 {
        fill: #d9d9d9;
      }

      .cls-32 {
        fill: silver;
      }

      .cls-33 {
        fill: #dbdbdb;
      }

      .cls-34 {
        fill: #c5c5c5;
      }

      .cls-35 {
        fill: #d6d6d6;
      }

      .cls-36 {
        fill: #cfcfcf;
      }

      .cls-37 {
        fill: #c9c9c9;
      }

      .cls-38 {
        fill: #cacaca;
      }

      .cls-39 {
        fill: #fffbff;
      }

      .cls-40 {
        fill: #cecece;
      }

      .cls-41 {
        fill: #0086f8;
      }

      .cls-42 {
        fill: #d8d8d8;
      }
    </style>
    <filter id="drop-shadow-1" filterUnits="userSpaceOnUse">
      <feOffset dx="0" dy="0"/>
      <feGaussianBlur result="blur" stdDeviation="6.38"/>
      <feFlood flood-color="#000" flood-opacity=".75"/>
      <feComposite in2="blur" operator="in"/>
      <feComposite in="SourceGraphic"/>
    </filter>
    <clipPath id="clippath">
      <path class="cls-11" d="m397.71,532.82h22.39c2.54,0,4.85,1.49,5.9,3.8l4.99,11.01"/>
    </clipPath>
    <clipPath id="clippath-1">
      <path class="cls-11" d="m375.53,548.3l-3.6-11.01c-.87-2.66-3.36-4.47-6.16-4.47h-22.92"/>
    </clipPath>
    <clipPath id="clippath-2">
      <path class="cls-11" d="m319.92,549.04l-2.19-11.01c-.6-3.03-3.26-5.21-6.35-5.21h-23.28"/>
    </clipPath>
  </defs>
  <g class="cls-46">
    <g id="Layer_2" data-name="Layer 2">
      <g id="Output_copy" data-name="Output copy">
        <g class="cls-47">
          <path class="cls-21" d="m0,581.98c0,15.45,12.57,28.02,28.02,28.02h410.04c15.45,0,28.02-12.57,28.02-28.02v-18.76l-.16-7.49-1.94-3.41c-.18-.42-.37-.84-.58-1.25l-41.36-83.35c-4.38-8.82-13.21-14.3-23.06-14.3h-59.64c-.15-.83-.3-1.66-.45-2.49-1.74-9.75-3.65-19.02-5.7-27.67,16.77-3.48,33.79-8.55,49.72-14.82,26.69-10.51,47.34-27.84,61.36-51.52,5.86-9.9,9.73-18.49,11.71-26.08,4.81-1.87,7.93-4.79,9.84-7.23,2.21-2.82,3.7-6.13,4.4-9.63,5.87-1.32,10.99-3.71,15.29-7.16,15.12-12.12,20.92-31.91,22.86-40.85,23.7-15.52,38.64-34.31,41.16-51.94,1.25-8.74-.78-16.33-5.85-21.96-4.86-5.39-11.29-7.8-18.12-6.76-9.4,1.43-18.31,9.43-23.82,21.41-1.76,3.81-4.14,7.42-6.53,10.54-2.42-3.23-5.48-5.78-9.06-7.45-2.38-1.11-4.84-1.84-7.32-2.17,4.53-22.29.36-35.42-4.42-42.77-4.33-6.65-10.65-10.7-17.79-11.4-6.64-.65-12.66,1.36-17.44,5.82-7.52,7.04-11.22,19.72-10.7,36.69.27,8.62-.02,14.49-.38,18.22-3.12.85-6.85,2.23-10.77,4.44-9.99,5.63-11.97,16.86-14.72,32.4-.65,3.66-1.38,7.82-2.29,12.39-2.94,14.73,2.16,25.5,7.45,32.26-.26.8-.47,1.62-.62,2.45-1.11,6.18-.33,11.12,1.1,14.89-5.21,8.01-12.22,17.23-26.08,25.21-23.61,13.59-46.34,17.56-60.96,18.54,29.77-24.14,47.63-60.68,47.63-99.33,0-.75,0-1.5-.03-2.25l5.92-.74.07-.02c11.83-1.82,21.8-10.27,28.16-23.89,5.91-12.66,8.05-28.59,6.01-44.84-1.16-9.25-3.55-17.98-7.02-25.8,17.42-4.12,28.32-17.55,29.61-37.1,1.36-20.62-8.16-48.04-24.85-71.57-16.73-23.6-37.99-40.24-59.89-46.9-1.7-.64-3.47-1.11-5.26-1.41-.22-.06-.46-.12-.72-.17-.88-.19-1.78-.25-2.67-.18-7.32-.35-14.87,2.02-22.5,7.03-2.1,1.38-4.1,3.09-6.04,5.17C289.93,5.34,267.95.26,245.6,0c-31.5-.32-62.23,8.7-87.11,25.44-3.59-1.24-7.14-1.78-10.61-1.64-.88-.05-1.75.01-2.61.2-.18.04-.36.08-.55.13-1.56.26-3.09.68-4.57,1.23-18.5,5.64-36.43,19.67-50.52,39.52-14.06,19.82-22.08,42.98-20.93,60.44,1.27,19.27,13.27,31.7,32.11,33.26.27.02.54.04.81.06-14.62,10.94-24.53,31.75-24.53,55.48,0,29.04,14.87,54.13,35.49,61.47,4.67,32.29,21.94,61.91,47.64,82.22-26.58-.72-57.66,4.15-77.55,26.04-16.97,18.68-23.1,36.36-18.21,52.56,1.87,6.19,5.29,11.87,10.21,16.99h-7.58c-9.84,0-18.68,5.48-23.05,14.3L2.68,551.07c-.2.41-.4.83-.58,1.25M187.42,62.06c4.77-3.22,9.86-6,15.2-8.33l-1.23,54.89-2.58-1c-3.36-18.22-7.18-33.49-11.39-45.56Zm18.7-9.77c11.74-4.58,24.56-7,37.68-7,.5,0,1.02,0,1.54.01,7.54.11,14.98,1.04,22.17,2.76l-27.58,43.43-33.81-39.2Zm64.98-3.3c6.37,1.77,12.53,4.17,18.37,7.17-3.6,11.82-6.94,25.74-9.97,41.57l-8.4-48.74Z"/>
          <g>
            <g>
              <path class="cls-39" d="m303.62,366.26s39.82,5.39,83.36-19.66c32.46-18.68,32.52-44.79,44.52-43.24,28.22,3.65,13.48,33.49,4.5,48.65-13.21,22.3-32.17,37.85-56.6,47.46-27.2,10.71-59.52,18.5-88.49,19.4l12.71-52.61Z"/>
              <path class="cls-27" d="m289.29,420.19l13.37-55.33,1.13.15c.4.06,39.94,5.03,82.56-19.5,17.84-10.27,25.64-22.65,31.34-31.69,4.57-7.25,7.86-12.5,13.97-11.7,7.97,1.03,13.3,4.2,15.84,9.42,4.18,8.57.67,22.41-10.42,41.13-13.06,22.04-32.31,38.19-57.23,47.99-29.32,11.54-61.73,18.64-88.91,19.48l-1.66.05Zm15.3-52.55l-12.06,49.92c26.56-1.06,57.94-8.05,86.41-19.25,24.72-9.73,43.03-25.08,55.98-46.93,13.24-22.35,12.92-33.4,10.32-38.74-2.15-4.41-6.82-7.1-13.89-8.02-4.31-.58-6.78,3.03-11.51,10.54-5.84,9.27-13.83,21.96-32.22,32.54-39.33,22.64-76.16,20.57-83.02,19.94Z"/>
            </g>
            <g>
              <path class="cls-39" d="m202.25,373.3s-77.33-21.6-112.45,17.05c-35.12,38.64-13.18,65.25,33.53,77.04l34.48-12.17s-38.61-21.04-20.44-34.48c18.17-13.43,76.41,0,76.41,0l-9.53-44.98"/>
              <path class="cls-27" d="m123.4,468.7l-.37-.09c-28.41-7.17-45.89-19.13-50.55-34.6-3.98-13.19,1.54-28.17,16.39-44.51,35.24-38.77,112.94-17.63,113.72-17.41.67.19,1.06.88.88,1.56-.19.67-.88,1.07-1.56.88-.76-.21-76.99-20.93-111.18,16.68-14.22,15.64-19.55,29.8-15.84,42.08,4.37,14.5,21.1,25.84,48.38,32.78l31.53-11.13c-6.32-3.79-22.81-14.64-23.53-25.17-.27-3.85,1.54-7.23,5.35-10.05,16.75-12.39,65.08-2.88,75.52-.64l-9.12-43.06c-.14-.68.29-1.35.97-1.5.68-.15,1.35.29,1.5.97l9.94,46.92-1.93-.45c-.58-.13-57.88-13.15-75.38-.22-3.12,2.31-4.54,4.87-4.33,7.85.78,11.39,24.38,24.38,24.62,24.51l2.49,1.36-37.51,13.24Z"/>
            </g>
            <g>
              <path class="cls-39" d="m329.42,452.63c11.96,67.02,26.89,123.98-84.43,123.98s-93.89-56.41-84.43-123.98c9.22-65.79,37.8-123.98,84.43-123.98s70.5,45.97,84.43,123.98Z"/>
              <path class="cls-27" d="m244.99,577.87c-40.6,0-66.92-7.64-80.45-23.37-17.49-20.32-12.82-51.32-7.41-87.22.73-4.87,1.48-9.82,2.18-14.83,8.47-60.46,35.43-125.07,85.68-125.07,43.81,0,70.24,38.56,85.67,125.02.47,2.66.95,5.29,1.43,7.92,6.95,38.32,12.95,71.41-5.22,93.18-13.69,16.4-40.48,24.37-81.88,24.37Zm0-247.96c-48.64,0-74.86,63.48-83.18,122.89-.7,5.02-1.45,9.98-2.18,14.86-5.32,35.28-9.91,65.76,6.83,85.2,13.02,15.13,38.71,22.49,78.54,22.49s66.75-7.68,79.94-23.47c17.41-20.86,11.51-53.41,4.68-91.11-.48-2.62-.95-5.26-1.43-7.92-15.18-85.02-40.83-122.94-83.18-122.94Z"/>
            </g>
            <g>
              <ellipse class="cls-10" cx="245.54" cy="444.48" rx="58.13" ry="87.22"/>
              <path class="cls-27" d="m245.54,532.96c-32.75,0-59.4-39.69-59.4-88.48s26.64-88.48,59.4-88.48,59.4,39.69,59.4,88.48-26.64,88.48-59.4,88.48Zm0-174.44c-31.36,0-56.87,38.56-56.87,85.96s25.51,85.96,56.87,85.96,56.87-38.56,56.87-85.96-25.51-85.96-56.87-85.96Z"/>
            </g>
            <g>
              <g>
                <path class="cls-10" d="m425.47,317.88s-11.42-3.74-8.84-18.01c2.58-14.27,34.25-8.04,41.92,1.7,6.79,8.62.93,31.74-33.07,16.31Z"/>
                <path class="cls-27" d="m445.32,324.36c-5.08,0-11.71-1.41-20.33-5.31-1.09-.4-12.23-4.9-9.61-19.41.79-4.36,4.01-7.36,9.32-8.68,11.01-2.74,28.92,2.31,34.83,9.83,3.34,4.24,4.14,12.01-.3,17.67-2.1,2.68-6.23,5.91-13.92,5.91Zm-14-31.61c-2.17,0-4.2.21-6,.65-4.33,1.08-6.84,3.33-7.44,6.68-2.34,12.97,7.57,16.45,7.99,16.59l.12.05c14.72,6.68,26.11,6.74,31.26.17,3.62-4.62,2.98-11.15.3-14.55-4.27-5.42-16.53-9.59-26.24-9.59Z"/>
              </g>
              <g>
                <path class="cls-10" d="m423.74,297.34s-18.33-10.12-13.96-32.01c4.36-21.89,4.65-33.97,12.29-38.28,7.64-4.31,14.44-4.57,14.44-4.57,0,0,2.24-6.47,1.62-26.78-.63-20.3,5.46-33.81,17.56-32.62,12.1,1.18,22.18,19.84,9.62,57.77,0,0,7.49-6.63,16.78-2.29,9.29,4.34,9.52,16.78,9.52,16.78,0,0,12.55-10.78,18.9-24.57,6.35-13.78,18.17-20.95,26.04-12.22,10.21,11.32-.11,38.88-36.86,61.56,0,0-3.5,25.84-20.18,39.22-16.68,13.38-46.89,1.76-55.76-1.99Z"/>
                <path class="cls-27" d="m458.76,306.82c-13.71,0-28.1-5.19-35.51-8.33l-.12-.06c-.19-.1-19.09-10.83-14.59-33.36.92-4.62,1.67-8.85,2.33-12.58,2.52-14.26,4.04-22.87,10.58-26.56,6.23-3.51,11.89-4.43,14.07-4.66.52-2.23,1.83-9.58,1.34-25.55-.44-14.28,2.42-25.05,8.05-30.32,3-2.8,6.66-4.02,10.89-3.6,4.56.45,8.68,3.16,11.59,7.63,3.87,5.95,8.87,20.03.19,48.39,3.25-1.69,8.73-3.37,15.03-.43,7.27,3.39,9.38,11.17,10,15.27,3.68-3.53,12.02-12.19,16.74-22.44,4.27-9.27,10.97-15.64,17.48-16.63,4-.61,7.68.81,10.65,4.1,3.36,3.72,4.66,8.97,3.78,15.16-2.25,15.73-17.34,33.65-40.42,48.01-.65,4.07-4.88,26.87-20.55,39.44-5.99,4.8-13.65,6.52-21.53,6.52Zm-34.47-10.62c11.31,4.76,39.08,14.43,54.41,2.14,16.1-12.91,19.68-38.15,19.71-38.4l.08-.59.51-.31c26.76-16.52,38.07-34.87,39.74-46.53.78-5.43-.31-9.96-3.15-13.11-2.4-2.66-5.22-3.77-8.39-3.29-5.68.86-11.64,6.68-15.56,15.19-6.39,13.87-18.71,24.55-19.23,25l-2.03,1.75-.06-2.68c0-.12-.34-11.71-8.79-15.66-8.4-3.93-15.13,1.85-15.41,2.09l-3.49,3.06,1.46-4.41c7.17-21.65,7.6-39.74,1.17-49.62-2.52-3.87-5.88-6.12-9.72-6.49-3.47-.33-6.48.65-8.92,2.93-5.09,4.76-7.67,14.85-7.25,28.39.62,20.3-1.59,26.96-1.69,27.23l-.28.81-.86.04c-.07,0-6.61.32-13.87,4.41-5.5,3.1-6.95,11.27-9.34,24.8-.66,3.74-1.41,7.98-2.34,12.63-4.05,20.31,12.02,29.91,13.28,30.63Z"/>
              </g>
              <path class="cls-27" d="m469.57,270.93c-4.33,0-8.05-1.79-10.35-3.94-4.87-4.56-2.73-11.77-2.63-12.08.2-.67.91-1.04,1.58-.84.67.2,1.04.91.84,1.58-.02.06-1.76,6.02,1.95,9.49,3.29,3.09,11.84,6.53,20.62-2.56,8.29-8.59,9.62-27.95,9.63-28.14.05-.7.65-1.21,1.34-1.18.7.04,1.22.65,1.18,1.34-.05.83-1.41,20.49-10.34,29.74-4.67,4.84-9.54,6.58-13.82,6.58Z"/>
              <path class="cls-27" d="m457.96,255.8c-1.27,0-2.63-.12-4.08-.4-7.93-1.52-13.37-3.51-17.34-4.96-3.2-1.17-5.51-2.02-6.73-1.63-.67.2-1.37-.17-1.58-.83-.21-.67.17-1.37.83-1.58,2.04-.63,4.42.24,8.35,1.67,3.89,1.42,9.22,3.37,16.95,4.85,5.34,1.03,10.08-.2,13.71-3.55,4.17-3.85,6.65-10.56,6.03-16.32-.32-2.95-1.35-5.07-3.14-6.49-2.44-1.93-6.31-2.54-11.82-1.85-7.03.87-22.14-.92-22.78-.99-.69-.08-1.19-.71-1.1-1.41.08-.69.7-1.18,1.41-1.1.15.02,15.46,1.83,22.17.99,6.22-.78,10.7,0,13.7,2.38,2.32,1.83,3.69,4.59,4.08,8.19.6,5.5-1.28,13.34-6.83,18.45-2.4,2.22-6.27,4.57-11.81,4.57Z"/>
              <path class="cls-27" d="m450.85,283.62c-.15,0-.3-.03-.45-.08-.65-.25-.98-.98-.73-1.63,6.33-16.46-7.73-29.61-7.88-29.74-.51-.47-.55-1.27-.08-1.79.47-.51,1.27-.55,1.78-.08.16.14,15.49,14.42,8.53,32.52-.19.5-.67.81-1.18.81Z"/>
            </g>
            <g>
              <g>
                <path class="cls-3" d="m28.02,600.36c-10.14,0-18.39-8.25-18.39-18.39v-20.02h446.81v20.02c0,10.14-8.25,18.39-18.39,18.39H28.02Z"/>
                <path class="cls-27" d="m455.18,563.22v18.76c0,9.46-7.67,17.12-17.12,17.12H28.02c-9.46,0-17.12-7.67-17.12-17.12v-18.76h444.28m2.53-2.53H8.37v21.28c0,10.84,8.82,19.65,19.65,19.65h410.04c10.84,0,19.65-8.82,19.65-19.65v-21.28h0Z"/>
              </g>
              <g>
                <path class="cls-6" d="m25.73,578.61c-5.61,0-10.72-2.85-13.68-7.61s-3.23-10.62-.74-15.64l41.36-83.35c2.74-5.52,8.26-8.94,14.42-8.94h331.89c6.16,0,11.68,3.43,14.42,8.94l41.36,83.35c2.49,5.03,2.22,10.87-.74,15.64-2.96,4.77-8.07,7.61-13.68,7.61H25.73Z"/>
                <path class="cls-27" d="m398.99,464.32c5.64,0,10.78,3.19,13.29,8.24l41.36,83.35c4.89,9.86-2.28,21.43-13.29,21.43H25.73c-11.01,0-18.18-11.57-13.29-21.43l41.36-83.35c2.5-5.05,7.65-8.24,13.29-8.24h331.89m0-2.53H67.09c-6.64,0-12.6,3.7-15.55,9.64l-41.36,83.35c-2.69,5.42-2.39,11.73.8,16.87,3.19,5.14,8.7,8.21,14.76,8.21h414.62c6.05,0,11.57-3.07,14.76-8.21,3.19-5.14,3.49-11.45.8-16.87l-41.36-83.35c-2.95-5.95-8.91-9.64-15.55-9.64h0Z"/>
              </g>
              <path class="cls-21" d="m199.94,506.77c0,7.45-19.97,13.48-44.57,13.48-.4,0-.82,0-1.22-.02-24.06-.18-43.36-6.13-43.36-13.46s19.95-13.46,44.57-13.46c13.82,0,26.18,1.9,34.35,4.89,6.39,2.34,10.22,5.31,10.22,8.57Z"/>
              <g>
                <path class="cls-14" d="m250.23,510.5v-.02c-.18-1.24-.5-2.46-.98-3.65l-.02-.04c-7.01-17.49-46.37-30.89-93.86-30.89s-86.87,13.4-93.88,30.89l-.02.04c-.48,1.2-.8,2.42-.98,3.65v.02c-.08.62-.12,1.24-.12,1.88,0,20.15,42.54,36.49,95,36.49s94.98-16.34,94.98-36.49c0-.64-.04-1.26-.12-1.88Zm-94.86,9.75c-24.62,0-44.57-6.03-44.57-13.48s19.95-13.46,44.57-13.46,44.57,6.03,44.57,13.46-19.97,13.48-44.57,13.48Z"/>
                <path class="cls-27" d="m155.37,550.13c-53.98,0-96.26-16.58-96.26-37.75,0-.66.04-1.3.12-1.96v-.12c.21-1.36.56-2.69,1.07-3.95l.06-.13c7.31-18.27,47.29-31.59,95.01-31.59s87.68,13.33,95.03,31.69c.52,1.3.88,2.62,1.08,3.98v.12c.09.66.13,1.3.13,1.96,0,21.17-42.28,37.75-96.24,37.75Zm-93.62-39.53v.06c-.08.57-.12,1.14-.12,1.72,0,19.42,42.05,35.22,93.74,35.22s93.72-15.8,93.72-35.22c0-.58-.04-1.14-.11-1.72v-.09c-.18-1.13-.48-2.23-.9-3.28-6.89-17.2-46.74-30.14-92.71-30.14s-85.83,12.94-92.71,30.1l-.06.13c-.38.96-.68,2.07-.85,3.21Zm93.62,10.91c-22.22,0-45.84-5.17-45.84-14.74s23.62-14.72,45.84-14.72,45.84,5.16,45.84,14.72-23.62,14.74-45.84,14.74Zm0-26.94c-25.52,0-43.31,6.43-43.31,12.2s17.79,12.22,43.31,12.22,43.31-6.44,43.31-12.22-17.79-12.2-43.31-12.2Z"/>
              </g>
              <g>
                <path class="cls-7" d="m254.2,525.25c0,20.97-44.25,37.96-98.83,37.96s-98.85-17-98.85-37.96l3.97-14.76c-.08.62-.12,1.24-.12,1.88,0,20.15,42.54,36.49,95,36.49s94.98-16.34,94.98-36.49c0-.64-.04-1.26-.12-1.88l3.97,14.76Z"/>
                <path class="cls-27" d="m155.37,564.48c-56.14,0-100.12-17.23-100.12-39.23l.04-.33,3.97-14.76,2.47.49c-.07.58-.11,1.14-.11,1.72,0,19.42,42.05,35.22,93.74,35.22s93.72-15.8,93.72-35.22c0-.58-.04-1.14-.11-1.72l2.47-.49,4.02,15.09c0,22-43.97,39.23-100.1,39.23Zm-97.59-39.06c.23,20.16,43.92,36.54,97.59,36.54s97.34-16.38,97.57-36.54l-2.15-7.98c-6.13,18.69-45.84,32.68-95.42,32.68s-89.31-14-95.44-32.69l-2.15,7.98Z"/>
              </g>
              <path class="cls-20" d="m397.6,519.5l-14.59-40.48c-.21-.57.09-1.21.67-1.42.54-.2,1.14.06,1.38.58l18.08,39.04c.7,1.5.04,3.29-1.46,3.98-1.5.7-3.28.04-3.98-1.46-.04-.08-.07-.16-.1-.24Zm-51.94-.06c.52,1.57,2.22,2.42,3.79,1.89,1.57-.52,2.42-2.22,1.89-3.79l-13.1-39.25c-.18-.53-.74-.86-1.3-.73-.59.14-.96.74-.82,1.33l9.46,40.28c.02.09.05.18.07.26Zm-52.05-.34c.33,1.62,1.92,2.67,3.54,2.34,1.62-.33,2.67-1.92,2.34-3.54l-8.06-39.47c-.11-.55-.63-.94-1.2-.88-.61.07-1.05.61-.98,1.22l4.32,40.05c.01.09.02.19.04.28Z"/>
              <path class="cls-20" d="m425.09,556.79h-23.32c-2.71,0-5.14-1.69-6.08-4.24l-4.06-11.01c-1.56-4.23,1.57-8.72,6.08-8.72h22.39c2.54,0,4.85,1.49,5.9,3.8l4.99,11.01c1.94,4.29-1.19,9.15-5.9,9.15Zm-49.56-8.49l-3.6-11.01c-.87-2.66-3.36-4.47-6.16-4.47h-22.92c-4.19,0-7.28,3.92-6.3,8l2.65,11.01c.7,2.91,3.31,4.96,6.3,4.96h23.87c4.41,0,7.53-4.3,6.16-8.49Zm-55.61.75l-2.19-11.01c-.6-3.03-3.26-5.21-6.35-5.21h-23.28c-3.87,0-6.87,3.37-6.44,7.21l1.25,11.01c.37,3.28,3.14,5.75,6.44,5.75h24.22c4.09,0,7.15-3.74,6.35-7.75Zm77.78-16.22h22.39c2.54,0,4.85,1.49,5.9,3.8l4.99,11.01m-55.46.66l-3.6-11.01c-.87-2.66-3.36-4.47-6.16-4.47h-22.92m-22.93,16.22l-2.19-11.01c-.6-3.03-3.26-5.21-6.35-5.21h-23.28"/>
              <path class="cls-20" d="m303.23,510.49c0,1.65-1.34,3-3,3h-9.88c-1.65,0-3-1.34-3-3s1.34-3,3-3h9.88c1.65,0,3,1.34,3,3Zm44.53-15.01h-9.88c-1.65,0-3,1.34-3,3s1.34,3,3,3h9.88c1.65,0,3-1.34,3-3s-1.34-3-3-3Zm52.6,7.78h-9.88c-1.65,0-3,1.34-3,3s1.34,3,3,3h9.88c1.65,0,3-1.34,3-3s-1.34-3-3-3Z"/>
              <g>
                <g class="cls-44">
                  <g class="cls-49">
                    <polygon class="cls-15" points="402.27 532.82 397.71 533.39 397.71 532.82 402.27 532.82"/>
                    <polygon class="cls-32" points="407.69 532.82 397.71 534.06 397.71 533.39 402.27 532.82 407.69 532.82"/>
                    <polygon class="cls-1" points="413.11 532.82 397.71 534.73 397.71 534.06 407.69 532.82 413.11 532.82"/>
                    <polygon class="cls-8" points="418.53 532.82 397.71 535.41 397.71 534.73 413.11 532.82 418.53 532.82"/>
                    <polygon class="cls-30" points="423.94 532.82 397.71 536.08 397.71 535.41 418.53 532.82 423.94 532.82"/>
                    <polygon class="cls-9" points="429.36 532.82 397.71 536.75 397.71 536.08 423.94 532.82 429.36 532.82"/>
                    <polygon class="cls-34" points="430.99 533.29 397.71 537.42 397.71 536.75 429.36 532.82 430.99 532.82 430.99 533.29"/>
                    <polygon class="cls-13" points="430.99 533.97 397.71 538.1 397.71 537.42 430.99 533.29 430.99 533.97"/>
                    <polygon class="cls-5" points="430.99 534.64 397.71 538.77 397.71 538.1 430.99 533.97 430.99 534.64"/>
                    <polygon class="cls-37" points="430.99 535.31 397.71 539.44 397.71 538.77 430.99 534.64 430.99 535.31"/>
                    <polygon class="cls-38" points="430.99 535.98 397.71 540.11 397.71 539.44 430.99 535.31 430.99 535.98"/>
                    <polygon class="cls-28" points="430.99 536.65 397.71 540.79 397.71 540.11 430.99 535.98 430.99 536.65"/>
                    <polygon class="cls-18" points="430.99 537.33 397.71 541.46 397.71 540.79 430.99 536.65 430.99 537.33"/>
                    <polygon class="cls-2" points="430.99 538 397.71 542.13 397.71 541.46 430.99 537.33 430.99 538"/>
                    <polygon class="cls-40" points="430.99 538.67 397.71 542.8 397.71 542.13 430.99 538 430.99 538.67"/>
                    <polygon class="cls-36" points="430.99 539.34 397.71 543.47 397.71 542.8 430.99 538.67 430.99 539.34"/>
                    <polygon class="cls-29" points="430.99 540.02 397.71 544.15 397.71 543.47 430.99 539.34 430.99 540.02"/>
                    <polygon class="cls-17" points="430.99 540.69 397.71 544.82 397.71 544.15 430.99 540.02 430.99 540.69"/>
                    <polygon class="cls-25" points="430.99 541.36 397.71 545.49 397.71 544.82 430.99 540.69 430.99 541.36"/>
                    <polygon class="cls-22" points="430.99 542.03 397.71 546.16 397.71 545.49 430.99 541.36 430.99 542.03"/>
                    <polygon class="cls-23" points="430.99 542.71 397.71 546.84 397.71 546.16 430.99 542.03 430.99 542.71"/>
                    <polygon class="cls-35" points="430.99 543.38 397.71 547.51 397.71 546.84 430.99 542.71 430.99 543.38"/>
                    <polygon class="cls-42" points="430.99 544.05 402.13 547.63 397.71 547.63 397.71 547.51 430.99 543.38 430.99 544.05"/>
                    <polygon class="cls-31" points="430.99 544.72 407.55 547.63 402.13 547.63 430.99 544.05 430.99 544.72"/>
                    <polygon class="cls-19" points="430.99 545.4 412.97 547.63 407.55 547.63 430.99 544.72 430.99 545.4"/>
                    <polygon class="cls-33" points="430.99 546.07 418.39 547.63 412.97 547.63 430.99 545.4 430.99 546.07"/>
                    <polygon class="cls-4" points="430.99 546.74 423.8 547.63 418.39 547.63 430.99 546.07 430.99 546.74"/>
                    <polygon class="cls-24" points="430.99 547.41 429.22 547.63 423.8 547.63 430.99 546.74 430.99 547.41"/>
                    <polygon class="cls-12" points="429.22 547.63 430.99 547.41 430.99 547.63 429.22 547.63"/>
                  </g>
                </g>
                <g class="cls-44">
                  <g class="cls-48">
                    <polygon class="cls-15" points="347.56 532.82 342.85 533.41 342.85 532.82 347.56 532.82"/>
                    <polygon class="cls-32" points="353.15 532.82 342.85 534.1 342.85 533.41 347.56 532.82 353.15 532.82"/>
                    <polygon class="cls-1" points="358.73 532.82 342.85 534.79 342.85 534.1 353.15 532.82 358.73 532.82"/>
                    <polygon class="cls-8" points="364.32 532.82 342.85 535.49 342.85 534.79 358.73 532.82 364.32 532.82"/>
                    <polygon class="cls-30" points="369.9 532.82 342.85 536.18 342.85 535.49 364.32 532.82 369.9 532.82"/>
                    <polygon class="cls-9" points="375.49 532.82 342.85 536.87 342.85 536.18 369.9 532.82 375.49 532.82"/>
                    <polygon class="cls-34" points="375.53 533.51 342.85 537.57 342.85 536.87 375.49 532.82 375.53 532.82 375.53 533.51"/>
                    <polygon class="cls-13" points="375.53 534.2 342.85 538.26 342.85 537.57 375.53 533.51 375.53 534.2"/>
                    <polygon class="cls-5" points="375.53 534.9 342.85 538.95 342.85 538.26 375.53 534.2 375.53 534.9"/>
                    <polygon class="cls-37" points="375.53 535.59 342.85 539.65 342.85 538.95 375.53 534.9 375.53 535.59"/>
                    <polygon class="cls-38" points="375.53 536.28 342.85 540.34 342.85 539.65 375.53 535.59 375.53 536.28"/>
                    <polygon class="cls-28" points="375.53 536.98 342.85 541.03 342.85 540.34 375.53 536.28 375.53 536.98"/>
                    <polygon class="cls-18" points="375.53 537.67 342.85 541.73 342.85 541.03 375.53 536.98 375.53 537.67"/>
                    <polygon class="cls-2" points="375.53 538.36 342.85 542.42 342.85 541.73 375.53 537.67 375.53 538.36"/>
                    <polygon class="cls-40" points="375.53 539.06 342.85 543.11 342.85 542.42 375.53 538.36 375.53 539.06"/>
                    <polygon class="cls-36" points="375.53 539.75 342.85 543.81 342.85 543.11 375.53 539.06 375.53 539.75"/>
                    <polygon class="cls-29" points="375.53 540.44 342.85 544.5 342.85 543.81 375.53 539.75 375.53 540.44"/>
                    <polygon class="cls-17" points="375.53 541.14 342.85 545.19 342.85 544.5 375.53 540.44 375.53 541.14"/>
                    <polygon class="cls-25" points="375.53 541.83 342.85 545.89 342.85 545.19 375.53 541.14 375.53 541.83"/>
                    <polygon class="cls-22" points="375.53 542.52 342.85 546.58 342.85 545.89 375.53 541.83 375.53 542.52"/>
                    <polygon class="cls-23" points="375.53 543.22 342.85 547.27 342.85 546.58 375.53 542.52 375.53 543.22"/>
                    <polygon class="cls-35" points="375.53 543.91 342.85 547.96 342.85 547.27 375.53 543.22 375.53 543.91"/>
                    <polygon class="cls-42" points="375.53 544.6 345.78 548.3 342.85 548.3 342.85 547.96 375.53 543.91 375.53 544.6"/>
                    <polygon class="cls-31" points="375.53 545.3 351.36 548.3 345.78 548.3 375.53 544.6 375.53 545.3"/>
                    <polygon class="cls-19" points="375.53 545.99 356.95 548.3 351.36 548.3 375.53 545.3 375.53 545.99"/>
                    <polygon class="cls-33" points="375.53 546.68 362.53 548.3 356.95 548.3 375.53 545.99 375.53 546.68"/>
                    <polygon class="cls-4" points="375.53 547.38 368.12 548.3 362.53 548.3 375.53 546.68 375.53 547.38"/>
                    <polygon class="cls-24" points="375.53 548.07 373.71 548.3 368.12 548.3 375.53 547.38 375.53 548.07"/>
                    <polygon class="cls-12" points="373.71 548.3 375.53 548.07 375.53 548.3 373.71 548.3"/>
                  </g>
                </g>
                <g class="cls-44">
                  <g class="cls-45">
                    <polygon class="cls-15" points="292.96 532.82 288.1 533.43 288.1 532.82 292.96 532.82"/>
                    <polygon class="cls-32" points="298.73 532.82 288.1 534.14 288.1 533.43 292.96 532.82 298.73 532.82"/>
                    <polygon class="cls-1" points="304.5 532.82 288.1 534.86 288.1 534.14 298.73 532.82 304.5 532.82"/>
                    <polygon class="cls-8" points="310.27 532.82 288.1 535.57 288.1 534.86 304.5 532.82 310.27 532.82"/>
                    <polygon class="cls-30" points="316.04 532.82 288.1 536.29 288.1 535.57 310.27 532.82 316.04 532.82"/>
                    <polygon class="cls-9" points="319.92 533.06 288.1 537.01 288.1 536.29 316.04 532.82 319.92 532.82 319.92 533.06"/>
                    <polygon class="cls-34" points="319.92 533.77 288.1 537.72 288.1 537.01 319.92 533.06 319.92 533.77"/>
                    <polygon class="cls-13" points="319.92 534.49 288.1 538.44 288.1 537.72 319.92 533.77 319.92 534.49"/>
                    <polygon class="cls-5" points="319.92 535.2 288.1 539.15 288.1 538.44 319.92 534.49 319.92 535.2"/>
                    <polygon class="cls-37" points="319.92 535.92 288.1 539.87 288.1 539.15 319.92 535.2 319.92 535.92"/>
                    <polygon class="cls-38" points="319.92 536.64 288.1 540.59 288.1 539.87 319.92 535.92 319.92 536.64"/>
                    <polygon class="cls-28" points="319.92 537.35 288.1 541.3 288.1 540.59 319.92 536.64 319.92 537.35"/>
                    <polygon class="cls-18" points="319.92 538.07 288.1 542.02 288.1 541.3 319.92 537.35 319.92 538.07"/>
                    <polygon class="cls-2" points="319.92 538.78 288.1 542.73 288.1 542.02 319.92 538.07 319.92 538.78"/>
                    <polygon class="cls-40" points="319.92 539.5 288.1 543.45 288.1 542.73 319.92 538.78 319.92 539.5"/>
                    <polygon class="cls-36" points="319.92 540.22 288.1 544.17 288.1 543.45 319.92 539.5 319.92 540.22"/>
                    <polygon class="cls-29" points="319.92 540.93 288.1 544.88 288.1 544.17 319.92 540.22 319.92 540.93"/>
                    <polygon class="cls-17" points="319.92 541.65 288.1 545.6 288.1 544.88 319.92 540.93 319.92 541.65"/>
                    <polygon class="cls-25" points="319.92 542.36 288.1 546.31 288.1 545.6 319.92 541.65 319.92 542.36"/>
                    <polygon class="cls-22" points="319.92 543.08 288.1 547.03 288.1 546.31 319.92 542.36 319.92 543.08"/>
                    <polygon class="cls-23" points="319.92 543.8 288.1 547.75 288.1 547.03 319.92 543.08 319.92 543.8"/>
                    <polygon class="cls-35" points="319.92 544.51 288.1 548.46 288.1 547.75 319.92 543.8 319.92 544.51"/>
                    <polygon class="cls-42" points="319.92 545.23 289.19 549.04 288.1 549.04 288.1 548.46 319.92 544.51 319.92 545.23"/>
                    <polygon class="cls-31" points="319.92 545.94 294.96 549.04 289.19 549.04 319.92 545.23 319.92 545.94"/>
                    <polygon class="cls-19" points="319.92 546.66 300.73 549.04 294.96 549.04 319.92 545.94 319.92 546.66"/>
                    <polygon class="cls-33" points="319.92 547.38 306.5 549.04 300.73 549.04 319.92 546.66 319.92 547.38"/>
                    <polygon class="cls-4" points="319.92 548.09 312.27 549.04 306.5 549.04 319.92 547.38 319.92 548.09"/>
                    <polygon class="cls-24" points="319.92 548.81 318.04 549.04 312.27 549.04 319.92 548.09 319.92 548.81"/>
                    <polygon class="cls-12" points="318.04 549.04 319.92 548.81 319.92 549.04 318.04 549.04"/>
                  </g>
                </g>
              </g>
            </g>
            <g>
              <g>
                <path class="cls-39" d="m131.25,133.01h5.09c2.85,0,5.17,2.31,5.17,5.17v83.97h-15.42v-83.97c0-2.85,2.31-5.17,5.17-5.17Z" transform="translate(267.6 355.15) rotate(180)"/>
                <path class="cls-27" d="m134.3,223.41h-1.01c-4.67,0-8.47-3.8-8.47-8.47v-83.19h17.95v83.19c0,4.67-3.8,8.47-8.47,8.47Zm-6.95-89.13v80.66c0,3.28,2.67,5.95,5.95,5.95h1.01c3.28,0,5.95-2.67,5.95-5.95v-80.66h-12.9Z"/>
              </g>
              <g>
                <g>
                  <path class="cls-41" d="m146.82,160.12c21.2,0,38.36,24.18,38.36,54.02,0,29.82-17.17,54.02-38.36,54.02-21.18,0-38.34-24.2-38.34-54.02,0-29.84,17.17-54.02,38.34-54.02Z"/>
                  <path class="cls-41" d="m125.09,160.12h21.73c-21.18,0-38.34,24.18-38.34,54.02,0,29.82,17.17,54.02,38.34,54.02h-21.73c-21.2,0-38.36-24.2-38.36-54.02,0-29.84,17.17-54.02,38.36-54.02Z"/>
                  <path class="cls-41" d="m150.41,190.74c9.17,0,16.61,10.47,16.61,23.39,0,12.92-7.44,23.39-16.61,23.39-9.17,0-16.61-10.47-16.61-23.39,0-12.92,7.44-23.39,16.61-23.39Z"/>
                </g>
                <g>
                  <g>
                    <path class="cls-7" d="m146.82,160.12c21.2,0,38.36,24.18,38.36,54.02,0,29.82-17.17,54.02-38.36,54.02-21.18,0-38.34-24.2-38.34-54.02,0-29.84,17.17-54.02,38.34-54.02Z"/>
                    <path class="cls-27" d="m146.81,269.42c-21.84,0-39.6-24.8-39.6-55.28s17.77-55.28,39.6-55.28,39.63,24.8,39.63,55.28-17.78,55.28-39.63,55.28Zm0-108.04c-20.44,0-37.08,23.67-37.08,52.76s16.63,52.75,37.08,52.75,37.1-23.67,37.1-52.75-16.64-52.76-37.1-52.76Z"/>
                  </g>
                  <g>
                    <path class="cls-14" d="m125.09,160.12h21.73c-21.18,0-38.34,24.18-38.34,54.02,0,29.82,17.17,54.02,38.34,54.02h-21.73c-21.2,0-38.36-24.2-38.36-54.02,0-29.84,17.17-54.02,38.36-54.02Z"/>
                    <path class="cls-27" d="m146.81,269.42h-21.73c-21.85,0-39.63-24.8-39.63-55.28s17.78-55.28,39.63-55.28h21.73v2.53c-20.44,0-37.08,23.67-37.08,52.76s16.63,52.75,37.08,52.75v2.53Zm-21.73-108.04c-20.46,0-37.1,23.67-37.1,52.76s16.64,52.75,37.1,52.75h9.88c-16.07-7.05-27.76-28.03-27.76-52.75s11.69-45.71,27.76-52.76h-9.88Z"/>
                  </g>
                  <g>
                    <path class="cls-14" d="m150.41,190.74c9.17,0,16.61,10.47,16.61,23.39,0,12.92-7.44,23.39-16.61,23.39-9.17,0-16.61-10.47-16.61-23.39,0-12.92,7.44-23.39,16.61-23.39Z"/>
                    <path class="cls-27" d="m150.41,238.79c-9.86,0-17.87-11.06-17.87-24.66s8.02-24.66,17.87-24.66,17.87,11.06,17.87,24.66-8.02,24.66-17.87,24.66Zm0-46.79c-8.46,0-15.35,9.93-15.35,22.13s6.88,22.13,15.35,22.13,15.35-9.93,15.35-22.13-6.88-22.13-15.35-22.13Z"/>
                  </g>
                </g>
              </g>
            </g>
            <g>
              <g>
                <path class="cls-39" d="m196.57,161.02s-9.87-106.92-34.42-123.04-35.24,14.71-34.38,24.3c.86,9.59,37.1,116.39,37.1,116.39"/>
                <path class="cls-27" d="m164.87,179.94c-.53,0-1.02-.33-1.2-.86-1.48-4.37-36.3-107.06-37.16-116.69-.58-6.49,3.61-21.76,13.71-27.81,4.55-2.72,12.16-4.53,22.62,2.34,24.77,16.27,34.58,119.59,34.99,123.98.06.69-.45,1.31-1.14,1.37-.72.07-1.31-.45-1.37-1.14-.1-1.06-10.09-106.49-33.86-122.1-7.52-4.93-14.22-5.7-19.93-2.28-9.07,5.43-13.01,19.64-12.49,25.41.84,9.33,36.67,115.03,37.03,116.1.22.66-.13,1.38-.79,1.6-.13.05-.27.07-.41.07Z"/>
              </g>
              <g>
                <path class="cls-26" d="m183.93,167.16s-16.86-84.84-31.79-94.24c-14.92-9.4-24.69,39.76,13.51,107.5"/>
                <path class="cls-27" d="m165.66,181.68c-.44,0-.87-.23-1.1-.64-30.3-53.73-31.53-98.23-20.79-108.46,2.62-2.49,5.83-2.75,9.05-.73,15.21,9.58,31.66,91.58,32.35,95.06.14.68-.31,1.35-.99,1.49-.7.14-1.35-.31-1.49-.99-.17-.84-16.92-84.41-31.22-93.42-2.24-1.41-4.19-1.27-5.96.42-8.91,8.49-9.44,50.97,21.25,105.39.34.61.13,1.38-.48,1.72-.2.11-.41.16-.62.16Z"/>
              </g>
              <g>
                <path class="cls-39" d="m159.81,73.22s-6.63,80.06-58.19,75.78c-51.56-4.28-9.57-103.53,45.7-115.56"/>
                <path class="cls-27" d="m105.48,150.42c-1.31,0-2.63-.06-3.97-.17-14.76-1.23-23.45-10.27-24.45-25.47-1.03-15.64,6.4-36.73,19.4-55.05,14.14-19.94,32.58-33.62,50.58-37.54.68-.15,1.35.28,1.5.97.15.68-.28,1.35-.97,1.5-17.39,3.79-35.28,17.1-49.06,36.53-12.68,17.87-19.93,38.34-18.94,53.42.64,9.76,5.01,21.7,22.14,23.12,20.76,1.71,36.64-10.22,47.16-35.51,7.93-19.08,9.65-38.92,9.67-39.11.06-.69.66-1.19,1.36-1.15.69.06,1.21.67,1.15,1.36-.02.2-1.77,20.44-9.85,39.87-10.16,24.43-25.92,37.22-45.73,37.22Z"/>
              </g>
            </g>
            <g>
              <g>
                <g>
                  <path class="cls-39" d="m120.91,257.45c0-65.39,71.69-118.07,118.67-118.07,46.98,0,119.62,52.68,119.62,118.07,0,65.39-53.34,118.4-119.14,118.4-65.8,0-119.14-53.01-119.14-118.4Z"/>
                  <path class="cls-27" d="m240.06,377.11c-66.39,0-120.41-53.68-120.41-119.66,0-30.12,14.96-60.12,42.14-84.5,23.96-21.49,53.76-34.84,77.79-34.84,47.74,0,120.88,53.46,120.88,119.33s-54.01,119.66-120.41,119.66Zm-.47-236.47c-46.36,0-117.41,52.33-117.41,116.81s52.88,117.14,117.88,117.14,117.88-52.55,117.88-117.14-71.62-116.81-118.35-116.81Z"/>
                </g>
                <g>
                  <g>
                    <ellipse class="cls-39" cx="271.89" cy="232.49" rx="26" ry="33.41"/>
                    <path class="cls-27" d="m271.89,267.16c-15.03,0-27.26-15.55-27.26-34.67s12.23-34.67,27.26-34.67,27.26,15.55,27.26,34.67-12.23,34.67-27.26,34.67Zm0-66.82c-13.64,0-24.74,14.42-24.74,32.15s11.1,32.15,24.74,32.15,24.74-14.42,24.74-32.15-11.1-32.15-24.74-32.15Z"/>
                  </g>
                  <path class="cls-27" d="m279.09,232.49l-18.62-3.8c1.29-13.49,9.29-23.63,18.62-23.63,10.31,0,18.8,12.38,18.8,27.43s-8.49,27.43-18.8,27.43c-7.9,0-14.99-7.26-17.68-18.1l17.68-9.33Z"/>
                </g>
                <g>
                  <path class="cls-39" d="m260.81,270.74s9.13-17.37,25.86-23.54c16.72-6.17,40.65-3.99,43.48,15.69"/>
                  <path class="cls-27" d="m260.81,272c-.2,0-.4-.05-.59-.15-.62-.33-.85-1.09-.53-1.71.38-.73,9.55-17.87,26.54-24.14,12.41-4.58,26.11-4.16,34.91,1.08,5.73,3.41,9.28,8.82,10.26,15.62.1.69-.38,1.33-1.07,1.43-.71.09-1.33-.38-1.43-1.07-.88-6.11-3.92-10.76-9.05-13.81-9.29-5.53-23.14-4.43-32.74-.88-16.06,5.93-25.09,22.78-25.18,22.94-.23.43-.66.67-1.12.67Z"/>
                </g>
                <g>
                  <g>
                    <ellipse class="cls-39" cx="185.18" cy="231.81" rx="24.3" ry="31.22"/>
                    <path class="cls-27" d="m185.18,264.29c-14.09,0-25.56-14.57-25.56-32.48s11.47-32.48,25.56-32.48,25.56,14.57,25.56,32.48-11.47,32.48-25.56,32.48Zm0-62.44c-12.7,0-23.03,13.44-23.03,29.96s10.33,29.96,23.03,29.96,23.03-13.44,23.03-29.96-10.33-29.96-23.03-29.96Z"/>
                  </g>
                  <path class="cls-27" d="m191.9,231.81l-17.4-3.55c1.21-12.6,8.68-22.08,17.4-22.08,9.64,0,17.57,11.57,17.57,25.63s-7.93,25.63-17.57,25.63c-7.38,0-14.01-6.79-16.52-16.91l16.52-8.72Z"/>
                </g>
                <g>
                  <path class="cls-39" d="m206.87,267.77s-7.26-13.31-25.27-15.92c-18.46-2.68-27.45,11.27-27.9,18.31"/>
                  <path class="cls-27" d="m153.71,271.42s-.05,0-.08,0c-.7-.04-1.22-.64-1.18-1.34.25-3.93,2.91-9.87,8.31-14.25,3.95-3.21,10.8-6.72,21.03-5.23,18.42,2.67,25.89,16,26.19,16.57.33.61.11,1.38-.5,1.71-.61.34-1.38.11-1.71-.5-.07-.13-7.22-12.79-24.34-15.28-9.32-1.36-15.52,1.81-19.07,4.69-4.78,3.88-7.18,9.17-7.38,12.45-.04.67-.6,1.18-1.26,1.18Z"/>
                </g>
                <g>
                  <path class="cls-16" d="m290.09,282.57c16.42,2.88,20.03,22.92,7.07,38.55-12.96,15.64-39.46,30.17-73.24,26.44-33.77-3.73-52.82-22.58-56.15-45.35,0,0-2.72-20.48,9.82-19.83,7.84.41,9.37,7.4,20.45,14.73,11.08,7.33,22.5,3.22,35.01-7.45,0,0,14.62,12.87,28.42,8.17,20.09-6.86,15.43-17.57,28.62-15.25Z"/>
                  <path class="cls-27" d="m234.46,349.41c-3.47,0-7.03-.19-10.68-.59-32.12-3.55-53.52-20.9-57.26-46.43-.07-.53-1.62-12.72,3.63-18.41,1.9-2.06,4.44-3.02,7.5-2.86,5.05.26,7.77,3.03,11.23,6.53,2.37,2.41,5.33,5.41,9.86,8.4,9.68,6.4,20.01,4.14,33.49-7.35l.83-.71.82.72c.14.12,14.26,12.33,27.18,7.92,9.47-3.23,13.17-7.24,16.13-10.46,3.16-3.43,5.66-6.14,13.11-4.84h0c7.04,1.24,12.23,5.48,14.61,11.96,3.21,8.74.61,19.72-6.79,28.65-11.02,13.29-33.73,27.48-63.67,27.48Zm-57.47-65.79c-2.07,0-3.71.68-4.99,2.07-4.45,4.82-3,16.24-2.99,16.35,3.56,24.3,24.14,40.85,55.04,44.26,34.21,3.77,60.23-11.64,72.13-25.98,6.83-8.24,9.27-18.27,6.36-26.16-2.06-5.6-6.56-9.27-12.68-10.34h0c-6.1-1.07-7.77.75-10.82,4.06-3,3.25-7.1,7.7-17.18,11.14-12.57,4.28-25.43-5-28.82-7.71-13.91,11.58-25.28,13.75-35.71,6.85-4.75-3.14-7.8-6.24-10.26-8.74-3.31-3.36-5.49-5.57-9.56-5.78-.18,0-.35-.01-.52-.01Z"/>
                </g>
                <path class="cls-27" d="m238.41,335.91c-1.74,0-3.51-.1-5.27-.29-15.08-1.67-25.11-9.58-26.86-21.17-.04-.59-.23-5.4,3.47-7.28,1.05-.53,2.11-.79,3.24-.79,3.59,0,6.93,2.64,8.6,4.22,3.06,2.88,9.5,5.99,16.4,5.99,2.17,0,4.23-.31,6.14-.92,2.62-.84,5.25-2.27,8.04-3.78,4.21-2.29,8.56-4.66,12.5-4.66.8,0,1.53.09,2.26.29,2.6.7,4.37,2.3,5.11,4.62,1.01,3.18-.11,7.17-3,10.65-5.26,6.35-16.07,13.13-30.63,13.13Z"/>
                <g>
                  <path class="cls-39" d="m214.1,300.86c.75,9.84,9.65,20.57,22.42,20.27,16.72-.39,21.99-12.69,21.93-22.55-2.6.19-6.72.88-12.17-.52-2.92-.75-6.66-2.44-13.02-7-5.52,3.93-11.61,6.3-19.16,9.8Z"/>
                  <path class="cls-27" d="m236.02,322.4c-12.91,0-22.38-10.99-23.18-21.44l-.07-.87.8-.37c1.53-.71,3-1.37,4.42-2.01,5.49-2.47,10.23-4.61,14.54-7.67l.74-.52.73.53c6.87,4.93,10.34,6.23,12.59,6.8,4.5,1.15,8.01.82,10.59.58.42-.04.81-.08,1.18-.1l1.35-.1v1.35c.08,10.74-5.94,23.42-23.15,23.82-.18,0-.35,0-.53,0Zm-20.58-20.77c1.17,9.18,9.64,18.48,21.05,18.24,14.66-.34,20.25-10.26,20.67-19.9-2.6.24-6.43.54-11.2-.68-3.51-.9-7.45-2.97-12.71-6.68-4.3,2.93-8.92,5.01-14.22,7.4-1.16.52-2.35,1.06-3.58,1.62Z"/>
                </g>
                <g>
                  <path class="cls-26" d="m275.51,338.26s-7.68-19.4-35.93-5.39c0,0-11.48-9.04-30.92-3.11-19.44,5.93-40.93,33.36-34.7,63.17,6.23,29.81,42.48,26.69,48.71-1.11,6.23-27.8,23.75-43.65,31.68-45.82,0,0,12.71-2.6,21.15-7.74Z"/>
                  <path class="cls-27" d="m197.14,415.27h-.16c-9.51-.07-20.87-5.91-24.25-22.08-6.55-31.33,16.3-58.76,35.57-64.64,17.46-5.32,28.64,1,31.41,2.86,10.4-5.02,19.28-6.19,26.41-3.45,7.79,2.99,10.47,9.56,10.58,9.84l.39.99-.91.55c-8.54,5.2-21.03,7.79-21.56,7.9-7.38,2.02-24.63,17.75-30.7,44.86-3.57,15.95-16.35,23.18-26.77,23.18Zm24.34-86.24c-3.65,0-7.81.53-12.44,1.94-18.34,5.59-40.09,31.77-33.83,61.71,3.07,14.7,13.27,20.01,21.8,20.07h.15c9.45,0,21.03-6.61,24.3-21.2,6.38-28.5,24.37-44.52,32.58-46.76.2-.04,11.69-2.43,19.83-7.01-.99-1.77-3.61-5.53-8.7-7.47-6.58-2.51-15-1.26-25.01,3.71l-.72.36-.63-.49c-.08-.06-6.37-4.84-17.33-4.84Z"/>
                </g>
                <path class="cls-27" d="m196.23,386.54c-.14,0-.29-.02-.43-.08-.66-.24-1-.96-.76-1.62,15.83-43.84,43.01-52.82,44.16-53.18.67-.21,1.37.16,1.58.83.21.66-.16,1.37-.82,1.58-.27.09-27.17,9.06-42.54,51.63-.19.51-.67.83-1.19.83Z"/>
                <path class="cls-27" d="m236.31,311.28c-.47,0-.92-.26-1.14-.72-3.97-8.3-3.37-15.96-3.34-16.28.06-.69.65-1.2,1.37-1.15.69.06,1.21.67,1.15,1.37,0,.07-.56,7.32,3.1,14.97.3.63.03,1.38-.59,1.69-.18.08-.36.12-.54.12Z"/>
                <g>
                  <path class="cls-26" d="m236.45,295.12c-1.72,1.85-5.09,1.85-6.81,0l-6.96-7.49-5.07-5.46c-2.16-2.33-.15-5.69,3.4-5.69h24.07c3.56,0,5.57,3.37,3.4,5.69l-5.07,5.46-6.96,7.49Z"/>
                  <path class="cls-27" d="m233.04,297.77c-1.69,0-3.27-.65-4.33-1.79l-12.04-12.95c-1.25-1.34-1.57-3.1-.87-4.71.82-1.89,2.86-3.11,5.2-3.11h24.07c2.34,0,4.38,1.22,5.2,3.11.7,1.61.38,3.37-.87,4.71l-12.04,12.95c-1.06,1.14-2.63,1.79-4.33,1.79Zm-12.04-20.03c-1.61,0-2.56.86-2.88,1.59-.29.68-.15,1.38.4,1.98l12.04,12.95c.58.62,1.48.98,2.48.98s1.9-.36,2.48-.98l12.04-12.95c.56-.6.7-1.3.4-1.98-.32-.73-1.27-1.59-2.88-1.59h-24.07Zm15.44,17.38h.01-.01Z"/>
                </g>
                <ellipse class="cls-10" cx="300.77" cy="259.92" rx="21.53" ry="11.59" transform="translate(-32.94 43.92) rotate(-7.92)"/>
                <ellipse class="cls-10" cx="180.29" cy="265.9" rx="11.59" ry="17.87" transform="translate(-115.53 391.17) rotate(-78.81)"/>
              </g>
              <g>
                <path class="cls-6" d="m217.94,175.43c-2.24,0-4.61-.57-7.06-1.69-10.13-4.65-40.84-62.55-42.14-65.02l-1.58-2.99,43.56,16.82,1.1-48.9,29.29,33.96,23.85-37.55,8.64,50.13,29.28-18.13-11.48,36.09,27.27-8.61-11.91,23.31,13.31.33-10.32,14.7-.99-.55c-.31-.17-31.55-17.44-53.6-20.25-.12-.02-.36-.05-.75-.05-2.87,0-13.25,1.65-26.49,22.84-1.29,2.06-3,3.62-4.96,4.5-1.55.7-3.24,1.06-5.01,1.06Z"/>
                <path class="cls-27" d="m264.27,73.51l8.41,48.74,27.97-17.31-11.19,35.16,26.71-8.43-11.45,22.41,12.96.32-8.31,11.84s-31.5-17.53-54.06-20.4c0,0-.32-.06-.91-.06-3.13,0-14.01,1.73-27.56,23.44-1.07,1.72-2.56,3.19-4.4,4.02-1.2.54-2.69.94-4.49.94s-4.03-.43-6.53-1.58c-9.86-4.53-41.55-64.46-41.55-64.46l42.08,16.25,1.07-47.41,28.25,32.76,23-36.22m36.37,31.43h0m15.52,26.73h0m-50.53-65.04l-3.51,5.53-21.18,33.35-26.03-30.19-4.29-4.98-.15,6.57-.98,43.82-38.73-14.95-6.3-2.43,3.16,5.97c5.36,10.13,32.61,60.92,42.73,65.57,2.61,1.2,5.16,1.81,7.58,1.81,1.95,0,3.82-.39,5.53-1.17,2.18-.99,4.09-2.71,5.5-4.98,13.23-21.17,23.5-22.25,25.42-22.25.31,0,.47.02.48.02l.09.02h.03c21.8,2.78,52.84,19.93,53.15,20.1l1.99,1.11,1.31-1.86,8.31-11.84,2.71-3.86-4.71-.12-8.94-.22,9.62-18.83,2.75-5.38-5.76,1.82-22.07,6.97,9.71-30.52,2.07-6.51-5.81,3.6-24.78,15.34-7.77-45.05-1.11-6.45h0Zm35,35.79h0,0Zm15.53,26.73h0,0Z"/>
              </g>
              <g>
                <g>
                  <path class="cls-39" d="m279.47,165.92s11.9-128.84,41.48-148.27c29.58-19.42,42.45,17.73,41.42,29.28-1.04,11.55-44.7,140.26-44.7,140.26"/>
                  <path class="cls-27" d="m317.67,188.46c-.13,0-.27-.02-.41-.07-.66-.22-1.01-.94-.79-1.6.44-1.29,43.63-128.7,44.64-139.97.63-7.02-4.16-24.27-15.18-30.87-6.97-4.18-15.14-3.25-24.29,2.76-28.74,18.87-40.8,146.05-40.92,147.33-.06.69-.66,1.21-1.37,1.14-.69-.06-1.21-.68-1.14-1.37.49-5.29,12.3-129.67,42.05-149.21,12.48-8.2,21.56-6.06,26.97-2.81,12.08,7.23,17.09,25.5,16.4,33.27-1.04,11.57-42.98,135.29-44.77,140.55-.18.53-.67.86-1.2.86Z"/>
                </g>
                <g>
                  <path class="cls-26" d="m294.7,173.32s20.32-102.24,38.3-113.56c17.98-11.32,29.74,47.92-16.29,129.54"/>
                  <path class="cls-27" d="m316.71,190.56c-.21,0-.42-.05-.62-.16-.61-.34-.82-1.11-.48-1.72,37.05-65.7,36.36-117.03,25.57-127.32-2.2-2.1-4.73-2.28-7.5-.53-17.32,10.91-37.54,111.72-37.74,112.74-.14.68-.79,1.14-1.49.99-.68-.14-1.13-.8-.99-1.49.83-4.2,20.64-102.9,38.87-114.38,3.77-2.37,7.53-2.07,10.59.84,12.87,12.26,11.34,65.75-25.11,130.39-.23.41-.66.64-1.1.64Z"/>
                </g>
                <g>
                  <path class="cls-39" d="m323.77,60.11s7.98,96.48,70.1,91.32c62.12-5.16,11.54-124.76-55.05-139.27"/>
                  <path class="cls-27" d="m389.23,152.9c-23.77,0-42.67-15.36-54.87-44.7-9.72-23.39-11.83-47.73-11.85-47.98-.06-.69.46-1.31,1.15-1.36.71-.07,1.31.46,1.36,1.15.02.24,2.1,24.24,11.68,47.26,12.72,30.56,31.94,44.98,57.05,42.91,20.83-1.73,26.13-16.24,26.91-28.1,1.2-18.23-7.56-42.96-22.86-64.54-16.64-23.47-38.24-39.55-59.26-44.13-.68-.15-1.11-.82-.97-1.5.15-.68.82-1.11,1.5-.97,21.63,4.71,43.78,21.16,60.78,45.14,15.62,22.03,24.56,47.38,23.32,66.17-1.2,18.17-11.58,28.98-29.22,30.45-1.6.13-3.19.2-4.75.2Z"/>
                </g>
              </g>
              <g>
                <g class="cls-43">
                  <path class="cls-6" d="m241.91,262.18s-5.11-14.06,7.37-22.34c12.48-8.28,23.13-2.23,23.13-2.23,0,0-6.18,1.31-7.62,7.89-1.45,6.57,12.48,9.86,21.29,2.23,8.81-7.62,27.34-11.3,36.4-4.6,0,0-11.56-.26-13.01,8.28-1.45,8.54,22.05,8.02,27.78-8.41,0,0,5.63,13.92-7.62,22.71-15.24,10.12-34.85-.85-45.09.24-7.8.83-6.26,8.5.26,7.99,0,0-33.23,14.06-42.89-11.74Z"/>
                  <path class="cls-6" d="m220.48,263.5s6.57-13.44-4.97-23c-11.54-9.55-22.76-4.67-22.76-4.67,0,0,6,1.96,6.75,8.65.74,6.69-13.46,8.48-21.41-.03-7.95-8.51-25.99-14.13-35.71-8.42,0,0,11.53.96,12.06,9.61.53,8.65-22.77,5.64-26.73-11.3,0,0-7.07,13.24,5.17,23.39,14.09,11.68,34.75,2.84,44.82,5,7.67,1.65,5.33,9.11-1.1,7.91,0,0,31.56,17.5,43.89-7.14Z"/>
                </g>
                <g>
                  <path class="cls-27" d="m220.42,257.87c-.44,0-.86-.23-1.1-.64-.35-.61-.14-1.38.47-1.72.52-.3,12.89-7.23,23.94.04.58.38.74,1.17.36,1.75-.38.58-1.17.75-1.75.36-9.76-6.43-21.18-.02-21.3.04-.2.11-.41.17-.63.17Z"/>
                  <g>
                    <path class="cls-27" d="m265.8,279.03c-4.04,0-8.27-.6-12.18-2.29-6.02-2.59-10.35-7.34-12.89-14.11h0c-.06-.16-5.3-15.11,7.86-23.84,12.98-8.61,23.99-2.54,24.45-2.28.46.26.7.77.62,1.29-.08.52-.47.93-.99,1.04-.22.05-5.41,1.26-6.65,6.92-.39,1.79.88,2.98,2.03,3.66,4.03,2.4,11.75,2.07,17.2-2.65,9.18-7.95,28.5-11.66,37.98-4.66.44.33.62.9.44,1.42-.18.52-.68.87-1.22.86-.45-.03-10.5-.12-11.74,7.23-.39,2.3,1.93,3.26,3.35,3.62,5.79,1.48,18.09-1.47,21.99-12.66.17-.5.64-.83,1.16-.85.47.01,1.01.3,1.2.79.06.15,5.85,14.98-8.09,24.24-10.63,7.06-23.18,4.31-33.26,2.11-4.94-1.08-9.19-2-12.39-1.67-3.01.32-4.24,1.76-4.12,3.05.12,1.32,1.64,2.61,4.15,2.42.62-.05,1.18.36,1.33.96.15.6-.16,1.22-.74,1.46-.52.22-9.47,3.94-19.5,3.94Zm-22.7-17.28c2.29,6.1,6.16,10.37,11.52,12.67,8.91,3.84,19.94,1.47,25.72-.28-1.37-.91-2.17-2.28-2.3-3.66-.23-2.52,1.65-5.3,6.37-5.8,3.6-.38,8.05.59,13.2,1.71,9.62,2.1,21.59,4.72,31.33-1.75,8.54-5.67,8.73-13.51,8-17.9-5.21,9.27-16.6,12.7-23.5,10.93-3.78-.97-5.73-3.4-5.21-6.49.94-5.56,5.8-8.03,10.06-8.92-9.26-3.58-23.9-.07-31.38,6.41-6.3,5.46-15.37,5.76-20.15,2.91-2.59-1.54-3.75-3.86-3.2-6.38.91-4.13,3.45-6.4,5.54-7.6-3.74-1.15-10.97-2.13-19.12,3.28-11.45,7.59-7.1,20.24-6.89,20.85Z"/>
                    <path class="cls-27" d="m198.88,277.94c-11.57,0-22.34-5.88-22.9-6.19-.54-.3-.79-.95-.58-1.53.21-.58.82-.91,1.42-.81,2.48.46,4.12-.66,4.38-1.97.25-1.27-.82-2.83-3.78-3.47-3.14-.67-7.48-.2-12.5.35-10.26,1.12-23.04,2.52-32.85-5.62-12.88-10.68-5.55-24.81-5.48-24.95.25-.46.75-.73,1.28-.66.52.07.95.45,1.07.96,2.7,11.54,14.61,15.78,20.53,14.91,1.45-.21,3.85-.92,3.71-3.25-.46-7.44-10.48-8.39-10.91-8.43-.55-.05-1-.44-1.13-.98s.12-1.09.59-1.37c10.15-5.96,28.99-.22,37.27,8.65,4.92,5.27,12.57,6.42,16.83,4.46,1.21-.56,2.6-1.6,2.4-3.43-.64-5.76-5.67-7.52-5.89-7.59-.49-.17-.84-.62-.86-1.14s.28-1.01.75-1.21c.49-.21,12.08-5.08,24.07,4.85,12.16,10.07,5.37,24.38,5.3,24.52,0,0,0,0,0,0-3.24,6.47-8.05,10.73-14.31,12.67-2.76.86-5.62,1.2-8.42,1.2Zm-17.87-6.61c5.57,2.35,16.3,5.86,25.55,3,5.57-1.73,9.87-5.55,12.78-11.38.28-.59,5.94-12.7-4.64-21.46-7.54-6.24-14.82-6.03-18.66-5.28,1.95,1.42,4.24,3.95,4.71,8.15.28,2.56-1.12,4.74-3.86,6-5.05,2.32-14.04,1.06-19.73-5.03-6.75-7.23-20.93-12.27-30.52-9.69,4.14,1.33,8.71,4.3,9.06,9.93.19,3.13-2,5.33-5.87,5.9-7.04,1.04-18.01-3.59-22.21-13.36-1.19,4.28-1.83,12.11,6.06,18.65,9,7.46,21.18,6.12,30.97,5.05,5.24-.57,9.77-1.07,13.31-.31,4.65,1,6.22,3.95,5.72,6.44-.27,1.36-1.21,2.63-2.67,3.39Zm39.47-7.82h.01-.01Z"/>
                  </g>
                </g>
              </g>
              <g>
                <line class="cls-6" x1="220.42" y1="154.45" x2="206.87" y2="131.93"/>
                <path class="cls-27" d="m220.42,155.71c-.43,0-.85-.22-1.08-.61l-13.55-22.53c-.36-.6-.17-1.37.43-1.73.59-.36,1.37-.17,1.73.43l13.55,22.53c.36.6.17,1.37-.43,1.73-.2.12-.43.18-.65.18Z"/>
              </g>
              <g>
                <line class="cls-6" x1="233.22" y1="145.37" x2="224.48" y2="115.11"/>
                <path class="cls-27" d="m233.22,146.64c-.55,0-1.05-.36-1.21-.91l-8.74-30.26c-.19-.67.19-1.37.86-1.56.68-.19,1.37.19,1.56.86l8.74,30.26c.19.67-.19,1.37-.86,1.56-.12.03-.23.05-.35.05Z"/>
              </g>
              <path class="cls-27" d="m245.89,140.64c-.7,0-1.26-.56-1.26-1.26v-23.26c0-.7.56-1.26,1.26-1.26s1.26.56,1.26,1.26v23.26c0,.7-.56,1.26-1.26,1.26Z"/>
              <g>
                <line class="cls-6" x1="258.29" y1="139.99" x2="262.65" y2="106.04"/>
                <path class="cls-27" d="m258.29,141.26c-.05,0-.11,0-.16,0-.69-.09-1.18-.72-1.09-1.41l4.36-33.96c.09-.69.73-1.16,1.41-1.09.69.09,1.18.72,1.09,1.41l-4.36,33.96c-.08.64-.63,1.1-1.25,1.1Z"/>
              </g>
            </g>
            <g>
              <g>
                <path class="cls-7" d="m332.53,195.29c3.73,29.76,21.73,52.02,40.19,49.71,18.48-2.32,30.42-28.34,26.69-58.09-3.73-29.77-21.73-52.02-40.21-49.71-18.46,2.32-30.4,28.32-26.67,58.09Z"/>
                <path class="cls-27" d="m370.1,246.42c-18.12,0-35.2-22.04-38.83-50.98h0c-1.83-14.63-.02-28.84,5.12-40.03,5.23-11.38,13.27-18.3,22.65-19.48,9.38-1.18,18.89,3.54,26.77,13.28,7.74,9.57,13.01,22.89,14.84,37.52,3.81,30.41-8.65,57.11-27.79,59.5-.93.12-1.85.17-2.77.17Zm-8.24-108.13c-.84,0-1.67.05-2.51.16-8.48,1.06-15.82,7.46-20.67,18.02-4.94,10.76-6.68,24.49-4.91,38.66h0c3.47,27.66,19.43,48.77,36.28,48.77.83,0,1.67-.05,2.5-.16,17.75-2.23,29.23-27.65,25.59-56.68-1.78-14.17-6.86-27.04-14.3-36.25-6.59-8.15-14.31-12.52-21.99-12.52Z"/>
              </g>
              <g>
                <path class="cls-14" d="m340.25,139.57l18.94-2.38c-18.46,2.32-30.4,28.32-26.67,58.09,3.73,29.76,21.73,52.02,40.19,49.71l-18.94,2.38c-18.48,2.32-36.48-19.95-40.21-49.71-3.73-29.77,8.21-55.78,26.69-58.09Z"/>
                <path class="cls-27" d="m351.1,248.8c-8.45,0-16.85-4.7-23.94-13.46-7.74-9.57-13.01-22.89-14.84-37.52-1.83-14.63-.02-28.85,5.12-40.03,5.23-11.38,13.28-18.3,22.67-19.48l18.94-2.38s0,0,0,0l.31,2.51h0c-8.48,1.07-15.82,7.47-20.66,18.02-4.94,10.76-6.68,24.49-4.91,38.66,3.64,29.03,21.01,50.84,38.78,48.61l.31,2.51s0,0-.02,0l-18.93,2.37c-.94.12-1.89.18-2.83.18Zm-10.69-107.98c-8.49,1.06-15.83,7.47-20.68,18.03-4.94,10.76-6.68,24.49-4.91,38.66,1.78,14.16,6.86,27.03,14.3,36.24,7.31,9.04,16.01,13.43,24.5,12.37l8.59-1.08c-14.96-5.25-27.84-24.91-30.94-49.6-1.83-14.63-.02-28.84,5.12-40.03,3.22-7.02,7.51-12.34,12.53-15.66l-8.51,1.07Zm-.16-1.25h.01-.01Z"/>
              </g>
              <g>
                <path class="cls-14" d="m358.04,192.08c1.47,11.69,8.52,20.84,15.41,19.97,6.89-.86,11.47-11.47,10-23.16-1.47-11.69-8.52-20.84-15.41-19.97-6.89.86-11.47,11.47-10,23.16Z"/>
                <path class="cls-27" d="m372.53,213.38c-3.44,0-6.89-2.04-9.81-5.83-3.09-4-5.19-9.44-5.93-15.31-1.58-12.58,3.4-23.61,11.1-24.57,3.79-.48,7.66,1.57,10.9,5.76,3.09,4,5.19,9.44,5.93,15.31,1.58,12.58-3.4,23.61-11.1,24.57-.36.05-.72.07-1.08.07Zm-3.6-43.25c-.24,0-.49.02-.73.05-6.1.76-10.26,10.93-8.91,21.75.67,5.35,2.65,10.49,5.42,14.08,2.63,3.4,5.76,5.15,8.58,4.8,6.1-.76,10.26-10.93,8.91-21.75-.67-5.35-2.65-10.49-5.42-14.08-2.4-3.11-5.23-4.84-7.85-4.84Z"/>
              </g>
              <g>
                <path class="cls-39" d="m374.54,199.22h0c3.17-.4,5.42-3.29,5.03-6.47l-7.92-63.17-11.49,1.44,7.92,63.17c.4,3.17,3.29,5.42,6.47,5.03Z"/>
                <path class="cls-27" d="m373.8,200.52c-1.56,0-3.06-.51-4.32-1.48-1.49-1.16-2.44-2.82-2.67-4.69l-8.08-64.43,14-1.75,8.08,64.43c.23,1.87-.27,3.72-1.43,5.21-1.16,1.49-2.82,2.44-4.69,2.67-.3.04-.6.06-.89.06Zm-12.24-68.41l7.76,61.92c.15,1.2.76,2.27,1.71,3.01.95.74,2.14,1.06,3.34.92h0c1.2-.15,2.27-.76,3.01-1.71.74-.95,1.07-2.14.92-3.34l-7.76-61.92-8.99,1.13Z"/>
              </g>
            </g>
            <g>
              <g>
                <path class="cls-10" d="m98.01,452.88s-22.4-32.42,0-52c20.45-17.87,48.28-7.36,61.89,28.72,13.61,36.08-61.89,23.28-61.89,23.28Z"/>
                <path class="cls-27" d="m125.16,456.37c-13.8,0-26.35-2.07-27.36-2.25l-.53-.09-.3-.44c-.23-.33-22.78-33.58.21-53.67,8.78-7.67,19.27-10.48,29.53-7.9,14.3,3.59,26.82,17.12,34.37,37.12,2.71,7.19,2.22,13.11-1.47,17.59-6.3,7.65-20.98,9.63-34.45,9.63Zm-26.4-4.65c5.29.82,47.75,6.95,58.9-6.59,3.07-3.73,3.43-8.81,1.05-15.09-7.25-19.22-19.14-32.18-32.62-35.56-9.44-2.37-19.12.24-27.26,7.35-19.91,17.39-2.59,45.99-.08,49.89Z"/>
              </g>
              <g>
                <g>
                  <path class="cls-10" d="m125.85,507s-27.45-6.9-34.03-55.28c-2.51-34.15,24.36-48.29,49-47.32,24.64.97,37.21,21.72,43.12,41.83,5.91,20.11,24.52,29.89,5.83,41.15-10.16,6.12-24.56-9.42-27.91-22.5l-6.15,18.21s-18.07-3.91-17.87,3.34c.39,14.35-9.93,25.86-11.98,20.58Z"/>
                  <path class="cls-27" d="m127.5,509.57c-1.07,0-1.97-.54-2.54-1.51-4.18-1.32-28.22-10.81-34.39-56.17-1.04-14.09,2.82-26.05,11.15-34.67,9.25-9.57,23.51-14.71,39.15-14.09,26.52,1.04,38.72,23.82,44.28,42.74,1.91,6.52,5.21,11.95,8.12,16.74,3.68,6.07,6.86,11.31,5.6,16.45-.84,3.4-3.6,6.48-8.45,9.4-3.18,1.91-6.96,2.06-10.94.43-7.02-2.88-14.25-11.23-17.65-19.99l-5.29,15.65-1.1-.24c-3.35-.72-12.68-2.07-15.58.35-.54.45-.78.99-.76,1.72.32,11.87-6.39,22.2-10.9,23.11-.24.05-.47.07-.69.07Zm10.85-103.96c-13.96,0-26.54,4.8-34.82,13.36-7.93,8.2-11.44,19.19-10.45,32.65,6.37,46.77,32.82,54.08,33.08,54.15l.63.16.24.61c.22.57.42.53.67.48,2.71-.54,9.18-9.33,8.87-20.56-.04-1.5.54-2.8,1.67-3.74,3.77-3.13,13.23-1.72,16.62-1.09l7.16-21.19,1.06,4.13c2.34,9.16,10.13,19.02,17.35,21.99,3.26,1.34,6.18,1.25,8.67-.25,4.24-2.56,6.63-5.12,7.3-7.84,1.01-4.12-1.78-8.72-5.31-14.54-2.99-4.92-6.38-10.51-8.38-17.34-5.33-18.13-16.93-39.94-41.95-40.93-.81-.03-1.62-.05-2.42-.05Z"/>
                </g>
                <g>
                  <path class="cls-10" d="m120.96,481.47c-3.37,34.83,22.48,35.52,22.48,35.52,9.3-5.25,9.76-34.7,6.96-44.03"/>
                  <path class="cls-27" d="m143.76,518.26h-.35c-.4-.02-9.82-.36-16.82-8.27-5.78-6.54-8.09-16.17-6.89-28.65.07-.69.68-1.19,1.38-1.13.69.07,1.2.68,1.13,1.38-1.13,11.73.97,20.71,6.24,26.7,5.53,6.28,12.98,7.27,14.67,7.42,8.11-5.27,8.75-33.42,6.06-42.38-.2-.67.18-1.37.85-1.57.67-.2,1.37.18,1.57.85,2.98,9.94,2.54,39.8-7.55,45.5l-.3.17Z"/>
                </g>
                <g>
                  <path class="cls-10" d="m164.06,447.1s5.82,32.09,10.1,54.41c4.23,22.09,3.73,33.67-8.52,36.11-12.96,2.58-21.22-16.61-22.08-36.12-.86-19.51-.1-33.43-.1-33.43"/>
                  <path class="cls-27" d="m163.29,539.12c-2.89,0-5.62-1-8.16-2.99-7.12-5.58-12.16-19.15-12.84-34.57-.85-19.35-.11-33.41-.1-33.55.04-.7.62-1.26,1.33-1.19.7.04,1.23.63,1.19,1.33,0,.14-.74,14.09.1,33.3.65,14.71,5.31,27.54,11.87,32.69,2.68,2.1,5.61,2.86,8.7,2.24,10.2-2.03,12.1-10.77,7.52-34.64-4.23-22.07-10.04-54.1-10.1-54.42-.12-.69.33-1.34,1.02-1.47.7-.12,1.34.33,1.47,1.02.06.32,5.87,32.33,10.1,54.4,4.17,21.77,3.95,34.91-9.51,37.59-.88.18-1.74.26-2.59.26Z"/>
                </g>
              </g>
            </g>
            <g>
              <path class="cls-7" d="m112.92,123.96v7.65c0,3.19,2.96,5.77,6.6,5.77h16.58c3.65,0,6.6-2.58,6.6-5.77v-7.65c0-49.25,46.17-89.1,102.77-88.28,55.41.8,99.35,41.31,99.35,89.74v1.8c0,3.51,3.25,6.35,7.27,6.35h15.25c4.01,0,7.27-2.84,7.27-6.35v-1.55c0-62.83-57.2-115.2-129.1-116.02-73.06-.83-132.59,50.68-132.59,114.31Z"/>
              <path class="cls-27" d="m136.1,138.64h-16.58c-4.34,0-7.87-3.15-7.87-7.03v-7.65c0-28.24,11.77-55.43,33.14-76.56,25.52-25.23,62.24-39.39,100.72-39.01,71.87.81,130.35,53.42,130.35,117.28v1.55c0,4.2-3.83,7.61-8.53,7.61h-15.25c-4.7,0-8.53-3.41-8.53-7.61v-1.8c0-48.01-44.01-87.69-98.1-88.47-.55,0-1.11-.01-1.66-.01-28.62,0-55.8,10.66-74.8,29.39-16.14,15.91-25.03,36.38-25.03,57.64v7.65c0,3.88-3.53,7.03-7.87,7.03ZM243.8,10.9c-37.21,0-72.56,13.9-97.23,38.29-20.89,20.65-32.39,47.2-32.39,74.76v7.65c0,2.48,2.4,4.51,5.34,4.51h16.58c2.94,0,5.34-2.02,5.34-4.51v-7.65c0-21.94,9.16-43.05,25.78-59.44,19.85-19.56,48.35-30.49,78.27-30.11,55.47.8,100.59,41.62,100.59,91v1.8c0,2.8,2.69,5.09,6,5.09h15.25c3.31,0,6-2.28,6-5.09v-1.55c0-62.48-57.35-113.96-127.85-114.75-.56,0-1.13,0-1.69,0Z"/>
            </g>
          </g>
        </g>
      </g>
    </g>
  </g>
</svg>