<?xml version="1.0" encoding="UTF-8"?>
<svg id="reset" xmlns="http://www.w3.org/2000/svg" viewBox="0 0 251.88 144.17">
  <defs>
    <style>
      .cls-1 {
        fill: none;
        stroke: #ffc7a9;
        stroke-miterlimit: 10;
        stroke-width: 1.23px;
      }

      .cls-2 {
        fill: #41217b;
      }

      .cls-2, .cls-3, .cls-4, .cls-5, .cls-6 {
        stroke-width: 0px;
      }

      .cls-3 {
        fill: #fff;
      }

      .cls-4 {
        fill: #4f1cb8;
      }

      .cls-5 {
        fill: #613acc;
      }

      .cls-6 {
        fill: #fffbff;
      }
    </style>
  </defs>
  <g id="bg">
    <path class="cls-3" d="m220.04,144.17H31.48c-17.36,0-31.48-14.12-31.48-31.48V32.24c0-1.56.12-3.14.36-4.7v-6.63C.36,9.38,9.74,0,21.26,0h209.71c11.53,0,20.9,9.38,20.9,20.9v88.32c0,1.29-.12,2.59-.36,3.86-.22,17.17-14.26,31.08-31.48,31.08ZM21.26,7.72c-7.27,0-13.19,5.91-13.19,13.19v7.24l-.05.31c-.2,1.26-.31,2.54-.31,3.79v80.45c0,13.1,10.66,23.76,23.76,23.76h188.56c13.1,0,23.76-10.65,23.76-23.75v-.4l.08-.39c.18-.88.28-1.78.28-2.68V20.9c0-7.27-5.91-13.19-13.19-13.19H21.26Z"/>
    <g>
      <rect class="cls-2" x="7.49" y="8.78" width="236.23" height="127.31" rx="21.07" ry="21.07"/>
      <g>
        <rect class="cls-4" x="7.82" y="8.08" width="236.23" height="114.85" rx="13" ry="13"/>
        <path class="cls-1" d="m244.06,106.93c0,8.8-7.2,15.99-15.99,15.99H23.81c-8.8,0-15.99-7.2-15.99-15.99"/>
        <path class="cls-5" d="m236.53,26.83v77.38c0,1.1-.17,2.15-.48,3.15-.69,2.2-2.07,4.11-3.9,5.45-1.77,1.3-3.94,2.07-6.29,2.07H27.1c-1.97,0-3.82-.54-5.41-1.48-1.98-1.17-3.56-2.97-4.45-5.12-.52-1.25-.81-2.63-.81-4.07V26.83c0-2.31.75-4.45,2.01-6.2,1.25-1.74,3-3.09,5.05-3.83,1.13-.41,2.35-.64,3.61-.64h198.76c1.45,0,2.83.29,4.09.83,1.95.81,3.61,2.19,4.77,3.93,1.14,1.69,1.8,3.73,1.8,5.91Z"/>
      </g>
    </g>
  </g>
  <g id="shadow">
    <g>
      <path class="cls-2" d="m74.31,89.79l-8.01-14.54h-2.25v14.54h-9.38v-38.51h15.75c3.04,0,5.62.53,7.76,1.59s3.74,2.51,4.8,4.36,1.59,3.9,1.59,6.17c0,2.56-.72,4.85-2.17,6.86-1.45,2.01-3.58,3.44-6.39,4.28l8.89,15.25h-10.59Zm-10.26-21.18h5.82c1.72,0,3.01-.42,3.87-1.26.86-.84,1.29-2.03,1.29-3.57s-.43-2.61-1.29-3.46c-.86-.84-2.15-1.26-3.87-1.26h-5.82v9.55Z"/>
      <path class="cls-2" d="m99.82,58.79v7.79h12.56v7.24h-12.56v8.45h14.21v7.52h-23.59v-38.51h23.59v7.52h-14.21Z"/>
      <path class="cls-2" d="m126.49,88.8c-2.23-.91-4.01-2.27-5.35-4.06s-2.04-3.95-2.11-6.47h9.98c.15,1.43.64,2.52,1.48,3.26.84.75,1.94,1.12,3.29,1.12s2.49-.32,3.29-.96,1.21-1.53,1.21-2.66c0-.95-.32-1.74-.96-2.36-.64-.62-1.43-1.13-2.36-1.54-.93-.4-2.26-.86-3.98-1.37-2.49-.77-4.52-1.54-6.09-2.3-1.57-.77-2.93-1.9-4.06-3.4-1.13-1.5-1.7-3.46-1.7-5.87,0-3.58,1.3-6.39,3.9-8.42,2.6-2.03,5.98-3.04,10.15-3.04s7.66,1.01,10.26,3.04c2.6,2.03,3.99,4.85,4.17,8.48h-10.15c-.07-1.24-.53-2.22-1.37-2.93-.84-.71-1.92-1.07-3.24-1.07-1.13,0-2.05.3-2.74.91-.7.6-1.04,1.47-1.04,2.61,0,1.24.58,2.21,1.76,2.91,1.17.7,3,1.45,5.49,2.25,2.49.84,4.51,1.65,6.06,2.41,1.55.77,2.9,1.88,4.03,3.35,1.13,1.46,1.7,3.35,1.7,5.65s-.56,4.19-1.67,5.98c-1.12,1.79-2.73,3.22-4.86,4.28-2.12,1.06-4.63,1.59-7.52,1.59s-5.34-.46-7.57-1.37Z"/>
      <path class="cls-2" d="m163.24,58.79v7.79h12.56v7.24h-12.56v8.45h14.21v7.52h-23.59v-38.51h23.59v7.52h-14.21Z"/>
      <path class="cls-2" d="m211.25,51.28v7.52h-10.2v31h-9.38v-31h-10.21v-7.52h29.79Z"/>
    </g>
    <polygon class="cls-2" points="54.67 89.79 49.67 84.79 53.8 81.07 59.05 87.03 54.67 89.79"/>
    <polygon class="cls-2" points="74.31 89.79 69.31 84.79 71.81 81.07 77.12 86.86 74.31 89.79"/>
    <polygon class="cls-2" points="82.98 57.23 75.77 49.57 75.03 54.07 81.03 60.65 82.98 57.23"/>
    <polygon class="cls-2" points="90.44 89.79 85.44 84.79 88.52 81.07 95.16 86.86 90.44 89.79"/>
    <polygon class="cls-2" points="109.03 77.27 114.03 82.27 110.31 87.03 105.71 82.15 109.03 77.27"/>
    <polygon class="cls-2" points="107.39 68.82 112.39 72.44 112.39 66.58 107.39 61.58 105.71 67.01 107.39 68.82"/>
    <polygon class="cls-2" points="109.03 53.79 109.03 46.28 114.03 51.28 114.13 57.19 109.03 53.79"/>
    <polygon class="cls-2" points="153.86 89.79 148.86 84.79 151.94 81.07 158.58 86.86 153.86 89.79"/>
    <polygon class="cls-2" points="172.45 77.27 177.45 82.27 173.73 87.03 169.13 82.15 172.45 77.27"/>
    <polygon class="cls-2" points="170.81 68.82 175.81 72.44 175.81 66.58 170.81 61.58 169.13 67.01 170.81 68.82"/>
    <polygon class="cls-2" points="172.45 53.79 172.45 46.28 177.45 51.28 177.55 57.19 172.45 53.79"/>
    <polygon class="cls-2" points="191.66 89.79 186.66 84.79 191.66 82.15 195.58 87.71 191.66 89.79"/>
    <polygon class="cls-2" points="181.46 58.79 176.46 53.79 180.78 49.57 184.86 52.82 181.46 58.79"/>
    <polygon class="cls-2" points="211.25 58.79 206.25 53.79 206.25 46.28 211.25 51.28 211.25 58.79"/>
  </g>
  <g id="reset-2" data-name="reset">
    <path class="cls-6" d="m69.31,84.79l-8.01-14.54h-2.25v14.54h-9.38v-38.51h15.75c3.04,0,5.62.53,7.76,1.59s3.74,2.51,4.8,4.36,1.59,3.9,1.59,6.17c0,2.56-.72,4.85-2.17,6.86-1.45,2.01-3.58,3.44-6.39,4.28l8.89,15.25h-10.59Zm-10.26-21.18h5.82c1.72,0,3.01-.42,3.87-1.26.86-.84,1.29-2.03,1.29-3.57s-.43-2.61-1.29-3.46c-.86-.84-2.15-1.26-3.87-1.26h-5.82v9.55Z"/>
    <path class="cls-6" d="m94.82,53.79v7.79h12.56v7.24h-12.56v8.45h14.21v7.52h-23.59v-38.51h23.59v7.52h-14.21Z"/>
    <path class="cls-6" d="m121.49,83.8c-2.23-.91-4.01-2.27-5.35-4.06s-2.04-3.95-2.11-6.47h9.98c.15,1.43.64,2.52,1.48,3.26.84.75,1.94,1.12,3.29,1.12s2.49-.32,3.29-.96,1.21-1.53,1.21-2.66c0-.95-.32-1.74-.96-2.36-.64-.62-1.43-1.13-2.36-1.54-.93-.4-2.26-.86-3.98-1.37-2.49-.77-4.52-1.54-6.09-2.3-1.57-.77-2.93-1.9-4.06-3.4-1.13-1.5-1.7-3.46-1.7-5.87,0-3.58,1.3-6.39,3.9-8.42,2.6-2.03,5.98-3.04,10.15-3.04s7.66,1.01,10.26,3.04c2.6,2.03,3.99,4.85,4.17,8.48h-10.15c-.07-1.24-.53-2.22-1.37-2.93-.84-.71-1.92-1.07-3.24-1.07-1.13,0-2.05.3-2.74.91-.7.6-1.04,1.47-1.04,2.61,0,1.24.58,2.21,1.76,2.91,1.17.7,3,1.45,5.49,2.25,2.49.84,4.51,1.65,6.06,2.41,1.55.77,2.9,1.88,4.03,3.35,1.13,1.46,1.7,3.35,1.7,5.65s-.56,4.19-1.67,5.98c-1.12,1.79-2.73,3.22-4.86,4.28-2.12,1.06-4.63,1.59-7.52,1.59s-5.34-.46-7.57-1.37Z"/>
    <path class="cls-6" d="m158.24,53.79v7.79h12.56v7.24h-12.56v8.45h14.21v7.52h-23.59v-38.51h23.59v7.52h-14.21Z"/>
    <path class="cls-6" d="m206.25,46.28v7.52h-10.2v31h-9.38v-31h-10.21v-7.52h29.79Z"/>
  </g>
</svg>