<?xml version="1.0" encoding="UTF-8"?>
<svg id="Layer_2" data-name="Layer 2" xmlns="http://www.w3.org/2000/svg" viewBox="0 0 130.57 144.25">
  <defs>
    <style>
      .cls-1 {
        fill: #41217b;
      }

      .cls-1, .cls-2, .cls-3, .cls-4, .cls-5, .cls-6 {
        stroke-width: 0px;
      }

      .cls-2 {
        fill: #b0c43e;
      }

      .cls-3 {
        fill: #fff;
      }

      .cls-4 {
        fill: #4f1cb8;
      }

      .cls-5 {
        fill: #80291c;
      }

      .cls-7 {
        fill: none;
        stroke: #ffcaa9;
        stroke-miterlimit: 10;
        stroke-width: 1.23px;
      }

      .cls-6 {
        fill: #613acc;
      }
    </style>
  </defs>
  <g id="Output_copy" data-name="Output copy">
    <g>
      <path class="cls-3" d="m98.71,144.25H31.5c-17.37,0-31.5-14.13-31.5-31.5V32.25c0-1.56.12-3.14.36-4.71v-6.63C.36,9.38,9.74,0,21.27,0h88.37c11.53,0,20.92,9.38,20.92,20.92v88.37c0,1.29-.12,2.59-.36,3.86-.22,17.18-14.27,31.09-31.5,31.09ZM21.27,7.72c-7.27,0-13.19,5.92-13.19,13.19v7.24l-.05.31c-.2,1.26-.31,2.54-.31,3.79v80.5c0,13.11,10.67,23.77,23.77,23.77h67.21c13.1,0,23.77-10.66,23.77-23.76v-.4l.08-.39c.18-.88.28-1.78.28-2.68V20.92c0-7.27-5.92-13.19-13.19-13.19H21.27Z"/>
      <g>
        <rect class="cls-1" x="7.82" y="8.83" width="114.85" height="127.31" rx="21.07" ry="21.07"/>
        <g>
          <rect class="cls-4" x="8.15" y="8.12" width="114.85" height="114.85" rx="13" ry="13"/>
          <path class="cls-7" d="m123,106.97c0,8.8-7.2,15.99-15.99,15.99H24.15c-8.8,0-15.99-7.2-15.99-15.99"/>
          <path class="cls-6" d="m109.57,31.5v68.11c0,.97-.15,1.9-.42,2.78-.61,1.94-1.83,3.62-3.43,4.8-1.56,1.14-3.47,1.82-5.54,1.82H32.07c-1.73,0-3.36-.47-4.76-1.31-1.75-1.03-3.13-2.62-3.91-4.51-.46-1.1-.72-2.31-.72-3.58V31.5c0-2.03.66-3.92,1.77-5.46,1.1-1.53,2.64-2.72,4.44-3.37.99-.36,2.06-.56,3.18-.56h68.11c1.28,0,2.5.26,3.6.73,1.72.72,3.18,1.93,4.2,3.46,1,1.49,1.59,3.28,1.59,5.2Z"/>
        </g>
      </g>
      <path class="cls-5" d="m63.82,67.42c-3.72,0-7.01-2.94-7.68-7.11-2.26-14.07.79-42.7,28.49-50.33,4.18-1.16,8.42,1.65,9.46,6.27,1.05,4.61-1.5,9.29-5.68,10.44-20.65,5.7-17.06,29.61-16.9,30.63.75,4.68-2.08,9.15-6.33,9.98-.46.09-.92.13-1.37.13Z"/>
      <g>
        <ellipse class="cls-2" cx="70.71" cy="62.01" rx="25.29" ry="9.6" transform="translate(-22.43 75.07) rotate(-49.23)"/>
        <ellipse class="cls-2" cx="74.27" cy="76.56" rx="20.89" ry="9.8" transform="translate(-20.17 26.97) rotate(-18.17)"/>
        <ellipse class="cls-2" cx="55.8" cy="60.63" rx="20.89" ry="9.8" transform="translate(-13.37 105.41) rotate(-80.3)"/>
      </g>
    </g>
  </g>
</svg>