<?xml version="1.0" encoding="UTF-8"?>
<svg id="Layer_2" data-name="Layer 2" xmlns="http://www.w3.org/2000/svg" viewBox="0 0 128.86 142.37">
  <defs>
    <style>
      .cls-1 {
        fill: none;
        stroke: #ffc7a9;
        stroke-miterlimit: 10;
        stroke-width: 1.23px;
      }

      .cls-2 {
        fill: #b0c43e;
      }

      .cls-2, .cls-3, .cls-4, .cls-5, .cls-6 {
        stroke-width: 0px;
      }

      .cls-3 {
        fill: #f1ad00;
      }

      .cls-4 {
        fill: #fff;
      }

      .cls-5 {
        fill: #f9eeb0;
      }

      .cls-6 {
        fill: #5b7c2b;
      }
    </style>
  </defs>
  <g id="Output_copy" data-name="Output copy">
    <g>
      <path class="cls-4" d="m97.42,142.37H31.09c-17.14,0-31.09-13.95-31.09-31.09V31.83c0-1.54.12-3.1.35-4.65v-6.54C.35,9.26,9.61,0,21,0h87.22c11.38,0,20.64,9.26,20.64,20.64v87.22c0,1.28-.12,2.56-.36,3.81-.21,16.96-14.08,30.69-31.09,30.69ZM21,7.62c-7.18,0-13.02,5.84-13.02,13.02v7.15l-.05.3c-.2,1.25-.3,2.51-.3,3.74v79.45c0,12.94,10.53,23.47,23.47,23.47h66.34c12.93,0,23.46-10.52,23.47-23.45v-.39l.08-.38c.18-.87.27-1.76.27-2.65V20.64c0-7.18-5.84-13.02-13.02-13.02H21Z"/>
      <g>
        <rect class="cls-6" x="7.02" y="7.89" width="114.85" height="127.31" rx="21.07" ry="21.07"/>
        <g>
          <rect class="cls-2" x="7.02" y="7.89" width="114.85" height="114.85" rx="13" ry="13"/>
          <path class="cls-1" d="m121.87,106.74c0,8.8-7.2,15.99-15.99,15.99H23.01c-8.8,0-15.99-7.2-15.99-15.99"/>
          <path class="cls-5" d="m111.78,28.65v73.35c0,1.04-.16,2.04-.45,2.99-.65,2.09-1.97,3.9-3.7,5.16-1.67,1.23-3.74,1.96-5.96,1.96H28.31c-1.87,0-3.62-.51-5.13-1.41-1.88-1.11-3.37-2.82-4.21-4.85-.5-1.19-.77-2.49-.77-3.85V28.65c0-2.19.71-4.22,1.9-5.88,1.18-1.65,2.85-2.93,4.78-3.63,1.07-.39,2.22-.6,3.42-.6h73.35c1.38,0,2.69.28,3.88.78,1.85.77,3.42,2.08,4.52,3.73,1.08,1.61,1.71,3.53,1.71,5.6Z"/>
        </g>
      </g>
      <g>
        <path class="cls-3" d="m59.97,32.18v64.84c0,4.44-4.31,7.57-8.55,6.27-14.56-4.47-25.3-20.1-25.3-38.69s10.74-34.22,25.3-38.69c4.24-1.3,8.55,1.83,8.55,6.27Z"/>
        <path class="cls-3" d="m103.19,64.61c0,18.59-10.75,34.21-25.3,38.68-4.24,1.3-8.55-1.83-8.55-6.27V32.18c0-4.44,4.31-7.57,8.55-6.27,14.55,4.48,25.3,20.11,25.3,38.69Z"/>
        <g>
          <ellipse class="cls-5" cx="40.8" cy="65.74" rx="3.1" ry="2.1"/>
          <ellipse class="cls-5" cx="41.93" cy="52.11" rx="2.1" ry="3.1" transform="translate(-21.51 73.3) rotate(-69.65)"/>
          <ellipse class="cls-5" cx="48.04" cy="40.9" rx="2.1" ry="3.1" transform="translate(-14.84 46.09) rotate(-45.13)"/>
          <ellipse class="cls-5" cx="41.93" cy="77.26" rx="3.1" ry="2.1" transform="translate(-24.25 19.41) rotate(-20.35)"/>
          <ellipse class="cls-5" cx="48.04" cy="88.47" rx="3.1" ry="2.1" transform="translate(-48.42 59.67) rotate(-44.87)"/>
        </g>
        <g>
          <ellipse class="cls-5" cx="87.26" cy="65.74" rx="3.1" ry="2.1"/>
          <ellipse class="cls-5" cx="86.13" cy="52.11" rx="3.1" ry="2.1" transform="translate(-12.75 33.21) rotate(-20.35)"/>
          <ellipse class="cls-5" cx="80.02" cy="40.9" rx="3.1" ry="2.1" transform="translate(-5.54 68.37) rotate(-44.87)"/>
          <ellipse class="cls-5" cx="86.13" cy="77.26" rx="2.1" ry="3.1" transform="translate(-16.26 131.14) rotate(-69.65)"/>
          <ellipse class="cls-5" cx="80.02" cy="88.47" rx="2.1" ry="3.1" transform="translate(-39.13 82.76) rotate(-45.13)"/>
        </g>
      </g>
    </g>
  </g>
</svg>