<?xml version="1.0" encoding="UTF-8"?>
<svg id="Layer_2" data-name="Layer 2" xmlns="http://www.w3.org/2000/svg" viewBox="0 0 127.54 140.9">
  <defs>
    <style>
      .cls-1 {
        fill: none;
        stroke: #ffc7a9;
        stroke-miterlimit: 10;
        stroke-width: 1.23px;
      }

      .cls-2 {
        fill: #f1ad00;
      }

      .cls-2, .cls-3, .cls-4, .cls-5, .cls-6 {
        stroke-width: 0px;
      }

      .cls-3 {
        fill: #df5f00;
      }

      .cls-4 {
        fill: #fff;
      }

      .cls-5 {
        fill: #e39a00;
      }

      .cls-6 {
        fill: #f9eeb0;
      }
    </style>
  </defs>
  <g id="Output_copy" data-name="Output copy">
    <g>
      <path class="cls-4" d="m96.42,140.9H30.77c-16.97,0-30.77-13.8-30.77-30.77V31.51c0-1.52.12-3.07.35-4.6v-6.48C.35,9.17,9.52,0,20.78,0h86.33c11.27,0,20.43,9.17,20.43,20.43v86.33c0,1.26-.12,2.53-.35,3.77-.21,16.78-13.93,30.37-30.77,30.37ZM20.78,7.54c-7.11,0-12.89,5.78-12.89,12.89v7.07l-.05.3c-.2,1.24-.3,2.48-.3,3.7v78.63c0,12.81,10.42,23.22,23.22,23.22h65.65c12.8,0,23.22-10.41,23.22-23.21v-.39l.08-.38c.18-.86.27-1.74.27-2.62V20.43c0-7.11-5.78-12.89-12.89-12.89H20.78Z"/>
      <g>
        <rect class="cls-3" x="5.34" y="7.15" width="114.85" height="127.31" rx="21.07" ry="21.07"/>
        <g>
          <rect class="cls-5" x="5.67" y="6.44" width="114.85" height="114.85" rx="13" ry="13"/>
          <path class="cls-1" d="m120.52,105.3c0,8.8-7.2,15.99-15.99,15.99H21.67c-8.8,0-15.99-7.2-15.99-15.99"/>
          <path class="cls-6" d="m113,25.2v77.38c0,1.1-.17,2.15-.48,3.15-.69,2.2-2.07,4.11-3.9,5.45-1.77,1.3-3.94,2.07-6.29,2.07H24.96c-1.97,0-3.82-.54-5.41-1.48-1.98-1.17-3.56-2.97-4.45-5.12-.52-1.25-.81-2.63-.81-4.07V25.2c0-2.31.75-4.45,2.01-6.2,1.25-1.74,3-3.09,5.05-3.83,1.13-.41,2.35-.64,3.61-.64h77.38c1.45,0,2.83.29,4.09.83,1.95.81,3.61,2.19,4.77,3.93,1.14,1.69,1.8,3.73,1.8,5.91Z"/>
        </g>
      </g>
      <g>
        <path class="cls-2" d="m62.76,64.07h0c-.38,0-.69-.31-.69-.69l-8.51-30.86c-1.64-5.94,2.54-12.05,8.69-12.36.17,0,.34-.01.51-.01h0c.17,0,.34,0,.51.01,6.15.31,10.33,6.43,8.69,12.36l-8.51,30.86c0,.38-.31.69-.69.69Z"/>
        <path class="cls-2" d="m62.76,64.07h0c-.27-.27-.23-.75.09-1.07l19.9-31.93c3.83-6.14,11.92-8.32,16.53-4.24.13.11.25.23.37.35h0c.12.12.24.24.35.37,4.09,4.61,1.9,12.7-4.24,16.53l-31.93,19.9c-.32.32-.8.36-1.07.09Z"/>
        <path class="cls-2" d="m62.76,64.07h0c0-.38.31-.69.69-.69l30.86-8.51c5.94-1.64,12.05,2.54,12.36,8.69,0,.17.01.34.01.51h0c0,.17,0,.34-.01.51-.31,6.15-6.43,10.33-12.36,8.69l-30.86-8.51c-.38,0-.69-.31-.69-.69Z"/>
        <path class="cls-2" d="m62.76,64.07h0c.27-.27.74-.23,1.05.08l31.28,19.25c6.02,3.7,8.07,11.66,3.98,16.27-.11.13-.23.25-.35.37h0c-.12.12-.24.24-.37.35-4.61,4.09-12.56,2.04-16.27-3.98l-19.25-31.28c-.31-.31-.35-.78-.08-1.05Z"/>
        <path class="cls-2" d="m62.4,64.07h0c.27-.27.23-.75-.09-1.07l-19.9-31.93c-3.83-6.14-11.92-8.32-16.53-4.24-.13.11-.25.23-.37.35h0c-.12.12-.24.24-.35.37-4.09,4.61-1.9,12.7,4.24,16.53l31.93,19.9c.32.32.8.36,1.07.09Z"/>
        <path class="cls-2" d="m62.4,64.07h0c-.27-.27-.74-.23-1.05.08l-31.28,19.25c-6.02,3.7-8.07,11.66-3.98,16.27.11.13.23.25.35.37h0c.12.12.24.24.37.35,4.61,4.09,12.56,2.04,16.27-3.98l19.25-31.28c.31-.31.35-.78.08-1.05Z"/>
        <path class="cls-2" d="m62.76,64.07h0c.38,0,.69.31.69.69l8.51,30.86c1.64,5.94-2.54,12.05-8.69,12.36-.17,0-.34.01-.51.01h0c-.17,0-.34,0-.51-.01-6.15-.31-10.33-6.43-8.69-12.36l8.51-30.86c0-.38.31-.69.69-.69Z"/>
        <path class="cls-2" d="m62.76,64.07h0c0,.38-.31.69-.69.69l-30.86,8.51c-5.94,1.64-12.05-2.54-12.36-8.69,0-.17-.01-.34-.01-.51h0c0-.17,0-.34.01-.51.31-6.15,6.43-10.33,12.36-8.69l30.86,8.51c.38,0,.69.31.69.69Z"/>
      </g>
    </g>
  </g>
</svg>