<?xml version="1.0" encoding="UTF-8"?>
<svg id="Layer_2" data-name="Layer 2" xmlns="http://www.w3.org/2000/svg" viewBox="0 0 129.68 143.27">
  <defs>
    <style>
      .cls-1 {
        fill: none;
        stroke: #ffc7a9;
        stroke-miterlimit: 10;
        stroke-width: 1.23px;
      }

      .cls-2 {
        fill: #ffb583;
      }

      .cls-2, .cls-3, .cls-4, .cls-5, .cls-6, .cls-7 {
        stroke-width: 0px;
      }

      .cls-3 {
        fill: #df5f00;
      }

      .cls-4 {
        fill: #fff;
      }

      .cls-5 {
        fill: #f26200;
      }

      .cls-6 {
        fill: #80291c;
      }

      .cls-7 {
        fill: #e39a00;
      }
    </style>
  </defs>
  <g id="Output_copy" data-name="Output copy">
    <g>
      <path class="cls-4" d="m98.04,143.27H31.28c-17.25,0-31.28-14.03-31.28-31.28V32.04c0-1.55.12-3.12.36-4.68v-6.59C.36,9.32,9.68,0,21.13,0h87.77c11.45,0,20.77,9.32,20.77,20.77v87.78c0,1.29-.12,2.57-.36,3.84-.22,17.06-14.17,30.88-31.28,30.88ZM21.13,7.67c-7.23,0-13.1,5.88-13.1,13.1v7.19l-.05.3c-.2,1.26-.31,2.52-.31,3.76v79.95c0,13.02,10.59,23.61,23.61,23.61h66.75c13.01,0,23.61-10.59,23.61-23.6v-.4l.08-.39c.18-.87.27-1.77.27-2.66V20.77c0-7.23-5.88-13.1-13.1-13.1H21.13Z"/>
      <g>
        <rect class="cls-3" x="6.41" y="8.34" width="114.85" height="127.31" rx="21.07" ry="21.07"/>
        <g>
          <rect class="cls-7" x="6.74" y="7.63" width="114.85" height="114.85" rx="13" ry="13"/>
          <path class="cls-1" d="m121.59,106.48c0,8.8-7.2,15.99-15.99,15.99H22.74c-8.8,0-15.99-7.2-15.99-15.99"/>
          <path class="cls-2" d="m114.07,26.38v77.38c0,1.1-.17,2.15-.48,3.15-.69,2.2-2.07,4.11-3.9,5.45-1.77,1.3-3.94,2.07-6.29,2.07H26.03c-1.97,0-3.82-.54-5.41-1.48-1.98-1.17-3.56-2.97-4.45-5.12-.52-1.25-.81-2.63-.81-4.07V26.38c0-2.31.75-4.45,2.01-6.2,1.25-1.74,3-3.09,5.05-3.83,1.13-.41,2.35-.64,3.61-.64h77.38c1.45,0,2.83.29,4.09.83,1.95.81,3.61,2.19,4.77,3.93,1.14,1.69,1.8,3.73,1.8,5.91Z"/>
        </g>
      </g>
      <path class="cls-5" d="m66.58,28.71l4.76,13.39c.58,1.63,2.44,2.4,4,1.66l12.83-6.1c2.48-1.18,5.06,1.41,3.88,3.88l-6.1,12.83c-.74,1.56.03,3.42,1.66,4l13.39,4.76c2.58.92,2.58,4.57,0,5.49l-13.39,4.76c-1.63.58-2.4,2.44-1.66,4l6.1,12.83c1.18,2.48-1.41,5.06-3.88,3.88l-12.83-6.1c-1.56-.74-3.42.03-4,1.66l-4.76,13.39c-.92,2.58-4.57,2.58-5.49,0l-4.76-13.39c-.58-1.63-2.44-2.4-4-1.66l-12.83,6.1c-2.48,1.18-5.06-1.41-3.88-3.88l6.1-12.83c.74-1.56-.03-3.42-1.66-4l-13.39-4.76c-2.58-.92-2.58-4.57,0-5.49l13.39-4.76c1.63-.58,2.4-2.44,1.66-4l-6.1-12.83c-1.18-2.48,1.41-5.06,3.88-3.88l12.83,6.1c1.56.74,3.42-.03,4-1.66l4.76-13.39c.92-2.58,4.57-2.58,5.49,0Z"/>
      <path class="cls-6" d="m49.3,67.43c-.22-11.47,11.96-20.76,14.57-20.55,2.35.18,14.08,8.93,14.48,18.64.41,10.1-11.99,20.94-14.39,21.48-2.36.54-14.45-8.98-14.65-19.56Z"/>
    </g>
  </g>
</svg>