<?xml version="1.0" encoding="UTF-8"?>
<svg id="Layer_2" data-name="Layer 2" xmlns="http://www.w3.org/2000/svg" viewBox="0 0 130.49 144.17">
  <defs>
    <style>
      .cls-1 {
        fill: #fff;
      }

      .cls-1, .cls-2, .cls-3, .cls-4, .cls-5 {
        stroke-width: 0px;
      }

      .cls-2 {
        fill: #ee4c1b;
      }

      .cls-3 {
        fill: #f4866c;
      }

      .cls-4 {
        fill: #80291c;
      }

      .cls-6 {
        fill: none;
        stroke: #ffcaa9;
        stroke-miterlimit: 10;
        stroke-width: 1.23px;
      }

      .cls-5 {
        fill: #b02214;
      }
    </style>
  </defs>
  <g id="Output_copy" data-name="Output copy">
    <g>
      <path class="cls-1" d="m98.65,144.17H31.48c-17.36,0-31.48-14.12-31.48-31.48V32.24c0-1.56.12-3.14.36-4.7v-6.63C.36,9.38,9.74,0,21.26,0h88.32c11.53,0,20.9,9.38,20.9,20.9v88.32c0,1.29-.12,2.59-.36,3.86-.22,17.17-14.26,31.08-31.48,31.08ZM21.26,7.72c-7.27,0-13.19,5.91-13.19,13.19v7.24l-.05.31c-.2,1.26-.31,2.54-.31,3.79v80.45c0,13.1,10.66,23.76,23.76,23.76h67.17c13.1,0,23.76-10.65,23.76-23.75v-.4l.08-.39c.18-.88.28-1.78.28-2.68V20.9c0-7.27-5.91-13.19-13.19-13.19H21.26Z"/>
      <g>
        <rect class="cls-4" x="7.78" y="8.78" width="114.85" height="127.31" rx="21.07" ry="21.07"/>
        <g>
          <rect class="cls-5" x="8.12" y="8.08" width="114.85" height="114.85" rx="13" ry="13"/>
          <path class="cls-6" d="m122.97,106.93c0,8.8-7.2,15.99-15.99,15.99H24.11c-8.8,0-15.99-7.2-15.99-15.99"/>
          <path class="cls-2" d="m115.44,26.83v77.38c0,1.1-.17,2.15-.48,3.15-.69,2.2-2.07,4.11-3.9,5.45-1.77,1.3-3.94,2.07-6.29,2.07H27.4c-1.97,0-3.82-.54-5.41-1.48-1.98-1.17-3.56-2.97-4.45-5.12-.52-1.25-.81-2.63-.81-4.07V26.83c0-2.31.75-4.45,2.01-6.2,1.25-1.74,3-3.09,5.05-3.83,1.13-.41,2.35-.64,3.61-.64h77.38c1.45,0,2.83.29,4.09.83,1.95.81,3.61,2.19,4.77,3.93,1.14,1.69,1.8,3.73,1.8,5.91Z"/>
        </g>
      </g>
      <path class="cls-5" d="m43.72,43.29c.47.04.93.12,1.32.23,1.5.4,2.87,1.17,4.32,1.73,2.11.81,4.58.9,6.58-.26,2.83-1.63,4.54-4.83,5.86-7.7,1.73-3.72,4.62-3.53,6.07.32,2.96,7.82,7.36,10.75,15.3,6.09,1.68-.99,4.58-1.36,6.06.4,1.4,1.66-.56,3.51-1.31,5.17-3.26,7.3-2.66,8.52,4.98,11.47,2.05.79,5.49.5,5.59,3.47.09,2.87-3.21,3.13-5.28,4.04-8.19,3.6-8.54,4.41-4.93,12.72.63,1.45,2.24,3.07.93,4.56-1.5,1.69-3.5.48-5.32-.05q-10.79-3.18-15.87,6.33c-.67,1.25-1.16,2.77-2.85,2.89-1.97.14-2.74-1.26-3.61-2.84-5.39-9.74-5.44-9.71-16.02-6.64-1.54.45-3.16,1.83-4.66.39-1.69-1.62-.89-3.61.08-5.26,3.67-6.28,2.32-10.18-5.02-12.02-2.05-.51-5.34-.93-5.34-3.86,0-2.71,3.17-2.4,5.01-3.21,8.05-3.54,8.31-4.05,5.11-12.73-.48-1.29-1.16-3.1-.15-4.32.71-.86,1.99-1.03,3.17-.93Zm11.41,22.44c.14,6.99,4.87,13.27,9.73,12.92,4.95-.36,9.72-7.52,9.44-14.18-.26-6.41-4.77-12.19-9.62-12.31-5.39-.13-9.71,6-9.56,13.57Z"/>
      <path class="cls-3" d="m55.12,65.73c-.15-7.57,4.17-13.7,9.56-13.57,4.84.12,9.36,5.89,9.62,12.31.27,6.67-4.5,13.82-9.44,14.18-4.86.35-9.6-5.93-9.73-12.92Z"/>
    </g>
  </g>
</svg>