<?xml version="1.0" encoding="utf-8"?>
<!-- Generator: Adobe Illustrator 28.3.0, SVG Export Plug-In . SVG Version: 6.00 Build 0)  -->
<svg version="1.1" id="speaker-can" xmlns="http://www.w3.org/2000/svg" xmlns:xlink="http://www.w3.org/1999/xlink" x="0px"
	 y="0px" width="789.4px" height="1022.5px" viewBox="0 0 789.4 1022.5" style="enable-background:new 0 0 789.4 1022.5;"
	 xml:space="preserve">
<style type="text/css">
	.st0{fill:none;stroke:#FFFFFF;stroke-width:4;stroke-miterlimit:10;}
	.st1{fill:#FFFFFF;}
	.st2{fill:#1E1B36;}
	.st3{fill:#2A2668;}
	.st4{fill:#3833A8;}
	.st5{fill:#4141D6;}
	.st6{fill:#6565EA;}
	.st7{fill:#CCCCCC;}
	.st8{fill:#B3B3B3;}
	.st9{fill:#09203F;}

	  	svg {
    cursor: pointer;
	  }

	svg {
	animation: beat-can 1s infinite alternate;
	transform-origin: center;
	}

	svg #can-body {
	filter: drop-shadow(0px 0px 10px #BDBDFF);
	}

	@keyframes beat-can {
    0% {transform: scale(1);}
    50% {transform: scale(1.05);}
	}

	svg #c-small {
	animation: beat 0.4s infinite alternate;
	transform-origin: center;
	}

	@keyframes beat {
    0% {transform: scale(1);}
    50% {transform: scale(1.2);}
	}

	svg #c-big {
	animation: beat 0.5s infinite alternate;
	transform-origin: center;
	
	}

	@keyframes beat {
    0% {transform: scale(1);}
    50% {transform: scale(1.1);}
	}

	svg #stroke3 {
	animation: beat-up 2s infinite;
	transform-origin: center;
	filter: drop-shadow(0px 0px 10px #fff);
	}

	@keyframes beat-up {
	from {
		transform:
			scale(1);
		opacity: 0.8;
	}
	to {
		transform:
			scale(1.5);
		opacity: 0;
	}
	}

	svg #stroke2 {
	animation: beat-up 1s infinite;
	transform-origin: center;
	filter: drop-shadow(0px 0px 10px #fff);
	}

	@keyframes beat-up {
	from {
		transform:
			scale(1);
		opacity: 0.8;
	}
	to {
		transform:
			scale(1.5);
		opacity: 0;
	}
	}

	svg #stroke1_00000179615142227232334190000017237937422339192740_ {
	animation: beat-up 3s infinite;
	transform-origin: center;
	filter: drop-shadow(0px 0px 10px #fff);
	}

	@keyframes beat-up {
	from {
		transform:
			scale(1);
		opacity: 0.8;
	}
	to {
		transform:
			scale(1.5);
		opacity: 0;
	}
	}




</style>
<path id="stroke3" class="st0" d="M532.6,356.2c-0.2-0.8-0.4-1.7-0.7-2.7c-0.3-1-0.5-2-0.9-3.1c-2.6-8.9-7.2-21.9-15.8-38.9
	l-0.1-0.4c0.3-0.7,0.5-1.3,0.7-2c1.1-1.8,1.9-3.7,2.4-5.7l3-10.8l0,0c0.4-1.7,0.7-3.5,0.7-5.2c0-27.9-56.9-50.5-127.1-50.5
	s-127.1,22.6-127.1,50.5c0,1.8,0.2,3.5,0.7,5.2l0,0l3,10.7c0.5,1.9,1.3,3.8,2.4,5.6c0.2,0.7,0.4,1.4,0.7,2.2l-0.1,0.4
	c-17,33.9-18.8,52.4-18.8,52.4s0,1.6,0,2.3l0,341c0,5.1,1.5,10,4.4,14.8c2.9,9.1,10.8,17.7,22.5,25.2
	c13.1,21.4,58.5,38.4,112.4,38.4c26.2,0,50.5-4,69.9-10.6c-0.2,0.1-0.4,0.2-0.6,0.3c20.9-7,36.3-17,43.1-28.1
	c11.7-7.5,19.6-16.2,22.5-25.3c0-0.1,0.1-0.2,0.1-0.2c0.2-0.4,0.4-0.7,0.6-1.1c0.1-0.1,0.1-0.2,0.2-0.3c0.2-0.4,0.4-0.8,0.6-1.1
	c0.1-0.1,0.1-0.2,0.1-0.3c0.2-0.4,0.4-0.8,0.5-1.2c0-0.1,0.1-0.2,0.1-0.3c0.2-0.4,0.3-0.8,0.5-1.2c0-0.1,0.1-0.2,0.1-0.3
	c0.1-0.4,0.3-0.8,0.4-1.2c0-0.1,0.1-0.2,0.1-0.3c0.1-0.4,0.2-0.8,0.3-1.2c0-0.1,0-0.2,0.1-0.3c0.1-0.4,0.2-0.8,0.2-1.2
	c0-0.1,0-0.2,0.1-0.4c0.1-0.4,0.1-0.8,0.2-1.1c0-0.2,0-0.3,0-0.5c0-0.4,0.1-0.7,0.1-1.1c0-0.3,0-0.6,0-0.9c0-0.2,0-0.4,0-0.6v0
	V366.1v0c0-0.7,0-2.3,0-2.3S533.8,361.2,532.6,356.2z"/>
<path id="stroke2" class="st0" d="M532.6,356.2c-0.2-0.8-0.4-1.7-0.7-2.7c-0.3-1-0.5-2-0.9-3.1c-2.6-8.9-7.2-21.9-15.8-38.9
	l-0.1-0.4c0.3-0.7,0.5-1.3,0.7-2c1.1-1.8,1.9-3.7,2.4-5.7l3-10.8l0,0c0.4-1.7,0.7-3.5,0.7-5.2c0-27.9-56.9-50.5-127.1-50.5
	s-127.1,22.6-127.1,50.5c0,1.8,0.2,3.5,0.7,5.2l0,0l3,10.7c0.5,1.9,1.3,3.8,2.4,5.6c0.2,0.7,0.4,1.4,0.7,2.2l-0.1,0.4
	c-17,33.9-18.8,52.4-18.8,52.4s0,1.6,0,2.3l0,341c0,5.1,1.5,10,4.4,14.8c2.9,9.1,10.8,17.7,22.5,25.2
	c13.1,21.4,58.5,38.4,112.4,38.4c26.2,0,50.5-4,69.9-10.6c-0.2,0.1-0.4,0.2-0.6,0.3c20.9-7,36.3-17,43.1-28.1
	c11.7-7.5,19.6-16.2,22.5-25.3c0-0.1,0.1-0.2,0.1-0.2c0.2-0.4,0.4-0.7,0.6-1.1c0.1-0.1,0.1-0.2,0.2-0.3c0.2-0.4,0.4-0.8,0.6-1.1
	c0.1-0.1,0.1-0.2,0.1-0.3c0.2-0.4,0.4-0.8,0.5-1.2c0-0.1,0.1-0.2,0.1-0.3c0.2-0.4,0.3-0.8,0.5-1.2c0-0.1,0.1-0.2,0.1-0.3
	c0.1-0.4,0.3-0.8,0.4-1.2c0-0.1,0.1-0.2,0.1-0.3c0.1-0.4,0.2-0.8,0.3-1.2c0-0.1,0-0.2,0.1-0.3c0.1-0.4,0.2-0.8,0.2-1.2
	c0-0.1,0-0.2,0.1-0.4c0.1-0.4,0.1-0.8,0.2-1.1c0-0.2,0-0.3,0-0.5c0-0.4,0.1-0.7,0.1-1.1c0-0.3,0-0.6,0-0.9c0-0.2,0-0.4,0-0.6v0
	V366.1v0c0-0.7,0-2.3,0-2.3S533.8,361.2,532.6,356.2z"/>
<path id="stroke1_00000179615142227232334190000017237937422339192740_" class="st0" d="M532.6,356.2c-0.2-0.8-0.4-1.7-0.7-2.7
	c-0.3-1-0.5-2-0.9-3.1c-2.6-8.9-7.2-21.9-15.8-38.9l-0.1-0.4c0.3-0.7,0.5-1.3,0.7-2c1.1-1.8,1.9-3.7,2.4-5.7l3-10.8l0,0
	c0.4-1.7,0.7-3.5,0.7-5.2c0-27.9-56.9-50.5-127.1-50.5s-127.1,22.6-127.1,50.5c0,1.8,0.2,3.5,0.7,5.2l0,0l3,10.7
	c0.5,1.9,1.3,3.8,2.4,5.6c0.2,0.7,0.4,1.4,0.7,2.2l-0.1,0.4c-17,33.9-18.8,52.4-18.8,52.4s0,1.6,0,2.3l0,341c0,5.1,1.5,10,4.4,14.8
	c2.9,9.1,10.8,17.7,22.5,25.2c13.1,21.4,58.5,38.4,112.4,38.4c26.2,0,50.5-4,69.9-10.6c-0.2,0.1-0.4,0.2-0.6,0.3
	c20.9-7,36.3-17,43.1-28.1c11.7-7.5,19.6-16.2,22.5-25.3c0-0.1,0.1-0.2,0.1-0.2c0.2-0.4,0.4-0.7,0.6-1.1c0.1-0.1,0.1-0.2,0.2-0.3
	c0.2-0.4,0.4-0.8,0.6-1.1c0.1-0.1,0.1-0.2,0.1-0.3c0.2-0.4,0.4-0.8,0.5-1.2c0-0.1,0.1-0.2,0.1-0.3c0.2-0.4,0.3-0.8,0.5-1.2
	c0-0.1,0.1-0.2,0.1-0.3c0.1-0.4,0.3-0.8,0.4-1.2c0-0.1,0.1-0.2,0.1-0.3c0.1-0.4,0.2-0.8,0.3-1.2c0-0.1,0-0.2,0.1-0.3
	c0.1-0.4,0.2-0.8,0.2-1.2c0-0.1,0-0.2,0.1-0.4c0.1-0.4,0.1-0.8,0.2-1.1c0-0.2,0-0.3,0-0.5c0-0.4,0.1-0.7,0.1-1.1c0-0.3,0-0.6,0-0.9
	c0-0.2,0-0.4,0-0.6v0V366.1v0c0-0.7,0-2.3,0-2.3S533.8,361.2,532.6,356.2z"/>
<path id="can-body" class="st1" d="M532.6,356.2c-0.2-0.8-0.4-1.7-0.7-2.7c-0.3-1-0.5-2-0.9-3.1c-2.6-8.9-7.2-21.9-15.8-38.9
	l-0.1-0.4c0.3-0.7,0.5-1.3,0.7-2c1.1-1.8,1.9-3.7,2.4-5.7l3-10.8l0,0c0.4-1.7,0.7-3.5,0.7-5.2c0-27.9-56.9-50.5-127.1-50.5
	s-127.1,22.6-127.1,50.5c0,1.8,0.2,3.5,0.7,5.2l0,0l3,10.7c0.5,1.9,1.3,3.8,2.4,5.6c0.2,0.7,0.4,1.4,0.7,2.2l-0.1,0.4
	c-17,33.9-18.8,52.4-18.8,52.4s0,1.6,0,2.3l0,341c0,5.1,1.5,10,4.4,14.8c2.9,9.1,10.8,17.7,22.5,25.2
	c13.1,21.4,58.5,38.4,112.4,38.4c26.2,0,50.5-4,69.9-10.6c-0.2,0.1-0.4,0.2-0.6,0.3c20.9-7,36.3-17,43.1-28.1
	c11.7-7.5,19.6-16.2,22.5-25.3c0-0.1,0.1-0.2,0.1-0.2c0.2-0.4,0.4-0.7,0.6-1.1c0.1-0.1,0.1-0.2,0.2-0.3c0.2-0.4,0.4-0.8,0.6-1.1
	c0.1-0.1,0.1-0.2,0.1-0.3c0.2-0.4,0.4-0.8,0.5-1.2c0-0.1,0.1-0.2,0.1-0.3c0.2-0.4,0.3-0.8,0.5-1.2c0-0.1,0.1-0.2,0.1-0.3
	c0.1-0.4,0.3-0.8,0.4-1.2c0-0.1,0.1-0.2,0.1-0.3c0.1-0.4,0.2-0.8,0.3-1.2c0-0.1,0-0.2,0.1-0.3c0.1-0.4,0.2-0.8,0.2-1.2
	c0-0.1,0-0.2,0.1-0.4c0.1-0.4,0.1-0.8,0.2-1.1c0-0.2,0-0.3,0-0.5c0-0.4,0.1-0.7,0.1-1.1c0-0.3,0-0.6,0-0.9c0-0.2,0-0.4,0-0.6v0
	V366.1v0c0-0.7,0-2.3,0-2.3S533.8,361.2,532.6,356.2z"/>
<g id="can">
	<g id="XMLID_00000003073549495256939940000014047407585767929766_">
		<path id="XMLID_00000055668724153846774200000004076349497535524796_" class="st2" d="M510.9,734.5c0,26.9-52,51-116.2,51
			c-64.2,0-116.2-24.1-116.2-51c0-26.9,52-48.6,116.2-48.6C458.9,685.9,510.9,707.7,510.9,734.5z"/>
		<path id="XMLID_00000150100521793956025820000010558457696990408854_" class="st2" d="M510.9,734.7c0-10.3-7.6-19.8-20.6-27.6
			v43.7l-2.7,6.2c0,0-3.8,9.2-22.1,17.4c-0.6,0.2-1,0.5-1.4,0.8C492.5,765.7,510.9,750.7,510.9,734.7z"/>
		<path id="XMLID_00000157303041520490498810000010525249004250542014_" class="st3" d="M530.9,714.1c0,31.5-60.9,59.7-136.1,59.7
			c-75.2,0-136.1-28.2-136.1-59.7c0-31.5,60.9-57,136.1-57C469.9,657.1,530.9,682.6,530.9,714.1z"/>
		<path id="XMLID_00000077319473283874861010000009813724279481541550_" class="st4" d="M530.9,714.1c0-15.9-15.5-30.2-40.5-40.6
			v77.1l-2.7,6.2c0,0-0.1,0.1-0.2,0.3C514.2,746.2,530.9,730.6,530.9,714.1z"/>
		<path id="XMLID_00000086691064194822860440000007399210375152462473_" class="st5" d="M534,366.1H255.4l0,341
			c0,32.2,62.4,61.1,139.3,61.1c76.9,0,139.3-28.9,139.3-61.1V366.1z"/>
		<path id="XMLID_00000165225358179189526840000004925243210646759824_" class="st2" d="M490.2,751c27-11.4,43.8-27.2,43.8-43.9
			v-341h-51.9c3.4,11.8,6.8,26.7,8.2,42.1v342.4L490.2,751z"/>
		<path id="XMLID_00000046324229923097979540000008185880894811988661_" class="st6" d="M534,363.8c0,0-1.7-18.4-18.8-52.4
			l-5.1-15.1l-41,1.6l-2.9,18.1c-20.9-5.3-45.4-8.3-71.6-8.3c-26.2,0-50.7,3-71.6,8.3l-2.9-18.1l-41-1.6l-5.1,15.1
			c-17,33.9-18.8,52.4-18.8,52.4s0,1.6,0,2.3c0,32.2,62.4,58.3,139.3,58.3c76.9,0,139.3-26.1,139.3-58.3
			C534,365.4,534,363.8,534,363.8z"/>
		<path id="XMLID_00000114055171006261775660000015120319728037179814_" class="st4" d="M534,366.1c0-0.7,0-2.3,0-2.3
			s-1.7-18.4-18.8-52.4l-5.1-15.1l-24.6,1l-14.1,39.2l1.7,3.6c0,0,13.6,32.3,17.1,68.1v0.3C517.2,397.9,534,382.8,534,366.1z"/>
		<path id="XMLID_00000165211973656852879980000003058245255222506167_" class="st3" d="M518.8,298.2l-3.3-5.1
			c-6.5-24.3-57.8-38.2-120.8-38.2s-114.9,14.7-121.4,39l-2.7,4.3l2.9,10.5c6.7,24.3,58.4,43.1,121.2,43.1
			c62.8,0,114.5-18.9,121.2-43.1L518.8,298.2z"/>
		<path id="XMLID_00000118381794809141548410000003394501280121469076_" class="st2" d="M518.8,298.3l-3.3-5.1
			c-1.5-5.6-5.4-10.6-11.2-15.1l-11.4-0.8l-21.3,59.3l1.7,3.6c0,0,0,0.1,0.1,0.2c23.2-7.8,39-19,42.5-31.7L518.8,298.3z"/>
		<path id="XMLID_00000036228247506354702630000013396908551231763866_" class="st7" d="M521.2,292.6l-3.4-5.2
			c-6.6-24.8-58.9-38.9-123.1-38.9s-117.1,15-123.7,39.8l-2.7,4.4l3,10.7c6.8,24.7,59.5,44,123.5,44s116.7-19.2,123.5-44
			L521.2,292.6z"/>
		<path id="XMLID_00000075122752132136595140000005347436425099937157_" class="st2" d="M518.2,303.4l3-10.8l-3.4-5.1
			c-2.6-9.9-12.6-18.1-27.6-24.3l-10.7,14.2l-7.9,59.5C497.1,328.8,514.5,316.9,518.2,303.4z"/>
		
			<ellipse id="XMLID_00000163752816567104926380000007863117509192397712_" class="st1" cx="394.7" cy="287.4" rx="127.1" ry="50.5"/>
		
			<ellipse id="XMLID_00000183217372132210673860000004663296419499102105_" class="st7" cx="394.7" cy="287.4" rx="120.6" ry="44.6"/>
		<path id="XMLID_00000087413962511071010190000013192012909033246339_" class="st2" d="M274.2,287.3c0,9.3,7.8,18,21.1,25.2
			l14.6-11.6l-9.5-41.3C284,267.2,274.2,276.9,274.2,287.3z"/>
		<path id="XMLID_00000003827911212199823460000012053752366255671726_" class="st8" d="M394.7,331.9c48,0,89.4-10.4,108.8-25.4
			c-5.2-20.5-51.9-36.6-108.8-36.6c-56.9,0-103.7,16.1-108.8,36.6C305.3,321.6,346.7,331.9,394.7,331.9z"/>
		<path id="XMLID_00000031888276231643405120000009286044119649455037_" class="st1" d="M394.8,331.9c43.3,0,81.2-8.5,102.5-21.1
			c-0.1-0.5-0.1-1-0.3-1.5c-4.9-19.3-48.8-34.4-102.2-34.4s-97.4,15.1-102.2,34.4c-0.2,0.5-0.2,1-0.4,1.5
			C313.4,323.4,351.4,331.9,394.8,331.9z"/>
		<g id="XMLID_00000135672965553171025130000001297688631522866339_">
			<path id="XMLID_00000086692985173265355170000004988426471491921052_" class="st7" d="M457.6,289.9c-10.4-4.9-27.5-6.9-39.3-4.7
				l0,0l-73.9,7.7c-0.1,0-0.2,0-0.3,0l-0.2,0l0,0c-2.7,0.3-5.4,0.8-7.8,1.4c-20.3,4.8-21.5,15.8-2.6,24.7c18.9,8.9,50.6,12.2,71,7.5
				c2.5-0.6,4.6-1.2,6.5-2l0,0l0.1,0c0.1,0,0.2-0.1,0.2-0.1l44.9-19.8l1.7-0.7C467.9,300.8,467.9,294.8,457.6,289.9z"/>
			<path id="XMLID_00000169552647104339876530000001425124605412845244_" class="st1" d="M394.2,315.5c-9.3,2.2-24.1,0.5-32.4-3.7
				c-7.2-3.7-6.9-8.2,0.8-10.4c0.4-0.1,0.8-0.2,1.3-0.3c2.7-0.6,0.1-2.5-3.4-2.3c-4.5,0.2-8.6,0.8-12,1.9c-9.4,2.9-10,8.6-1.5,13.4
				c11.2,6.3,32.6,8.9,45.9,5.8c2.9-0.7,5.1-1.6,6.8-2.6c1.6-1-2.7-2.5-5.4-1.8C394.3,315.5,394.2,315.5,394.2,315.5z"/>
			<g id="XMLID_00000027580670382497982450000007884243934369121683_">
				<path id="XMLID_00000178905338160950607220000016854187712745817267_" class="st1" d="M383.2,327.2c-14,0-30.7-3-40.9-7.8
					c-9.2-4.3-13.7-8.5-13.9-12.9c-0.1-3,1.9-5.7,5.9-8.1c4.6-2.7,12.6-4.2,23.7-4.6c6.4-0.2,10.3-0.1,16.5,1.2l0.5,0.1l-0.6,3.6
					l-0.5-0.1c-5.9-1.2-9.5-1.3-15.7-1.1c-10.4,0.3-17.9,1.7-22,4.1c-1.9,1.1-4.1,2.8-4,4.7c0.1,1.3,1.3,4.8,11.8,9.7
					c12.9,6.1,37.4,9.2,51.4,6.5c10-1.9,13-4.4,13.1-5.6c0.1-0.9-1.4-2.7-6-4.9l-12.6-5.9l1.6-3.3l12.6,5.9c5.8,2.7,8.4,5.6,8.1,8.7
					c-0.5,3.9-5.9,6.9-16.1,8.8C392.2,326.8,387.8,327.2,383.2,327.2z"/>
			</g>
		</g>
		<g id="XMLID_00000100357510355605614360000008993620159038214023_">
			<path id="XMLID_00000116235769223478366750000002784300148193056640_" class="st1" d="M406.4,306.2l-16.4,3.8
				c-3.2,0.7-8.5,0-11.9-1.6l0,0c-3.4-1.6-3.6-3.5-0.4-4.2l16.4-3.8c3.2-0.7,8.5,0,11.9,1.6l0,0
				C409.4,303.6,409.6,305.5,406.4,306.2z"/>
			<path id="XMLID_00000145018463154654540930000010660741702609781690_" class="st7" d="M402.1,302.9c1.6,0.7,1.5,1.7-0.2,2.1
				c-1.7,0.4-4.3,0.1-5.9-0.6c-1.6-0.7-1.5-1.7,0.2-2.1C397.8,301.9,400.5,302.2,402.1,302.9z"/>
		</g>
		<path id="XMLID_00000003083554446009133020000007928196637590705853_" class="st2" d="M410.3,277.8l-33.4,14.5
			c-12.8,5.6-12.6,14.1,0.5,19c13.1,4.9,34.1,4.4,46.9-1.2l33.4-14.5c12.8-5.6,12.6-14.1-0.5-19
			C444.1,271.7,423.1,272.2,410.3,277.8z M424.4,304.5l-4.6,2c-9.1,3.9-23.9,4.3-33.2,0.8c-9.2-3.5-9.4-9.5-0.3-13.4l4.6-2
			c9.1-3.9,23.9-4.3,33.2-0.8C433.3,294.5,433.4,300.5,424.4,304.5z M454.1,284.6c4.7,1.8,4.8,4.8,0.2,6.8c-4.6,2-12.1,2.2-16.8,0.4
			l-16.5-6.2c-4.7-1.8-4.8-4.8-0.2-6.8c4.6-2,12.1-2.2,16.8-0.4L454.1,284.6z"/>
		<path id="XMLID_00000004526231968394250250000015950911994761986188_" class="st1" d="M410.2,274.6l-33.4,14.5
			c-12.8,5.6-12.6,14.1,0.5,19c13.1,4.9,34.1,4.4,46.9-1.2l33.4-14.5c12.8-5.6,12.6-14.1-0.5-19C444,268.5,423,269,410.2,274.6z
			 M424.3,301.3l-4.6,2c-9.1,3.9-23.9,4.3-33.2,0.8c-9.2-3.5-9.4-9.5-0.3-13.4l4.6-2c9.1-3.9,23.9-4.3,33.2-0.8
			C433.2,291.3,433.4,297.4,424.3,301.3z M454.1,281.5c4.7,1.8,4.8,4.8,0.2,6.8c-4.6,2-12.1,2.2-16.8,0.4l-16.5-6.2
			c-4.7-1.8-4.8-4.8-0.2-6.8c4.6-2,12.1-2.2,16.8-0.4L454.1,281.5z"/>
	</g>
</g>
<g id="datachip">
	
		<rect x="346.8" y="379.7" transform="matrix(-1 -1.224647e-16 1.224647e-16 -1 782.2441 775.7858)" class="st5" width="88.6" height="16.3"/>
	<rect x="353.5" y="384.7" class="st9" width="75.1" height="6.4"/>
	<path class="st4" d="M427.8,374.6h5.9c1,0,1.9-0.8,1.9-1.9v-8.6c0-1-0.8-1.9-1.9-1.9h-5.9c-1,0-1.9,0.8-1.9,1.9v8.6
		C425.9,373.8,426.8,374.6,427.8,374.6z"/>
	<path class="st4" d="M412,374.6h5.9c1,0,1.9-0.8,1.9-1.9v-8.6c0-1-0.8-1.9-1.9-1.9H412c-1,0-1.9,0.8-1.9,1.9v8.6
		C410.1,373.8,410.9,374.6,412,374.6z"/>
	<path class="st4" d="M396.2,374.6h5.9c1,0,1.9-0.8,1.9-1.9v-8.6c0-1-0.8-1.9-1.9-1.9h-5.9c-1,0-1.9,0.8-1.9,1.9v8.6
		C394.3,373.8,395.1,374.6,396.2,374.6z"/>
	<path class="st4" d="M380.3,374.6h5.9c1,0,1.9-0.8,1.9-1.9v-8.6c0-1-0.8-1.9-1.9-1.9h-5.9c-1,0-1.9,0.8-1.9,1.9v8.6
		C378.5,373.8,379.3,374.6,380.3,374.6z"/>
	<path class="st4" d="M364.5,374.6h5.9c1,0,1.9-0.8,1.9-1.9v-8.6c0-1-0.8-1.9-1.9-1.9h-5.9c-1,0-1.9,0.8-1.9,1.9v8.6
		C362.6,373.8,363.5,374.6,364.5,374.6z"/>
	<path class="st4" d="M348.7,374.6h5.9c1,0,1.9-0.8,1.9-1.9v-8.6c0-1-0.8-1.9-1.9-1.9h-5.9c-1,0-1.9,0.8-1.9,1.9v8.6
		C346.8,373.8,347.7,374.6,348.7,374.6z"/>
</g>
<g id="c-big">
	
		<ellipse transform="matrix(0.7071 -0.7071 0.7071 0.7071 -343.2321 466.9663)" class="st7" cx="392.1" cy="647.8" rx="93.4" ry="93.4"/>
	
		<ellipse transform="matrix(0.7071 -0.7071 0.7071 0.7071 -343.2321 466.9663)" class="st1" cx="392.1" cy="647.8" rx="89.9" ry="89.9"/>
	
		<ellipse transform="matrix(0.7071 -0.7071 0.7071 0.7071 -343.2321 466.9663)" class="st6" cx="392.1" cy="647.8" rx="66.1" ry="66.1"/>
	<circle class="st9" cx="392.1" cy="647.8" r="24.6"/>
	<path class="st2" d="M392.1,727.4c-43.9,0-79.6-35.7-79.6-79.6c0-43.9,35.7-79.6,79.6-79.6s79.6,35.7,79.6,79.6
		C471.6,691.7,435.9,727.4,392.1,727.4z M392.1,573.5c-41,0-74.3,33.3-74.3,74.3c0,41,33.3,74.3,74.3,74.3s74.3-33.3,74.3-74.3
		C466.4,606.8,433,573.5,392.1,573.5z"/>
</g>
<g id="c-small">
	
		<ellipse transform="matrix(0.7071 -0.7071 0.7071 0.7071 -217.6329 414.9415)" class="st7" cx="392.1" cy="470.2" rx="64.9" ry="64.9"/>
	
		<ellipse transform="matrix(0.7071 -0.7071 0.7071 0.7071 -217.6329 414.9415)" class="st1" cx="392.1" cy="470.2" rx="62.1" ry="62.1"/>
	
		<ellipse transform="matrix(0.7071 -0.7071 0.7071 0.7071 -217.6329 414.9415)" class="st6" cx="392.1" cy="470.2" rx="45.9" ry="45.9"/>
	<circle class="st9" cx="392.1" cy="470.2" r="17"/>
	<path class="st2" d="M392.1,525.4c-30.5,0-55.3-24.8-55.3-55.3c0-30.5,24.8-55.3,55.3-55.3s55.3,24.8,55.3,55.3
		C447.3,500.6,422.5,525.4,392.1,525.4z M392.1,418.6c-28.5,0-51.6,23.1-51.6,51.6c0,28.5,23.1,51.6,51.6,51.6s51.6-23.1,51.6-51.6
		C443.7,441.7,420.5,418.6,392.1,418.6z"/>
</g>
</svg>
