<?xml version="1.0" encoding="UTF-8"?>
<svg id="Layer_2" data-name="Layer 2" xmlns="http://www.w3.org/2000/svg" viewBox="0 0 421.25 711.89">
  <defs>
    <style>
      .cls-1 {
        opacity: .57;
      }

      .cls-1, .cls-2, .cls-3, .cls-4 {
        stroke: #fff;
      }

      .cls-1, .cls-3, .cls-4 {
        fill: none;
        stroke-miterlimit: 10;
        stroke-width: 4px;
      }

      .cls-5 {
        fill: #6565ea;
      }

      .cls-5, .cls-6, .cls-7, .cls-8, .cls-9, .cls-10, .cls-11, .cls-12, .cls-13 {
        stroke-width: 0px;
      }

      .cls-6 {
        fill: #b3b3b3;
      }

      .cls-7 {
        fill: #2a2668;
      }

      .cls-8 {
        fill: #09203f;
      }

      .cls-9 {
        fill: #3833a8;
      }

      .cls-10 {
        fill: #ccc;
      }

      .cls-11, .cls-2 {
        fill: #fff;
      }

      .cls-2 {
        stroke-linejoin: round;
        stroke-width: 9px;
      }

      .cls-3 {
        opacity: .12;
      }

      .cls-12 {
        fill: #4141d6;
      }

      .cls-13 {
        fill: #1e1b36;
      }

      .cls-4 {
        opacity: .32;
      }
    </style>
  </defs>
  <g id="Output_copy" data-name="Output copy">
    <g>
      <path class="cls-3" d="m210.62,709.89c-34.14,0-67.11-5.18-95.34-14.97-28.66-9.94-51.7-24.52-66.82-42.25-17.18-12.95-29.43-28.19-36.45-45.32-6.65-12.89-10.02-26.54-10.02-40.57V194.66l.25-2.7c.5-5.41,3.09-24.57,15.86-54.98l-.32-1.14-.14-.54c-1.7-6.6-2.57-13.42-2.57-20.23,0-19.64,7.01-38.44,20.28-54.36,12.47-14.96,30.19-27.36,52.67-36.86C121.39,9.76,164.93,2,210.62,2s89.23,7.76,122.58,21.86c22.48,9.5,40.2,21.9,52.67,36.86,13.27,15.92,20.28,34.72,20.28,54.36,0,6.83-.87,13.66-2.59,20.32l-.43,1.57c4.32,10.28,7.88,20.22,10.6,29.63.48,1.65.91,3.22,1.29,4.68.41,1.54.76,2.97,1.08,4.3,1.86,7.8,2.6,13.22,2.89,16.38l.25,2.71v372.12c0,.81-.02,1.59-.04,2.35-.02.9-.06,1.81-.11,2.71l-.02.25c-.07,1.08-.16,2.09-.26,3.1-.05.57-.11,1.11-.17,1.65l-.03.29c-.13,1.06-.29,2.15-.49,3.39-.1.62-.2,1.22-.31,1.82-.2,1.14-.48,2.4-.67,3.28-.11.51-.22,1-.34,1.49-.26,1.07-.56,2.2-.89,3.36-.11.4-.22.78-.33,1.16l-.05.17c-.34,1.11-.7,2.23-1.12,3.44-.13.38-.26.75-.39,1.11-.46,1.27-.9,2.41-1.42,3.68l-.41,1c-.46,1.07-.96,2.19-1.48,3.31l-.45.94c-.29.6-.59,1.19-.89,1.79-6.96,17.18-19.18,32.47-36.37,45.48-19.41,23.04-48.13,36.2-69.1,43.24l-32.6,10.94-1.13-2.33c-19,3.66-38.96,5.51-59.55,5.51Z"/>
      <path class="cls-4" d="m210.62,690.33c-31.99,0-62.74-4.8-88.93-13.89-26.36-9.15-46.91-22.27-59.7-38.09-15.55-11.32-26.37-24.49-32.2-39.2-5.47-10.32-8.24-21.2-8.24-32.36V195.57l.17-1.8c.35-3.76,2.75-23.16,17.08-55.35l-2.11-7.61-.09-.35c-1.3-5.03-1.96-10.21-1.96-15.37,0-30.58,21.67-56.58,61-73.2,30.99-13.1,71.82-20.31,114.97-20.31s83.97,7.21,114.97,20.31c39.34,16.63,61.01,42.62,61.01,73.2,0,5.18-.66,10.36-1.97,15.42l-2.17,7.94c5.25,11.78,9.44,23.05,12.48,33.59.43,1.5.82,2.92,1.17,4.24.36,1.38.68,2.66.96,3.84,1.68,7.05,2.25,11.58,2.45,13.66l.17,1.8v371.22c0,.61-.01,1.2-.04,1.77-.02.72-.04,1.45-.08,2.16v.1c-.06.89-.14,1.7-.22,2.51-.04.44-.08.86-.13,1.27v.11c-.13.95-.26,1.84-.41,2.73-.07.46-.14.9-.23,1.34-.13.75-.33,1.67-.54,2.61-.08.37-.16.74-.25,1.1-.21.88-.46,1.79-.71,2.69-.08.3-.16.58-.25.87l-.03.09c-.28.94-.58,1.84-.89,2.74-.1.3-.2.58-.3.86-.38,1.03-.73,1.95-1.11,2.86l-.32.77c-.37.87-.76,1.75-1.17,2.62l-.35.74c-.35.73-.72,1.46-1.1,2.18-5.78,14.77-16.58,27.99-32.15,39.35-16.35,20.51-42.38,32.47-61.72,38.96l-16.3,5.47-.37-.75c-21.78,5.51-45.79,8.39-70.39,8.39Z"/>
      <path class="cls-1" d="m210.62,670.76c-60.92,0-114.14-18.59-134.94-46.69-14.08-9.75-23.51-20.87-28.07-33.12-4.3-7.77-6.48-15.89-6.48-24.16V196.47l.08-.9c.21-2.24,2.4-21.68,18.41-55.61-.29-.84-.55-1.69-.79-2.54l-3.23-11.66-.04-.17c-.89-3.46-1.34-6.99-1.34-10.51,0-48.55,78.68-73.95,156.4-73.95s156.41,25.4,156.41,73.95c0,3.52-.45,7.06-1.35,10.52l-3.26,11.94c-.23.83-.48,1.66-.77,2.48,6.28,13.31,11.15,25.88,14.49,37.44.39,1.35.74,2.61,1.05,3.8.32,1.21.6,2.34.85,3.38,1.5,6.28,1.91,9.96,2,10.94l.08.9v370.32c0,.41-.01.8-.03,1.18v.04c-.01.53-.03,1.06-.06,1.58-.04.64-.09,1.21-.15,1.79v.11c-.04.3-.06.58-.1.86-.09.71-.19,1.38-.3,2.05-.04.29-.09.56-.14.83-.11.61-.25,1.28-.4,1.95-.05.24-.1.47-.16.7-.16.68-.35,1.35-.54,2.02-.06.21-.11.4-.17.6-.21.7-.44,1.38-.67,2.05-.07.2-.13.38-.19.56-.26.73-.53,1.39-.8,2.06l-.23.56c-.28.65-.57,1.3-.87,1.94l-.25.54c-.3.62-.61,1.23-.94,1.84,0,0-.37.69-.41.76-4.52,12.29-13.94,23.45-28.06,33.24-13.03,17.88-36.33,28.65-54.2,34.64l-.07-.14c-23.9,8-51.8,12.22-80.77,12.22Z"/>
      <g>
        <path class="cls-2" d="m359.01,189.17c-.21-.9-.46-1.88-.73-2.92-.28-1.05-.58-2.17-.93-3.36-2.75-9.53-7.8-23.62-16.97-41.88l-.15-.43c.28-.7.52-1.41.73-2.12,1.15-1.99,2.03-4.02,2.59-6.08l3.19-11.67h0c.48-1.85.72-3.72.72-5.62,0-30.04-61.27-54.39-136.84-54.39s-136.84,24.35-136.84,54.39c0,1.9.25,3.77.72,5.62h0s3.19,11.52,3.19,11.52c.56,2.04,1.42,4.04,2.54,6.01.22.78.48,1.55.79,2.32l-.15.46c-18.35,36.52-20.18,56.36-20.18,56.36v369.41c0,5.45,1.66,10.81,4.78,15.98,3.15,9.78,11.65,19.06,24.22,27.14,14.12,23,62.91,41.29,120.93,41.29,28.25,0,54.3-4.34,75.24-11.44-.22.12-.43.25-.62.37,22.46-7.53,39.09-18.24,46.34-30.21,12.6-8.11,21.12-17.42,24.24-27.23.05-.08.09-.16.14-.24.24-.4.47-.8.69-1.2.06-.12.12-.23.18-.35.22-.41.43-.82.62-1.23.05-.11.1-.22.16-.34.19-.41.38-.83.56-1.25.05-.11.09-.22.13-.33.17-.42.34-.84.49-1.26.04-.11.07-.22.11-.33.15-.42.29-.85.42-1.27.03-.11.06-.22.09-.33.12-.42.24-.85.34-1.27.03-.12.05-.23.08-.35.1-.42.19-.84.27-1.26.02-.13.04-.26.06-.39.07-.41.14-.82.19-1.23.02-.16.03-.32.05-.48.04-.38.08-.76.1-1.14.02-.34.02-.67.03-1.01,0-.2.02-.4.02-.61V197.37s-.26-2.79-1.55-8.2Z"/>
        <g id="_7" data-name="7">
          <g>
            <path class="cls-13" d="m335.68,596.36c0,28.92-55.99,54.84-125.05,54.84s-125.06-25.92-125.06-54.84,55.99-52.36,125.06-52.36,125.05,23.44,125.05,52.36Z"/>
            <path class="cls-13" d="m335.61,596.54c0-11.04-8.18-21.28-22.12-29.72v47.05l-2.95,6.73s-4.05,9.87-23.75,18.69c-.6.27-1.11.55-1.55.84,30.57-10.26,50.37-26.39,50.37-43.59Z"/>
            <path class="cls-7" d="m357.14,574.33c0,33.88-65.6,64.25-146.52,64.25s-146.52-30.37-146.52-64.25,65.6-61.34,146.52-61.34,146.52,27.46,146.52,61.34Z"/>
            <path class="cls-9" d="m357.14,574.38c0-17.08-16.68-32.52-43.58-43.64v83l-2.95,6.73s-.06.14-.18.37c28.73-11.96,46.71-28.72,46.71-46.45Z"/>
            <path class="cls-12" d="m360.55,199.81H60.69v366.97c0,34.67,67.13,65.75,149.93,65.75s149.93-31.08,149.93-65.75V199.81Z"/>
            <path class="cls-13" d="m313.4,614.07c29.02-12.22,47.16-29.25,47.16-47.26V199.84h-55.87c3.63,12.75,7.28,28.69,8.87,45.32v368.54l-.16.36Z"/>
            <path class="cls-5" d="m360.55,197.37s-1.83-19.84-20.18-56.36l-5.45-16.22-44.12,1.71-3.14,19.46c-22.52-5.66-48.87-8.92-77.04-8.92s-54.52,3.26-77.04,8.92l-3.14-19.46-44.12-1.71-5.45,16.22c-18.35,36.52-20.18,56.36-20.18,56.36v2.44c0,34.67,67.13,62.77,149.93,62.77s149.93-28.1,149.93-62.77v-2.44Z"/>
            <path class="cls-9" d="m360.55,199.81v-2.44s-1.83-19.84-20.18-56.36l-5.45-16.22-26.47,1.03-15.13,42.16,1.88,3.91s14.67,34.81,18.35,73.25v.3c28.92-11.44,47-27.64,47-45.62Z"/>
            <path class="cls-7" d="m344.19,126.75l-3.58-5.52c-6.99-26.19-62.24-41.08-129.99-41.08s-123.68,15.8-130.67,41.99l-2.9,4.6,3.13,11.31c7.19,26.11,62.84,46.42,130.43,46.42s123.24-20.32,130.44-46.42l3.13-11.31Z"/>
            <path class="cls-13" d="m344.19,126.8l-3.58-5.52c-1.61-6.02-5.79-11.43-12.05-16.21l-12.32-.9-22.92,63.84,1.88,3.91s.04.11.11.26c24.99-8.41,41.99-20.46,45.74-34.09l3.13-11.31Z"/>
            <path class="cls-10" d="m346.74,120.7l-3.64-5.62c-7.12-26.69-63.43-41.87-132.47-41.87s-126.04,16.1-133.16,42.8l-2.95,4.69,3.19,11.52c7.33,26.6,64.03,47.31,132.92,47.31s125.59-20.7,132.92-47.31l3.19-11.52Z"/>
            <path class="cls-13" d="m343.55,132.37l3.19-11.67-3.64-5.48c-2.84-10.64-13.51-19.44-29.68-26.19l-11.55,15.24-8.54,64c27.43-8.6,46.21-21.37,50.22-35.91Z"/>
            <ellipse class="cls-11" cx="210.62" cy="115.08" rx="136.84" ry="54.39"/>
            <ellipse class="cls-10" cx="210.62" cy="115.08" rx="129.75" ry="47.95"/>
            <path class="cls-13" d="m80.88,115.04c0,10.05,8.38,19.38,22.68,27.08l15.76-12.49-10.24-44.43c-17.64,8.19-28.21,18.55-28.21,29.83Z"/>
            <path class="cls-6" d="m210.62,163.03c51.65,0,96.24-11.16,117.12-27.3-5.56-22.1-55.86-39.4-117.12-39.4s-111.56,17.3-117.12,39.4c20.88,16.14,65.47,27.3,117.12,27.3Z"/>
            <path class="cls-11" d="m210.68,163.03c46.63,0,87.44-9.11,110.31-22.75-.08-.54-.14-1.08-.27-1.65-5.23-20.76-52.49-37.02-110.04-37.02s-104.81,16.26-110.04,37.02c-.17.55-.26,1.05-.39,1.58,22.85,13.68,63.72,22.82,110.43,22.82Z"/>
            <g>
              <path class="cls-10" d="m278.25,117.8c-11.18-5.26-29.56-7.4-42.28-5.1h0s-79.55,8.29-79.55,8.29c-.12.01-.24.03-.37.04l-.2.02h.01c-2.95.37-5.77.86-8.41,1.48-21.86,5.12-23.11,17.03-2.79,26.58,20.32,9.56,54.51,13.15,76.37,8.03,2.64-.62,4.96-1.34,6.99-2.14h.01s.12-.05.12-.05c.09-.04.17-.07.26-.11l48.36-21.32,1.78-.79c10.8-3.21,10.87-9.68-.3-14.93Z"/>
              <path class="cls-11" d="m210.01,145.36c-10.03,2.35-25.89.58-34.83-3.96-7.8-3.96-7.42-8.84.87-11.17.45-.13.91-.24,1.38-.35,2.95-.67.09-2.64-3.62-2.47-4.8.22-9.26.89-12.96,2.04-10.12,3.16-10.79,9.23-1.6,14.42,12.04,6.81,35.07,9.56,49.44,6.19,3.11-.73,5.53-1.68,7.28-2.78,1.76-1.11-2.86-2.68-5.78-1.97-.06.02-.12.03-.19.04Z"/>
              <path class="cls-11" d="m198.18,157.92c-15.05,0-32.99-3.22-44.04-8.42-9.86-4.64-14.75-9.17-14.96-13.84-.14-3.25,1.99-6.17,6.33-8.69,4.95-2.88,13.53-4.53,25.5-4.9,6.87-.21,11.07-.09,17.74,1.24l.5.08-.65,3.92-.56-.09c-6.39-1.27-10.22-1.39-16.9-1.17-11.14.35-19.32,1.86-23.63,4.37-2.03,1.18-4.44,3.02-4.36,5.08.06,1.37,1.41,5.12,12.68,10.41,13.87,6.53,40.26,9.85,55.34,6.99,10.79-2.05,13.94-4.78,14.11-6.06.12-.98-1.48-2.94-6.41-5.26l-13.54-6.37,1.69-3.59,13.54,6.37c6.25,2.94,9.09,6,8.66,9.35-.53,4.2-6.35,7.39-17.31,9.47-4.01.76-8.71,1.12-13.74,1.12Z"/>
            </g>
            <g>
              <path class="cls-11" d="m223.2,135.38l-17.64,4.13c-3.41.8-9.15.05-12.81-1.67h0c-3.66-1.72-3.86-3.77-.45-4.57l17.64-4.13c3.41-.8,9.15-.05,12.81,1.67h0c3.66,1.72,3.86,3.77.45,4.57Z"/>
              <path class="cls-10" d="m218.51,131.81c1.69.79,1.58,1.78-.23,2.21-1.82.43-4.66.13-6.35-.67-1.69-.79-1.58-1.78.23-2.21,1.82-.43,4.66-.13,6.35.67Z"/>
            </g>
            <path class="cls-13" d="m227.34,104.75l-35.9,15.6c-13.8,6-13.58,15.17.5,20.48,14.08,5.31,36.68,4.76,50.48-1.24l35.9-15.6c13.8-6,13.58-15.17-.5-20.48-14.08-5.31-36.68-4.76-50.48,1.24Zm15.19,28.73l-4.97,2.16c-9.75,4.24-25.73,4.63-35.68.88-9.95-3.76-10.11-10.24-.36-14.47l4.97-2.16c9.75-4.24,25.73-4.63,35.68-.88,9.95,3.76,10.11,10.24.36,14.47Zm32.03-21.33c5.04,1.9,5.12,5.18.18,7.33-4.94,2.15-13.03,2.35-18.07.44l-17.79-6.71c-5.04-1.9-5.12-5.18-.18-7.33,4.94-2.15,13.03-2.34,18.07-.44l17.79,6.71Z"/>
            <path class="cls-11" d="m227.26,101.34l-35.9,15.6c-13.8,6-13.58,15.17.5,20.48,14.08,5.31,36.68,4.76,50.48-1.24l35.9-15.6c13.8-6,13.58-15.17-.5-20.48-14.08-5.31-36.68-4.76-50.48,1.24Zm15.19,28.73l-4.97,2.16c-9.75,4.24-25.73,4.63-35.68.88-9.95-3.76-10.11-10.24-.36-14.47l4.97-2.16c9.75-4.24,25.73-4.63,35.68-.88,9.95,3.76,10.11,10.24.36,14.47Zm32.03-21.33c5.04,1.9,5.12,5.18.18,7.33-4.94,2.15-13.03,2.34-18.07.44l-17.79-6.71c-5.04-1.9-5.12-5.18-.18-7.33,4.94-2.15,13.03-2.35,18.07-.44l17.79,6.71Z"/>
          </g>
        </g>
        <g>
          <circle class="cls-10" cx="207.75" cy="503" r="100.55" transform="translate(-294.82 294.23) rotate(-45)"/>
          <circle class="cls-11" cx="207.75" cy="503" r="96.77" transform="translate(-294.82 294.23) rotate(-45)"/>
          <circle class="cls-5" cx="207.75" cy="503" r="71.18" transform="translate(-294.82 294.23) rotate(-45)"/>
          <circle class="cls-8" cx="207.75" cy="503" r="26.42"/>
          <path class="cls-13" d="m207.75,588.64c-47.22,0-85.64-38.42-85.64-85.64s38.42-85.64,85.64-85.64,85.64,38.42,85.64,85.64-38.42,85.64-85.64,85.64Zm0-165.63c-44.11,0-79.99,35.88-79.99,79.99s35.88,79.99,79.99,79.99,79.99-35.88,79.99-79.99-35.88-79.99-79.99-79.99Z"/>
        </g>
        <g>
          <circle class="cls-10" cx="207.75" cy="311.83" r="69.81" transform="translate(-159.65 238.24) rotate(-45)"/>
          <circle class="cls-11" cx="207.75" cy="311.83" r="66.87" transform="translate(-159.65 238.24) rotate(-45)"/>
          <circle class="cls-5" cx="207.75" cy="311.83" r="49.43" transform="translate(-159.65 238.24) rotate(-45)"/>
          <circle class="cls-8" cx="207.75" cy="311.83" r="18.35"/>
          <path class="cls-13" d="m207.75,371.29c-32.79,0-59.46-26.68-59.46-59.46s26.68-59.46,59.46-59.46,59.46,26.68,59.46,59.46-26.68,59.46-59.46,59.46Zm0-115c-30.62,0-55.54,24.91-55.54,55.54s24.91,55.54,55.54,55.54,55.54-24.92,55.54-55.54-24.91-55.54-55.54-55.54Z"/>
        </g>
        <g>
          <rect class="cls-12" x="159.05" y="214.5" width="95.38" height="17.55" transform="translate(413.49 446.54) rotate(180)"/>
          <rect class="cls-8" x="166.3" y="219.81" width="80.88" height="6.93"/>
          <rect class="cls-9" x="244.2" y="195.7" width="10.41" height="13.26" rx="1.88" ry="1.88" transform="translate(498.81 404.66) rotate(180)"/>
          <rect class="cls-9" x="227.17" y="195.7" width="10.41" height="13.26" rx="1.88" ry="1.88" transform="translate(464.75 404.66) rotate(180)"/>
          <rect class="cls-9" x="210.14" y="195.7" width="10.41" height="13.26" rx="1.88" ry="1.88" transform="translate(430.69 404.66) rotate(180)"/>
          <rect class="cls-9" x="193.11" y="195.7" width="10.41" height="13.26" rx="1.88" ry="1.88" transform="translate(396.63 404.66) rotate(180)"/>
          <rect class="cls-9" x="176.08" y="195.7" width="10.41" height="13.26" rx="1.88" ry="1.88" transform="translate(362.57 404.66) rotate(180)"/>
          <rect class="cls-9" x="159.05" y="195.7" width="10.41" height="13.26" rx="1.88" ry="1.88" transform="translate(328.51 404.66) rotate(180)"/>
        </g>
      </g>
    </g>
  </g>
</svg>