<?xml version="1.0" encoding="UTF-8"?>
<svg id="Layer_2" data-name="Layer 2" xmlns="http://www.w3.org/2000/svg" viewBox="0 0 130.49 144.17">
  <defs>
    <style>
      .cls-1 {
        fill: none;
        stroke: #ffc7a9;
        stroke-miterlimit: 10;
        stroke-width: 1.23px;
      }

      .cls-2 {
        fill: #ffc7a9;
      }

      .cls-2, .cls-3, .cls-4, .cls-5, .cls-6, .cls-7, .cls-8, .cls-9 {
        stroke-width: 0px;
      }

      .cls-3 {
        fill: #ffa200;
      }

      .cls-4 {
        fill: #f8ad8d;
      }

      .cls-5 {
        fill: #fff;
      }

      .cls-6 {
        fill: #ee4c1b;
      }

      .cls-7 {
        fill: #80291c;
      }

      .cls-8 {
        fill: #b02214;
      }

      .cls-9 {
        fill: #7f8d36;
      }
    </style>
  </defs>
  <g id="Output_copy" data-name="Output copy">
    <g>
      <path class="cls-5" d="m98.65,144.17H31.48c-17.36,0-31.48-14.12-31.48-31.48V32.24c0-1.56.12-3.14.36-4.7v-6.63C.36,9.38,9.74,0,21.26,0h88.32c11.53,0,20.9,9.38,20.9,20.9v88.32c0,1.29-.12,2.59-.36,3.86-.22,17.17-14.26,31.08-31.48,31.08ZM21.26,7.72c-7.27,0-13.19,5.91-13.19,13.19v7.24l-.05.31c-.2,1.26-.31,2.54-.31,3.79v80.45c0,13.1,10.66,23.76,23.76,23.76h67.17c13.1,0,23.76-10.65,23.76-23.75v-.4l.08-.39c.18-.88.28-1.78.28-2.68V20.9c0-7.27-5.91-13.19-13.19-13.19H21.26Z"/>
      <g>
        <rect class="cls-7" x="7.49" y="8.78" width="114.85" height="127.31" rx="21.07" ry="21.07"/>
        <g>
          <rect class="cls-8" x="7.82" y="8.08" width="114.85" height="114.85" rx="13" ry="13"/>
          <path class="cls-1" d="m122.67,106.93c0,8.8-7.2,15.99-15.99,15.99H23.81c-8.8,0-15.99-7.2-15.99-15.99"/>
          <g>
            <path class="cls-6" d="m115.15,26.83v77.38c0,1.1-.17,2.15-.48,3.15-.69,2.2-2.07,4.11-3.9,5.45-1.77,1.3-3.94,2.07-6.29,2.07H27.1c-1.97,0-3.82-.54-5.41-1.48-1.98-1.17-3.56-2.97-4.45-5.12-.52-1.25-.81-2.63-.81-4.07V26.83c0-2.31.75-4.45,2.01-6.2,1.25-1.74,3-3.09,5.05-3.83,1.13-.41,2.35-.64,3.61-.64h77.38c1.45,0,2.83.29,4.09.83,1.95.81,3.61,2.19,4.77,3.93,1.14,1.69,1.8,3.73,1.8,5.91Z"/>
            <g>
              <path class="cls-3" d="m68.75,16.16v.1s-1.02,8.31-1.02,8.31c-.34,3.44-2.88,3.44-3.22,0l-.95-8.31v-.1s5.19,0,5.19,0Z"/>
              <path class="cls-6" d="m113.34,20.92c-1.16-1.74-2.82-3.12-4.77-3.93"/>
              <path class="cls-3" d="m113.34,20.92l-4.08,3.34-6.03,4.58c-2.67,2.2-4.47.4-2.28-2.28l4.64-5.96,2.97-3.62c1.95.81,3.61,2.19,4.77,3.93Z"/>
              <path class="cls-3" d="m115.15,60.89v5.48l-1.53-.15-8.38-1.02c-3.44-.34-3.44-2.88,0-3.22l8.38-.94,1.53-.15Z"/>
              <path class="cls-3" d="m114.67,107.36c-.69,2.2-2.07,4.11-3.9,5.45l-4.97-6.05-4.62-6.04c-2.2-2.67-.4-4.47,2.27-2.28l6.01,4.65,5.2,4.27Z"/>
              <path class="cls-3" d="m69.3,114.87h-5.73l.28-2.81.97-8.31c.34-3.44,2.88-3.44,3.22,0l.99,8.31.28,2.81Z"/>
              <path class="cls-3" d="m31.58,100.93l-4.6,6.02-5.28,6.44c-1.98-1.17-3.56-2.97-4.45-5.12l6.07-4.98,5.99-4.64c2.67-2.19,4.47-.4,2.27,2.28Z"/>
              <path class="cls-3" d="m27.88,65.5l-8.38,1-3.06.3v-5.78l3.06.3,8.38.96c3.44.34,3.44,2.88,0,3.22Z"/>
              <path class="cls-3" d="m29.09,29.05l-5.97-4.59-4.67-3.84c1.25-1.74,3-3.09,5.05-3.83l3.29,4,4.59,5.98c2.2,2.67.4,4.47-2.27,2.27Z"/>
            </g>
          </g>
          <path class="cls-2" d="m75.09,86.58c-4.13,10.88-14.46,10.88-18.59,0,0,0-8.23-21.68-8.23-21.68-2.47-6.5-4.94-13.01-7.41-19.51-1.88-4.94-2.84-10.58-1.71-15.81.81-3.74,2.9-7.32,6.16-9.33,3.08-1.89,6.11-1.52,9.52-1.52,3.66,0,7.31,0,10.97,0h16.47c8.26,0,13.43,13.6,9.3,24.48l-8.23,21.68-8.23,21.68Z"/>
          <path class="cls-4" d="m75.88,38.43c-1.39-3.3-5.15-4.1-8.38-4.18-3.22-.08-7.34-.19-9.8,2.25-.56.55-.98,1.21-1.29,1.93-1.24,2.95-.91,6.45-.46,9.53.72,5.03,2.61,9.78,3.8,14.7,0,0,3.17,13.16,3.17,13.16.3,1.23.71,2.48,1.43,3.53.43.62,1.33,1.66,2.18,1.26,1.72-.81,2.42-3.1,2.83-4.79,0,0,3.17-13.15,3.17-13.16,1.19-4.92,3.08-9.68,3.8-14.7.44-3.09.77-6.58-.46-9.53Z"/>
        </g>
        <g>
          <polygon class="cls-9" points="65.9 8.08 68.98 13.4 72.05 18.72 65.9 18.72 59.75 18.72 62.83 13.4 65.9 8.08"/>
          <polygon class="cls-9" points="77.52 8.61 77.52 18.72 67.41 18.72 77.52 8.61"/>
          <polygon class="cls-9" points="54.06 8.61 54.06 18.72 64.18 18.72 54.06 8.61"/>
        </g>
      </g>
    </g>
  </g>
</svg>