<?xml version="1.0" encoding="UTF-8"?>
<svg id="Layer_2" data-name="Layer 2" xmlns="http://www.w3.org/2000/svg" xmlns:xlink="http://www.w3.org/1999/xlink" viewBox="0 0 2046 186">
  <defs>
    <style>
      .cls-1 {
        opacity: .65;
      }

      .cls-2 {
        fill: none;
      }

      .cls-2, .cls-3, .cls-4, .cls-5 {
        stroke-width: 0px;
      }

      .cls-3 {
        fill: #f26200;
        filter: url(#drop-shadow-1);
      }

      .cls-6 {
        clip-path: url(#clippath);
      }

      .cls-4 {
        fill: #d25600;
      }

      .cls-5 {
        fill: #e96000;
      }
    </style>
    <filter id="drop-shadow-1" filterUnits="userSpaceOnUse">
      <feOffset dx="0" dy="0"/>
      <feGaussianBlur result="blur" stdDeviation="3.65"/>
      <feFlood flood-color="#000" flood-opacity=".5"/>
      <feComposite in2="blur" operator="in"/>
      <feComposite in="SourceGraphic"/>
    </filter>
    <clipPath id="clippath">
      <rect class="cls-2" x="11.59" y="10.95" width="2022.71" height="164"/>
    </clipPath>
  </defs>
  <g id="Output_copy_2" data-name="Output copy 2">
    <g>
      <rect class="cls-3" x="11.59" y="10.95" width="2022.71" height="164"/>
      <g class="cls-6">
        <g>
          <g class="cls-1">
            <g>
              <g>
                <polygon class="cls-4" points="134.98 134.95 134.98 134.92 54.28 63.96 -26.39 134.92 134.98 134.95"/>
                <polygon class="cls-5" points="11.43 121.15 97.18 121.16 54.28 83.44 11.43 121.15"/>
              </g>
              <g>
                <polygon class="cls-4" points="-107.39 40.61 -107.39 40.64 -26.39 111.87 54.58 40.64 -107.39 40.61"/>
                <polygon class="cls-5" points="16.63 54.46 -69.44 54.45 -26.39 92.31 16.63 54.46"/>
              </g>
              <g>
                <polygon class="cls-4" points="296.38 134.95 296.38 134.92 215.67 63.96 135 134.92 296.38 134.95"/>
                <polygon class="cls-5" points="172.82 121.15 258.57 121.16 215.68 83.44 172.82 121.15"/>
              </g>
              <g>
                <polygon class="cls-4" points="54 40.61 54 40.64 135 111.87 215.98 40.64 54 40.61"/>
                <polygon class="cls-5" points="178.02 54.46 91.95 54.45 135 92.31 178.02 54.46"/>
              </g>
              <g>
                <polygon class="cls-4" points="457.78 134.95 457.78 134.92 377.07 63.96 296.4 134.92 457.78 134.95"/>
                <polygon class="cls-5" points="334.22 121.15 419.97 121.16 377.08 83.44 334.22 121.15"/>
              </g>
              <g>
                <polygon class="cls-4" points="215.4 40.61 215.4 40.64 296.4 111.87 377.38 40.64 215.4 40.61"/>
                <polygon class="cls-5" points="339.42 54.46 253.35 54.45 296.4 92.31 339.42 54.46"/>
              </g>
              <g>
                <polygon class="cls-4" points="619.17 134.95 619.17 134.92 538.47 63.96 457.8 134.92 619.17 134.95"/>
                <polygon class="cls-5" points="495.61 121.15 581.36 121.16 538.47 83.44 495.61 121.15"/>
              </g>
              <g>
                <polygon class="cls-4" points="376.79 40.61 376.79 40.64 457.79 111.87 538.77 40.64 376.79 40.61"/>
                <polygon class="cls-5" points="500.81 54.46 414.74 54.45 457.79 92.31 500.81 54.46"/>
              </g>
            </g>
            <g>
              <g>
                <polygon class="cls-4" points="780.56 134.95 780.56 134.92 699.86 63.96 619.19 134.92 780.56 134.95"/>
                <polygon class="cls-5" points="657 121.15 742.75 121.16 699.86 83.44 657 121.15"/>
              </g>
              <g>
                <polygon class="cls-4" points="538.18 40.61 538.18 40.64 619.19 111.87 700.16 40.64 538.18 40.61"/>
                <polygon class="cls-5" points="662.2 54.46 576.13 54.45 619.19 92.31 662.2 54.46"/>
              </g>
              <g>
                <polygon class="cls-4" points="941.95 134.95 941.95 134.92 861.25 63.96 780.58 134.92 941.95 134.95"/>
                <polygon class="cls-5" points="818.39 121.15 904.14 121.16 861.25 83.44 818.39 121.15"/>
              </g>
              <g>
                <polygon class="cls-4" points="699.57 40.61 699.57 40.64 780.58 111.87 861.55 40.64 699.57 40.61"/>
                <polygon class="cls-5" points="823.6 54.46 737.52 54.45 780.58 92.31 823.6 54.46"/>
              </g>
              <g>
                <polygon class="cls-4" points="1103.35 134.95 1103.35 134.92 1022.65 63.96 941.98 134.92 1103.35 134.95"/>
                <polygon class="cls-5" points="979.79 121.15 1065.54 121.16 1022.65 83.44 979.79 121.15"/>
              </g>
              <g>
                <polygon class="cls-4" points="860.97 40.61 860.97 40.64 941.98 111.87 1022.95 40.64 860.97 40.61"/>
                <polygon class="cls-5" points="985 54.46 898.92 54.45 941.98 92.31 985 54.46"/>
              </g>
              <g>
                <polygon class="cls-4" points="1264.74 134.95 1264.74 134.92 1184.04 63.96 1103.37 134.92 1264.74 134.95"/>
                <polygon class="cls-5" points="1141.19 121.15 1226.94 121.16 1184.04 83.44 1141.19 121.15"/>
              </g>
              <g>
                <polygon class="cls-4" points="1022.37 40.61 1022.37 40.64 1103.37 111.87 1184.34 40.64 1022.37 40.61"/>
                <polygon class="cls-5" points="1146.39 54.46 1060.32 54.45 1103.37 92.31 1146.39 54.46"/>
              </g>
            </g>
          </g>
          <g class="cls-1">
            <g>
              <g>
                <polygon class="cls-4" points="1426.14 134.95 1426.14 134.92 1345.43 63.96 1264.76 134.92 1426.14 134.95"/>
                <polygon class="cls-5" points="1302.58 121.15 1388.33 121.16 1345.44 83.44 1302.58 121.15"/>
              </g>
              <g>
                <polygon class="cls-4" points="1183.76 40.61 1183.76 40.64 1264.76 111.87 1345.73 40.64 1183.76 40.61"/>
                <polygon class="cls-5" points="1307.78 54.46 1221.71 54.45 1264.76 92.31 1307.78 54.46"/>
              </g>
              <g>
                <polygon class="cls-4" points="1587.53 134.95 1587.53 134.92 1506.83 63.96 1426.16 134.92 1587.53 134.95"/>
                <polygon class="cls-5" points="1463.97 121.15 1549.72 121.16 1506.83 83.44 1463.97 121.15"/>
              </g>
              <g>
                <polygon class="cls-4" points="1345.15 40.61 1345.15 40.64 1426.15 111.87 1507.13 40.64 1345.15 40.61"/>
                <polygon class="cls-5" points="1469.17 54.46 1383.1 54.45 1426.15 92.31 1469.17 54.46"/>
              </g>
              <g>
                <polygon class="cls-4" points="1748.93 134.95 1748.93 134.92 1668.23 63.96 1587.56 134.92 1748.93 134.95"/>
                <polygon class="cls-5" points="1625.37 121.15 1711.12 121.16 1668.23 83.44 1625.37 121.15"/>
              </g>
              <g>
                <polygon class="cls-4" points="1506.55 40.61 1506.55 40.64 1587.55 111.87 1668.53 40.64 1506.55 40.61"/>
                <polygon class="cls-5" points="1630.57 54.46 1544.5 54.45 1587.55 92.31 1630.57 54.46"/>
              </g>
            </g>
          </g>
          <g class="cls-1">
            <g>
              <g>
                <polygon class="cls-4" points="1910.9 134.95 1910.9 134.92 1830.2 63.96 1749.53 134.92 1910.9 134.95"/>
                <polygon class="cls-5" points="1787.35 121.15 1873.1 121.16 1830.2 83.44 1787.35 121.15"/>
              </g>
              <g>
                <polygon class="cls-4" points="1668.53 40.61 1668.53 40.64 1749.53 111.87 1830.5 40.64 1668.53 40.61"/>
                <polygon class="cls-5" points="1792.55 54.46 1706.48 54.45 1749.53 92.31 1792.55 54.46"/>
              </g>
              <g>
                <polygon class="cls-4" points="2072.3 134.95 2072.3 134.92 1991.6 63.96 1910.93 134.92 2072.3 134.95"/>
                <polygon class="cls-5" points="1948.74 121.15 2034.49 121.16 1991.6 83.44 1948.74 121.15"/>
              </g>
              <g>
                <polygon class="cls-4" points="1829.92 40.61 1829.92 40.64 1910.92 111.87 1991.9 40.64 1829.92 40.61"/>
                <polygon class="cls-5" points="1953.94 54.46 1867.87 54.45 1910.92 92.31 1953.94 54.46"/>
              </g>
              <g>
                <polygon class="cls-4" points="1991.32 40.61 1991.32 40.64 2072.32 111.87 2153.3 40.64 1991.32 40.61"/>
                <polygon class="cls-5" points="2115.34 54.46 2029.27 54.45 2072.32 92.31 2115.34 54.46"/>
              </g>
            </g>
          </g>
        </g>
      </g>
    </g>
  </g>
</svg>