<?xml version="1.0" encoding="UTF-8"?>
<svg id="Layer_2" data-name="Layer 2" xmlns="http://www.w3.org/2000/svg" viewBox="0 0 2421.5 94.34">
  <defs>
    <style>
      .cls-1 {
        opacity: .65;
      }

      .cls-2 {
        fill: #d25600;
      }

      .cls-2, .cls-3 {
        stroke-width: 0px;
      }

      .cls-3 {
        fill: #e96000;
      }
    </style>
  </defs>
  <g id="Output_copy" data-name="Output copy">
    <g>
      <g class="cls-1">
        <g>
          <g>
            <polygon class="cls-2" points="80.69 23.36 161.4 94.33 0 94.31 80.69 23.36"/>
            <polygon class="cls-3" points="37.83 80.54 123.56 80.55 80.69 42.85 37.83 80.54"/>
            <g>
              <polygon class="cls-2" points="322.78 94.34 322.78 94.31 242.08 23.35 161.41 94.31 322.78 94.34"/>
              <polygon class="cls-3" points="199.23 80.54 284.98 80.55 242.08 42.84 199.23 80.54"/>
            </g>
          </g>
          <g>
            <polygon class="cls-2" points="80.41 0 80.41 .03 161.41 71.26 242.38 .03 80.41 0"/>
            <polygon class="cls-3" points="204.43 13.85 118.36 13.84 161.41 51.7 204.43 13.85"/>
          </g>
          <g>
            <polygon class="cls-2" points="484.18 94.34 484.18 94.31 403.48 23.35 322.81 94.31 484.18 94.34"/>
            <polygon class="cls-3" points="360.62 80.54 446.37 80.55 403.48 42.84 360.62 80.54"/>
          </g>
          <g>
            <polygon class="cls-2" points="241.8 0 241.8 .03 322.8 71.26 403.78 .03 241.8 0"/>
            <polygon class="cls-3" points="365.82 13.85 279.75 13.84 322.8 51.7 365.82 13.85"/>
          </g>
          <g>
            <polygon class="cls-2" points="645.58 94.34 645.58 94.31 564.87 23.35 484.2 94.31 645.58 94.34"/>
            <polygon class="cls-3" points="522.02 80.54 607.77 80.55 564.88 42.84 522.02 80.54"/>
          </g>
          <g>
            <polygon class="cls-2" points="403.2 0 403.2 .03 484.2 71.26 565.18 .03 403.2 0"/>
            <polygon class="cls-3" points="527.22 13.85 441.15 13.84 484.2 51.7 527.22 13.85"/>
          </g>
          <g>
            <polygon class="cls-2" points="806.97 94.34 806.97 94.31 726.27 23.35 645.6 94.31 806.97 94.34"/>
            <polygon class="cls-3" points="683.41 80.54 769.16 80.55 726.27 42.84 683.41 80.54"/>
          </g>
          <g>
            <polygon class="cls-2" points="564.59 0 564.59 .03 645.6 71.26 726.57 .03 564.59 0"/>
            <polygon class="cls-3" points="688.61 13.85 602.54 13.84 645.59 51.7 688.61 13.85"/>
          </g>
        </g>
        <g>
          <g>
            <polygon class="cls-2" points="968.36 94.34 968.36 94.31 887.66 23.35 806.99 94.31 968.36 94.34"/>
            <polygon class="cls-3" points="844.8 80.54 930.55 80.55 887.66 42.84 844.8 80.54"/>
          </g>
          <g>
            <polygon class="cls-2" points="725.98 0 725.98 .03 806.99 71.26 887.96 .03 725.98 0"/>
            <polygon class="cls-3" points="850 13.85 763.93 13.84 806.99 51.7 850 13.85"/>
          </g>
          <g>
            <polygon class="cls-2" points="1129.75 94.34 1129.75 94.31 1049.05 23.35 968.38 94.31 1129.75 94.34"/>
            <polygon class="cls-3" points="1006.2 80.54 1091.95 80.55 1049.05 42.84 1006.2 80.54"/>
          </g>
          <g>
            <polygon class="cls-2" points="887.37 0 887.37 .03 968.38 71.26 1049.35 .03 887.37 0"/>
            <polygon class="cls-3" points="1011.4 13.85 925.32 13.84 968.38 51.7 1011.4 13.85"/>
          </g>
          <g>
            <polygon class="cls-2" points="1291.15 94.34 1291.15 94.31 1210.45 23.35 1129.78 94.31 1291.15 94.34"/>
            <polygon class="cls-3" points="1167.59 80.54 1253.34 80.55 1210.45 42.84 1167.59 80.54"/>
          </g>
          <g>
            <polygon class="cls-2" points="1048.77 0 1048.77 .03 1129.78 71.26 1210.75 .03 1048.77 0"/>
            <polygon class="cls-3" points="1172.8 13.85 1086.72 13.84 1129.78 51.7 1172.8 13.85"/>
          </g>
          <g>
            <polygon class="cls-2" points="1452.54 94.34 1452.54 94.31 1371.84 23.35 1291.17 94.31 1452.54 94.34"/>
            <polygon class="cls-3" points="1328.99 80.54 1414.74 80.55 1371.84 42.84 1328.99 80.54"/>
          </g>
          <g>
            <polygon class="cls-2" points="1210.17 0 1210.17 .03 1291.17 71.26 1372.14 .03 1210.17 0"/>
            <polygon class="cls-3" points="1334.19 13.85 1248.12 13.84 1291.17 51.7 1334.19 13.85"/>
          </g>
        </g>
      </g>
      <g class="cls-1">
        <g>
          <g>
            <polygon class="cls-2" points="1613.94 94.34 1613.94 94.31 1533.23 23.35 1452.56 94.31 1613.94 94.34"/>
            <polygon class="cls-3" points="1490.38 80.54 1576.13 80.55 1533.24 42.84 1490.38 80.54"/>
          </g>
          <g>
            <polygon class="cls-2" points="1371.56 0 1371.56 .03 1452.56 71.26 1533.54 .03 1371.56 0"/>
            <polygon class="cls-3" points="1495.58 13.85 1409.51 13.84 1452.56 51.7 1495.58 13.85"/>
          </g>
          <g>
            <polygon class="cls-2" points="1775.33 94.34 1775.33 94.31 1694.63 23.35 1613.96 94.31 1775.33 94.34"/>
            <polygon class="cls-3" points="1651.77 80.54 1737.52 80.55 1694.63 42.84 1651.77 80.54"/>
          </g>
          <g>
            <polygon class="cls-2" points="1532.95 0 1532.95 .03 1613.95 71.26 1694.93 .03 1532.95 0"/>
            <polygon class="cls-3" points="1656.97 13.85 1570.9 13.84 1613.95 51.7 1656.97 13.85"/>
          </g>
          <g>
            <polygon class="cls-2" points="1936.73 94.34 1936.73 94.31 1856.03 23.35 1775.36 94.31 1936.73 94.34"/>
            <polygon class="cls-3" points="1813.17 80.54 1898.92 80.55 1856.03 42.84 1813.17 80.54"/>
          </g>
          <g>
            <polygon class="cls-2" points="1694.35 0 1694.35 .03 1775.35 71.26 1856.33 .03 1694.35 0"/>
            <polygon class="cls-3" points="1818.37 13.85 1732.3 13.84 1775.35 51.7 1818.37 13.85"/>
          </g>
        </g>
      </g>
      <g class="cls-1">
        <g>
          <g>
            <polygon class="cls-2" points="2098.71 94.34 2098.71 94.31 2018 23.35 1937.33 94.31 2098.71 94.34"/>
            <polygon class="cls-3" points="1975.15 80.54 2060.9 80.55 2018 42.84 1975.15 80.54"/>
          </g>
          <g>
            <polygon class="cls-2" points="1856.33 0 1856.33 .03 1937.33 71.26 2018.3 .03 1856.33 0"/>
            <polygon class="cls-3" points="1980.35 13.85 1894.28 13.84 1937.33 51.7 1980.35 13.85"/>
          </g>
          <g>
            <polygon class="cls-2" points="2260.1 94.34 2260.1 94.31 2179.4 23.35 2098.73 94.31 2260.1 94.34"/>
            <polygon class="cls-3" points="2136.54 80.54 2222.29 80.55 2179.4 42.84 2136.54 80.54"/>
          </g>
          <g>
            <polygon class="cls-2" points="2017.72 0 2017.72 .03 2098.72 71.26 2179.7 .03 2017.72 0"/>
            <polygon class="cls-3" points="2141.74 13.85 2055.67 13.84 2098.72 51.7 2141.74 13.85"/>
          </g>
          <g>
            <polygon class="cls-2" points="2421.5 94.34 2421.5 94.31 2340.8 23.35 2260.13 94.31 2421.5 94.34"/>
            <polygon class="cls-3" points="2297.94 80.54 2383.69 80.55 2340.8 42.84 2297.94 80.54"/>
          </g>
          <g>
            <polygon class="cls-2" points="2179.12 0 2179.12 .03 2260.12 71.26 2341.1 .03 2179.12 0"/>
            <polygon class="cls-3" points="2303.14 13.85 2217.07 13.84 2260.12 51.7 2303.14 13.85"/>
          </g>
        </g>
      </g>
    </g>
  </g>
</svg>